#N canvas 522 72 1382 861 10;
#X obj 945 197 dac~;
#X obj 822 212 tgl 15 0 empty empty empty 17 7 0 10 -262144 -1 -1 0
1;
#X obj 232 49 r go;
#X obj 232 77 metro 100;
#X obj 1139 96 vsl 15 128 0 1 0 0 empty empty empty 0 -9 0 10 -262144
-1 -1 3200 1;
#X obj 395 100 send tempo;
#X floatatom 395 77 5 0 0 0 - - -;
#X obj 283 49 r tempo;
#X obj 232 103 s general_metro;
#X obj 600 154 tgl 40 0 go empty Play 0 -7 0 10 -4034 -1 -1 0 1;
#X obj 647 154 tgl 40 0 prog empty Program 0 -7 0 10 -4032 -1 -1 1
1;
#X msg 427 56 1000;
#X msg 464 56 500;
#X obj 548 27 keyname;
#X obj 576 93 sel 1;
#X obj 576 75 tgl 15 1 empty empty empty 17 7 0 10 -262144 -1 -1 0
1;
#X obj 946 168 *~ 0;
#X obj 587 47 sel F1 F3;
#X obj 623 93 sel 1;
#X obj 623 75 tgl 15 1 empty empty empty 17 7 0 10 -262144 -1 -1 0
1;
#X msg 395 56 200;
#X obj 980 471 kick3 kick;
#X obj 897 493 kick2 kick;
#X obj 875 473 kick kick;
#X obj 738 449 snare snare;
#X obj 710 473 snare snare;
#X obj 775 427 snare snare;
#X obj 596 479 tsh tsh;
#X obj 543 481 tsh tsh;
#X obj 210 610 wobass wobass hey;
#X obj 135 353 hsl 400 15 0 10000 0 0 hey empty hey -2 -8 0 10 -262144
-1 -1 23400 1;
#X floatatom 132 370 5 0 0 0 - hey -;
#X obj 171 631 wobass wobass hey;
#X obj 203 653 wobass wobass hey;
#X obj 49 622 noise3 noise3 hey2;
#X obj 89 321 hsl 400 15 0 10000 0 0 hey2 empty hey2 -2 -8 0 10 -262144
-1 -1 20000 1;
#X floatatom 86 338 5 0 0 0 - hey2 -;
#X text 133 389 5137;
#X text 86 354 1879;
#X obj 836 115 sel 1;
#X obj 836 92 r lieu_noise3;
#X msg 186 440 0;
#X obj 222 463 s to_all;
#X obj 721 760 *~ 1;
#X obj 205 720 *~ 1;
#X obj 53 288 hsl 400 15 0 10000 0 0 hey3 empty hey3 -2 -8 0 10 -262144
-1 -1 18300 1;
#X floatatom 50 305 5 0 0 0 - hey3 -;
#X obj 383 711 *~ 1;
#X obj 382 614 noise4 noise4 hey3;
#X msg 222 440 read 2;
#X obj 414 657 noise4 noise4 hey3;
#X obj 395 636 noise4 noise4 hey3;
#X msg 16 497 0;
#X msg 158 534 0;
#X msg 376 520 0;
#X msg 570 397 0;
#X msg 720 362 0;
#X msg 892 351 0;
#X obj 395 552 pattern noise4;
#X obj 33 647 noise3 noise3 hey2;
#X obj 8 673 noise3 noise3 hey2;
#X msg 281 437 2;
#N canvas 883 449 611 493 solosc 0;
#X obj 167 458 outlet~;
#X obj 162 26 hsl 128 15 0 127 0 0 empty empty empty -2 -8 0 10 -262144
-1 -1 0 1;
#X obj 179 57 mtof;
#X obj 323 7 r lieu_wobass;
#X obj 323 30 + 1;
#X obj 323 50 mod 4;
#X obj 323 70 sel 0;
#X obj 164 87 f;
#X obj 164 132 line~;
#X obj 323 92 spigot;
#X obj 323 113 t b b;
#X msg 377 75 0;
#X msg 415 75 1;
#X obj 414 16 keyname;
#X obj 453 56 tgl 15 0 empty empty empty 17 7 0 10 -262144 -1 -1 0
1;
#X obj 453 75 sel 1;
#X obj 453 36 sel F8;
#N canvas 326 579 837 300 oscs 0;
#X obj 213 50 inlet~;
#X obj 213 248 outlet~;
#X obj 107 138 osc~;
#X obj 107 98 *~ 0.5;
#X obj 219 137 osc~;
#X obj 327 137 osc~;
#X obj 437 138 osc~;
#X obj 546 138 osc~;
#X obj 546 117 littlevar~ 0.01 1;
#X obj 437 117 littlevar~ 0.01 1;
#X obj 327 116 littlevar~ 0.01 1;
#X obj 219 116 littlevar~ 0.01 1;
#X obj 107 117 littlevar~ 0.01 1;
#X obj 219 97 *~ 1;
#X obj 327 97 *~ 2;
#X obj 437 98 *~ 3;
#X obj 546 98 *~ 4;
#X connect 0 0 3 0;
#X connect 0 0 13 0;
#X connect 0 0 14 0;
#X connect 0 0 15 0;
#X connect 0 0 16 0;
#X connect 3 0 12 0;
#X connect 4 0 1 0;
#X connect 8 0 7 0;
#X connect 9 0 6 0;
#X connect 10 0 5 0;
#X connect 11 0 4 0;
#X connect 12 0 2 0;
#X connect 13 0 11 0;
#X connect 14 0 10 0;
#X connect 15 0 9 0;
#X connect 16 0 8 0;
#X restore 164 158 pd oscs;
#X msg 164 110 \$1 400;
#X floatatom 124 53 5 0 0 0 - - -;
#X obj 168 321 ceff~;
#X obj 238 311 hsl 128 15 0 1 0 0 empty empty empty -2 -8 0 10 -262144
-1 -1 0 1;
#X obj 166 430 *~;
#X obj 208 414 lop~ 1;
#X obj 205 393 tgl 15 0 empty empty empty 17 7 0 10 -262144 -1 -1 0
5;
#N canvas 326 579 837 300 oscs 0;
#X obj 213 50 inlet~;
#X obj 213 248 outlet~;
#X obj 107 138 osc~;
#X obj 219 137 osc~;
#X obj 327 137 osc~;
#X obj 437 138 osc~;
#X obj 546 138 osc~;
#X obj 546 117 littlevar~ 0.01 1;
#X obj 437 117 littlevar~ 0.01 1;
#X obj 327 116 littlevar~ 0.01 1;
#X obj 219 116 littlevar~ 0.01 1;
#X obj 107 117 littlevar~ 0.01 1;
#X obj 219 97 *~ 1;
#X obj 107 98 *~ 1;
#X obj 327 97 *~ 1;
#X obj 437 98 *~ 1;
#X obj 546 98 *~ 1;
#X connect 0 0 12 0;
#X connect 0 0 13 0;
#X connect 0 0 14 0;
#X connect 0 0 15 0;
#X connect 0 0 16 0;
#X connect 2 0 1 0;
#X connect 3 0 1 0;
#X connect 4 0 1 0;
#X connect 5 0 1 0;
#X connect 6 0 1 0;
#X connect 7 0 6 0;
#X connect 8 0 5 0;
#X connect 9 0 4 0;
#X connect 10 0 3 0;
#X connect 11 0 2 0;
#X connect 12 0 10 0;
#X connect 13 0 11 0;
#X connect 14 0 9 0;
#X connect 15 0 8 0;
#X connect 16 0 7 0;
#X restore 161 282 pd oscs;
#X obj 162 204 +~ 1;
#X obj 163 181 *~ 0.2;
#X obj 162 248 +~;
#X obj 162 227 *~ 1;
#X obj 246 219 osc~ 5;
#X obj 249 256 clip~ 0 1;
#X obj 169 367 *~;
#X floatatom 253 183 5 0 0 0 - - -;
#X floatatom 89 109 5 0 0 0 - - -;
#X connect 1 0 2 0;
#X connect 1 0 19 0;
#X connect 2 0 34 0;
#X connect 2 0 7 0;
#X connect 3 0 4 0;
#X connect 4 0 5 0;
#X connect 5 0 6 0;
#X connect 6 0 9 0;
#X connect 7 0 18 0;
#X connect 8 0 17 0;
#X connect 8 0 28 1;
#X connect 9 0 10 0;
#X connect 10 0 7 0;
#X connect 10 1 11 0;
#X connect 11 0 9 1;
#X connect 12 0 9 1;
#X connect 13 1 16 0;
#X connect 14 0 15 0;
#X connect 15 0 12 0;
#X connect 16 0 14 0;
#X connect 17 0 27 0;
#X connect 18 0 8 0;
#X connect 20 0 32 0;
#X connect 21 0 20 1;
#X connect 22 0 0 0;
#X connect 23 0 22 1;
#X connect 24 0 23 0;
#X connect 25 0 20 0;
#X connect 26 0 29 0;
#X connect 27 0 26 0;
#X connect 28 0 25 0;
#X connect 29 0 28 0;
#X connect 30 0 31 0;
#X connect 31 0 32 1;
#X connect 32 0 22 0;
#X connect 33 0 30 0;
#X restore 1120 640 pd solosc;
#X obj 582 435 pattern tsh;
#X obj 161 567 pattern wobass;
#X obj 35 566 pattern noise3;
#X obj 905 384 pattern kick;
#X obj 729 395 pattern snare;
#X obj 1158 568 gate 2;
#X msg 1158 543 1;
#X obj 1189 543 delay 300;
#X msg 1130 543 2;
#X obj 1164 473 t b b;
#X text 1206 503 TFC;
#X obj 224 683 hsl 128 15 0 1 0 0 empty empty empty -2 -8 0 10 -262144
-1 -1 5600 1;
#X obj 998 591 pattern solosc;
#X obj 1126 674 *~ 0.2;
#X obj 959 647 wobass solosc hey4;
#X obj 14 254 hsl 400 15 0 10000 0 0 hey4 empty hey4 -2 -8 0 10 -262144
-1 -1 17000 1;
#X floatatom 11 271 5 0 0 0 - hey4 -;
#X obj 990 668 wobass solosc hey4;
#X obj 1004 689 wobass solosc hey4;
#X obj 876 593 *~ 2;
#X obj 737 555 *~ 2;
#X obj 606 541 *~ 1.5;
#X obj 725 627 panizer_mono;
#X obj 987 166 *~ 0;
#X obj 722 790 throw~ drumsL;
#X obj 808 790 throw~ drumsR;
#X obj 846 36 catch~ drumsL;
#X obj 1058 34 catch~ drumsR;
#X obj 833 252 rec2 DnB;
#X obj 229 813 throw~ jazzL;
#X obj 310 813 throw~ jazzR;
#X obj 820 18 catch~ jazzL;
#X obj 1057 13 catch~ jazzR;
#X obj 1040 77 catch~ soloscR;
#X obj 937 70 catch~ soloscL;
#X obj 940 777 throw~ soloscL;
#X obj 1032 776 throw~ soloscR;
#X obj 810 759 *~ 1;
#X obj 830 630 panizer_mono;
#X obj 617 640 panizer_mono;
#X obj 318 746 panizer_mono;
#X obj 192 754 panizer_mono;
#X obj 61 771 panizer_mono;
#X obj 970 730 panizer_mono;
#X msg 924 351 1 2 3 4;
#X msg 752 362 1 2 1 2 3 3;
#X msg 602 397 2 1 2 3;
#X msg 49 513 1 1 2 2 4 4 3 3;
#X obj 59 739 *~ 0.5;
#X msg 408 520 1;
#X msg 851 557 once 2 0 3 0 1 0 1 4 5 5 6 7 8 6 7 8 3 4 0;
#X msg 77 488 4;
#X msg 1009 524 4;
#X msg 190 534 1;
#X connect 1 0 91 0;
#X connect 2 0 3 0;
#X connect 3 0 8 0;
#X connect 4 0 16 1;
#X connect 4 0 86 1;
#X connect 6 0 5 0;
#X connect 7 0 3 1;
#X connect 11 0 6 0;
#X connect 12 0 6 0;
#X connect 13 1 17 0;
#X connect 14 0 9 0;
#X connect 15 0 14 0;
#X connect 16 0 0 0;
#X connect 16 0 91 1;
#X connect 17 0 15 0;
#X connect 17 1 19 0;
#X connect 18 0 10 0;
#X connect 19 0 18 0;
#X connect 20 0 6 0;
#X connect 21 0 82 0;
#X connect 22 0 82 0;
#X connect 23 0 82 0;
#X connect 24 0 83 0;
#X connect 25 0 83 0;
#X connect 26 0 83 0;
#X connect 27 0 84 0;
#X connect 28 0 84 0;
#X connect 29 0 44 0;
#X connect 32 0 44 0;
#X connect 33 0 44 0;
#X connect 34 0 111 0;
#X connect 40 0 39 0;
#X connect 41 0 42 0;
#X connect 43 0 87 0;
#X connect 44 0 104 0;
#X connect 47 0 103 0;
#X connect 48 0 47 0;
#X connect 49 0 42 0;
#X connect 50 0 47 0;
#X connect 51 0 47 0;
#X connect 52 0 65 0;
#X connect 53 0 64 0;
#X connect 54 0 58 0;
#X connect 55 0 63 0;
#X connect 56 0 67 0;
#X connect 57 0 66 0;
#X connect 58 0 48 0;
#X connect 58 1 51 0;
#X connect 58 2 50 0;
#X connect 59 0 111 0;
#X connect 60 0 111 0;
#X connect 61 0 42 0;
#X connect 62 0 76 0;
#X connect 63 0 28 0;
#X connect 63 1 27 0;
#X connect 64 0 32 0;
#X connect 64 1 33 0;
#X connect 64 2 29 0;
#X connect 65 0 60 0;
#X connect 65 1 59 0;
#X connect 65 2 34 0;
#X connect 66 0 23 0;
#X connect 66 1 22 0;
#X connect 66 2 21 0;
#X connect 67 0 25 0;
#X connect 67 1 24 0;
#X connect 67 2 26 0;
#X connect 69 0 68 0;
#X connect 70 0 69 0;
#X connect 71 0 68 0;
#X connect 72 0 71 0;
#X connect 72 0 70 0;
#X connect 72 1 68 1;
#X connect 74 0 44 1;
#X connect 75 0 77 0;
#X connect 75 1 80 0;
#X connect 75 2 81 0;
#X connect 77 0 106 0;
#X connect 80 0 106 0;
#X connect 81 0 106 0;
#X connect 82 0 101 0;
#X connect 83 0 85 0;
#X connect 84 0 102 0;
#X connect 85 0 43 0;
#X connect 85 1 100 0;
#X connect 86 0 0 1;
#X connect 86 0 91 2;
#X connect 89 0 16 0;
#X connect 90 0 86 0;
#X connect 94 0 16 0;
#X connect 95 0 86 0;
#X connect 96 0 86 0;
#X connect 97 0 16 0;
#X connect 100 0 88 0;
#X connect 101 0 43 0;
#X connect 101 1 100 0;
#X connect 102 0 43 0;
#X connect 102 1 100 0;
#X connect 103 0 92 0;
#X connect 103 1 93 0;
#X connect 104 0 92 0;
#X connect 104 1 93 0;
#X connect 105 0 92 0;
#X connect 105 1 93 0;
#X connect 106 0 98 0;
#X connect 106 1 99 0;
#X connect 107 0 66 0;
#X connect 108 0 67 0;
#X connect 109 0 63 0;
#X connect 110 0 65 0;
#X connect 111 0 105 0;
#X connect 112 0 58 0;
#X connect 113 0 75 0;
#X connect 114 0 65 0;
#X connect 115 0 75 0;
#X connect 116 0 64 0;
