#N canvas 711 171 851 541 10;
#X obj 363 163 inlet~;
#X obj 363 254 *~ 1;
#X obj 101 123 vsl 20 128 0 1 0 0 empty empty empty 0 -9 0 10 -4032
-258113 -1 0 1;
#X obj 427 163 inlet~;
#X obj 427 254 *~ 1;
#X obj 122 123 vsl 20 128 0 1 0 0 empty empty empty 0 -9 0 10 -4032
-258113 -1 0 1;
#X obj 488 164 inlet~;
#X obj 488 254 *~ 1;
#X obj 143 123 vsl 20 128 0 1 0 0 empty empty empty 0 -9 0 10 -4032
-258113 -1 0 1;
#X obj 549 165 inlet~;
#X obj 549 254 *~ 1;
#X obj 164 123 vsl 20 128 0 1 0 0 empty empty empty 0 -9 0 10 -4032
-258113 -1 0 1;
#X obj 363 396 *~ 1;
#X obj 185 123 vsl 20 128 0 1 0 0 empty empty empty 0 -9 0 10 -258113
-1 -1 0 1;
#X floatatom 185 255 3 0 0 0 - - -;
#X obj 247 280 * 100;
#X floatatom 164 255 3 0 0 0 - - -;
#X obj 211 280 * 100;
#X floatatom 143 255 3 0 0 0 - - -;
#X obj 175 280 * 100;
#X floatatom 101 255 3 0 0 0 - - -;
#X obj 103 280 * 100;
#X floatatom 122 255 3 0 0 0 - - -;
#X obj 139 280 * 100;
#X obj 362 446 throw~ \$1;
#X obj 559 197 rec1 \$1_\$5;
#X obj 700 20 r rec_set_\$1;
#X obj 659 88 spigot;
#X obj 659 110 t b b;
#X msg 717 96 0;
#X obj 712 180 f;
#X obj 700 40 t b f;
#X msg 700 61 1;
#X obj 435 40 r rec_name_\$1;
#X obj 287 197 rec1 \$1_\$2;
#X obj 378 197 rec1 \$1_\$3;
#X obj 472 197 rec1 \$1_\$4;
#X obj 712 277 print REC IS;
#X obj 659 14 sel 0;
#X obj 659 -8 r lieu_\$1;
#X obj 712 210 pack f s s;
#X obj 769 188 symbol \$1;
#X obj 769 167 loadbang;
#X msg 712 245 \$1 (\$2-\$3_...);
#X text 27 385 args: 1)nom de la pattern \, 2-3-4-5)Nom des instrus
;
#X connect 0 0 1 0;
#X connect 0 0 34 1;
#X connect 1 0 12 0;
#X connect 2 0 1 1;
#X connect 2 0 21 0;
#X connect 3 0 4 0;
#X connect 3 0 35 1;
#X connect 4 0 12 0;
#X connect 5 0 4 1;
#X connect 5 0 23 0;
#X connect 6 0 7 0;
#X connect 6 0 36 1;
#X connect 7 0 12 0;
#X connect 8 0 7 1;
#X connect 8 0 19 0;
#X connect 9 0 10 0;
#X connect 9 0 25 1;
#X connect 10 0 12 0;
#X connect 11 0 10 1;
#X connect 11 0 17 0;
#X connect 12 0 24 0;
#X connect 13 0 15 0;
#X connect 13 0 12 1;
#X connect 15 0 14 0;
#X connect 17 0 16 0;
#X connect 19 0 18 0;
#X connect 21 0 20 0;
#X connect 23 0 22 0;
#X connect 26 0 31 0;
#X connect 27 0 28 0;
#X connect 28 0 30 0;
#X connect 28 1 29 0;
#X connect 29 0 27 1;
#X connect 30 0 25 0;
#X connect 30 0 34 0;
#X connect 30 0 35 0;
#X connect 30 0 36 0;
#X connect 30 0 40 0;
#X connect 31 0 32 0;
#X connect 31 1 30 1;
#X connect 32 0 27 1;
#X connect 33 0 25 2;
#X connect 33 0 34 2;
#X connect 33 0 35 2;
#X connect 33 0 36 2;
#X connect 33 0 40 1;
#X connect 38 0 27 0;
#X connect 39 0 38 0;
#X connect 40 0 43 0;
#X connect 41 0 40 2;
#X connect 42 0 41 0;
#X connect 43 0 37 0;
#X coords 0 -1 1 1 106 173 2 100 100;
