#N canvas 593 558 450 388 10;
#X obj 125 277 osc~;
#X obj 125 248 line~;
#X obj 196 18 inlet;
#X obj 247 255 line~;
#X obj 125 325 *~;
#X obj 126 151 mtof;
#X msg 125 223 \$2 \, \$3 50;
#X obj 67 149 mtof;
#X msg 205 222 0.25;
#X obj 69 193 pack f f f;
#X obj 141 25 r vsl-\$1;
#X obj 126 365 outlet~;
#X msg 274 188 1;
#X obj 304 195 r \$2;
#X obj 196 139 t b b b b;
#X obj 196 45 t b b;
#X obj 247 223 pack 0 300;
#X obj 82 82 random 10;
#X obj 82 104 - 5;
#X obj 126 47 f;
#X obj 67 126 +;
#X msg 335 158 0 2;
#X obj 196 118 delay 2;
#X connect 0 0 4 0;
#X connect 1 0 0 0;
#X connect 2 0 15 0;
#X connect 3 0 4 1;
#X connect 4 0 11 0;
#X connect 5 0 9 2;
#X connect 6 0 1 0;
#X connect 7 0 9 1;
#X connect 8 0 0 1;
#X connect 9 0 6 0;
#X connect 10 0 19 1;
#X connect 12 0 3 0;
#X connect 13 0 16 1;
#X connect 14 0 9 0;
#X connect 14 1 8 0;
#X connect 14 2 19 0;
#X connect 14 3 12 0;
#X connect 14 3 16 0;
#X connect 15 0 22 0;
#X connect 15 1 21 0;
#X connect 16 0 3 0;
#X connect 17 0 18 0;
#X connect 18 0 20 1;
#X connect 19 0 5 0;
#X connect 19 0 20 0;
#X connect 20 0 7 0;
#X connect 21 0 3 0;
#X connect 22 0 14 0;
