#N canvas 0 0 654 648 10;
#X obj 205 215 line~;
#X obj 305 32 inlet;
#X obj 344 267 line~;
#X obj 244 446 *~;
#X obj 26 197 noise~;
#X obj 48 287 line~;
#X obj 343 297 ceff~;
#X obj 161 197 noise~;
#X obj 344 162 t b f;
#X msg 344 229 0 \$1;
#X obj 26 314 vcf~ 3.9;
#X obj 344 202 f 400;
#X obj 402 162 * 5;
#X obj 305 56 t b b;
#X obj 221 163 t b b;
#X obj 161 314 vcf~ 6.29;
#X obj 239 272 ceff~;
#X obj 261 227 -~ 300;
#X obj 239 252 /~ 300;
#X obj 238 292 *~ 300;
#X obj 233 319 +~ 300;
#X msg 248 186 600 \, 300 400;
#X msg 48 260 9000 \, 6000 200;
#X obj 503 267 *~ 0;
#X obj 336 124 + 0.55;
#X obj 336 102 randomF 0.45;
#X obj 199 381 * 0.5;
#X obj 199 404 + 0.5;
#X obj 170 429 *~ 1;
#X obj 162 339 *~ 2;
#X obj 503 86 loadbang;
#X obj 503 134 sig~;
#X obj 503 110 f 2349.32;
#X obj 504 183 tri~;
#X obj 503 156 littlevar~ 0.03 1;
#X obj 524 215 randomF 0.1;
#X obj 402 137 r vsl-\$1;
#X obj 199 358 r ab_cnt_on_ab\$1;
#X obj 244 578 outlet~;
#X connect 0 0 17 0;
#X connect 1 0 13 0;
#X connect 2 0 6 0;
#X connect 2 0 6 1;
#X connect 3 0 38 0;
#X connect 4 0 10 0;
#X connect 5 0 10 1;
#X connect 6 0 3 1;
#X connect 7 0 15 0;
#X connect 8 0 11 0;
#X connect 8 1 2 0;
#X connect 9 0 2 0;
#X connect 10 0 28 0;
#X connect 11 0 9 0;
#X connect 12 0 11 1;
#X connect 13 0 22 0;
#X connect 13 0 14 0;
#X connect 13 1 25 0;
#X connect 13 1 35 0;
#X connect 14 1 21 0;
#X connect 15 0 29 0;
#X connect 16 0 19 0;
#X connect 17 0 18 0;
#X connect 18 0 16 0;
#X connect 18 0 16 1;
#X connect 19 0 20 0;
#X connect 20 0 15 1;
#X connect 21 0 0 0;
#X connect 22 0 5 0;
#X connect 23 0 3 0;
#X connect 24 0 8 0;
#X connect 25 0 24 0;
#X connect 26 0 27 0;
#X connect 27 0 28 1;
#X connect 28 0 3 0;
#X connect 29 0 28 0;
#X connect 30 0 32 0;
#X connect 31 0 34 0;
#X connect 32 0 31 0;
#X connect 33 0 23 0;
#X connect 34 0 33 0;
#X connect 35 0 23 1;
#X connect 36 0 12 0;
#X connect 37 0 26 0;
