#N canvas 370 308 591 300 10;
#X obj 29 134 min~ -1;
#X obj 84 134 max~ 1;
#X obj 29 199 sel 0;
#X obj 29 167 env~ 2048 2048;
#X obj 85 61 inlet~;
#X obj 468 103 switch~;
#X obj 56 222 print \$2;
#X obj 131 134 min~ -1;
#X obj 186 134 max~ 1;
#X obj 131 199 sel 0;
#X obj 131 167 env~ 2048 2048;
#X obj 187 61 inlet~;
#X obj 234 134 min~ -1;
#X obj 289 134 max~ 1;
#X obj 234 199 sel 0;
#X obj 234 167 env~ 2048 2048;
#X obj 290 61 inlet~;
#X obj 337 134 min~ -1;
#X obj 392 134 max~ 1;
#X obj 337 199 sel 0;
#X obj 337 167 env~ 2048 2048;
#X obj 393 61 inlet~;
#X obj 158 222 print \$3;
#X obj 261 222 print \$4;
#X obj 364 222 print \$5;
#X obj 468 61 inlet;
#X connect 0 0 3 0;
#X connect 1 0 3 0;
#X connect 2 1 6 0;
#X connect 3 0 2 0;
#X connect 4 0 0 0;
#X connect 4 0 1 0;
#X connect 7 0 10 0;
#X connect 8 0 10 0;
#X connect 9 1 22 0;
#X connect 10 0 9 0;
#X connect 11 0 7 0;
#X connect 11 0 8 0;
#X connect 12 0 15 0;
#X connect 13 0 15 0;
#X connect 14 1 23 0;
#X connect 15 0 14 0;
#X connect 16 0 12 0;
#X connect 16 0 13 0;
#X connect 17 0 20 0;
#X connect 18 0 20 0;
#X connect 19 1 24 0;
#X connect 20 0 19 0;
#X connect 21 0 17 0;
#X connect 21 0 18 0;
#X connect 25 0 5 0;
