#N canvas 624 491 728 438 10;
#X obj 367 23 inlet;
#X obj 315 345 outlet~;
#N canvas 1015 402 712 581 noise 0;
#X obj 307 156 line~;
#X obj 221 230 *~;
#X obj 307 26 inlet;
#X obj 220 359 outlet~;
#X obj 60 60 noise~;
#X obj 69 161 *~ 0.5;
#X obj 69 139 bp~ 200 1;
#X obj 227 85 delay 10;
#X msg 228 109 0 70;
#X msg 307 109 1 1;
#X obj 293 183 *~;
#X obj 264 212 ceff~;
#X obj 307 47 t b b;
#X obj 220 294 *~ 1;
#X obj 356 248 randomF 0.5;
#X obj 356 270 + 0.2;
#X connect 0 0 10 0;
#X connect 0 0 10 1;
#X connect 1 0 13 0;
#X connect 2 0 12 0;
#X connect 4 0 6 0;
#X connect 5 0 1 0;
#X connect 6 0 5 0;
#X connect 7 0 8 0;
#X connect 8 0 0 0;
#X connect 9 0 0 0;
#X connect 10 0 11 0;
#X connect 10 0 11 1;
#X connect 11 0 1 1;
#X connect 12 0 9 0;
#X connect 12 0 7 0;
#X connect 12 1 14 0;
#X connect 13 0 3 0;
#X connect 14 0 15 0;
#X connect 15 0 13 1;
#X restore 315 183 pd noise;
#N canvas 920 296 820 662 osc 0;
#X obj 462 263 line~;
#X msg 221 219 0.25;
#X obj 269 -8 inlet;
#X obj 163 572 outlet~;
#X obj 18 279 line~;
#X msg 94 245 0 2;
#X obj 212 295 *~;
#X obj 269 58 t b b b;
#X obj 519 199 random 50;
#X obj 457 174 random 10;
#X obj 457 197 + 15;
#X msg 450 221 \$1 80;
#X obj 347 181 osc~ 41.2;
#X obj 260 184 osc~ 51.91;
#X obj 346 121 + 36.1;
#X obj 269 11 t b b;
#X obj 269 37 delay 2;
#X obj 462 294 osc~;
#X obj 462 338 ceff~;
#X obj 528 291 loadbang;
#X obj 164 516 *~;
#X obj 18 184 t b b;
#X msg 45 216 1;
#X msg 18 245 0 280;
#X obj 10 362 line~;
#X msg 70 315 1 10;
#X obj 10 315 delay 10;
#X obj 260 121 + 46.9;
#X obj 185 121 + 77.49;
#X obj 185 183 osc~ 86.49;
#X msg 528 314 0.1;
#X msg 10 336 0 180;
#X msg 346 140 \$1 80;
#X obj 346 162 line~;
#X msg 185 140 \$1 80;
#X obj 185 163 line~;
#X msg 260 141 \$1 80;
#X obj 260 164 line~;
#X obj 518 222 + 130;
#X connect 0 0 17 0;
#X connect 1 0 13 1;
#X connect 1 0 12 1;
#X connect 1 0 17 1;
#X connect 2 0 15 0;
#X connect 4 0 6 0;
#X connect 5 0 4 0;
#X connect 5 0 24 0;
#X connect 6 0 20 1;
#X connect 7 0 21 0;
#X connect 7 1 9 0;
#X connect 7 2 8 0;
#X connect 8 0 38 0;
#X connect 9 0 10 0;
#X connect 9 0 14 0;
#X connect 9 0 27 0;
#X connect 9 0 28 0;
#X connect 10 0 11 0;
#X connect 11 0 0 0;
#X connect 12 0 20 1;
#X connect 13 0 20 1;
#X connect 14 0 32 0;
#X connect 15 0 16 0;
#X connect 15 1 5 0;
#X connect 16 0 7 0;
#X connect 17 0 18 0;
#X connect 17 0 20 1;
#X connect 18 0 6 1;
#X connect 19 0 30 0;
#X connect 20 0 3 0;
#X connect 21 0 23 0;
#X connect 21 0 26 0;
#X connect 21 1 1 0;
#X connect 21 1 22 0;
#X connect 21 1 25 0;
#X connect 22 0 4 0;
#X connect 23 0 4 0;
#X connect 24 0 20 0;
#X connect 25 0 24 0;
#X connect 26 0 31 0;
#X connect 27 0 36 0;
#X connect 28 0 34 0;
#X connect 29 0 18 0;
#X connect 30 0 18 1;
#X connect 31 0 24 0;
#X connect 32 0 33 0;
#X connect 33 0 12 0;
#X connect 34 0 35 0;
#X connect 35 0 29 0;
#X connect 36 0 37 0;
#X connect 37 0 13 0;
#X connect 38 0 0 0;
#X connect 38 0 33 0;
#X connect 38 0 37 0;
#X connect 38 0 35 0;
#X restore 248 183 pd osc;
#X obj 367 53 t b b;
#X obj 314 305 *~ 0.3;
#X connect 0 0 4 0;
#X connect 2 0 5 0;
#X connect 3 0 5 0;
#X connect 4 0 3 0;
#X connect 4 1 2 0;
#X connect 5 0 1 0;
