#N canvas 664 385 728 438 10;
#X obj 314 219 osc~;
#X obj 314 130 line~;
#X obj 367 -44 inlet;
#X obj 425 287 line~;
#X obj 314 247 ceff~;
#X obj 551 207 f 0;
#X obj 551 230 / 127;
#X obj 566 176 r vsl2-\$1;
#X obj 314 366 outlet~;
#X obj 314 305 *~;
#X msg 314 103 220 \, 20 80;
#X obj 247 219 osc~ 41.2;
#X msg 382 202 0.25;
#X msg 425 253 1 \, 0 350;
#X obj 367 53 t b b b b;
#X obj 367 -19 t b b;
#X msg 448 224 0 2;
#X obj 367 31 delay 2;
#X obj 180 219 osc~ 51.91;
#X obj 314 332 *~ 0.33;
#X connect 0 0 4 0;
#X connect 1 0 0 0;
#X connect 2 0 15 0;
#X connect 3 0 9 1;
#X connect 4 0 9 0;
#X connect 5 0 6 0;
#X connect 6 0 4 1;
#X connect 7 0 5 1;
#X connect 9 0 19 0;
#X connect 10 0 1 0;
#X connect 11 0 9 0;
#X connect 12 0 0 1;
#X connect 12 0 11 1;
#X connect 12 0 18 1;
#X connect 13 0 3 0;
#X connect 14 0 10 0;
#X connect 14 1 12 0;
#X connect 14 2 13 0;
#X connect 14 3 5 0;
#X connect 15 0 17 0;
#X connect 15 1 16 0;
#X connect 16 0 3 0;
#X connect 17 0 14 0;
#X connect 18 0 9 0;
#X connect 19 0 8 0;
