#N canvas 462 313 819 667 10;
#X obj 324 324 line~;
#X obj 185 24 inlet;
#X obj 165 460 *~;
#X msg 364 324 0.5;
#X obj 197 303 noise~;
#X obj 215 353 line~;
#X obj 325 350 phasor~;
#X msg 324 297 \$2 \, \$3 30;
#X obj 381 248 mtof;
#X obj 352 248 mtof;
#X obj 352 223 + 20;
#X obj 325 372 -~ 0.5;
#X obj 324 272 pack 0 f f;
#X obj 381 199 r vsl-\$1;
#X msg 215 329 10000 \, 5000 600;
#X obj 166 496 outlet~;
#X obj 69 286 line~;
#X msg 101 237 1;
#X obj 126 237 r \$2;
#X obj 185 91 delay 2;
#X obj 185 50 t b b;
#X msg 159 269 0 2;
#X obj 69 259 pack 0 300;
#X obj 185 112 t b b b b;
#X obj 541 305 r vsl2-\$1;
#X obj 541 327 / 12;
#X obj 526 349 f;
#X obj 197 377 vcf~ 10;
#X obj 324 420 osc~;
#X obj 325 466 osc~;
#X obj 324 401 littlevar~ 0.1 1;
#X obj 325 446 littlevar~ 0.1 1;
#X obj 324 493 *~ 0.3;
#X connect 0 0 6 0;
#X connect 0 0 30 0;
#X connect 0 0 31 0;
#X connect 1 0 20 0;
#X connect 2 0 15 0;
#X connect 3 0 6 1;
#X connect 4 0 27 0;
#X connect 5 0 27 1;
#X connect 6 0 11 0;
#X connect 7 0 0 0;
#X connect 8 0 12 2;
#X connect 9 0 12 1;
#X connect 10 0 9 0;
#X connect 11 0 32 0;
#X connect 12 0 7 0;
#X connect 13 0 10 0;
#X connect 13 0 8 0;
#X connect 14 0 5 0;
#X connect 16 0 2 1;
#X connect 17 0 16 0;
#X connect 18 0 22 1;
#X connect 19 0 23 0;
#X connect 20 0 19 0;
#X connect 20 1 21 0;
#X connect 21 0 16 0;
#X connect 22 0 16 0;
#X connect 23 0 22 0;
#X connect 23 1 17 0;
#X connect 23 2 12 0;
#X connect 23 3 3 0;
#X connect 23 3 14 0;
#X connect 24 0 25 0;
#X connect 25 0 26 1;
#X connect 27 0 2 0;
#X connect 28 0 32 0;
#X connect 29 0 32 0;
#X connect 30 0 28 0;
#X connect 31 0 29 0;
#X connect 32 0 2 0;
