#N canvas 891 145 407 425 10;
#X obj 152 80 inlet~;
#X obj 181 279 *~;
#X obj 115 278 *~;
#X obj 116 322 outlet~;
#X obj 182 322 outlet~;
#X obj 197 232 *~ -1;
#X obj 197 254 +~ 1;
#X obj 197 179 -~ 0.5;
#X obj 197 131 sig~ 1;
#X obj 196 155 littlevar~ 0.2 1 1000;
#X connect 0 0 2 0;
#X connect 0 0 1 0;
#X connect 1 0 4 0;
#X connect 2 0 3 0;
#X connect 5 0 6 0;
#X connect 6 0 1 1;
#X connect 7 0 5 0;
#X connect 7 0 2 1;
#X connect 8 0 9 0;
#X connect 9 0 7 0;
