#N canvas 892 224 442 380 10;
#X obj 86 61 inlet~;
#X obj 230 59 inlet~;
#X obj 284 85 sig~ 2;
#X obj 47 223 *~;
#X obj 179 226 *~;
#X obj 120 195 max~ 1;
#X obj 120 218 -~ 1;
#X obj 66 196 min~ 1;
#X obj 87 232 *~;
#X obj 263 192 max~ 1;
#X obj 195 200 min~ 1;
#X obj 231 236 *~;
#X obj 264 217 -~ 1;
#X obj 284 133 -~ 1;
#X obj 119 146 *~ -1;
#X obj 120 170 +~ 2;
#X obj 283 109 littlevar~ 0.75 1 500;
#X obj 114 279 outlet~;
#X obj 167 279 outlet~;
#X connect 0 0 8 0;
#X connect 0 0 3 0;
#X connect 1 0 11 0;
#X connect 1 0 4 0;
#X connect 2 0 16 0;
#X connect 3 0 17 0;
#X connect 4 0 18 0;
#X connect 5 0 6 0;
#X connect 6 0 8 1;
#X connect 7 0 3 1;
#X connect 8 0 18 0;
#X connect 9 0 12 0;
#X connect 10 0 4 1;
#X connect 11 0 17 0;
#X connect 12 0 11 1;
#X connect 13 0 10 0;
#X connect 13 0 9 0;
#X connect 13 0 14 0;
#X connect 14 0 15 0;
#X connect 15 0 5 0;
#X connect 15 0 7 0;
#X connect 16 0 13 0;
