#N canvas 881 415 449 524 10;
#X obj 134 132 counter;
#X msg 51 271 start;
#X msg 102 271 stop;
#X obj 103 72 sel 1 0;
#X obj 103 46 inlet;
#X obj 209 376 inlet~;
#X obj 182 132 date;
#X obj 212 132 time;
#X obj 112 99 t b b b b;
#X text 101 30 toggle;
#X obj 134 210 symbol;
#X obj 151 244 makefilename %s.wav;
#X obj 247 46 loadbang;
#X obj 247 132 symbol \$1;
#X msg 151 271 open -bytes 3 ./RECs/\$1;
#X obj 314 46 inlet;
#X msg 134 183 \$7_\$2-\$3-\$4--\$5h\$6--\$1;
#X obj 134 160 pack f f f f f f s;
#X obj 314 77 t a b;
#X obj 341 98 symbol \$1;
#X msg 314 143 symbol \$1-\$2;
#X obj 314 288 b;
#X obj 314 121 list;
#X obj 151 418 writesf~ 2;
#X obj 272 376 inlet~;
#X connect 0 0 17 0;
#X connect 1 0 23 0;
#X connect 2 0 21 0;
#X connect 2 0 23 0;
#X connect 3 0 8 0;
#X connect 3 1 2 0;
#X connect 4 0 3 0;
#X connect 5 0 23 0;
#X connect 6 0 17 3;
#X connect 6 1 17 2;
#X connect 6 2 17 1;
#X connect 7 0 17 4;
#X connect 7 1 17 5;
#X connect 8 0 1 0;
#X connect 8 1 0 0;
#X connect 8 2 6 0;
#X connect 8 3 7 0;
#X connect 10 0 11 0;
#X connect 11 0 14 0;
#X connect 12 0 13 0;
#X connect 13 0 17 6;
#X connect 14 0 23 0;
#X connect 15 0 18 0;
#X connect 16 0 10 0;
#X connect 17 0 16 0;
#X connect 18 0 22 0;
#X connect 18 1 19 0;
#X connect 19 0 22 1;
#X connect 20 0 17 6;
#X connect 21 0 13 0;
#X connect 22 0 20 0;
#X connect 24 0 23 1;
