#N canvas 484 79 1203 875 16;
#X declare -path ../tools;
#X obj 495 54 path ../tools;
#X obj 87 198 bng 15 250 50 0 empty empty empty 17 7 0 10 -262144 -1
-1;
#X obj 244 226 bng 15 250 50 0 empty empty empty 17 7 0 10 -262144
-1 -1;
#X obj 178 253 opensnd~;
#X msg 110 161 loop;
#X msg 176 183 stoploop;
#X obj 538 407 ceff~;
#X obj 659 359 line~;
#X floatatom 475 212 5 0 0 0 - - -;
#X obj 475 161 line;
#X msg 379 114 0 20000;
#X msg 475 113 0 \, 0.7 20000;
#X obj 317 595 see;
#X obj 641 595 see;
#X obj 447 348 osc~ 4;
#X floatatom 447 305 5 0 0 0 - - -;
#X obj 784 338 vline~;
#X msg 784 278 0 \, 1 1000 200;
#X obj 532 450 *~;
#X obj 717 171 bng 15 250 50 0 empty empty empty 17 7 0 10 -262144
-1 -1;
#X obj 522 491 *~ 0.5;
#X obj 522 534 dac~;
#X msg 585 279 0 1000 200;
#X msg 735 291 0;
#X obj 744 240 delay 1000;
#X obj 585 248 delay 5800;
#X obj 717 203 t b b b b;
#X obj 754 489 tgl 15 0 empty empty empty 17 7 0 10 -262144 -1 -1 0
1;
#X obj 670 545 rec1 ceff-demo;
#X obj 839 412 delay 1400;
#X msg 659 328 0.99 5000;
#X connect 1 0 3 0;
#X connect 2 0 3 1;
#X connect 4 0 3 0;
#X connect 5 0 3 0;
#X connect 6 0 18 0;
#X connect 6 0 13 0;
#X connect 7 0 6 1;
#X connect 9 0 8 0;
#X connect 10 0 9 0;
#X connect 11 0 9 0;
#X connect 14 0 6 0;
#X connect 15 0 14 0;
#X connect 16 0 18 1;
#X connect 17 0 16 0;
#X connect 18 0 20 0;
#X connect 19 0 26 0;
#X connect 20 0 21 0;
#X connect 20 0 21 1;
#X connect 20 0 28 1;
#X connect 20 0 12 0;
#X connect 22 0 16 0;
#X connect 23 0 7 0;
#X connect 24 0 30 0;
#X connect 25 0 22 0;
#X connect 25 0 29 0;
#X connect 26 0 25 0;
#X connect 26 1 24 0;
#X connect 26 2 17 0;
#X connect 26 2 23 0;
#X connect 26 3 27 0;
#X connect 29 0 27 0;
#X connect 30 0 7 0;
