#N canvas 445 84 1203 875 16;
#X declare -path ../tools;
#X obj 495 54 path ../tools;
#X obj 152 92 bng 15 250 50 0 empty empty empty 17 7 0 10 -262144 -1
-1;
#X obj 309 120 bng 15 250 50 0 empty empty empty 17 7 0 10 -262144
-1 -1;
#X obj 243 147 opensnd~;
#X msg 175 55 loop;
#X msg 241 77 stoploop;
#X obj 526 409 ceff~;
#X obj 735 355 line~;
#X floatatom 475 212 5 0 0 0 - - -;
#X obj 475 161 line;
#X msg 379 114 0 20000;
#X msg 475 113 0 \, 0.7 20000;
#X obj 317 595 see;
#X obj 641 595 see;
#X obj 860 334 vline~;
#X msg 860 274 0 \, 1 1000 200;
#X obj 731 437 *~;
#X obj 793 167 bng 15 250 50 0 empty empty empty 17 7 0 10 -262144
-1 -1;
#X obj 522 491 *~ 0.5;
#X obj 509 557 dac~;
#X msg 661 275 0 1000 200;
#X msg 811 287 0;
#X obj 820 236 delay 1000;
#X obj 661 244 delay 5800;
#X obj 793 199 t b b b b;
#X obj 652 495 tgl 15 0 empty empty empty 17 7 0 10 -262144 -1 -1 0
1;
#X obj 915 408 delay 1400;
#X msg 735 324 0.99 5000;
#X obj 560 371 min 0.999;
#X obj 220 247 modsnd_insert~ t;
#X obj 220 337 modsnd_send~ t;
#X obj 221 304 line~;
#X obj 327 199 bng 15 250 50 0 empty empty empty 17 7 0 10 -262144
-1 -1;
#X obj 434 262 counter;
#X obj 176 525 counter;
#X floatatom 149 587 5 0 0 0 - - -;
#X obj 152 475 bng 15 250 50 0 empty empty empty 17 7 0 10 -262144
-1 -1;
#X obj 191 476 bng 15 250 50 0 empty empty empty 17 7 0 10 -262144
-1 -1;
#X obj 221 472 bng 15 250 50 0 empty empty empty 17 7 0 10 -262144
-1 -1;
#X obj 246 470 bng 15 250 50 0 empty empty empty 17 7 0 10 -262144
-1 -1;
#X obj 361 172 bng 15 250 50 0 empty empty empty 17 7 0 10 -262144
-1 -1;
#X obj 219 592 print;
#X msg 434 333 0;
#X msg 177 200 stop;
#X obj 360 447 spigot;
#X msg 121 202 load;
#X obj 610 541 rec1 ceff-demo_guitare;
#X msg 510 333 0.4;
#X msg 552 333 0.6;
#X msg 472 333 0.2;
#X msg 592 333 0.8;
#X msg 636 333 1;
#X obj 437 300 sel 1 2 3 4 5 6;
#X obj 435 368 lop~ 2000;
#X msg 445 417 1;
#X msg 398 417 0;
#X connect 1 0 3 0;
#X connect 2 0 3 1;
#X connect 4 0 3 0;
#X connect 5 0 3 0;
#X connect 6 0 18 0;
#X connect 9 0 8 0;
#X connect 10 0 9 0;
#X connect 11 0 9 0;
#X connect 14 0 16 1;
#X connect 15 0 14 0;
#X connect 17 0 24 0;
#X connect 18 0 19 0;
#X connect 18 0 19 1;
#X connect 18 0 12 0;
#X connect 18 0 13 0;
#X connect 18 0 46 1;
#X connect 20 0 14 0;
#X connect 21 0 7 0;
#X connect 22 0 27 0;
#X connect 23 0 20 0;
#X connect 23 0 26 0;
#X connect 24 0 23 0;
#X connect 24 1 22 0;
#X connect 24 2 15 0;
#X connect 24 2 21 0;
#X connect 24 3 25 0;
#X connect 25 0 46 0;
#X connect 26 0 25 0;
#X connect 27 0 7 0;
#X connect 28 0 6 1;
#X connect 29 0 31 0;
#X connect 29 1 32 0;
#X connect 30 0 53 0;
#X connect 30 1 53 0;
#X connect 31 0 30 0;
#X connect 32 0 33 0;
#X connect 32 0 29 0;
#X connect 32 0 44 0;
#X connect 33 0 52 0;
#X connect 34 0 35 0;
#X connect 34 0 41 0;
#X connect 36 0 34 0;
#X connect 37 0 34 1;
#X connect 38 0 34 2;
#X connect 39 0 34 3;
#X connect 40 0 33 3;
#X connect 40 0 32 0;
#X connect 42 0 28 0;
#X connect 43 0 29 0;
#X connect 44 0 25 0;
#X connect 45 0 29 0;
#X connect 47 0 28 0;
#X connect 48 0 28 0;
#X connect 49 0 28 0;
#X connect 50 0 28 0;
#X connect 51 0 28 0;
#X connect 52 0 42 0;
#X connect 52 1 49 0;
#X connect 52 2 47 0;
#X connect 52 3 48 0;
#X connect 52 4 50 0;
#X connect 52 5 51 0;
#X connect 52 5 33 3;
#X connect 53 0 6 0;
#X connect 54 0 44 1;
#X connect 55 0 44 1;
