#N canvas 555 314 1025 574 10;
#X declare -path ../TOOLS;
#X obj 386 156 cFFT;
#X obj 419 68 opensnd~;
#X msg 423 31 loop \, bang;
#X obj 537 41 bng 15 250 50 0 empty empty empty 17 7 0 10 -262144 -1
-1;
#X obj 615 60 path ../TOOLS;
#X connect 1 0 0 0;
#X connect 1 1 0 0;
#X connect 2 0 1 0;
#X connect 3 0 1 1;
