#N canvas 701 53 786 609 10;
#X obj 208 181 cosenv;
#X obj 131 6 bng 15 250 50 0 empty empty empty 17 7 0 10 -262144 -1
-1;
#X floatatom 211 120 5 0 0 0 - - -;
#X floatatom 313 136 5 0 0 0 - - -;
#X floatatom 260 116 5 0 0 0 - - -;
#X obj 74 311 osc~;
#X obj 278 368 cosenv;
#X obj 173 443 *~;
#X obj 172 523 *~ 1;
#X obj 163 557 dac~;
#X obj 213 504 hsl 128 15 0 1 0 0 empty empty empty -2 -8 0 10 -262144
-1 -1 0 1;
#X obj 135 40 t b b b;
#X obj 380 22 tgl 15 0 empty empty empty 17 7 0 10 -262144 -1 -1 1
1;
#X obj 463 341 see;
#X obj 227 62 random 10;
#X obj 74 227 *~ 30;
#X obj 381 50 metro 500;
#X obj 234 87 + 20;
#X obj 63 513 rec1;
#X obj 55 470 tgl 15 0 empty empty empty 17 7 0 10 -262144 -1 -1 0
1;
#X obj 306 5 r metroid;
#X obj 175 478 ceff~;
#X obj 326 262 nbx 5 14 -1e+037 1e+037 0 1 empty empty empty 0 -8 0
10 -262144 -1 -1 76 256;
#X obj 264 277 nbx 5 14 -1e+037 1e+037 0 1 empty empty empty 0 -8 0
10 -262144 -1 -1 5 256;
#X obj 347 306 nbx 5 14 -1e+037 1e+037 0 1 empty empty empty 0 -8 0
10 -262144 -1 -1 5 256;
#X obj 265 451 hsl 128 15 0 1 0 0 empty empty empty -2 -8 0 10 -262144
-1 -1 0 1;
#X obj 74 262 +~ 70;
#X connect 0 0 15 0;
#X connect 1 0 11 0;
#X connect 2 0 0 1;
#X connect 3 0 0 3;
#X connect 4 0 0 2;
#X connect 5 0 7 0;
#X connect 6 0 7 1;
#X connect 7 0 18 1;
#X connect 7 0 21 0;
#X connect 8 0 9 1;
#X connect 8 0 9 0;
#X connect 10 0 8 1;
#X connect 11 0 6 0;
#X connect 11 1 0 0;
#X connect 11 1 13 2;
#X connect 11 2 14 0;
#X connect 12 0 16 0;
#X connect 14 0 17 0;
#X connect 15 0 26 0;
#X connect 16 0 11 0;
#X connect 17 0 4 0;
#X connect 17 0 13 1;
#X connect 19 0 18 0;
#X connect 21 0 8 0;
#X connect 21 0 13 0;
#X connect 22 0 6 2;
#X connect 23 0 6 1;
#X connect 24 0 6 3;
#X connect 25 0 21 1;
#X connect 26 0 5 0;
