#N canvas 1060 97 608 579 10;
#X obj 110 211 *;
#X msg 110 186 44.1 \$1;
#X floatatom 281 47 8 0 0 2 duree(ms) - -;
#N canvas 0 0 450 300 (subpatch) 0;
#X array \$0-shape 17022 float 2;
#X coords 0 1 17022 -1 290 200 1 0 0;
#X restore 225 79 graph;
#X obj 110 258 pack;
#X obj 138 234 \$0;
#X msg 96 289 \; \$2-shape resize \$1;
#X obj 138 211 loadbang;
#X obj 404 366 metro 100;
#X obj 350 47 tgl 16 0 empty empty empty 17 7 0 10 -262144 -1 -1 0
1;
#X obj 513 12 inlet;
#X floatatom 369 47 8 1 10000 2 refresh(ms) - -;
#X obj 93 53 inlet~;
#X obj 469 366 b;
#X text 457 29 anything ^;
#X text 445 39 to refresh |;
#X obj 404 389 tabwrite~ \$0-shape;
#X obj 266 5 inlet;
#X obj 53 112 delay 20;
#X obj 110 160 max 0;
#X obj 110 137 f;
#X obj 98 89 t b f;
#X msg 156 160 set \$1;
#X connect 0 0 4 0;
#X connect 1 0 0 0;
#X connect 2 0 21 0;
#X connect 4 0 6 0;
#X connect 5 0 4 1;
#X connect 7 0 5 0;
#X connect 8 0 16 0;
#X connect 9 0 8 0;
#X connect 10 0 13 0;
#X connect 11 0 8 1;
#X connect 12 0 16 0;
#X connect 13 0 16 0;
#X connect 17 0 21 0;
#X connect 18 0 20 0;
#X connect 19 0 1 0;
#X connect 19 0 22 0;
#X connect 20 0 19 0;
#X connect 21 0 18 0;
#X connect 21 1 20 1;
#X connect 22 0 2 0;
#X coords 0 -1 1 1 300 250 2 220 30;
