#N canvas 920 12 855 943 10;
#X obj 189 169 cosenv;
#X obj 131 6 bng 15 250 50 0 empty empty empty 17 7 0 10 -262144 -1
-1;
#X obj 195 532 *~ 1;
#X obj 186 566 dac~;
#X obj 236 513 hsl 128 15 0 1 0 0 empty empty empty -2 -8 0 10 -262144
-1 -1 2600 1;
#X obj 135 40 t b b b;
#X obj 31 16 tgl 15 0 empty empty empty 17 7 0 10 -262144 -1 -1 1 1
;
#X obj 74 227 *~ 30;
#X obj 32 44 metro 500;
#X obj 63 513 rec1;
#X obj 55 470 tgl 15 0 empty empty empty 17 7 0 10 -262144 -1 -1 0
1;
#X obj 91 311 vcf~;
#X text 162 281 q;
#X text 81 243 center freq;
#X obj 20 263 noise~;
#X obj 74 263 +~ 300;
#X floatatom 158 225 5 0 0 0 - - -;
#X obj 42 592 see;
#X obj 443 156 see;
#X obj 191 351 click~;
#X obj 211 406 print~;
#X obj 219 375 b;
#X msg 194 261 set 0.25 0.5 1 1 1 1 1 0.2 0.5 0 0.2 0 1;
#X obj 244 79 f 55;
#X obj 173 443 *~ 1;
#X obj 164 382 *~ 0.4;
#X obj 188 484 ceff~;
#X obj 255 454 hsl 128 15 0 1 0 0 empty empty empty -2 -8 0 10 -262144
-1 -1 10900 1;
#X obj 25 87 receive metroid;
#X obj 73 163 nbx 5 14 -1e+037 1e+037 0 1 empty empty empty 0 -8 0
10 -262144 -1 -1 200 256;
#X obj 109 287 nbx 5 14 -1e+037 1e+037 0 1 empty empty empty 0 -8 0
10 -262144 -1 -1 639 256;
#X obj 190 114 nbx 5 14 -1e+037 1e+037 0 1 empty empty empty 0 -8 0
10 -262144 -1 -1 48 256;
#X obj 265 136 nbx 5 14 -1e+037 1e+037 0 1 empty empty empty 0 -8 0
10 -262144 -1 -1 298 256;
#X obj 296 45 nbx 5 14 -1e+037 1e+037 0 1 empty empty empty 0 -8 0
10 -262144 -1 -1 391 256;
#X connect 0 0 7 0;
#X connect 0 0 18 0;
#X connect 1 0 5 0;
#X connect 2 0 3 0;
#X connect 2 0 3 1;
#X connect 4 0 2 1;
#X connect 5 0 19 0;
#X connect 5 0 21 0;
#X connect 5 1 0 0;
#X connect 5 1 18 2;
#X connect 5 2 23 0;
#X connect 6 0 8 0;
#X connect 7 0 15 0;
#X connect 8 0 5 0;
#X connect 10 0 9 0;
#X connect 11 0 24 0;
#X connect 11 1 24 0;
#X connect 14 0 11 0;
#X connect 15 0 11 1;
#X connect 16 0 15 1;
#X connect 19 0 20 0;
#X connect 19 0 25 0;
#X connect 22 0 19 0;
#X connect 23 0 18 1;
#X connect 23 0 0 2;
#X connect 24 0 9 1;
#X connect 24 0 17 0;
#X connect 24 0 26 0;
#X connect 26 0 2 0;
#X connect 27 0 26 1;
#X connect 29 0 7 1;
#X connect 30 0 11 2;
#X connect 31 0 0 1;
#X connect 32 0 0 3;
#X connect 33 0 23 1;
