#N canvas 735 14 969 867 10;
#X obj 23 236 trienv3~;
#X obj 37 152 tri~;
#X obj -18 152 osc~ 30;
#X floatatom 225 321 5 0 0 0 - - -;
#X obj 18 532 dac~;
#X obj 63 503 hsl 128 15 0 1 0 0 empty empty empty -2 -8 0 10 -262144
-1 -1 0 1;
#X obj 23 503 *~ 1;
#X obj 75 174 ceff~ 1;
#X obj 128 153 hsl 128 15 0 1 0 0 empty empty empty -2 -8 0 10 -262144
-1 -1 1500 1;
#X obj 353 -43 vsl 15 128 0 127 0 0 empty empty empty 0 -9 0 10 -262144
-1 -1 3600 1;
#X obj 334 139 mtof;
#X msg 37 65 \$1;
#X floatatom 350 166 5 0 0 0 - - -;
#X obj 141 246 t f b;
#X obj 168 274 randomF 0.02;
#X obj 168 299 + 0.99;
#X obj 23 424 ceff~ 1;
#X obj 76 403 hsl 128 15 0 1 0 0 empty empty empty -2 -8 0 10 -262144
-1 -1 3000 1;
#X obj 52 201 lop~ 400;
#X obj -99 509 rec1 wobass;
#X obj -41 368 tgl 15 0 empty empty empty 17 7 0 10 -262144 -1 -1 0
1;
#X obj -40 432 lop~ 40;
#X obj -41 409 sig~;
#X obj -39 458 *~;
#X obj 75 152 tri~;
#X obj 142 205 * 0.05;
#X obj 387 322 see;
#X obj 141 321 *;
#X connect 0 0 16 0;
#X connect 0 0 26 0;
#X connect 1 0 0 1;
#X connect 2 0 0 0;
#X connect 5 0 6 1;
#X connect 6 0 4 0;
#X connect 6 0 4 1;
#X connect 7 0 18 0;
#X connect 8 0 7 1;
#X connect 9 0 10 0;
#X connect 10 0 11 0;
#X connect 10 0 12 0;
#X connect 10 0 25 0;
#X connect 11 0 1 0;
#X connect 11 0 2 0;
#X connect 11 0 24 0;
#X connect 13 0 27 0;
#X connect 13 1 14 0;
#X connect 14 0 15 0;
#X connect 15 0 27 1;
#X connect 16 0 23 1;
#X connect 17 0 16 1;
#X connect 18 0 0 2;
#X connect 20 0 22 0;
#X connect 21 0 23 0;
#X connect 22 0 21 0;
#X connect 23 0 6 0;
#X connect 24 0 7 0;
#X connect 25 0 13 0;
#X connect 27 0 0 3;
#X connect 27 0 3 0;
