#N canvas -8 -8 1904 986 10;
#X obj 887 402 see;
#X obj 164 123 phasor~;
#X floatatom 164 95 5 0 0 0 - - -, f 5;
#X obj 164 169 *~ 2;
#X obj 164 203 -~ 1;
#X obj 665 537 *~ 0;
#X obj 723 609 dac~;
#X obj 706 493 hsl 128 15 0 1 0 0 empty empty empty -2 -8 0 10 -262144
-1 -1 7200 1;
#X obj 527 323 cosenv~;
#N canvas 0 0 1888 970 sequencer 0;
#X obj 122 259 outlet trig;
#X obj 30 87 metro 200;
#X obj 93 33 tgl 15 0 empty empty empty 17 7 0 10 -262144 -1 -1 0 1
;
#X obj 31 286 outlet phase;
#X msg 31 247 0.5;
#X obj 140 -18 cyclone/counter 0 3;
#X obj 140 13 sel 0 1 2 3;
#X obj 176 213 outlet velo;
#X obj 133 43 vsl 15 100 0 1 0 0 empty empty empty 0 -9 0 10 -262144
-1 -1 0 0;
#X obj 152 43 vsl 15 100 0 1 0 0 empty empty empty 0 -9 0 10 -262144
-1 -1 5600 0;
#X obj 171 43 vsl 15 100 0 1 0 0 empty empty empty 0 -9 0 10 -262144
-1 -1 7100 0;
#X obj 190 43 vsl 15 100 0 1 0 0 empty empty empty 0 -9 0 10 -262144
-1 -1 8300 0;
#X obj 22 -1 inlet;
#X obj 93 88 bng 15 250 50 0 empty empty empty 17 7 0 10 -262144 -1
-1;
#X obj 18 168 t b b b;
#X msg 211 186 1;
#X floatatom 96 57 5 0 0 0 - - -, f 5;
#X obj 237 109 /;
#X obj 237 65 t b f;
#X msg 237 87 60000;
#X obj 237 131 / 4;
#X obj 345 298 outlet other_trig;
#X floatatom 94 124 5 0 0 0 - - -, f 5;
#X obj 463 248 outlet quarterNote;
#X obj 37 34 sel 0;
#X obj 625 252 outlet tempo;
#X connect 1 0 4 0;
#X connect 1 0 5 0;
#X connect 1 0 0 0;
#X connect 2 0 1 0;
#X connect 2 0 24 0;
#X connect 4 0 3 0;
#X connect 5 0 6 0;
#X connect 6 0 8 0;
#X connect 6 0 21 0;
#X connect 6 1 9 0;
#X connect 6 2 10 0;
#X connect 6 3 11 0;
#X connect 8 0 7 0;
#X connect 9 0 7 0;
#X connect 10 0 7 0;
#X connect 11 0 7 0;
#X connect 12 0 14 0;
#X connect 13 0 14 0;
#X connect 14 0 4 0;
#X connect 14 1 0 0;
#X connect 14 2 15 0;
#X connect 15 0 7 0;
#X connect 16 0 18 0;
#X connect 17 0 20 0;
#X connect 18 0 19 0;
#X connect 18 1 17 1;
#X connect 18 1 25 0;
#X connect 19 0 17 0;
#X connect 20 0 1 1;
#X connect 20 0 22 0;
#X connect 20 0 23 0;
#X connect 24 0 5 2;
#X coords 0 -1 1 1 140 120 1 88 30;
#X restore 351 44 pd sequencer;
#X floatatom 557 246 5 0 0 0 - - -, f 5;
#X floatatom 605 245 5 0 0 0 - - -, f 5;
#X floatatom 654 245 5 0 0 0 - - -, f 5;
#X obj 528 363 *~ 0;
#X obj 409 387 *~;
#X obj 739 366 cosenv~;
#X floatatom 725 312 5 0 0 0 - - -, f 5;
#X floatatom 807 301 5 0 0 0 - - -, f 5;
#X floatatom 866 288 5 0 0 0 - - -, f 5;
#X obj 684 168 bng 15 250 50 0 empty empty empty 17 7 0 10 -262144
-1 -1;
#X obj 706 428 *~ 1000;
#X obj 681 401 *~ 0.9;
#X obj 568 453 lop~ 1000;
#X obj 643 462 ceff~;
#X floatatom 637 380 5 0 0 0 - - -, f 5;
#X floatatom 744 392 5 0 0 0 - - -, f 5;
#X obj 541 135 opensnd~;
#X obj 603 107 bng 15 250 50 0 empty empty empty 17 7 0 10 -262144
-1 -1;
#X obj 523 94 bng 15 250 50 0 empty empty empty 17 7 0 10 -262144 -1
-1;
#X obj 808 13 bng 15 250 50 0 empty empty empty 17 7 0 10 -262144 -1
-1;
#X obj 1019 71 delay 100;
#X obj 867 206 spigot;
#X obj 907 173 tgl 15 0 empty empty empty 17 7 0 10 -262144 -1 -1 0
1;
#X obj 553 539 *~ 0;
#X obj 446 502 hsl 128 15 0 1 0 0 empty empty empty -2 -8 0 10 -262144
-1 -1 5900 1;
#X obj 556 189 ceff~;
#X floatatom 618 146 5 0 0 0 - - -, f 5;
#X obj 164 70 mtof;
#X obj 164 27 hsl 128 15 0 127 0 0 empty empty empty -2 -8 0 10 -262144
-1 -1 3200 1;
#X floatatom 195 47 5 0 0 0 - - -, f 5;
#X obj 776 236 * 4;
#X obj 722 283 / 2;
#X obj 695 214 * 0.25;
#X obj 167 474 rec1 PsyBass;
#X obj 336 257 t b b;
#X obj 170 408 tgl 15 0 empty empty empty 17 7 0 10 -262144 -1 -1 0
1;
#X obj 262 361 delay 62;
#X obj 390 171 tgl 15 0 empty empty empty 17 7 0 10 -262144 -1 -1 0
1;
#X obj 333 219 spigot;
#X obj 391 213 * -1;
#X obj 391 193 - 1;
#X obj 90 50 f;
#X obj 90 12 bng 15 250 50 0 empty empty empty 17 7 0 10 -262144 -1
-1;
#X obj 34 50 f;
#X obj 34 12 bng 15 250 50 0 empty empty empty 17 7 0 10 -262144 -1
-1;
#X floatatom 57 75 5 0 0 0 - - -, f 5;
#X obj 90 108 +;
#X obj 34 108 -;
#X obj 513 199 * 0.9;
#X floatatom 448 358 5 0 0 0 - - -, f 5;
#X obj 429 325 * 0.92;
#X obj 324 513 pack f f;
#X obj 292 548 b;
#X msg 293 579 165bpm/165bpm n32-raw;
#X obj 44 470 t b b b;
#X msg 259 422 0, f 2;
#X obj 100 447 spigot;
#X obj 240 393 t b b;
#X obj 128 409 tgl 15 0 empty empty empty 17 7 0 10 -262144 -1 -1 0
1;
#X msg 100 340 0;
#X msg 36 206 4;
#X obj 123 273 sel 52 32;
#X obj 386 462 t f b f;
#X msg 202 1 20;
#X msg 128 98 1;
#X msg 338 553 set \$1bpm/\$1bpm n\$2-raw;
#X obj 382 248 spigot 1;
#X floatatom 584 382 5 0 0 0 - - -, f 5;
#X connect 1 0 3 0;
#X connect 2 0 1 0;
#X connect 3 0 4 0;
#X connect 4 0 14 0;
#X connect 5 0 6 0;
#X connect 5 0 6 1;
#X connect 7 0 5 1;
#X connect 8 0 13 0;
#X connect 9 0 1 1;
#X connect 9 1 48 0;
#X connect 9 1 76 0;
#X connect 9 2 13 1;
#X connect 9 3 26 0;
#X connect 9 3 15 0;
#X connect 9 3 31 0;
#X connect 9 4 42 0;
#X connect 9 4 58 0;
#X connect 9 4 60 0;
#X connect 9 5 61 0;
#X connect 10 0 8 1;
#X connect 11 0 8 2;
#X connect 11 0 40 0;
#X connect 12 0 8 3;
#X connect 12 0 18 0;
#X connect 13 0 14 1;
#X connect 14 0 22 0;
#X connect 14 0 43 1;
#X connect 15 0 21 0;
#X connect 16 0 15 1;
#X connect 17 0 15 2;
#X connect 18 0 15 3;
#X connect 19 0 10 0;
#X connect 19 0 12 0;
#X connect 19 0 11 0;
#X connect 21 0 23 1;
#X connect 22 0 5 0;
#X connect 24 0 23 1;
#X connect 25 0 21 1;
#X connect 26 0 35 0;
#X connect 27 0 26 1;
#X connect 28 0 26 0;
#X connect 29 0 9 0;
#X connect 29 0 0 2;
#X connect 30 0 0 2;
#X connect 31 0 0 2;
#X connect 32 0 31 1;
#X connect 33 0 6 0;
#X connect 33 0 6 1;
#X connect 34 0 33 1;
#X connect 35 0 33 0;
#X connect 36 0 35 1;
#X connect 37 0 2 0;
#X connect 38 0 39 0;
#X connect 38 0 51 1;
#X connect 38 0 53 1;
#X connect 38 0 72 0;
#X connect 39 0 37 0;
#X connect 40 0 17 0;
#X connect 40 0 41 0;
#X connect 41 0 16 0;
#X connect 44 0 8 0;
#X connect 44 1 45 0;
#X connect 44 1 46 0;
#X connect 45 0 43 0;
#X connect 46 0 67 0;
#X connect 47 0 48 1;
#X connect 47 0 50 0;
#X connect 48 0 44 0;
#X connect 49 0 76 1;
#X connect 50 0 49 0;
#X connect 51 0 56 0;
#X connect 52 0 51 0;
#X connect 53 0 57 0;
#X connect 54 0 53 0;
#X connect 55 0 56 1;
#X connect 55 0 57 1;
#X connect 56 0 38 0;
#X connect 57 0 38 0;
#X connect 58 0 11 0;
#X connect 60 0 46 1;
#X connect 60 0 59 0;
#X connect 61 0 75 0;
#X connect 61 0 62 0;
#X connect 62 0 63 0;
#X connect 63 0 43 2;
#X connect 64 0 9 0;
#X connect 64 1 52 0;
#X connect 65 0 45 0;
#X connect 66 0 64 0;
#X connect 67 0 66 0;
#X connect 67 1 65 0;
#X connect 68 0 66 1;
#X connect 69 0 68 0;
#X connect 70 0 55 0;
#X connect 71 0 69 0;
#X connect 71 1 70 0;
#X connect 72 0 71 0;
#X connect 72 1 61 0;
#X connect 72 2 61 1;
#X connect 73 0 38 0;
#X connect 73 0 74 0;
#X connect 74 0 55 0;
#X connect 75 0 63 0;
#X connect 76 0 8 0;
#X connect 77 0 22 1;
