#N canvas 581 526 1200 442 10;
#X obj 0 221 vradio 15 1 1 8 radio-\$1 br\$1-1 empty 0 -8 0 10 -258113
-1 -1 2;
#X obj 17 221 vradio 15 1 1 8 radio-\$1 br\$1-2 empty 0 -8 0 10 -257985
-1 -1 4;
#X obj 34 221 vradio 15 1 1 8 radio-\$1 br\$1-3 empty 0 -8 0 10 -257985
-1 -1 4;
#X obj 51 221 vradio 15 1 1 8 radio-\$1 br\$1-4 empty 0 -8 0 10 -257985
-1 -1 3;
#X obj 68 221 vradio 15 1 1 8 radio-\$1 br\$1-5 empty 0 -8 0 10 -260097
-1 -1 3;
#X obj 85 221 vradio 15 1 1 8 radio-\$1 br\$1-6 empty 0 -8 0 10 -257985
-1 -1 4;
#X obj 102 221 vradio 15 1 1 8 radio-\$1 br\$1-7 empty 0 -8 0 10 -257985
-1 -1 3;
#X obj 119 221 vradio 15 1 1 8 radio-\$1 br\$1-8 empty 0 -8 0 10 -257985
-1 -1 3;
#X obj -1 343 hradio 17 1 0 32 lieu_bar_chg lieu_bar empty 0 -8 0 10
-258113 -262144 -1 0;
#X obj 0 88 vsl 15 128 0 127 0 1 vsl-\$1 vs\$1-1 empty 0 -9 0 10 -258113
-1 -1 6900 0;
#X obj 17 88 vsl 15 128 0 127 0 1 vsl-\$1 vs\$1-2 empty 0 -9 0 10 -257985
-1 -1 8000 0;
#X obj 34 88 vsl 15 128 0 127 0 1 vsl-\$1 vs\$1-3 empty 0 -9 0 10 -257985
-1 -1 5100 0;
#X obj 51 88 vsl 15 128 0 127 0 1 vsl-\$1 vs\$1-4 empty 0 -9 0 10 -257985
-1 -1 6900 0;
#X obj 68 88 vsl 15 128 0 127 0 1 vsl-\$1 vs\$1-5 empty 0 -9 0 10 -260097
-1 -1 5900 0;
#X obj 85 88 vsl 15 128 0 127 0 1 vsl-\$1 vs\$1-6 empty 0 -9 0 10 -257985
-1 -1 8500 0;
#X obj 102 88 vsl 15 128 0 127 0 1 vsl-\$1 vs\$1-7 empty 0 -9 0 10
-257985 -1 -1 5200 0;
#X obj 119 88 vsl 15 128 0 127 0 1 vsl-\$1 vs\$1-8 empty 0 -9 0 10
-257985 -1 -1 6600 0;
#X obj 136 221 vradio 15 1 1 8 radio-\$1 br\$1-9 empty 0 -8 0 10 -260097
-1 -1 4;
#X obj 153 221 vradio 15 1 1 8 radio-\$1 br\$1-10 empty 0 -8 0 10 -257985
-1 -1 3;
#X obj 170 221 vradio 15 1 1 8 radio-\$1 br\$1-11 empty 0 -8 0 10 -257985
-1 -1 3;
#X obj 187 221 vradio 15 1 1 8 radio-\$1 br\$1-12 empty 0 -8 0 10 -257985
-1 -1 4;
#X obj 204 221 vradio 15 1 1 8 radio-\$1 br\$1-13 empty 0 -8 0 10 -260097
-1 -1 3;
#X obj 221 221 vradio 15 1 1 8 radio-\$1 br\$1-14 empty 0 -8 0 10 -257985
-1 -1 4;
#X obj 238 221 vradio 15 1 1 8 radio-\$1 br\$1-15 empty 0 -8 0 10 -257985
-1 -1 4;
#X obj 255 221 vradio 15 1 1 8 radio-\$1 br\$1-16 empty 0 -8 0 10 -257985
-1 -1 3;
#X obj 136 88 vsl 15 128 0 127 0 1 vsl-\$1 vs\$1-9 empty 0 -9 0 10
-260097 -1 -1 8000 0;
#X obj 153 88 vsl 15 128 0 127 0 1 vsl-\$1 vs\$1-10 empty 0 -9 0 10
-257985 -1 -1 6500 0;
#X obj 170 88 vsl 15 128 0 127 0 1 vsl-\$1 vs\$1-11 empty 0 -9 0 10
-257985 -1 -1 5100 0;
#X obj 187 88 vsl 15 128 0 127 0 1 vsl-\$1 vs\$1-12 empty 0 -9 0 10
-257985 -1 -1 9900 0;
#X obj 204 88 vsl 15 128 0 127 0 1 vsl-\$1 vs\$1-13 empty 0 -9 0 10
-260097 -1 -1 7100 0;
#X obj 221 88 vsl 15 128 0 127 0 1 vsl-\$1 vs\$1-14 empty 0 -9 0 10
-257985 -1 -1 6900 0;
#X obj 238 88 vsl 15 128 0 127 0 1 vsl-\$1 vs\$1-15 empty 0 -9 0 10
-257985 -1 -1 9700 0;
#X obj 255 88 vsl 15 128 0 127 0 1 vsl-\$1 vs\$1-16 empty 0 -9 0 10
-257985 -1 -1 4600 0;
#X obj 0 -47 vsl 15 128 0 127 0 1 vsl2-\$1 v2s\$1-1 empty 0 -9 0 10
-258113 -1 -1 5200 0;
#X obj 17 -47 vsl 15 128 0 127 0 1 vsl2-\$1 v2s\$1-2 empty 0 -9 0 10
-257985 -1 -1 5200 0;
#X obj 34 -47 vsl 15 128 0 127 0 1 vsl2-\$1 v2s\$1-3 empty 0 -9 0 10
-257985 -1 -1 5200 0;
#X obj 51 -47 vsl 15 128 0 127 0 1 vsl2-\$1 v2s\$1-4 empty 0 -9 0 10
-257985 -1 -1 5200 0;
#X obj 68 -47 vsl 15 128 0 127 0 1 vsl2-\$1 v2s\$1-5 empty 0 -9 0 10
-260097 -1 -1 5200 0;
#X obj 85 -47 vsl 15 128 0 127 0 1 vsl2-\$1 v2s\$1-6 empty 0 -9 0 10
-257985 -1 -1 5200 0;
#X obj 102 -47 vsl 15 128 0 127 0 1 vsl2-\$1 v2s\$1-7 empty 0 -9 0
10 -257985 -1 -1 5200 0;
#X obj 119 -47 vsl 15 128 0 127 0 1 vsl2-\$1 v2s\$1-8 empty 0 -9 0
10 -257985 -1 -1 5200 0;
#X obj 136 -47 vsl 15 128 0 127 0 1 vsl2-\$1 v2s\$1-9 empty 0 -9 0
10 -260097 -1 -1 5200 0;
#X obj 153 -47 vsl 15 128 0 127 0 1 vsl2-\$1 v2s\$1-10 empty 0 -9 0
10 -257985 -1 -1 5200 0;
#X obj 170 -47 vsl 15 128 0 127 0 1 vsl2-\$1 v2s\$1-11 empty 0 -9 0
10 -257985 -1 -1 5200 0;
#X obj 187 -47 vsl 15 128 0 127 0 1 vsl2-\$1 v2s\$1-12 empty 0 -9 0
10 -257985 -1 -1 5200 0;
#X obj 204 -47 vsl 15 128 0 127 0 1 vsl2-\$1 v2s\$1-13 empty 0 -9 0
10 -260097 -1 -1 5200 0;
#X obj 221 -47 vsl 15 128 0 127 0 1 vsl2-\$1 v2s\$1-14 empty 0 -9 0
10 -257985 -1 -1 5200 0;
#X obj 238 -47 vsl 15 128 0 127 0 1 vsl2-\$1 v2s\$1-15 empty 0 -9 0
10 -257985 -1 -1 5200 0;
#X obj 255 -47 vsl 15 128 0 127 0 1 vsl2-\$1 v2s\$1-16 empty 0 -9 0
10 -257985 -1 -1 5200 0;
#X floatatom 0 362 2 1 12 0 - ab#1-1 ab#1, f 2;
#X floatatom 17 362 2 1 12 0 - ab#1-2 ab#1, f 2;
#X floatatom 34 362 2 1 12 0 - ab#1-3 ab#1, f 2;
#X floatatom 51 362 2 1 12 0 - ab#1-4 ab#1, f 2;
#X floatatom 68 362 2 1 12 0 - ab#1-5 ab#1, f 2;
#X floatatom 85 362 2 1 12 0 - ab#1-6 ab#1, f 2;
#X floatatom 102 362 2 1 12 0 - ab#1-7 ab#1, f 2;
#X floatatom 119 362 2 1 12 0 - ab#1-8 ab#1, f 2;
#X floatatom 136 362 2 1 12 0 - ab#1-9 ab#1, f 2;
#X floatatom 153 362 2 1 12 0 - ab#1-10 ab#1, f 2;
#X floatatom 170 362 2 1 12 0 - ab#1-11 ab#1, f 2;
#X floatatom 187 362 2 1 12 0 - ab#1-12 ab#1, f 2;
#X floatatom 204 362 2 1 12 0 - ab#1-13 ab#1, f 2;
#X floatatom 221 362 2 1 12 0 - ab#1-14 ab#1, f 2;
#X floatatom 238 362 2 1 12 0 - ab#1-15 ab#1, f 2;
#X floatatom 255 362 2 1 12 0 - ab#1-16 ab#1, f 2;
#X obj 272 221 vradio 15 1 1 8 radio-\$1 br\$1-17 empty 0 -8 0 10 -258113
-1 -1 4;
#X obj 289 221 vradio 15 1 1 8 radio-\$1 br\$1-18 empty 0 -8 0 10 -257985
-1 -1 4;
#X obj 306 221 vradio 15 1 1 8 radio-\$1 br\$1-19 empty 0 -8 0 10 -257985
-1 -1 3;
#X obj 323 221 vradio 15 1 1 8 radio-\$1 br\$1-20 empty 0 -8 0 10 -257985
-1 -1 4;
#X obj 340 221 vradio 15 1 1 8 radio-\$1 br\$1-21 empty 0 -8 0 10 -260097
-1 -1 4;
#X obj 357 221 vradio 15 1 1 8 radio-\$1 br\$1-22 empty 0 -8 0 10 -257985
-1 -1 3;
#X obj 374 221 vradio 15 1 1 8 radio-\$1 br\$1-23 empty 0 -8 0 10 -257985
-1 -1 4;
#X obj 391 221 vradio 15 1 1 8 radio-\$1 br\$1-24 empty 0 -8 0 10 -257985
-1 -1 3;
#X obj 272 88 vsl 15 128 0 127 0 1 vsl-\$1 vs\$1-17 empty 0 -9 0 10
-258113 -1 -1 8900 0;
#X obj 289 88 vsl 15 128 0 127 0 1 vsl-\$1 vs\$1-18 empty 0 -9 0 10
-257985 -1 -1 5900 0;
#X obj 306 88 vsl 15 128 0 127 0 1 vsl-\$1 vs\$1-19 empty 0 -9 0 10
-257985 -1 -1 4800 0;
#X obj 323 88 vsl 15 128 0 127 0 1 vsl-\$1 vs\$1-20 empty 0 -9 0 10
-257985 -1 -1 6900 0;
#X obj 340 88 vsl 15 128 0 127 0 1 vsl-\$1 vs\$1-21 empty 0 -9 0 10
-260097 -1 -1 10400 0;
#X obj 357 88 vsl 15 128 0 127 0 1 vsl-\$1 vs\$1-22 empty 0 -9 0 10
-257985 -1 -1 8700 0;
#X obj 374 88 vsl 15 128 0 127 0 1 vsl-\$1 vs\$1-23 empty 0 -9 0 10
-257985 -1 -1 8100 0;
#X obj 391 88 vsl 15 128 0 127 0 1 vsl-\$1 vs\$1-24 empty 0 -9 0 10
-257985 -1 -1 6200 0;
#X obj 408 221 vradio 15 1 1 8 radio-\$1 br\$1-25 empty 0 -8 0 10 -260097
-1 -1 3;
#X obj 425 221 vradio 15 1 1 8 radio-\$1 br\$1-26 empty 0 -8 0 10 -257985
-1 -1 4;
#X obj 442 221 vradio 15 1 1 8 radio-\$1 br\$1-27 empty 0 -8 0 10 -257985
-1 -1 3;
#X obj 459 221 vradio 15 1 1 8 radio-\$1 br\$1-28 empty 0 -8 0 10 -257985
-1 -1 3;
#X obj 476 221 vradio 15 1 1 8 radio-\$1 br\$1-29 empty 0 -8 0 10 -260097
-1 -1 3;
#X obj 493 221 vradio 15 1 1 8 radio-\$1 br\$1-30 empty 0 -8 0 10 -257985
-1 -1 4;
#X obj 510 221 vradio 15 1 1 8 radio-\$1 br\$1-31 empty 0 -8 0 10 -257985
-1 -1 3;
#X obj 527 221 vradio 15 1 1 8 radio-\$1 br\$1-32 empty 0 -8 0 10 -257985
-1 -1 3;
#X obj 408 88 vsl 15 128 0 127 0 1 vsl-\$1 vs\$1-25 empty 0 -9 0 10
-260097 -1 -1 6900 0;
#X obj 425 88 vsl 15 128 0 127 0 1 vsl-\$1 vs\$1-26 empty 0 -9 0 10
-257985 -1 -1 8400 0;
#X obj 442 88 vsl 15 128 0 127 0 1 vsl-\$1 vs\$1-27 empty 0 -9 0 10
-257985 -1 -1 5200 0;
#X obj 459 88 vsl 15 128 0 127 0 1 vsl-\$1 vs\$1-28 empty 0 -9 0 10
-257985 -1 -1 6000 0;
#X obj 476 88 vsl 15 128 0 127 0 1 vsl-\$1 vs\$1-29 empty 0 -9 0 10
-260097 -1 -1 8000 0;
#X obj 493 88 vsl 15 128 0 127 0 1 vsl-\$1 vs\$1-30 empty 0 -9 0 10
-257985 -1 -1 7000 0;
#X obj 510 88 vsl 15 128 0 127 0 1 vsl-\$1 vs\$1-31 empty 0 -9 0 10
-257985 -1 -1 9500 0;
#X obj 527 88 vsl 15 128 0 127 0 1 vsl-\$1 vs\$1-32 empty 0 -9 0 10
-257985 -1 -1 7200 0;
#X obj 272 -47 vsl 15 128 0 127 0 1 vsl2-\$1 v2s\$1-17 empty 0 -9 0
10 -258113 -1 -1 5200 0;
#X obj 289 -47 vsl 15 128 0 127 0 1 vsl2-\$1 v2s\$1-18 empty 0 -9 0
10 -257985 -1 -1 5200 0;
#X obj 306 -47 vsl 15 128 0 127 0 1 vsl2-\$1 v2s\$1-19 empty 0 -9 0
10 -257985 -1 -1 5200 0;
#X obj 323 -47 vsl 15 128 0 127 0 1 vsl2-\$1 v2s\$1-20 empty 0 -9 0
10 -257985 -1 -1 5200 0;
#X obj 340 -47 vsl 15 128 0 127 0 1 vsl2-\$1 v2s\$1-21 empty 0 -9 0
10 -260097 -1 -1 5200 0;
#X obj 357 -47 vsl 15 128 0 127 0 1 vsl2-\$1 v2s\$1-22 empty 0 -9 0
10 -257985 -1 -1 5200 0;
#X obj 374 -47 vsl 15 128 0 127 0 1 vsl2-\$1 v2s\$1-23 empty 0 -9 0
10 -257985 -1 -1 5200 0;
#X obj 391 -47 vsl 15 128 0 127 0 1 vsl2-\$1 v2s\$1-24 empty 0 -9 0
10 -257985 -1 -1 5200 0;
#X obj 408 -47 vsl 15 128 0 127 0 1 vsl2-\$1 v2s\$1-25 empty 0 -9 0
10 -260097 -1 -1 5200 0;
#X obj 425 -47 vsl 15 128 0 127 0 1 vsl2-\$1 v2s\$1-26 empty 0 -9 0
10 -257985 -1 -1 5200 0;
#X obj 442 -47 vsl 15 128 0 127 0 1 vsl2-\$1 v2s\$1-27 empty 0 -9 0
10 -257985 -1 -1 5200 0;
#X obj 459 -47 vsl 15 128 0 127 0 1 vsl2-\$1 v2s\$1-28 empty 0 -9 0
10 -257985 -1 -1 5200 0;
#X obj 476 -47 vsl 15 128 0 127 0 1 vsl2-\$1 v2s\$1-29 empty 0 -9 0
10 -260097 -1 -1 5200 0;
#X obj 493 -47 vsl 15 128 0 127 0 1 vsl2-\$1 v2s\$1-30 empty 0 -9 0
10 -257985 -1 -1 5200 0;
#X obj 510 -47 vsl 15 128 0 127 0 1 vsl2-\$1 v2s\$1-31 empty 0 -9 0
10 -257985 -1 -1 5200 0;
#X obj 527 -47 vsl 15 128 0 127 0 1 vsl2-\$1 v2s\$1-32 empty 0 -9 0
10 -257985 -1 -1 5200 0;
#X floatatom 272 362 2 1 12 0 - ab#1-17 ab#1, f 2;
#X floatatom 289 362 2 1 12 0 - ab#1-18 ab#1, f 2;
#X floatatom 306 362 2 1 12 0 - ab#1-19 ab#1, f 2;
#X floatatom 323 362 2 1 12 0 - ab#1-20 ab#1, f 2;
#X floatatom 340 362 2 1 12 0 - ab#1-21 ab#1, f 2;
#X floatatom 357 362 2 1 12 0 - ab#1-22 ab#1, f 2;
#X floatatom 374 362 2 1 12 0 - ab#1-23 ab#1, f 2;
#X floatatom 391 362 2 1 12 0 - ab#1-24 ab#1, f 2;
#X floatatom 408 362 2 1 12 0 - ab#1-25 ab#1, f 2;
#X floatatom 425 362 2 1 12 0 - ab#1-26 ab#1, f 2;
#X floatatom 442 362 2 1 12 0 - ab#1-27 ab#1, f 2;
#X floatatom 459 362 2 1 12 0 - ab#1-28 ab#1, f 2;
#X floatatom 476 362 2 1 12 0 - ab#1-29 ab#1, f 2;
#X floatatom 493 362 2 1 12 0 - ab#1-30 ab#1, f 2;
#X floatatom 510 362 2 1 12 0 - ab#1-31 ab#1, f 2;
#X floatatom 527 362 2 1 12 0 - ab#1-32 ab#1, f 2;
#X obj 649 201 gate 8 1 1 1 1 1 1 1;
#N canvas 942 367 860 399 selected 0;
#X obj 384 55 inlet;
#X obj 418 77 loadbang;
#X obj 288 177 s lieu;
#X obj 17 302 + 1;
#X obj 17 327 outlet;
#X obj 288 155 - 1;
#X obj 384 138 t f f;
#X obj 281 55 r lieu_bar_chg;
#X msg 281 99 set \$1;
#X obj 281 77 + 1;
#X obj 141 55 inlet;
#X obj 141 327 outlet;
#N canvas 871 516 506 412 demulti 0;
#X obj 180 21 inlet;
#X msg 180 85 1;
#X obj 180 225 sel;
#X obj 180 185 counter;
#X msg 207 85 set 1;
#X obj 180 48 t b b;
#X obj 313 89 f 100;
#X obj 313 18 r tempo;
#X obj 320 65 t b f;
#X obj 332 125 / 1;
#X obj 180 142 metro;
#X msg 152 85 0;
#X obj 244 185 outlet;
#X obj 140 222 /;
#X obj 320 41 r ab\$1;
#X obj 195 205 r ab\$1;
#X obj 140 257 s ab_cnt_on_ab\$1;
#X connect 0 0 5 0;
#X connect 1 0 10 0;
#X connect 2 0 11 0;
#X connect 3 0 2 0;
#X connect 3 0 13 0;
#X connect 4 0 3 0;
#X connect 5 0 1 0;
#X connect 5 1 4 0;
#X connect 6 0 9 0;
#X connect 7 0 6 0;
#X connect 8 0 6 0;
#X connect 8 1 9 1;
#X connect 9 0 10 1;
#X connect 10 0 3 0;
#X connect 10 0 12 0;
#X connect 11 0 10 0;
#X connect 13 0 16 0;
#X connect 14 0 8 0;
#X connect 15 0 2 1;
#X connect 15 0 13 1;
#X restore 141 160 pd demulti;
#X obj 17 274 r radio-\$1;
#X obj 474 167 symbol \$1;
#X obj 384 116 counter 1 32;
#X obj 429 192 pack f s;
#X msg 429 303 \; br\$2-\$1 bang;
#X msg 523 303 \; vs\$2-\$1 bang;
#X msg 617 303 \; v2s\$2-\$1 bang;
#X msg 711 303 \; ab\$2-\$1 bang;
#X connect 0 0 15 0;
#X connect 1 0 14 0;
#X connect 1 0 15 2;
#X connect 3 0 4 0;
#X connect 5 0 2 0;
#X connect 6 0 5 0;
#X connect 6 1 16 0;
#X connect 7 0 9 0;
#X connect 8 0 15 0;
#X connect 9 0 8 0;
#X connect 10 0 12 0;
#X connect 12 0 11 0;
#X connect 13 0 3 0;
#X connect 14 0 16 1;
#X connect 15 0 6 0;
#X connect 16 0 17 0;
#X connect 16 0 18 0;
#X connect 16 0 19 0;
#X connect 16 0 20 0;
#X restore 649 176 pd selected;
#X obj 685 141 t b b;
#X obj 685 88 r general_metro;
#X obj 545 -28 spigot;
#X obj 604 -49 tgl 21 0 empty empty empty 17 7 0 10 -262144 -1 -1 0
1;
#X floatatom 545 -8 5 0 0 0 - - -, f 5;
#X obj 544 106 spigot;
#X obj 603 85 tgl 21 0 empty empty empty 17 7 0 10 -262144 -1 -1 0
1;
#X floatatom 544 126 5 0 0 0 - - -, f 5;
#N canvas 579 185 961 741 recall 0;
#X obj 539 299 t f f;
#X obj 539 244 until;
#X obj 790 252 loadbang;
#X obj 363 124 route read write;
#X obj 80 171 t b f;
#X msg 559 185 clear;
#X obj 80 262 until;
#X obj 87 389 send;
#X obj 520 153 t f b b;
#X obj 80 335 unpack f s;
#X obj 80 293 textfile reader;
#X obj 639 642 textfile writer;
#X obj 363 73 receive recall-\$1;
#X msg 520 581 write ./recall/\$2-\$1.txt;
#X obj 790 284 symbol \$1;
#X msg 107 233 read ./recall/\$2-\$1.txt \, rewind;
#X obj 826 453 r ab\$1;
#X obj 733 453 r vsl2-\$1;
#X obj 639 453 r vsl-\$1;
#X obj 545 453 r radio-\$1;
#X obj 539 269 counter 1 32;
#X obj 539 356 pack f s;
#X msg 257 397 \; br\$2-\$1 bang;
#X msg 351 397 \; vs\$2-\$1 bang;
#X msg 445 397 \; v2s\$2-\$1 bang;
#X msg 539 397 \; ab\$2-\$1 bang;
#X obj 545 490 pack f f s;
#X obj 639 490 pack f f s;
#X obj 733 490 pack f f s;
#X obj 826 490 pack f f s;
#X msg 545 531 add \$1 br\$3-\$2;
#X msg 639 531 add \$1 vs\$3-\$2;
#X msg 733 531 add \$1 v2s\$3-\$2;
#X msg 826 531 add \$1 ab\$3-\$2;
#X msg 539 220 32;
#X obj 107 201 list append \$1;
#X obj 520 556 list append \$1;
#X connect 0 0 21 0;
#X connect 0 1 26 1;
#X connect 0 1 27 1;
#X connect 0 1 28 1;
#X connect 0 1 29 1;
#X connect 1 0 20 0;
#X connect 2 0 14 0;
#X connect 2 0 20 2;
#X connect 3 0 4 0;
#X connect 3 1 8 0;
#X connect 4 0 6 0;
#X connect 4 1 35 0;
#X connect 5 0 11 0;
#X connect 6 0 10 0;
#X connect 8 0 36 0;
#X connect 8 1 34 0;
#X connect 8 2 5 0;
#X connect 9 0 7 0;
#X connect 9 1 7 1;
#X connect 10 0 9 0;
#X connect 10 1 6 1;
#X connect 12 0 3 0;
#X connect 13 0 11 0;
#X connect 14 0 21 1;
#X connect 14 0 26 2;
#X connect 14 0 27 2;
#X connect 14 0 28 2;
#X connect 14 0 29 2;
#X connect 15 0 10 0;
#X connect 16 0 29 0;
#X connect 17 0 28 0;
#X connect 18 0 27 0;
#X connect 19 0 26 0;
#X connect 20 0 0 0;
#X connect 21 0 25 0;
#X connect 21 0 24 0;
#X connect 21 0 23 0;
#X connect 21 0 22 0;
#X connect 26 0 30 0;
#X connect 27 0 31 0;
#X connect 28 0 32 0;
#X connect 29 0 33 0;
#X connect 30 0 11 0;
#X connect 31 0 11 0;
#X connect 32 0 11 0;
#X connect 33 0 11 0;
#X connect 34 0 1 0;
#X connect 35 0 15 0;
#X connect 36 0 13 0;
#X restore 938 -11 pd recall;
#X msg 911 52 read;
#X msg 911 80 write;
#X floatatom 1016 104 5 0 0 0 - - -, f 5;
#X obj 1000 50 hradio 15 1 0 8 empty empty empty 0 -8 0 10 -262144
-1 -1 0;
#X obj 955 104 pack s f;
#X obj 1000 74 + 1;
#X msg 955 129 \$1 \$2;
#X obj 955 156 send recall-\$1;
#N canvas 1073 179 693 300 init 0;
#X obj 70 95 until;
#X obj 70 40 loadbang;
#X obj 70 122 counter 1 32;
#X msg 70 176 \; ab\$2-\$1 set 1;
#X msg 70 67 32;
#X obj 198 95 until;
#X obj 198 122 counter 1 32;
#X msg 198 67 32;
#X obj 198 149 pack f s f;
#X floatatom 239 38 5 0 0 0 - - -, f 5;
#X obj 367 95 until;
#X obj 367 122 counter 1 32;
#X msg 367 67 32;
#X obj 367 149 pack f s f;
#X floatatom 394 33 5 0 0 0 - - -, f 5;
#X obj 296 107 loadbang;
#X obj 296 132 symbol \$1;
#X obj 503 95 until;
#X obj 503 122 counter 1 32;
#X msg 503 67 32;
#X obj 503 149 pack f s f;
#X floatatom 530 33 5 0 0 0 - - -, f 5;
#X msg 198 176 \; br\$2-\$1 set \$3;
#X msg 367 176 \; vs\$2-\$1 set \$3;
#X msg 503 176 \; v2s\$2-\$1 set \$3;
#X obj 70 149 list append \$1;
#X connect 0 0 2 0;
#X connect 1 0 4 0;
#X connect 2 0 25 0;
#X connect 4 0 0 0;
#X connect 5 0 6 0;
#X connect 6 0 8 0;
#X connect 7 0 5 0;
#X connect 8 0 22 0;
#X connect 9 0 8 2;
#X connect 10 0 11 0;
#X connect 11 0 13 0;
#X connect 12 0 10 0;
#X connect 13 0 23 0;
#X connect 14 0 13 2;
#X connect 15 0 16 0;
#X connect 16 0 8 1;
#X connect 16 0 13 1;
#X connect 16 0 20 1;
#X connect 17 0 18 0;
#X connect 18 0 20 0;
#X connect 19 0 17 0;
#X connect 20 0 24 0;
#X connect 21 0 20 2;
#X connect 25 0 3 0;
#X restore 846 -9 pd init;
#X obj 545 -49 r vsl2-\$1;
#X obj 544 85 r vsl-\$1;
#X obj 628 246 outlet;
#X obj 672 246 outlet;
#X obj 715 246 outlet;
#X obj 759 246 outlet;
#X obj 645 267 outlet;
#X obj 689 267 outlet;
#X obj 732 267 outlet;
#X obj 776 267 outlet;
#X obj 685 113 spigot;
#X obj 718 63 inlet;
#X connect 129 0 151 0;
#X connect 129 1 155 0;
#X connect 129 2 152 0;
#X connect 129 3 156 0;
#X connect 129 4 153 0;
#X connect 129 5 157 0;
#X connect 129 6 154 0;
#X connect 129 7 158 0;
#X connect 130 0 129 0;
#X connect 130 1 129 1;
#X connect 131 0 130 0;
#X connect 131 1 130 1;
#X connect 132 0 159 0;
#X connect 133 0 135 0;
#X connect 134 0 133 1;
#X connect 136 0 138 0;
#X connect 137 0 136 1;
#X connect 140 0 144 0;
#X connect 141 0 144 0;
#X connect 143 0 145 0;
#X connect 144 0 146 0;
#X connect 145 0 144 1;
#X connect 145 0 142 0;
#X connect 146 0 147 0;
#X connect 149 0 133 0;
#X connect 150 0 136 0;
#X connect 159 0 131 0;
#X connect 160 0 159 1;
#X coords 0 442 1 441 85 60 0;
