#N canvas 203 51 1076 612 10;
#X declare -path instrus;
#X obj 776 179 *~ 1;
#X obj 716 146 sel 1;
#X obj 716 180 tgl 15 0 empty empty empty 17 7 0 10 -262144 -1 -1 0
1;
#X obj 716 208 rec1 DnB;
#X obj 716 113 r lieu;
#X obj 280 141 r go;
#X obj 280 169 metro 100;
#X obj 829 94 vsl 15 128 0 1 0 0 empty empty empty 0 -9 0 10 -262144
-1 -1 0 1;
#N canvas 480 384 332 141 bidouille 0;
#X obj 35 30 r lieu;
#X msg 35 54 set \$1;
#X obj 35 79 s lieu_bar;
#X connect 0 0 1 0;
#X connect 1 0 2 0;
#X restore 91 67 pd bidouille;
#X obj 294 78 send tempo;
#X floatatom 294 55 5 0 0 0 - - -;
#X obj 331 141 r tempo;
#X obj 280 195 s general_metro;
#N canvas 466 239 493 425 program 0;
#X obj 23 277 list split 1;
#X obj 23 183 list append;
#X obj 130 20 inlet;
#X obj 23 75 r lieu;
#X obj 23 401 send recall;
#X obj 165 183 list append;
#X obj 165 229 t b l;
#X obj 228 20 inlet;
#X obj 192 275 route bang;
#X obj 86 134 list append;
#X text 234 41 inlet0: une liste des patterns à tourner;
#X text 234 51 inlet1: patterns à ajouter à la fin;
#X obj 35 306 s curpat;
#X obj 130 90 t b l b;
#X obj 23 134 sel 15;
#X msg 23 368 read \$1;
#X obj 23 334 change;
#X obj 68 75 r prog;
#X obj 23 104 spigot 1;
#X connect 0 0 12 0;
#X connect 0 0 16 0;
#X connect 0 1 5 0;
#X connect 0 2 5 0;
#X connect 1 0 0 0;
#X connect 2 0 13 0;
#X connect 3 0 18 0;
#X connect 5 0 6 0;
#X connect 6 0 5 1;
#X connect 6 1 8 0;
#X connect 7 0 5 1;
#X connect 8 0 9 0;
#X connect 8 1 1 1;
#X connect 9 0 1 1;
#X connect 13 0 9 0;
#X connect 13 1 9 1;
#X connect 13 2 5 1;
#X connect 14 0 1 0;
#X connect 15 0 4 0;
#X connect 16 0 15 0;
#X connect 17 0 18 1;
#X connect 18 0 14 0;
#X restore 478 145 pd program;
#X obj 468 252 r curpat;
#X floatatom 468 274 5 0 0 0 - - -;
#X msg 552 95 4;
#X obj 468 205 tgl 40 0 go empty Play 0 -7 0 10 -4034 -1 -1 1 1;
#X obj 515 205 tgl 40 1 prog empty Program 0 -7 0 10 -4032 -1 -1 0
1;
#X obj 607 188 loadbang;
#X msg 511 95 2;
#X msg 478 62 1 1 1 1 2 2 5 5 5 6 6 6;
#X obj 126 323 pattern jazz;
#X obj 367 374 kick drums;
#X obj 379 394 snare drums;
#X obj 443 373 tsh drums;
#X obj 276 278 declare -path instrus;
#X obj 185 378 wobass jazz;
#X obj 117 355 noise4 jazz;
#X obj 66 377 noise3 jazz;
#X obj 427 337 pattern drums;
#X obj 126 305 tgl 15 0 empty empty empty 17 7 0 10 -262144 -1 -1 0
1;
#X obj 427 319 tgl 15 0 empty empty empty 17 7 0 10 -262144 -1 -1 1
1;
#X text 652 6 FONCTIONNE SOUS PD 43.4 EXTENDED AVEC NOTAMMENT LA LIBRAIRIE
cyclone. INSTALLER EGALEMENT L'OBJET ceff~.dll EN LE PLACANT DANS LE
DOSSIER extra DE PD. LANCER PLAY ET ACTIVER LE TRIGER DES pattern.
ENTRER ENSUITE DANS LES OBJETS pattern POUR MODIFIER LA PARTITION.
;
#X obj 237 492 dac~ 1 2 3 4 5 6 7 8;
#N canvas 944 497 554 300 attenuation------ 0;
#X obj 56 54 inlet~;
#X obj 56 232 outlet~;
#X obj 56 152 *~ 1;
#X obj 475 54 inlet;
#X obj 105 54 inlet~;
#X obj 105 232 outlet~;
#X obj 105 152 *~ 1;
#X obj 155 54 inlet~;
#X obj 155 232 outlet~;
#X obj 155 152 *~ 1;
#X obj 205 54 inlet~;
#X obj 205 232 outlet~;
#X obj 205 152 *~ 1;
#X obj 255 54 inlet~;
#X obj 255 232 outlet~;
#X obj 255 152 *~ 1;
#X obj 305 54 inlet~;
#X obj 305 232 outlet~;
#X obj 305 152 *~ 1;
#X obj 355 54 inlet~;
#X obj 355 232 outlet~;
#X obj 355 152 *~ 1;
#X obj 405 54 inlet~;
#X obj 405 232 outlet~;
#X obj 405 152 *~ 1;
#X connect 0 0 2 0;
#X connect 2 0 1 0;
#X connect 3 0 24 1;
#X connect 3 0 21 1;
#X connect 3 0 18 1;
#X connect 3 0 15 1;
#X connect 3 0 12 1;
#X connect 3 0 9 1;
#X connect 3 0 6 1;
#X connect 3 0 2 1;
#X connect 4 0 6 0;
#X connect 6 0 5 0;
#X connect 7 0 9 0;
#X connect 9 0 8 0;
#X connect 10 0 12 0;
#X connect 12 0 11 0;
#X connect 13 0 15 0;
#X connect 15 0 14 0;
#X connect 16 0 18 0;
#X connect 18 0 17 0;
#X connect 19 0 21 0;
#X connect 21 0 20 0;
#X connect 22 0 24 0;
#X connect 24 0 23 0;
#X restore 237 469 pd attenuation------;
#X obj 529 359 vsl 15 128 0 1 0 0 empty empty empty 0 -9 0 10 -262144
-1 -1 12700 1;
#X floatatom 529 531 5 0 0 0 - - -;
#X connect 0 0 3 1;
#X connect 2 0 3 0;
#X connect 4 0 1 0;
#X connect 5 0 6 0;
#X connect 6 0 12 0;
#X connect 7 0 0 1;
#X connect 10 0 9 0;
#X connect 11 0 6 1;
#X connect 14 0 15 0;
#X connect 16 0 13 1;
#X connect 19 0 18 0;
#X connect 20 0 13 0;
#X connect 21 0 13 0;
#X connect 22 0 29 0;
#X connect 22 1 28 0;
#X connect 22 2 27 0;
#X connect 23 0 35 4;
#X connect 24 0 35 5;
#X connect 25 0 35 6;
#X connect 27 0 35 2;
#X connect 28 0 35 1;
#X connect 29 0 35 0;
#X connect 30 0 23 0;
#X connect 30 1 24 0;
#X connect 30 2 25 0;
#X connect 31 0 22 0;
#X connect 32 0 30 0;
#X connect 35 0 34 0;
#X connect 35 1 34 1;
#X connect 35 2 34 2;
#X connect 35 4 34 4;
#X connect 35 5 34 5;
#X connect 35 6 34 6;
#X connect 36 0 35 8;
#X connect 36 0 37 0;
