#N canvas 1343 486 516 438 10;
#X obj 230 273 comport;
#X obj 172 33 vsl 15 128 0 127 0 0 empty empty empty 0 -9 0 10 -262144
-1 -1 2250 1;
#X msg 103 187 126 6 2 0 0 1 2 3 4 5 6 7 8 9 10 11 12 \$1 231;
#X obj 269 316 route ports;
#X obj 150 358 print Ports;
#X msg 358 251 close;
#X msg 343 222 open 1;
#X msg 281 216 ports;
#X connect 0 0 4 0;
#X connect 0 1 3 0;
#X connect 0 1 4 0;
#X connect 1 0 2 0;
#X connect 2 0 0 0;
#X connect 5 0 0 0;
#X connect 6 0 0 0;
#X connect 7 0 0 0;
