#N canvas -8 -8 1904 986 12;
#X floatatom 49 333 5 0 0 0 - - -, f 5;
#X floatatom 87 298 5 0 0 0 - - -, f 5;
#X symbolatom 164 251 10 0 0 0 - - -, f 10;
#X text 102 332 received data;
#X text 140 298 number of connections;
#X msg 44 50 print;
#X floatatom 125 272 5 0 0 0 - - -, f 5;
#X text 183 276 socket number;
#X msg 103 179 broadcast hallo world!;
#X text 288 179 send to all clients;
#X text 144 33 written by Olaf Matthes <olaf.matthes@gmx.de>;
#X obj 49 223 netserver 3000;
#X text 137 120 send message to client no. 1;
#X text 256 251 client's IP address;
#X obj 477 189 netclient;
#X msg 498 116 connect localhost 3000;
#X msg 511 143 disconnect;
#X msg 477 84 send 23;
#X floatatom 544 218 5 0 0 0 - - -, f 5;
#X msg 83 91 send 380 17.3;
#X obj 477 245 route float list;
#X text 204 91 "send <socketnumber> <data>";
#X text 110 70 send message on specified socket;
#X text 239 145 "client <clientnumber> <data>";
#X text 48 379 This example demonstrates how to set up a client/server
connection. Data sent by the client get's received and displayed by
the server imediately. Or just try it the other way round...;
#X text 38 15 netclient :: simple client that connects to netserver
;
#X obj 555 314 route you're who's_there;
#X msg 204 208 broadcast who's_there;
#X obj 517 367 list;
#X obj 14 306 pack s f;
#X obj 22 611 rawprint RECEVIE;
#X obj 56 542 list trim;
#X obj 17 269 route I'm;
#X obj 513 436 list trim;
#X obj 513 411 list prepend send I'm;
#X obj 170 524 rawprint OTHER;
#X msg 98 142 client 1 you're 45a;
#X connect 5 0 11 0;
#X connect 8 0 11 0;
#X connect 11 0 32 0;
#X connect 11 1 1 0;
#X connect 11 2 6 0;
#X connect 11 2 29 1;
#X connect 11 3 2 0;
#X connect 14 0 20 0;
#X connect 14 1 18 0;
#X connect 15 0 14 0;
#X connect 16 0 14 0;
#X connect 17 0 14 0;
#X connect 19 0 11 0;
#X connect 20 2 26 0;
#X connect 26 0 28 1;
#X connect 26 1 28 0;
#X connect 27 0 11 0;
#X connect 28 0 34 0;
#X connect 29 0 31 0;
#X connect 31 0 30 0;
#X connect 32 0 29 0;
#X connect 32 1 35 0;
#X connect 33 0 14 0;
#X connect 34 0 33 0;
#X connect 36 0 11 0;
