#N canvas 379 306 819 667 10;
#X obj 324 324 line~;
#X obj 186 197 inlet;
#X obj 112 279 noise~;
#X obj 325 350 phasor~;
#X obj 325 372 -~ 0.5;
#X obj 166 496 outlet~;
#X obj 166 368 vcf~ 10;
#X obj 267 404 osc~;
#X obj 404 381 osc~;
#X obj 324 478 *~ 0.3;
#X obj 186 291 line~;
#X msg 186 269 \$1 100;
#X msg 324 297 \$1 100;
#X obj 324 251 inlet;
#X obj 404 342 *~;
#X obj 267 383 *~;
#X obj 267 180 inlet~;
#X obj 419 292 inlet~;
#X obj 186 334 *~;
#X connect 0 0 3 0;
#X connect 0 0 14 0;
#X connect 0 0 15 1;
#X connect 1 0 11 0;
#X connect 2 0 6 0;
#X connect 3 0 4 0;
#X connect 4 0 9 0;
#X connect 6 0 5 0;
#X connect 7 0 9 0;
#X connect 8 0 9 0;
#X connect 9 0 5 0;
#X connect 10 0 18 0;
#X connect 11 0 10 0;
#X connect 12 0 0 0;
#X connect 13 0 12 0;
#X connect 14 0 8 0;
#X connect 15 0 7 0;
#X connect 16 0 15 0;
#X connect 16 0 18 1;
#X connect 17 0 14 1;
#X connect 18 0 6 1;
