#N canvas 962 294 674 528 10;
#X obj 290 227 soundfiler;
#X obj 142 46 inlet;
#X obj 290 139 openpanel;
#X text 247 76 chercher un son;
#X obj 290 259 / 44.1;
#X msg 275 348 0 \, 1 \$1;
#X obj 275 303 f;
#X obj 492 178 soundfile_info;
#X obj 492 242 / 1000;
#X msg 492 156 read \$1;
#X text 506 222 Samplerate/ms;
#X obj 347 373 delay;
#X obj 275 325 t f b f;
#X obj 347 444 outlet;
#X obj 449 341 table \$1_sonL;
#X obj 535 341 table \$1_sonR;
#X obj 354 139 symbol \$1;
#X msg 290 200 read -resize \$1 \$2_sonL \$2_sonR;
#X obj 271 63 bng 15 250 50 0 empty empty empty 17 7 0 10 -262144 -1
-1;
#X obj 290 167 pack s s;
#X obj 492 200 unpack 1;
#X obj 109 245 gate 2;
#X obj 109 75 loadbang;
#X msg 109 97 1;
#X msg 75 117 2;
#X obj 142 268 t b b;
#X obj 169 350 f;
#X obj 169 373 s spls-\$1;
#X obj 271 100 t b b b;
#X msg 224 305 stop;
#X obj 275 444 outlet;
#X obj 142 205 route bang load stop;
#X text 232 29 LOOK AT THE HELP PATCH !!;
#X msg 215 333 0;
#X connect 0 0 4 0;
#X connect 0 0 26 1;
#X connect 1 0 31 0;
#X connect 2 0 9 0;
#X connect 2 0 19 0;
#X connect 4 0 6 1;
#X connect 5 0 30 0;
#X connect 6 0 12 0;
#X connect 7 0 20 0;
#X connect 8 0 4 1;
#X connect 9 0 7 0;
#X connect 11 0 13 0;
#X connect 12 0 5 0;
#X connect 12 1 11 0;
#X connect 12 2 11 1;
#X connect 16 0 19 1;
#X connect 17 0 0 0;
#X connect 18 0 28 0;
#X connect 19 0 17 0;
#X connect 20 0 8 0;
#X connect 21 0 28 0;
#X connect 21 1 25 0;
#X connect 22 0 23 0;
#X connect 23 0 21 0;
#X connect 24 0 21 0;
#X connect 25 0 6 0;
#X connect 25 1 26 0;
#X connect 26 0 27 0;
#X connect 28 0 24 0;
#X connect 28 1 2 0;
#X connect 28 2 16 0;
#X connect 29 0 11 0;
#X connect 31 0 21 1;
#X connect 31 1 28 0;
#X connect 31 2 29 0;
#X connect 31 2 33 0;
#X connect 33 0 30 0;
