#N canvas 674 364 608 579 10;
#X obj 110 211 *;
#X floatatom 281 47 8 0 0 2 duree(ms) - -;
#N canvas 0 0 450 300 (subpatch) 0;
#X array \$0-shape 1920 float 2;
#X coords 0 1 1920 -1 290 200 1 0 0;
#X restore 225 79 graph;
#X obj 110 258 pack;
#X obj 138 234 \$0;
#X msg 96 289 \; \$2-shape resize \$1;
#X obj 138 211 loadbang;
#X obj 404 366 metro 100;
#X obj 350 47 tgl 16 0 empty empty empty 17 7 0 10 -262144 -1 -1 0
1;
#X obj 513 12 inlet;
#X floatatom 369 47 8 1 10000 2 refresh(ms) - -;
#X obj 19 335 inlet~;
#X obj 469 366 b;
#X text 455 30 anything ^;
#X text 443 39 to refresh |;
#X obj 404 389 tabwrite~ \$0-shape;
#X obj 151 19 inlet;
#X obj 53 112 delay 20;
#X obj 110 160 max 0;
#X obj 110 137 f;
#X obj 98 89 t b f;
#X msg 151 160 set \$1;
#X obj 437 55 bng 15 250 50 0 empty empty empty 17 7 0 10 -262144 -1
-1;
#X obj 151 41 t b f;
#X obj 151 137 f;
#X obj 517 349 spigot;
#X obj 30 167 samplerate~;
#X obj 30 189 * 0.001;
#X obj 110 188 pack f f;
#X obj 30 144 loadbang;
#X connect 0 0 3 0;
#X connect 1 0 20 0;
#X connect 3 0 5 0;
#X connect 4 0 3 1;
#X connect 6 0 4 0;
#X connect 7 0 15 0;
#X connect 8 0 7 0;
#X connect 8 0 25 1;
#X connect 9 0 12 0;
#X connect 10 0 7 1;
#X connect 11 0 15 0;
#X connect 12 0 15 0;
#X connect 12 0 25 0;
#X connect 16 0 23 0;
#X connect 17 0 19 0;
#X connect 18 0 24 1;
#X connect 18 0 28 0;
#X connect 19 0 18 0;
#X connect 20 0 17 0;
#X connect 20 1 19 1;
#X connect 21 0 1 0;
#X connect 22 0 15 0;
#X connect 23 0 24 0;
#X connect 23 1 20 0;
#X connect 24 0 21 0;
#X connect 25 0 7 0;
#X connect 26 0 27 0;
#X connect 27 0 28 1;
#X connect 28 0 0 0;
#X connect 29 0 26 0;
#X coords 0 -1 1 1 300 250 1 220 30;
