#N canvas 945 213 393 377 10;
#X obj 132 211 *~ -1;
#X obj 131 186 clip~ 0 0.5;
#X obj 34 186 clip~ -0.5 0;
#X obj 85 293 outlet~;
#X obj 35 150 -~ 0.5;
#X obj 131 149 -~ 0.5;
#X obj 85 269 +~ 1;
#X obj 86 247 *~ 4;
#X obj 119 9 inlet;
#X obj 33 9 loadbang;
#X obj 119 81 + 0.5;
#X obj 131 118 phasor~;
#X obj 34 120 phasor~;
#X obj 60 79 \$1;
#X obj 33 34 t b b;
#X connect 0 0 7 0;
#X connect 1 0 0 0;
#X connect 2 0 7 0;
#X connect 4 0 2 0;
#X connect 5 0 1 0;
#X connect 6 0 3 0;
#X connect 7 0 6 0;
#X connect 8 0 10 0;
#X connect 9 0 14 0;
#X connect 10 0 11 1;
#X connect 10 0 12 1;
#X connect 11 0 5 0;
#X connect 12 0 4 0;
#X connect 13 0 11 0;
#X connect 13 0 12 0;
#X connect 14 0 10 0;
#X connect 14 1 13 0;
