#N canvas 514 204 1094 759 16;
#X declare -path C:/pd/TRAVAIL/TOOLS;
#X obj 173 18 path C:/pd/TRAVAIL/TOOLS;
#X obj 524 102 bng 15 250 50 0 empty empty empty 17 7 0 10 -262144
-1 -1;
#X obj 718 476 dac~;
#X obj 749 430 *~ 1;
#X obj 809 406 hsl 128 15 0 1 0 0 empty empty empty -2 -8 0 10 -262144
-1 -1 0 1;
#X obj 680 430 *~ 1;
#X msg 589 91 load;
#X obj 500 152 modsnd_insert~ desert;
#X obj 385 305 modsnd_send~ desert;
#X obj 57 517 see;
#X obj 528 262 modsnd_send~ desert;
#X obj 95 246 line~;
#X obj 243 365 bng 15 250 50 0 empty empty empty 17 7 0 10 -262144
-1 -1;
#X msg 95 182 0 \, 1 11;
#X obj 92 409 ceff~;
#X floatatom 149 373 5 0 0 0 - - -;
#X obj 93 347 *~ 2;
#X obj 92 374 -~ 1;
#X obj 92 437 /~ 2;
#X obj 403 524 exp;
#X floatatom 406 561 5 0 0 0 - - -;
#X floatatom 390 491 5 0 0 0 - - -;
#X obj 85 465 +~ 0.5;
#X obj 95 143 metro 500;
#X obj 110 115 tgl 15 0 empty empty empty 17 7 0 10 -262144 -1 -1 0
1;
#X obj 281 169 exp~;
#X obj 279 262 ceff~;
#X floatatom 336 226 5 0 0 0 - - -;
#X obj 280 200 *~ 2;
#X obj 279 227 -~ 1;
#X obj 279 290 /~ 2;
#X obj 282 132 -~ 1;
#X obj 278 320 +~ 0.5;
#X obj 271 417 ceff~;
#X floatatom 328 381 5 0 0 0 - - -;
#X obj 272 355 *~ 2;
#X obj 271 382 -~ 1;
#X obj 271 445 /~ 2;
#X obj 264 473 +~ 0.5;
#X obj 513 510 tgl 15 0 empty empty empty 17 7 0 10 -262144 -1 -1 0
1;
#X obj 652 341 ceff~;
#X obj 473 343 ceff~;
#X obj 722 323 hsl 128 15 0 1 0 0 empty empty empty -2 -8 0 10 -262144
-1 -1 0 1;
#X obj 534 528 rec2 modsnd;
#X obj 828 90 bng 15 250 50 0 empty empty empty 17 7 0 10 -262144 -1
-1;
#X msg 887 85 load;
#X obj 801 123 modsnd_insert~ glong;
#X obj 784 230 modsnd_send~ glong;
#X connect 1 0 7 0;
#X connect 3 0 2 1;
#X connect 4 0 3 1;
#X connect 4 0 5 1;
#X connect 5 0 2 0;
#X connect 6 0 7 0;
#X connect 7 0 10 0;
#X connect 7 0 31 0;
#X connect 7 1 1 0;
#X connect 8 0 41 0;
#X connect 8 0 43 1;
#X connect 8 1 40 0;
#X connect 10 0 5 0;
#X connect 10 0 43 1;
#X connect 10 1 3 0;
#X connect 10 1 43 2;
#X connect 11 0 16 0;
#X connect 12 0 9 2;
#X connect 13 0 11 0;
#X connect 13 0 12 0;
#X connect 14 0 18 0;
#X connect 15 0 14 1;
#X connect 16 0 17 0;
#X connect 17 0 14 0;
#X connect 18 0 22 0;
#X connect 19 0 20 0;
#X connect 21 0 19 0;
#X connect 22 0 9 0;
#X connect 23 0 13 0;
#X connect 24 0 23 0;
#X connect 25 0 28 0;
#X connect 26 0 30 0;
#X connect 27 0 26 1;
#X connect 28 0 29 0;
#X connect 29 0 26 0;
#X connect 30 0 32 0;
#X connect 31 0 25 0;
#X connect 32 0 8 0;
#X connect 33 0 37 0;
#X connect 34 0 33 1;
#X connect 35 0 36 0;
#X connect 36 0 33 0;
#X connect 37 0 38 0;
#X connect 39 0 43 0;
#X connect 40 0 3 0;
#X connect 40 0 43 2;
#X connect 41 0 5 0;
#X connect 42 0 40 1;
#X connect 42 0 41 1;
#X connect 44 0 46 0;
#X connect 45 0 46 0;
#X connect 46 0 47 0;
#X connect 46 1 44 0;
#X connect 47 0 5 0;
#X connect 47 0 43 1;
#X connect 47 1 3 0;
#X connect 47 1 43 2;
