#N canvas 289 12 1440 969 16;
#X declare -path C:/pd/TRAVAIL/TOOLS;
#X obj 548 100 bng 15 250 50 0 empty empty empty 17 7 0 10 -262144
-1 -1;
#X msg 652 82 load;
#X obj 510 180 modsnd_insert~ solo;
#X obj 510 430 modsnd_send~ solo;
#X obj 866 37 path C:/pd/TRAVAIL/TOOLS;
#X obj 599 364 *~ 0.5;
#X obj 598 329 cos~;
#X obj 658 741 dac~;
#X obj 599 394 +~ 0.5;
#X obj 598 215 *~ 0.5;
#X obj 598 252 +~ 0.5;
#X obj 876 594 kick;
#X obj 843 568 bng 15 250 50 0 empty empty empty 17 7 0 10 -262144
-1 -1;
#X obj 712 597 snare 1;
#X obj 101 163 s vsl-1;
#X obj 106 261 s vsl2-1;
#X obj 112 101 hsl 128 15 0 127 0 0 empty empty empty -2 -8 0 10 -262144
-1 -1 2900 1;
#X obj 141 230 hsl 128 15 0 127 0 0 empty empty empty -2 -8 0 10 -262144
-1 -1 1400 1;
#X obj 682 585 bng 15 250 50 0 empty empty empty 17 7 0 10 -262144
-1 -1;
#X obj 203 273 tgl 15 0 empty empty empty 17 7 0 10 -262144 -1 -1 0
1;
#X obj 219 453 sel 0;
#X obj 219 490 counter 1 4;
#X obj -105 650 sel 1 2 3 4 5 6 7 8;
#X obj 219 378 counter 1 8;
#X obj 328 339 loadbang;
#X obj 219 416 mod 8;
#X obj 10 338 sel 1;
#X msg 668 134 pause;
#X obj 787 762 rec1 kick-snare;
#X obj 863 647 *~ 0.5;
#X obj 203 339 metro 93.75;
#X obj 10 406 + 1;
#X obj 0 475 gate 8 1 1 1 1 1;
#X obj 48 590 sel 1 2 3 4 5 6 7 8;
#X floatatom -129 483 5 0 0 0 - - -;
#X obj -129 522 bng 15 250 50 0 empty empty empty 17 7 0 10 -262144
-1 -1;
#X obj 10 373 random 8;
#X obj 334 617 + 1;
#X obj 290 545 t b b;
#X obj 334 662 gate 4 1 1 1 1;
#X obj 334 584 random 4;
#X obj 114 759 sel 1 2 3 4 5 6 7 8;
#X obj 696 547 r snare;
#X obj -101 700 s snare;
#X obj 11 699 s kick;
#X obj 875 537 r kick;
#X obj 101 645 s snare;
#X obj 186 642 s kick;
#X obj 292 722 s snare;
#X obj 404 721 s kick;
#X obj 489 702 s tsh;
#X obj 1019 554 bng 15 250 50 0 empty empty empty 17 7 0 10 -262144
-1 -1;
#X obj 301 37 hsl 128 15 0 127 0 0 empty empty empty -2 -8 0 10 -262144
-1 -1 2200 1;
#X obj 290 99 s vsl-2;
#X obj 973 517 r tsh;
#X obj 954 578 tsh 2;
#X obj 134 818 s snare;
#X obj 203 297 t f b;
#X obj 792 729 tgl 15 0 empty empty empty 17 7 0 10 -262144 -1 -1 0
1;
#X floatatom 411 857 5 0 0 0 - - -;
#X obj 395 888 sel 0 1;
#X msg 444 921 1;
#X msg 397 921 0;
#X obj -52 339 bng 15 250 50 0 empty empty empty 17 7 0 10 -262144
-1 -1;
#X obj 395 827 counter 96;
#X connect 0 0 2 0;
#X connect 1 0 2 0;
#X connect 2 0 3 0;
#X connect 2 1 0 0;
#X connect 3 0 7 0;
#X connect 3 0 7 1;
#X connect 5 0 8 0;
#X connect 6 0 5 0;
#X connect 9 0 10 0;
#X connect 10 0 6 0;
#X connect 11 0 29 0;
#X connect 13 0 29 0;
#X connect 16 0 14 0;
#X connect 17 0 15 0;
#X connect 19 0 57 0;
#X connect 20 0 21 0;
#X connect 21 0 26 0;
#X connect 22 0 44 0;
#X connect 22 2 43 0;
#X connect 22 3 44 0;
#X connect 22 4 43 0;
#X connect 22 4 44 0;
#X connect 22 6 44 0;
#X connect 22 7 43 0;
#X connect 23 0 25 0;
#X connect 23 0 32 1;
#X connect 24 0 23 2;
#X connect 24 0 21 2;
#X connect 25 0 20 0;
#X connect 26 0 36 0;
#X connect 26 0 64 0;
#X connect 27 0 2 0;
#X connect 29 0 28 1;
#X connect 29 0 7 1;
#X connect 29 0 7 0;
#X connect 30 0 23 0;
#X connect 31 0 32 0;
#X connect 31 0 34 0;
#X connect 32 0 22 0;
#X connect 32 1 22 0;
#X connect 32 2 22 0;
#X connect 32 3 33 0;
#X connect 32 4 38 0;
#X connect 32 5 41 0;
#X connect 32 6 38 0;
#X connect 32 7 38 0;
#X connect 33 0 47 0;
#X connect 33 1 46 0;
#X connect 33 3 47 0;
#X connect 33 4 46 0;
#X connect 33 5 47 0;
#X connect 33 7 46 0;
#X connect 34 0 35 0;
#X connect 36 0 31 0;
#X connect 37 0 39 0;
#X connect 38 0 39 1;
#X connect 38 1 40 0;
#X connect 39 0 48 0;
#X connect 39 1 49 0;
#X connect 39 2 48 0;
#X connect 39 2 49 0;
#X connect 39 3 50 0;
#X connect 40 0 37 0;
#X connect 41 0 56 0;
#X connect 41 1 56 0;
#X connect 41 2 56 0;
#X connect 41 3 56 0;
#X connect 41 4 56 0;
#X connect 41 6 56 0;
#X connect 41 7 56 0;
#X connect 42 0 13 0;
#X connect 42 0 18 0;
#X connect 45 0 11 0;
#X connect 45 0 12 0;
#X connect 52 0 53 0;
#X connect 54 0 51 0;
#X connect 54 0 55 0;
#X connect 55 0 29 0;
#X connect 57 0 30 0;
#X connect 57 1 24 0;
#X connect 58 0 28 0;
#X connect 60 0 62 0;
#X connect 60 1 61 0;
#X connect 61 0 58 0;
#X connect 62 0 58 0;
#X connect 63 0 36 0;
#X connect 64 0 59 0;
#X connect 64 0 60 0;
