#N canvas 0 0 468 438 10;
#X obj 54 159 osc~;
#X obj 54 130 line~;
#X obj 107 29 inlet;
#X msg 54 103 220 \, 20 50;
#X obj 159 137 line~;
#X msg 159 103 1 \, 0 100;
#X obj 54 305 *~;
#X obj 54 242 ceff~;
#X msg 126 103 0.2;
#X obj 251 192 f 0;
#X obj 251 215 / 127;
#X obj 107 53 t b b b b b;
#X obj 322 101 switch~;
#X msg 336 70 1;
#X msg 308 70 0;
#X obj 308 47 loadbang;
#X obj 243 70 delay 101;
#X obj 266 161 r vsl2-\$1;
#X obj 54 344 outlet~;
#X connect 0 0 7 0;
#X connect 1 0 0 0;
#X connect 2 0 11 0;
#X connect 3 0 1 0;
#X connect 4 0 6 1;
#X connect 5 0 4 0;
#X connect 6 0 18 0;
#X connect 7 0 6 0;
#X connect 8 0 0 1;
#X connect 9 0 10 0;
#X connect 10 0 7 1;
#X connect 11 0 3 0;
#X connect 11 1 8 0;
#X connect 11 2 5 0;
#X connect 11 3 9 0;
#X connect 11 4 13 0;
#X connect 11 4 16 0;
#X connect 13 0 12 0;
#X connect 14 0 12 0;
#X connect 15 0 14 0;
#X connect 16 0 14 0;
#X connect 17 0 9 1;
