#N canvas 855 92 447 752 10;
#X obj 84 431 trienv3~;
#X obj 98 347 tri~;
#X obj 43 347 osc~ 30;
#X obj 125 590 hsl 128 15 0 1 0 0 empty empty empty -2 -8 0 10 -262144
-1 -1 0 1;
#X obj 85 590 *~ 1;
#X obj 136 369 ceff~ 1;
#X obj 84 524 ceff~ 1;
#X obj 113 396 lop~ 400;
#X obj 136 347 tri~;
#X obj 136 263 line~;
#X obj 136 35 inlet;
#X obj 337 180 line~;
#X obj 85 557 *~;
#X obj 193 186 mtof;
#X msg 136 240 \$2 \, \$3 50;
#X obj 164 186 mtof;
#X obj 164 161 + 20;
#X obj 136 217 pack f f f;
#X obj 193 127 r vsl-\$1;
#X obj 206 390 *~ 0.05;
#X obj 206 413 littlevar~ 0.1 1;
#X obj 190 456 r vsl2-\$1;
#X obj 190 480 / 127;
#X msg 175 347 1;
#X obj 175 323 loadbang;
#X msg 337 146 1 \, 0 1000;
#X obj 85 631 outlet~;
#X obj 175 507 f;
#X obj 136 63 t b b b;
#X connect 0 0 6 0;
#X connect 1 0 0 1;
#X connect 2 0 0 0;
#X connect 3 0 4 1;
#X connect 4 0 26 0;
#X connect 5 0 7 0;
#X connect 6 0 12 0;
#X connect 7 0 0 2;
#X connect 8 0 5 0;
#X connect 9 0 2 0;
#X connect 9 0 1 0;
#X connect 9 0 8 0;
#X connect 9 0 19 0;
#X connect 10 0 28 0;
#X connect 11 0 12 1;
#X connect 12 0 4 0;
#X connect 13 0 17 2;
#X connect 14 0 9 0;
#X connect 15 0 17 1;
#X connect 16 0 15 0;
#X connect 17 0 14 0;
#X connect 18 0 16 0;
#X connect 18 0 13 0;
#X connect 19 0 20 0;
#X connect 20 0 0 3;
#X connect 21 0 22 0;
#X connect 22 0 27 1;
#X connect 23 0 5 1;
#X connect 24 0 23 0;
#X connect 25 0 11 0;
#X connect 27 0 6 1;
#X connect 28 0 17 0;
#X connect 28 1 25 0;
#X connect 28 2 27 0;
