#N canvas 1323 220 384 581 10;
#X obj 207 31 inlet;
#X obj 137 117 mtof;
#X obj 283 278 vline~;
#X obj 130 459 *~;
#X obj 106 422 *~ 0.3;
#X obj 283 373 /~ 127;
#X obj 256 140 sel 0;
#X msg 236 236 0 200;
#X msg 283 236 \$1 20;
#X obj 129 504 outlet~;
#X obj 207 56 unpack f f;
#X obj 83 233 t f b;
#X obj 182 90 spigot;
#X obj 61 337 oschor~ 40;
#X connect 0 0 10 0;
#X connect 1 0 11 0;
#X connect 2 0 5 0;
#X connect 2 0 13 2;
#X connect 3 0 9 0;
#X connect 4 0 3 0;
#X connect 5 0 3 1;
#X connect 6 0 7 0;
#X connect 6 1 8 0;
#X connect 7 0 2 0;
#X connect 8 0 2 0;
#X connect 10 0 12 0;
#X connect 10 1 6 0;
#X connect 10 1 12 1;
#X connect 11 0 13 0;
#X connect 11 1 13 1;
#X connect 12 0 1 0;
#X connect 13 0 4 0;
