#N canvas 602 60 796 908 10;
#X obj 108 15 inlet~;
#X obj 75 356 *~ 1;
#X obj 148 356 *~ 1;
#X obj 187 332 + 1;
#X obj 187 306 / 1000;
#X obj 230 15 inlet;
#X obj 187 187 b;
#X obj 458 356 *~ 1;
#X obj 497 332 + 1;
#X obj 497 306 / 1000;
#X obj 497 187 b;
#X obj 548 356 *~ 1;
#X obj 587 332 + 1;
#X obj 587 306 / 1000;
#X obj 587 187 b;
#X obj 638 356 *~ 1;
#X obj 677 332 + 1;
#X obj 677 306 / 1000;
#X obj 677 187 b;
#X obj 348 356 *~ 1;
#X obj 387 332 + 1;
#X obj 387 306 / 1000;
#X obj 387 187 b;
#X obj 248 356 *~ 1;
#X obj 287 332 + 1;
#X obj 287 306 / 1000;
#X obj 287 187 b;
#X obj 228 670 outlet~;
#X obj 187 212 random \$1;
#X obj 287 212 random \$1;
#X obj 387 212 random \$1;
#X obj 497 212 random \$1;
#X obj 587 212 random \$1;
#X obj 677 212 random \$1;
#X obj 583 78 / 2;
#X obj 583 56 \$1;
#X obj 187 277 -;
#X obj 287 277 -;
#X obj 387 276 -;
#X obj 497 273 -;
#X obj 587 276 -;
#X obj 677 275 -;
#X obj 583 32 initbang;
#X obj 74 387 phasor~;
#X obj 95 512 lop~ 9000;
#X obj 336 475 lop~ 9000;
#X obj 454 467 ctlin 93 1;
#X obj 158 434 ctlin 91 1;
#X obj 158 457 / 127;
#X obj 158 480 * 8000;
#X obj 454 493 / 127;
#X obj 454 516 * 8000;
#X obj 351 564 random 100;
#X obj 351 585 * 0.01;
#X obj 351 607 sig~;
#X obj 281 622 *~;
#X obj 351 517 loadbang;
#X obj 352 696 snapshot~;
#X floatatom 330 730 5 0 0 0 - - -;
#X obj 442 645 metro 50;
#X obj 442 622 tgl 15 0 empty empty empty 17 7 0 10 -262144 -1 -1 0
1;
#X obj 350 629 lop~ 1;
#X obj 351 541 metro 1000;
#X floatatom 289 733 5 0 0 0 - - -;
#X obj 398 17 inlet~;
#X obj 25 564 noise~;
#X obj 103 604 vcf~ 10;
#X floatatom 185 523 5 0 0 0 - - -;
#X obj 204 571 initbang;
#X obj 185 545 prepend set;
#X msg 184 592 1;
#X obj 147 386 phasor~;
#X obj 247 386 phasor~;
#X obj 347 386 phasor~;
#X obj 457 386 phasor~;
#X obj 547 386 phasor~;
#X obj 637 386 phasor~;
#X connect 0 0 1 0;
#X connect 0 0 2 0;
#X connect 0 0 23 0;
#X connect 0 0 19 0;
#X connect 0 0 7 0;
#X connect 0 0 11 0;
#X connect 0 0 15 0;
#X connect 1 0 43 0;
#X connect 2 0 71 0;
#X connect 3 0 2 1;
#X connect 4 0 3 0;
#X connect 5 0 6 0;
#X connect 5 0 26 0;
#X connect 5 0 22 0;
#X connect 5 0 10 0;
#X connect 5 0 14 0;
#X connect 5 0 18 0;
#X connect 6 0 28 0;
#X connect 7 0 74 0;
#X connect 8 0 7 1;
#X connect 9 0 8 0;
#X connect 10 0 31 0;
#X connect 11 0 75 0;
#X connect 12 0 11 1;
#X connect 13 0 12 0;
#X connect 14 0 32 0;
#X connect 15 0 76 0;
#X connect 16 0 15 1;
#X connect 17 0 16 0;
#X connect 18 0 33 0;
#X connect 19 0 73 0;
#X connect 20 0 19 1;
#X connect 21 0 20 0;
#X connect 22 0 30 0;
#X connect 23 0 72 0;
#X connect 24 0 23 1;
#X connect 25 0 24 0;
#X connect 26 0 29 0;
#X connect 28 0 36 0;
#X connect 29 0 37 0;
#X connect 30 0 38 0;
#X connect 31 0 39 0;
#X connect 32 0 40 0;
#X connect 33 0 41 0;
#X connect 34 0 36 1;
#X connect 34 0 37 1;
#X connect 34 0 38 1;
#X connect 34 0 39 1;
#X connect 34 0 40 1;
#X connect 34 0 41 1;
#X connect 35 0 34 0;
#X connect 36 0 4 0;
#X connect 37 0 25 0;
#X connect 38 0 21 0;
#X connect 39 0 9 0;
#X connect 40 0 13 0;
#X connect 41 0 17 0;
#X connect 42 0 35 0;
#X connect 43 0 44 0;
#X connect 44 0 27 0;
#X connect 45 0 55 0;
#X connect 46 0 50 0;
#X connect 47 0 48 0;
#X connect 48 0 49 0;
#X connect 49 0 44 1;
#X connect 50 0 51 0;
#X connect 51 0 45 1;
#X connect 52 0 53 0;
#X connect 53 0 54 0;
#X connect 53 0 63 0;
#X connect 54 0 61 0;
#X connect 55 0 27 0;
#X connect 56 0 62 0;
#X connect 57 0 58 0;
#X connect 59 0 57 0;
#X connect 60 0 59 0;
#X connect 61 0 55 1;
#X connect 61 0 57 0;
#X connect 62 0 52 0;
#X connect 64 0 66 1;
#X connect 65 0 66 0;
#X connect 67 0 69 0;
#X connect 68 0 70 0;
#X connect 69 0 70 0;
#X connect 70 0 66 2;
#X connect 71 0 45 0;
#X connect 72 0 45 0;
#X connect 73 0 45 0;
#X connect 74 0 45 0;
#X connect 75 0 45 0;
#X connect 76 0 45 0;
