#N canvas 0 0 1888 970.125 10;
#X obj 51 -14 inlet;
#X obj 51 378 line \$1 \$2;
#X obj 236 291 f;
#X obj 236 264 r jump_end_line;
#X obj 51 417 outlet;
#X obj 235 214 r global_speed;
#X obj 220 238 / 1;
#X obj 51 119 t f b;
#X msg 269 291 0;
#X msg 301 291 1;
#X obj 236 314 spigot;
#X obj 51 13 route float;
#X obj 114 44 route set;
#X obj 94 69 t f b;
#X text 230 41 set <float>: set value without outputing;
#X text 230 63 <float>: set value and output it;
#X obj 149 214 unpack f f f;
#X obj 133 138 list length;
#X obj 133 165 gate 3;
#X obj 149 186 list append 25;
#X obj 114 116 t a a b;
#X obj 94 90 list prepend set;
#X obj 80 217 list trim;
#X text 230 85 <float> <float>: goal_value duration;
#X text 230 107 <float> <float> <float>: goal_value duration grain_size
;
#X connect 0 0 11 0;
#X connect 1 0 4 0;
#X connect 2 0 10 0;
#X connect 3 0 2 0;
#X connect 5 0 6 1;
#X connect 6 0 1 1;
#X connect 7 0 1 0;
#X connect 7 1 8 0;
#X connect 8 0 10 1;
#X connect 9 0 10 1;
#X connect 10 0 1 0;
#X connect 11 0 7 0;
#X connect 11 1 12 0;
#X connect 12 0 13 0;
#X connect 12 1 20 0;
#X connect 13 0 21 0;
#X connect 13 1 8 0;
#X connect 16 0 2 1;
#X connect 16 0 1 0;
#X connect 16 1 6 0;
#X connect 16 2 1 2;
#X connect 17 0 18 0;
#X connect 18 1 19 0;
#X connect 18 2 16 0;
#X connect 19 0 16 0;
#X connect 20 0 18 1;
#X connect 20 1 17 0;
#X connect 20 2 9 0;
#X connect 21 0 22 0;
#X connect 22 0 1 0;
