#N canvas 789 335 869 445 10;
#X obj 256 253 outlet trig;
#X obj 164 81 metro 200;
#X obj 227 27 tgl 15 0 empty empty empty 17 7 0 10 -262144 -1 -1 0
1;
#X obj 165 280 outlet phase;
#X msg 165 241 0.5;
#X obj 274 -24 cyclone/counter 0 3;
#X obj 274 7 sel 0 1 2 3;
#X obj 310 207 outlet velo;
#X obj 267 37 vsl 15 100 0 1 0 0 empty empty empty 0 -9 0 10 -262144
-1 -1 0 0;
#X obj 286 37 vsl 15 100 0 1 0 0 empty empty empty 0 -9 0 10 -262144
-1 -1 0 0;
#X obj 305 37 vsl 15 100 0 1 0 0 empty empty empty 0 -9 0 10 -262144
-1 -1 0 0;
#X obj 324 37 vsl 15 100 0 1 0 0 empty empty empty 0 -9 0 10 -262144
-1 -1 0 0;
#X obj 156 -7 inlet;
#X obj 227 82 bng 15 250 50 0 empty empty empty 17 7 0 10 -262144 -1
-1;
#X obj 152 162 t b b b;
#X msg 345 180 1;
#X floatatom 230 51 5 0 0 0 - - -, f 5;
#X obj 371 103 /;
#X obj 371 59 t b f;
#X msg 371 81 60000;
#X obj 371 125 / 4;
#X obj 442 300 outlet other_trig;
#X floatatom 228 118 5 0 0 0 - - -, f 5;
#X obj 524 241 outlet quarterNote;
#X obj 171 28 sel 0;
#X obj 663 260 outlet tempo;
#X connect 1 0 4 0;
#X connect 1 0 5 0;
#X connect 1 0 0 0;
#X connect 2 0 1 0;
#X connect 2 0 24 0;
#X connect 4 0 3 0;
#X connect 5 0 6 0;
#X connect 6 0 8 0;
#X connect 6 0 21 0;
#X connect 6 1 9 0;
#X connect 6 2 10 0;
#X connect 6 3 11 0;
#X connect 8 0 7 0;
#X connect 9 0 7 0;
#X connect 10 0 7 0;
#X connect 11 0 7 0;
#X connect 12 0 14 0;
#X connect 13 0 14 0;
#X connect 14 0 4 0;
#X connect 14 1 0 0;
#X connect 14 2 15 0;
#X connect 15 0 7 0;
#X connect 16 0 18 0;
#X connect 17 0 20 0;
#X connect 18 0 19 0;
#X connect 18 1 17 1;
#X connect 18 1 25 0;
#X connect 19 0 17 0;
#X connect 20 0 1 1;
#X connect 20 0 22 0;
#X connect 20 0 23 0;
#X connect 24 0 5 2;
#X coords 0 -1 1 1 120 120 1 224 25;
