#N canvas -8 -8 1904 986 10;
#X obj 289 129 see;
#X obj 182 69 phasor~;
#X msg 188 25 200;
#X obj 150 357 output~;
#X obj 34 24 sequencer;
#X obj 700 60 sequencer;
#X obj 68 218 mtof;
#X floatatom 108 257 5 0 0 0 - - -, f 5;
#X obj 67 193 * 127;
#X connect 1 0 0 0;
#X connect 1 0 3 0;
#X connect 1 0 3 1;
#X connect 2 0 1 0;
#X connect 4 0 1 1;
#X connect 4 2 8 0;
#X connect 6 0 1 0;
#X connect 6 0 7 0;
#X connect 8 0 6 0;
