#N canvas 326 349 402 415 10;
#X obj 52 41 inlet;
#X obj 71 235 list fromsymbol;
#X obj 52 63 list;
#N canvas 58 261 461 421 list_concat 0;
#X obj 55 70 inlet;
#X obj 55 187 list;
#X obj 145 71 inlet;
#X msg 145 107 list;
#X obj 55 148 list prepend;
#X obj 101 69 inlet;
#X obj 34 223 list;
#X obj 34 258 outlet;
#X connect 0 0 4 0;
#X connect 1 0 4 1;
#X connect 1 0 6 1;
#X connect 2 0 3 0;
#X connect 3 0 4 1;
#X connect 4 0 1 0;
#X connect 5 0 6 0;
#X connect 6 0 7 0;
#X restore 71 266 pd list_concat;
#N canvas 468 380 450 300 list_drip 0;
#X obj 37 44 inlet;
#X obj 37 152 list split 1;
#X obj 37 93 list;
#X obj 37 116 t l l;
#X obj 131 154 list split 1;
#X obj 131 191 outlet;
#X connect 0 0 2 0;
#X connect 1 1 2 0;
#X connect 2 0 3 0;
#X connect 3 0 1 0;
#X connect 3 1 4 0;
#X connect 4 0 5 0;
#X restore 71 113 pd list_drip;
#X obj 52 86 t b a b;
#X obj 105 312 list tosymbol;
#X obj 71 136 t a b;
#X msg 98 157 32, f 2;
#X obj 105 335 outlet;
#X obj 71 290 list split 1;
#X obj 71 181 route float;
#N canvas 1 90 450 300 float2symbol 0;
#X obj 58 116 list fromsymbol;
#X msg 58 94 symbol _\$1;
#X obj 58 137 list split 1;
#X obj 92 159 list tosymbol;
#X obj 58 70 inlet;
#X obj 92 183 outlet;
#X connect 0 0 2 0;
#X connect 1 0 0 0;
#X connect 2 1 3 0;
#X connect 3 0 5 0;
#X connect 4 0 1 0;
#X restore 71 204 pd float2symbol;
#X connect 0 0 2 0;
#X connect 1 0 3 0;
#X connect 2 0 5 0;
#X connect 3 0 10 0;
#X connect 4 0 7 0;
#X connect 5 0 3 1;
#X connect 5 1 4 0;
#X connect 5 2 3 2;
#X connect 6 0 9 0;
#X connect 7 0 11 0;
#X connect 7 1 8 0;
#X connect 8 0 3 0;
#X connect 10 1 6 0;
#X connect 11 0 12 0;
#X connect 11 1 1 0;
#X connect 12 0 1 0;
