#N canvas 329 92 827 706 10;
#X declare -path ../ctl_abs;
#N canvas 1267 41 450 346 liste 0;
#X restore 26 58 pd liste, f 29;
#X obj 26 18 declare -path ../ctl_abs;
#X obj 253 286 * 15;
#X obj 253 255 counter;
#X obj 253 200 until;
#X msg 253 359 \; pd-liste obj 10 \$1 onecue;
#X obj 60 222 until;
#X obj 191 155 t f f b b;
#X msg 366 200 \; pd-liste clear;
#X obj 60 286 t f f;
#X obj 60 307 - 1;
#X obj 60 329 pack;
#X obj 60 255 counter, f 8;
#X msg 187 200 1, f 4;
#X msg 60 359 \; pd-liste connect \$1 0 \$2 0;
#X obj 60 200 - 1;
#X text 92 92 choose a number and generate. will clear patch before
;
#X text 206 58 < ----- this is where your result is.;
#X msg 60 92 32;
#X connect 2 0 5 0;
#X connect 3 0 2 0;
#X connect 4 0 3 0;
#X connect 6 0 12 0;
#X connect 7 0 15 0;
#X connect 7 1 4 0;
#X connect 7 2 13 0;
#X connect 7 3 8 0;
#X connect 9 0 10 0;
#X connect 9 1 11 1;
#X connect 10 0 11 0;
#X connect 11 0 14 0;
#X connect 12 0 9 0;
#X connect 13 0 12 2;
#X connect 13 0 3 2;
#X connect 15 0 6 0;
#X connect 18 0 7 0;
