#N canvas 422 0 1043 993 10;
#X declare -path ctl_abs;
#X declare -path ../ctl_abs;
#N canvas 1178 126 597 563 get_cue_name 0;
#X obj 32 71 inlet;
#X obj 32 239 text get cuelist;
#X obj 32 191 f;
#X obj 66 193 + 1;
#X obj 32 118 t b b;
#X msg 97 168 0;
#X obj 32 95 bng 15 250 50 0 empty empty empty 17 7 0 10 -262144 -1
-1;
#X obj 125 265 sel 2;
#X obj 32 262 route list;
#X obj 71 376 f;
#X obj 105 378 + 1;
#X msg 86 352 0;
#X obj 71 329 t b a;
#X obj 71 466 pack f s;
#X obj 71 485 s cue_name;
#X obj 116 407 list;
#X msg 116 426 symbol \$1;
#X obj 162 525 s cue_autogo;
#X obj 207 420 route list;
#X msg 264 445 -1;
#X obj 162 496 pack f f;
#X msg 207 444 \$1;
#N canvas 9 222 606 448 RGB_____________ 0;
#X obj 262 53 inlet;
#X obj 339 55 inlet;
#X obj 405 56 inlet;
#X text 267 28 red;
#X text 337 30 green;
#X text 409 30 blue;
#X obj 405 102 t b f;
#X obj 339 160 +;
#X obj 339 185 t b f;
#X obj 339 216 +;
#X obj 82 332 outlet;
#X obj 262 79 * -65536;
#X obj 339 80 * -256;
#X obj 405 80 * -1;
#X obj 339 247 - 1;
#X obj 67 63 inlet;
#X obj 67 87 unpack f f f;
#X obj 67 111 min 255;
#X obj 67 132 max 0;
#X obj 115 111 min 255;
#X obj 115 132 max 0;
#X obj 163 111 min 255;
#X obj 163 132 max 0;
#X obj 67 172 * -65536;
#X obj 144 173 * -256;
#X obj 210 173 * -1;
#X obj 145 203 +, f 4;
#X obj 68 239 +;
#X obj 70 268 - 1;
#X connect 0 0 11 0;
#X connect 1 0 12 0;
#X connect 2 0 13 0;
#X connect 6 0 7 0;
#X connect 6 1 7 1;
#X connect 7 0 8 0;
#X connect 8 0 9 0;
#X connect 8 1 9 1;
#X connect 9 0 14 0;
#X connect 11 0 9 0;
#X connect 12 0 7 0;
#X connect 13 0 6 0;
#X connect 14 0 10 0;
#X connect 15 0 16 0;
#X connect 16 0 17 0;
#X connect 16 1 19 0;
#X connect 16 2 21 0;
#X connect 17 0 18 0;
#X connect 18 0 23 0;
#X connect 19 0 20 0;
#X connect 20 0 24 0;
#X connect 21 0 22 0;
#X connect 22 0 25 0;
#X connect 23 0 27 0;
#X connect 24 0 26 0;
#X connect 25 0 26 1;
#X connect 26 0 27 1;
#X connect 27 0 28 0;
#X connect 28 0 10 0;
#X restore 386 481 pd RGB_____________;
#X obj 341 508 pack f f;
#X obj 341 528 s cue_color;
#X msg 455 459 255 255 255;
#X obj 352 364 list;
#X obj 386 410 list split 3;
#X msg 386 457 \$1 \$2 \$3;
#X obj 352 387 list split 2;
#X obj 32 167 metro 0;
#X msg 32 141 1;
#X msg 65 142 0;
#X obj 125 286 t b b;
#X msg 143 316 0;
#X obj 143 337 s playfromstart;
#X obj 174 467 * 1000;
#X obj 38 306 route begincue;
#X connect 0 0 6 0;
#X connect 1 0 8 0;
#X connect 1 1 7 0;
#X connect 2 0 3 0;
#X connect 2 0 1 0;
#X connect 3 0 2 1;
#X connect 4 0 31 0;
#X connect 4 1 5 0;
#X connect 4 1 11 0;
#X connect 5 0 2 1;
#X connect 6 0 4 0;
#X connect 7 0 33 0;
#X connect 8 0 37 0;
#X connect 9 0 10 0;
#X connect 9 0 13 0;
#X connect 9 0 20 0;
#X connect 9 0 23 0;
#X connect 10 0 9 1;
#X connect 11 0 9 1;
#X connect 12 0 9 0;
#X connect 12 1 15 0;
#X connect 13 0 14 0;
#X connect 15 0 16 0;
#X connect 15 0 18 0;
#X connect 16 0 13 1;
#X connect 18 0 21 0;
#X connect 18 0 26 0;
#X connect 18 1 19 0;
#X connect 18 1 25 0;
#X connect 19 0 20 1;
#X connect 20 0 17 0;
#X connect 21 0 36 0;
#X connect 22 0 23 1;
#X connect 23 0 24 0;
#X connect 25 0 22 0;
#X connect 26 0 29 0;
#X connect 27 0 28 0;
#X connect 27 2 25 0;
#X connect 28 0 22 0;
#X connect 29 1 27 0;
#X connect 29 2 25 0;
#X connect 30 0 2 0;
#X connect 31 0 30 0;
#X connect 32 0 30 0;
#X connect 33 0 34 0;
#X connect 33 1 32 0;
#X connect 34 0 35 0;
#X connect 36 0 20 1;
#X connect 37 0 12 0;
#X restore 5 513 pd get_cue_name;
#N canvas 1075 121 550 559 init 0;
#X obj 127 161 text define cuelist;
#X msg 100 186 0;
#X obj 113 55 loadbang;
#X obj 100 82 t b b;
#X obj 100 208 outlet;
#X obj 325 22 r read;
#X obj 100 30 r init_cuelist;
#N canvas 1 100 450 300 filter_double 0;
#X obj 42 163 spigot;
#X obj 75 52 r start_play_all_from;
#X msg 104 98 1;
#X msg 75 73 0;
#X obj 42 16 inlet;
#X obj 42 194 outlet;
#X obj 432 521 s before_fin_play_all_from;
#X obj 105 73 r before_fin_play_all_from;
#X connect 0 0 5 0;
#X connect 1 0 3 0;
#X connect 2 0 0 1;
#X connect 3 0 0 1;
#X connect 4 0 0 0;
#X connect 7 0 2 0;
#X restore 325 49 pd filter_double;
#X obj 331 224 declare -path ctl_abs;
#X obj 325 76 t b a;
#X obj 352 102 symbol;
#X msg 436 66 cuelist/act2.txt;
#X msg 127 108 read -c cuelist/_INIT_.cuelist;
#X msg 352 124 read -c cuelist/\$1;
#X obj 190 30 r reload_current_file;
#X connect 1 0 4 0;
#X connect 2 0 3 0;
#X connect 3 0 1 0;
#X connect 3 1 12 0;
#X connect 5 0 7 0;
#X connect 6 0 3 0;
#X connect 7 0 9 0;
#X connect 9 0 1 0;
#X connect 9 1 10 0;
#X connect 10 0 13 0;
#X connect 11 0 10 0;
#X connect 12 0 0 0;
#X connect 13 0 0 0;
#X connect 14 0 9 0;
#X restore 5 0 pd init;
#N canvas 0 409 1888 993 tlcl 0;
#X msg 503 187 label \$1;
#X obj 503 96 r comment1;
#X obj 503 207 send canvas_comment1;
#X obj 100 230 cnv 15 350 20 empty canvas_comment3 empty 0 10 0 10
-249661 -66577 0;
#X obj 100 250 cnv 15 350 20 empty canvas_comment4 empty 0 10 0 10
-249661 -66577 0;
#X msg 644 193 label \$1;
#X obj 644 92 r comment2;
#X msg 796 190 label \$1;
#X msg 936 196 label \$1;
#X obj 796 89 r comment3;
#X obj 936 95 r comment4;
#X obj 644 213 send canvas_comment2;
#X obj 796 210 send canvas_comment3;
#X obj 936 216 send canvas_comment4;
#X obj 503 142 symbol;
#X obj 503 119 route bang;
#X obj 644 142 symbol;
#X obj 644 119 route bang;
#X obj 796 142 symbol;
#X obj 796 119 route bang;
#X obj 936 142 symbol;
#X obj 936 119 route bang;
#X symbolatom 139 120 35 0 0 0 - - -, f 35;
#X text 216 107 current cue;
#X floatatom 103 120 5 0 0 0 - - playfromstart, f 5;
#X msg 134 45 set \$1;
#X obj 134 22 r current_cue;
#X obj 226 5 r current_cue_name;
#X obj 226 26 symbol;
#X obj 282 28 t b;
#X msg 226 48 set \$1;
#X obj 241 137 tgl 15 0 autogo_on autogo_on_init empty 17 7 0 10 -262144
-1 -1 1 1;
#X obj 103 137 hsl 128 15 0 127 0 0 empty aff_autogo empty -2 -8 0
10 -262144 -1 -262144 0 1;
#X obj 102 154 bng 35 250 50 0 next_cue empty empty 17 7 0 10 -3137
-1 -1;
#X text 262 136 autogo_on;
#X obj 182 154 bng 15 250 50 0 jump_end_line skip_transition_button
empty 17 7 0 10 -262144 -1 -262144;
#X floatatom 338 137 5 0 0 0 - - global_speed, f 5;
#X text 371 136 global speed;
#X obj 103 103 bng 15 250 50 0 init_cuelist empty empty 17 7 0 10 -262144
-1 -1;
#N canvas 507 0 873 993 play_cuelist 0;
#X obj 53 137 text get cuelist;
#X obj 95 407 f;
#X obj 126 407 + 1;
#X obj 111 467 >;
#X msg 307 122 0;
#X obj 51 81 f;
#X obj 83 81 + 1;
#X msg 92 -32 0;
#X floatatom 53 -99 5 0 0 0 - - -, f 5;
#X obj 146 162 sel 2;
#X obj 268 419 route symbol;
#X obj 111 568 f;
#X text 95 -100 playfrom;
#X obj 177 860 send;
#X obj 143 749 list split 1;
#X obj 111 660 s autogo;
#X obj 53 -121 r playfromstart;
#X obj 230 -101 bng 15 250 50 0 empty empty empty 17 7 0 10 -262144
-1 -1;
#X obj 230 -122 r next_cue;
#X obj 224 590 s current_cue;
#X obj 111 519 sel 1 0;
#X obj 53 223 route list symbol;
#X obj 224 548 f;
#X obj 224 400 t b;
#X obj 224 568 - 1;
#X obj 363 621 s jump_end_line;
#X obj 111 544 t b b;
#X obj 363 569 t a a;
#X obj 12 654 f;
#X obj 12 674 sel 1;
#X msg 152 566 1;
#X msg 337 439 \$2;
#X obj 268 395 list;
#X msg 268 440 -1;
#X obj 364 501 f;
#X obj 337 469 t f b;
#X obj 176 -45 s start_play_all_from;
#X obj 354 155 s fin_play_all_from;
#X obj 354 113 f;
#X msg 369 83 1;
#X msg 395 83 0;
#X obj 354 134 sel 1;
#X obj 166 432 - 1;
#X obj 151 468 >;
#X obj 111 431 t f f f;
#X obj 432 526 sel 1;
#X obj 432 551 s before_fin_play_all_from;
#X obj 379 712 spigot 0;
#X msg 424 685 1;
#X msg 459 685 0;
#X obj 379 733 t b b;
#X obj 92 364 t b b a b;
#X obj 398 758 s comment1;
#X obj 398 778 s comment2;
#X obj 398 798 s comment3;
#X obj 398 818 s comment4;
#X obj 143 335 t a b;
#X obj 143 709 spigot;
#X msg 176 654 1;
#X msg 208 654 0;
#X obj 176 683 |;
#X obj 208 685 r jump_from_start;
#X obj 111 590 * 1000;
#X obj 136 808 list;
#X obj 136 832 list trim;
#X msg 173 202 list begincue last;
#X obj 33 779 s all_sends;
#X obj 53 32 until_delay 100;
#X obj 127 -22 r until_delay;
#X obj 122 252 list trim;
#X obj 16 360 t b;
#X obj 15 305 route # end begincue;
#N canvas 0 0 450 300 is_empty 0;
#X obj 120 43 inlet;
#X obj 58 257 outlet;
#X obj 251 253 outlet;
#X obj 150 120 list length;
#X obj 172 174 sel 0;
#X obj 94 220 spigot;
#X msg 208 198 1;
#X obj 165 195 t b 0;
#X obj 99 77 t a a b;
#X connect 0 0 8 0;
#X connect 3 0 4 0;
#X connect 4 0 7 0;
#X connect 4 1 6 0;
#X connect 5 0 1 0;
#X connect 6 0 5 1;
#X connect 7 0 2 0;
#X connect 7 1 5 1;
#X connect 8 0 5 0;
#X connect 8 1 3 0;
#X restore 50 187 pd is_empty;
#X obj 51 110 t f f f;
#X obj 49 159 t a a;
#X obj 16 393 spigot;
#X msg 48 367 0;
#X obj 146 182 t 0 b;
#X obj 53 -80 t b f b b b;
#X obj 230 -82 t b b b;
#X msg 63 367 1;
#X obj 3 813 sel cmd to_netserver;
#X obj 117 774 t s b s;
#X connect 0 0 74 0;
#X connect 0 1 9 0;
#X connect 1 0 2 0;
#X connect 1 0 44 0;
#X connect 2 0 1 1;
#X connect 3 0 20 0;
#X connect 4 0 1 1;
#X connect 4 0 28 1;
#X connect 5 0 73 0;
#X connect 6 0 5 1;
#X connect 7 0 5 1;
#X connect 8 0 78 0;
#X connect 9 0 77 0;
#X connect 10 0 33 0;
#X connect 10 1 31 0;
#X connect 11 0 62 0;
#X connect 14 0 82 0;
#X connect 14 1 63 1;
#X connect 14 2 63 1;
#X connect 16 0 8 0;
#X connect 17 0 79 0;
#X connect 18 0 17 0;
#X connect 20 0 26 0;
#X connect 20 1 27 0;
#X connect 21 0 71 0;
#X connect 21 1 69 0;
#X connect 22 0 24 0;
#X connect 23 0 22 0;
#X connect 23 0 38 0;
#X connect 23 0 67 2;
#X connect 24 0 19 0;
#X connect 26 0 11 0;
#X connect 26 1 30 0;
#X connect 27 0 25 0;
#X connect 28 0 29 0;
#X connect 29 0 23 0;
#X connect 30 0 28 1;
#X connect 31 0 35 0;
#X connect 32 0 10 0;
#X connect 33 0 35 0;
#X connect 34 0 11 1;
#X connect 35 0 34 1;
#X connect 35 1 34 0;
#X connect 38 0 41 0;
#X connect 39 0 38 1;
#X connect 40 0 38 1;
#X connect 41 0 37 0;
#X connect 42 0 43 1;
#X connect 43 0 45 0;
#X connect 44 0 3 0;
#X connect 44 1 43 0;
#X connect 44 2 22 1;
#X connect 45 0 46 0;
#X connect 45 0 58 0;
#X connect 47 0 50 0;
#X connect 48 0 47 1;
#X connect 49 0 47 1;
#X connect 50 0 52 0;
#X connect 50 0 53 0;
#X connect 50 0 54 0;
#X connect 50 0 55 0;
#X connect 50 1 49 0;
#X connect 51 0 28 0;
#X connect 51 1 1 0;
#X connect 51 2 32 0;
#X connect 51 3 48 0;
#X connect 56 0 57 0;
#X connect 56 1 47 0;
#X connect 57 0 14 0;
#X connect 57 0 66 0;
#X connect 58 0 60 0;
#X connect 59 0 60 0;
#X connect 60 0 57 1;
#X connect 61 0 60 1;
#X connect 62 0 15 0;
#X connect 63 0 64 0;
#X connect 64 0 13 0;
#X connect 65 0 21 0;
#X connect 67 0 5 0;
#X connect 68 0 67 1;
#X connect 69 0 71 0;
#X connect 70 0 75 0;
#X connect 71 0 70 0;
#X connect 71 1 70 0;
#X connect 71 2 51 0;
#X connect 71 3 56 0;
#X connect 72 0 21 0;
#X connect 72 1 70 0;
#X connect 73 0 0 0;
#X connect 73 2 6 0;
#X connect 74 0 72 0;
#X connect 75 0 5 0;
#X connect 76 0 75 1;
#X connect 77 0 76 0;
#X connect 77 1 65 0;
#X connect 78 0 67 0;
#X connect 78 1 3 1;
#X connect 78 1 42 0;
#X connect 78 2 4 0;
#X connect 78 2 7 0;
#X connect 78 3 36 0;
#X connect 78 3 39 0;
#X connect 78 3 59 0;
#X connect 78 4 80 0;
#X connect 79 0 67 0;
#X connect 79 1 40 0;
#X connect 79 2 80 0;
#X connect 80 0 75 1;
#X connect 81 2 70 0;
#X connect 82 0 81 0;
#X connect 82 1 63 0;
#X connect 82 2 13 1;
#X restore 101 291 pd play_cuelist _________________________________________
;
#N canvas 1034 260 444 634 autogo 0;
#X obj 38 26 r autogo;
#X obj 38 52 moses 0;
#X msg 118 85 0 \, 127 \$1;
#X obj 118 125 s aff_autogo;
#X msg 38 154 0;
#X msg 77 155 1;
#X obj 38 185 f;
#X obj 38 255 *;
#X obj 109 183 + 1;
#X obj 109 206 t b f;
#X obj 38 284 sel 0 1 2;
#X msg 38 409 color \$1;
#X obj 38 429 s aff_autogo;
#X msg 226 119 stop;
#X msg 264 119 \$1;
#X obj 226 170 spigot 1;
#X obj 271 146 r autogo_on;
#X obj 301 85 s autogo_on_init;
#X msg 301 64 1;
#X obj 301 43 loadbang;
#X msg 38 306 255 255 255;
#N canvas 9 222 606 448 RGB_____________ 0;
#X obj 262 53 inlet;
#X obj 339 55 inlet;
#X obj 405 56 inlet;
#X text 267 28 red;
#X text 337 30 green;
#X text 409 30 blue;
#X obj 405 102 t b f;
#X obj 339 160 +;
#X obj 339 185 t b f;
#X obj 339 216 +;
#X obj 82 332 outlet;
#X obj 262 79 * -65536;
#X obj 339 80 * -256;
#X obj 405 80 * -1;
#X obj 339 247 - 1;
#X obj 67 63 inlet;
#X obj 67 87 unpack f f f;
#X obj 67 111 min 255;
#X obj 67 132 max 0;
#X obj 115 111 min 255;
#X obj 115 132 max 0;
#X obj 163 111 min 255;
#X obj 163 132 max 0;
#X obj 67 172 * -65536;
#X obj 144 173 * -256;
#X obj 210 173 * -1;
#X obj 145 203 +, f 4;
#X obj 68 239 +;
#X obj 70 268 - 1;
#X connect 0 0 11 0;
#X connect 1 0 12 0;
#X connect 2 0 13 0;
#X connect 6 0 7 0;
#X connect 6 1 7 1;
#X connect 7 0 8 0;
#X connect 8 0 9 0;
#X connect 8 1 9 1;
#X connect 9 0 14 0;
#X connect 11 0 9 0;
#X connect 12 0 7 0;
#X connect 13 0 6 0;
#X connect 14 0 10 0;
#X connect 15 0 16 0;
#X connect 16 0 17 0;
#X connect 16 1 19 0;
#X connect 16 2 21 0;
#X connect 17 0 18 0;
#X connect 18 0 23 0;
#X connect 19 0 20 0;
#X connect 20 0 24 0;
#X connect 21 0 22 0;
#X connect 22 0 25 0;
#X connect 23 0 27 0;
#X connect 24 0 26 0;
#X connect 25 0 26 1;
#X connect 26 0 27 1;
#X connect 27 0 28 0;
#X connect 28 0 10 0;
#X restore 38 388 pd RGB_____________;
#X msg 55 328 200 200 200;
#X msg 52 93 0;
#X obj 227 193 s next_cue;
#X obj 118 105 _line;
#X obj 226 146 delay;
#X obj 313 118 r jump_end_line;
#X obj 131 429 s skip_transition_button;
#X msg 72 350 255 220 0;
#X connect 0 0 1 0;
#X connect 1 0 4 0;
#X connect 1 0 13 0;
#X connect 1 0 23 0;
#X connect 1 1 2 0;
#X connect 1 1 5 0;
#X connect 1 1 14 0;
#X connect 2 0 25 0;
#X connect 4 0 6 0;
#X connect 5 0 6 0;
#X connect 6 0 7 0;
#X connect 7 0 10 0;
#X connect 8 0 9 0;
#X connect 9 0 7 0;
#X connect 9 1 7 1;
#X connect 10 0 20 0;
#X connect 10 1 22 0;
#X connect 10 2 29 0;
#X connect 11 0 12 0;
#X connect 11 0 28 0;
#X connect 13 0 26 0;
#X connect 14 0 26 0;
#X connect 15 0 24 0;
#X connect 16 0 8 0;
#X connect 16 0 15 1;
#X connect 18 0 17 0;
#X connect 19 0 18 0;
#X connect 20 0 21 0;
#X connect 21 0 11 0;
#X connect 22 0 21 0;
#X connect 23 0 25 0;
#X connect 25 0 3 0;
#X connect 26 0 15 0;
#X connect 27 0 13 0;
#X connect 29 0 21 0;
#X restore 101 314 pd autogo _______________________________________________
;
#X msg 594 54 1;
#X obj 594 34 loadbang;
#X obj 533 54 r speed;
#X obj 181 172 tgl 15 0 empty empty empty 17 7 0 10 -262144 -1 -1 0
1;
#X obj 470 232 key;
#X obj 470 255 sel 32;
#X obj 470 312 spigot 0;
#X obj 100 190 cnv 15 350 20 empty canvas_comment1 empty 0 10 0 10
-249661 -66577 0;
#X obj 100 210 cnv 15 350 20 empty canvas_comment2 empty 0 10 0 10
-249661 -66577 0;
#X obj 378 1 f;
#X obj 415 13 + 1;
#X obj 378 -70 loadbang;
#X msg 401 -28 0;
#X obj 414 50 % 60;
#X obj 378 50 / 60;
#X obj 378 70 i;
#X floatatom 414 102 5 0 0 0 - - -, f 5;
#X floatatom 378 102 5 0 0 0 - - -, f 5;
#X obj 333 -47 t b b;
#X obj 358 102 bng 15 250 50 0 empty empty empty 17 7 0 10 -262144
-1 -1;
#X obj 454 -48 t b;
#X obj 721 -79 f;
#X obj 758 -67 + 1;
#X obj 721 -150 loadbang;
#X msg 738 -102 0;
#X obj 757 -30 % 60;
#X obj 721 -30 / 60;
#X obj 721 -10 i;
#X floatatom 414 118 5 0 0 0 - - -, f 5;
#X floatatom 378 118 5 0 0 0 - - -, f 5;
#X obj 676 -127 t b b;
#X obj 675 -147 bng 15 250 50 0 empty empty empty 17 7 0 10 -262144
-1 -1;
#X obj 797 -128 t b;
#X obj 560 -138 r current_cue;
#X obj 333 -125 r init_time;
#N canvas 1 95 450 300 filter_current_cue 0;
#X obj 42 163 spigot;
#X obj 75 52 r start_play_all_from;
#X msg 106 95 1;
#X msg 75 73 0;
#X obj 42 16 inlet;
#X obj 42 194 outlet;
#X obj 105 73 r before_fin_play_all_from;
#X connect 0 0 5 0;
#X connect 1 0 3 0;
#X connect 2 0 0 1;
#X connect 3 0 0 1;
#X connect 4 0 0 0;
#X connect 6 0 2 0;
#X restore 333 -101 pd filter_current_cue;
#X obj 431 171 tgl 15 0 empty empty empty 17 7 0 10 -262144 -1 -1 0
1;
#X text 330 171 jump from start;
#X obj 530 -59 loadbang;
#X msg 530 -39 1;
#X obj 559 424 s jump_from_start;
#X obj 513 166 abs/l2s;
#X obj 664 172 abs/l2s;
#X obj 816 169 abs/l2s;
#X obj 956 175 abs/l2s;
#X text 198 171 Spacebar->next;
#X text 141 163 NEXT;
#X obj 378 -48 delay 1000;
#X obj 721 -128 delay 1000;
#X text 199 153 skip transition;
#X obj 154 -91 r next_cue;
#X obj 154 -69 s jump_end_line;
#X text 120 102 reload _INIT_;
#X connect 0 0 2 0;
#X connect 1 0 15 0;
#X connect 5 0 11 0;
#X connect 6 0 17 0;
#X connect 7 0 12 0;
#X connect 8 0 13 0;
#X connect 9 0 19 0;
#X connect 10 0 21 0;
#X connect 14 0 0 0;
#X connect 15 0 14 0;
#X connect 15 1 82 0;
#X connect 16 0 5 0;
#X connect 17 0 16 0;
#X connect 17 1 83 0;
#X connect 18 0 7 0;
#X connect 19 0 18 0;
#X connect 19 1 84 0;
#X connect 20 0 8 0;
#X connect 21 0 20 0;
#X connect 21 1 85 0;
#X connect 22 0 29 0;
#X connect 25 0 24 0;
#X connect 26 0 25 0;
#X connect 27 0 28 0;
#X connect 28 0 30 0;
#X connect 29 0 28 0;
#X connect 30 0 22 0;
#X connect 41 0 36 0;
#X connect 42 0 41 0;
#X connect 43 0 36 0;
#X connect 44 0 47 1;
#X connect 45 0 46 0;
#X connect 46 0 47 0;
#X connect 47 0 33 0;
#X connect 50 0 51 0;
#X connect 50 0 54 0;
#X connect 50 0 55 0;
#X connect 51 0 50 1;
#X connect 52 0 88 0;
#X connect 53 0 50 0;
#X connect 54 0 57 0;
#X connect 55 0 56 0;
#X connect 56 0 58 0;
#X connect 59 0 88 0;
#X connect 59 1 53 0;
#X connect 60 0 59 0;
#X connect 61 0 88 0;
#X connect 62 0 63 0;
#X connect 62 0 66 0;
#X connect 62 0 67 0;
#X connect 63 0 62 1;
#X connect 64 0 89 0;
#X connect 65 0 62 0;
#X connect 66 0 69 0;
#X connect 67 0 68 0;
#X connect 68 0 70 0;
#X connect 71 0 89 0;
#X connect 71 1 65 0;
#X connect 72 0 71 0;
#X connect 73 0 89 0;
#X connect 74 0 71 0;
#X connect 75 0 76 0;
#X connect 76 0 59 0;
#X connect 77 0 81 0;
#X connect 79 0 80 0;
#X connect 82 0 0 0;
#X connect 83 0 5 0;
#X connect 84 0 7 0;
#X connect 85 0 8 0;
#X connect 88 0 50 0;
#X connect 88 0 61 0;
#X connect 89 0 62 0;
#X connect 89 0 73 0;
#X connect 91 0 92 0;
#X coords 0 -1 1 1 350 170 2 100 100;
#X restore 224 25 pd tlcl;
#X text 226 6 Cue Time Line;
#X obj 206 537 abs/listCreation;
#N canvas 719 335 712 613 HELP 0;
#X text 22 215 using _delay and _line abstraction allow the use of
the global speed parametter.;
#X text 22 85 with "jump from start option" : when clicking on a cue
number \, all previous cue are send to ensure that no messages are
missed : no cue can be skiped.;
#X text 22 127 without "jump from start" \, a jump will react like
a "next" : only 1 cue is send.;
#X text 21 166 subpatch are provided in order to filter only last value
(float) when cue change (next or jump);
#X text 26 -49 Change cue_list.txt in order to create a sequence of
cue;
#X text 26 -15 absolute time and time since the last cue are displayed
;
#X text 26 8 a fader move when next cue will be automatically loaded
;
#X text 23 35 key control allow to go to next cue for every space bar
key pressed. This option is desactiveted when pressing control key
;
#X restore 112 535 pd HELP HERE;
#N canvas 0 0 1888 970 useful 0;
#N canvas 1 100 450 300 filter_only_current_cue 0;
#X obj 42 163 spigot;
#X obj 75 52 r start_play_all_from;
#X msg 106 95 1;
#X msg 75 73 0;
#X obj 42 16 inlet;
#X obj 42 194 outlet;
#X obj 105 73 r before_fin_play_all_from;
#X connect 0 0 5 0;
#X connect 1 0 3 0;
#X connect 2 0 0 1;
#X connect 3 0 0 1;
#X connect 4 0 0 0;
#X connect 6 0 2 0;
#X restore 36 48 pd filter_only_current_cue;
#N canvas 305 103 450 323 filter_last_only 0;
#X obj 42 163 spigot;
#X obj 75 52 r start_play_all_from;
#X obj 105 73 r fin_play_all_from;
#X msg 132 115 1;
#X msg 75 73 0;
#X obj 105 94 t b b;
#X obj 42 16 inlet;
#X obj 42 194 outlet;
#X obj 42 134 f;
#X connect 0 0 7 0;
#X connect 1 0 4 0;
#X connect 2 0 5 0;
#X connect 3 0 0 1;
#X connect 4 0 0 1;
#X connect 5 0 8 0;
#X connect 5 1 3 0;
#X connect 6 0 8 0;
#X connect 8 0 0 0;
#X restore 36 26 pd filter_last_only;
#X obj 144 154 _delay;
#N canvas 207 249 716 653 delaySend 0;
#X obj 109 44 _delay;
#X obj 109 19 r delaySend;
#X obj 119 222 send;
#X obj 109 66 list split 1;
#X obj 119 164 list;
#X obj 78 94 t b s;
#X obj 244 19 inlet;
#X obj 119 193 list trim;
#X connect 0 0 3 0;
#X connect 1 0 0 0;
#X connect 3 0 5 0;
#X connect 3 1 4 1;
#X connect 4 0 7 0;
#X connect 5 0 4 0;
#X connect 5 1 2 1;
#X connect 6 0 0 1;
#X connect 7 0 2 0;
#X restore 25 223 pd delaySend;
#N canvas 519 257 716 653 delaySend2 0;
#X obj 109 44 _delay;
#X obj 109 181 send;
#X obj 109 66 list split 1;
#X obj 109 133 list;
#X obj 78 94 t b s;
#X obj 109 19 r delaySend2;
#X obj 227 20 inlet;
#X obj 109 157 list trim;
#X connect 0 0 2 0;
#X connect 2 0 4 0;
#X connect 2 1 3 1;
#X connect 3 0 7 0;
#X connect 4 0 3 0;
#X connect 4 1 1 1;
#X connect 5 0 0 0;
#X connect 6 0 0 1;
#X connect 7 0 1 0;
#X restore 113 223 pd delaySend2;
#N canvas 229 307 716 630 delaySend3 0;
#X obj 109 44 _delay;
#X obj 119 169 send;
#X obj 109 66 list split 1;
#X obj 119 121 list;
#X obj 78 94 t b s;
#X obj 109 19 r delaySend3;
#X obj 235 19 inlet;
#X obj 119 145 list trim;
#X connect 0 0 2 0;
#X connect 2 0 4 0;
#X connect 2 1 3 1;
#X connect 3 0 7 0;
#X connect 4 0 3 0;
#X connect 4 1 1 1;
#X connect 5 0 0 0;
#X connect 6 0 0 1;
#X connect 7 0 1 0;
#X restore 210 223 pd delaySend3;
#X obj 197 94 r jump_end_line;
#X obj 207 154 t b b b;
#X obj 36 138 _line;
#X obj 36 160 print;
#X msg 36 86 set 0;
#X msg 81 86 10 1000;
#X msg 86 112 10 1000 100;
#X obj 297 137 time_filter 10;
#X obj 250 59 s until_delay;
#X obj 250 6 loadbang;
#X floatatom 250 42 5 0 0 0 - - -, f 5;
#X text 283 42 mS between TCP sends;
#X obj 292 164 r deboucher_tuyaux;
#X msg 294 190 \; to_netserver broadcast _;
#X msg 250 24 set 150;
#X connect 6 0 2 1;
#X connect 6 0 7 0;
#X connect 7 0 5 0;
#X connect 7 1 4 0;
#X connect 7 2 3 0;
#X connect 8 0 9 0;
#X connect 10 0 8 0;
#X connect 11 0 8 0;
#X connect 12 0 8 0;
#X connect 15 0 20 0;
#X connect 16 0 14 0;
#X connect 18 0 19 0;
#X connect 20 0 16 0;
#X restore 113 510 pd useful subpatches;
#X obj 5 25 onecue;
#X obj 5 40 onecue;
#X obj 5 55 onecue;
#X obj 5 70 onecue;
#X obj 5 85 onecue;
#X obj 5 100 onecue;
#X obj 5 115 onecue;
#X obj 5 130 onecue;
#X obj 5 145 onecue;
#X obj 5 160 onecue;
#X obj 5 175 onecue;
#X obj 5 190 onecue;
#X obj 5 205 onecue;
#X obj 5 220 onecue;
#X obj 5 235 onecue;
#X obj 5 250 onecue;
#X obj 5 265 onecue;
#X obj 5 280 onecue;
#X obj 5 295 onecue;
#X obj 5 310 onecue;
#X obj 5 325 onecue;
#X obj 5 340 onecue;
#X obj 5 355 onecue;
#X obj 5 370 onecue;
#X obj 5 385 onecue;
#X obj 5 400 onecue;
#X obj 5 415 onecue;
#X obj 5 430 onecue;
#X obj 5 445 onecue;
#X obj 5 460 onecue;
#X obj 5 475 onecue;
#X obj 5 490 onecue;
#X obj 229 207 r clients;
#X obj 229 229 client;
#X obj 229 252 client;
#X obj 229 275 client;
#X obj 229 298 client;
#X obj 229 321 client;
#N canvas 0 0 1888 993 SERVER-SUBPATCH 0;
#X obj 257 52 netserver 11999;
#X text 84 132 received data;
#X obj 257 26 r to_netserver;
#X obj 193 234 pack s f s;
#X obj 287 234 s dropdown;
#N canvas 553 343 450 323 print_connection_time 0;
#X obj 126 159 time;
#X obj 126 132 t b;
#X obj 126 100 select 1;
#X obj 126 191 pack f f;
#X obj 126 254 print -n;
#X msg 126 225 \$1H\$2-------------------;
#X obj 115 48 inlet;
#X connect 0 0 3 0;
#X connect 0 1 3 1;
#X connect 1 0 0 0;
#X connect 2 0 1 0;
#X connect 3 0 5 0;
#X connect 5 0 4 0;
#X connect 6 0 2 0;
#X restore 291 81 pd print_connection_time;
#X obj 381 234 s get_all_corners;
#X obj 193 171 route NAME dropdown get_all_corners;
#X obj 262 328 outlet;
#X msg 193 260 NAME name \$1 socket \$2 ip \$3 color 16;
#X obj 193 286 s clients;
#X obj 86 108 print From Netserver;
#X msg 437 19 broadcast disconnect;
#X connect 0 0 7 0;
#X connect 0 0 11 0;
#X connect 0 1 5 0;
#X connect 0 1 8 0;
#X connect 0 2 3 1;
#X connect 0 3 3 2;
#X connect 2 0 0 0;
#X connect 3 0 9 0;
#X connect 7 0 3 0;
#X connect 7 1 4 0;
#X connect 7 2 6 0;
#X connect 9 0 10 0;
#X connect 12 0 0 0;
#X restore 275 499 pd SERVER-SUBPATCH;
#X floatatom 275 521 5 0 0 0 - - -, f 5;
#X obj 342 368 r clients;
#X obj 342 426 spigot;
#X obj 342 390 tgl 31 0 empty empty empty 17 7 0 10 -262144 -1 -1 0
1;
#X obj 276 426 spigot;
#X obj 276 390 tgl 31 0 empty empty empty 17 7 0 10 -262144 -1 -1 0
1;
#X obj 276 368 r cmd;
#X obj 276 448 print cmd;
#X obj 342 448 print clients;
#X obj 430 426 spigot;
#X obj 430 390 tgl 31 0 empty empty empty 17 7 0 10 -262144 -1 -1 0
1;
#X obj 430 368 r to_netserver;
#X obj 430 448 print to_netserver;
#X obj 229 426 spigot;
#X obj 229 390 tgl 31 0 empty empty empty 17 7 0 10 -262144 -1 -1 0
1;
#X obj 229 468 print all_sends;
#X obj 229 344 r all_sends;
#N canvas 0 0 1904 1009 video_list 0;
#X obj 82 167 s to_netserver;
#X msg 206 140 broadcast load_video \$1;
#X obj 206 67 r dropdown;
#X dropdown 206 91 30 0 0 0 - - -, f 30;
#X msg 81 42 broadcast list_files dropdown;
#X floatatom 426 123 5 0 0 0 - - -, f 5;
#X msg 232 208 broadcast set_alpha_testScreen \$1;
#X obj 375 111 spigot;
#X obj 409 93 tgl 15 0 empty empty empty 17 7 0 10 -262144 -1 -1 0
1;
#X msg 186 244 broadcast bShowTestScreen \$1;
#X obj 187 224 tgl 15 0 empty empty empty 17 7 0 10 -262144 -1 -1 0
1;
#X floatatom 227 182 5 0 0 0 - - -, f 5;
#X msg 19 198 broadcast reset;
#X msg 349 169 broadcast create_surface direct;
#X connect 1 0 0 0;
#X connect 2 0 3 0;
#X connect 3 0 5 0;
#X connect 3 0 7 0;
#X connect 4 0 0 0;
#X connect 6 0 0 0;
#X connect 7 0 1 0;
#X connect 8 0 7 1;
#X connect 9 0 0 0;
#X connect 10 0 9 0;
#X connect 11 0 6 0;
#X connect 12 0 0 0;
#X connect 13 0 0 0;
#X restore 412 495 pd video_list;
#N canvas -8 -8 1904 1009 mouse 1;
#X obj 60 115 tgl 64 0 empty empty empty 17 7 0 10 -262144 -1 -1 1
1;
#X obj 60 244 nbx 3 24 -1e+037 1e+037 0 0 empty empty empty 0 -8 0
20 -262144 -1 -1 5 256 0;
#N canvas 0 0 1904 1009 KEYBOARD_controls 0;
#X obj 75 13 keyname;
#X obj 35 360 f;
#X obj 81 360 f;
#X obj 128 360 f;
#X obj 173 360 f;
#X obj 293 274 +;
#X msg 234 203 1;
#X msg 278 203 -1;
#X obj 70 113 symbol;
#X obj 70 89 sel 1;
#X obj 222 316 expr if($f1 < 10 \, $f1 / 10 \, $f1 - 9);
#X obj 222 260 max 0;
#X obj 222 285 min 109;
#X obj 128 385 * -1;
#X obj 35 385 * -1;
#X msg 334 229 inc;
#X msg 375 229 dec;
#X obj 334 342 counter 1 4;
#X obj 339 90 loadbang;
#X msg 339 119 19, f 7;
#X obj 70 65 spigot;
#X obj 18 13 inlet;
#X obj 217 664 outlet;
#X obj 329 664 outlet;
#X msg 67 427 \$1 0;
#X msg 151 427 0 \$1;
#X msg 89 569 move_warper \$1 \$2;
#X msg 253 571 move_corner \$3 \$1 \$2;
#X obj 252 535 pack f f f;
#X obj 166 498 gate 2;
#X obj 323 394 t 2 f;
#X obj 730 109 pack f s;
#X msg 730 135 \$2 \$1;
#X msg 633 328 next;
#X obj 586 227 sel 0 1;
#X obj 494 395 list append next;
#X msg 494 359 select_surface;
#X obj 494 472 t 1 1 b l;
#X obj 74 155 sel q d z s + - e a Tab m, f 58;
#X obj 600 478 tgl 32 0 empty empty empty 17 7 0 10 -262144 -1 -1 1
1;
#X floatatom 676 593 5 0 0 0 x - -, f 5;
#X floatatom 731 593 5 0 0 1 y - -, f 5;
#N canvas 0 0 1904 1009 mouse_control 0;
#X obj 70 140 cursor;
#X obj 143 336 route x y;
#X floatatom 136 228 5 0 0 1 mousewheel - -, f 5;
#X obj 70 164 route motion mousewheel button;
#X obj 213 193 route 1 2 3;
#X obj 238 231 tgl 15 0 empty empty empty 17 7 0 10 -262144 -1 -1 0
1;
#X obj 259 231 tgl 15 0 empty empty empty 17 7 0 10 -262144 -1 -1 0
1;
#X obj 280 231 tgl 15 0 empty empty empty 17 7 0 10 -262144 -1 -1 0
1;
#X obj 70 109 inlet;
#X obj 127 396 outlet;
#X obj 186 396 outlet;
#X obj 113 270 spigot;
#X connect 0 0 3 0;
#X connect 1 0 9 0;
#X connect 1 1 10 0;
#X connect 3 0 11 0;
#X connect 3 1 2 0;
#X connect 3 2 4 0;
#X connect 4 0 5 0;
#X connect 4 1 6 0;
#X connect 4 1 11 1;
#X connect 4 2 7 0;
#X connect 8 0 0 0;
#X connect 11 0 1 0;
#X restore 600 521 pd mouse_control;
#X obj 559 619 pack f f;
#X obj 572 699 pack f f f;
#X obj 486 662 gate 2;
#X msg 573 735 set_corner \$3 \$1 \$2;
#X msg 409 733 set_warper_pos \$1 \$2;
#X obj 538 646 time_filter 100;
#X obj 730 169 route Shift m;
#X msg 680 328 previous;
#X msg 370 458 select_corner \$1;
#X obj 767 474 f;
#X connect 0 0 20 0;
#X connect 0 0 31 0;
#X connect 0 1 8 1;
#X connect 0 1 31 1;
#X connect 1 0 14 0;
#X connect 2 0 24 0;
#X connect 3 0 13 0;
#X connect 4 0 25 0;
#X connect 5 0 11 0;
#X connect 6 0 5 0;
#X connect 7 0 5 0;
#X connect 8 0 38 0;
#X connect 9 0 8 0;
#X connect 10 0 4 1;
#X connect 10 0 3 1;
#X connect 10 0 2 1;
#X connect 10 0 1 1;
#X connect 10 0 22 0;
#X connect 11 0 12 0;
#X connect 12 0 5 1;
#X connect 12 0 10 0;
#X connect 13 0 25 0;
#X connect 14 0 24 0;
#X connect 15 0 17 0;
#X connect 16 0 17 0;
#X connect 17 0 30 0;
#X connect 18 0 19 0;
#X connect 19 0 5 0;
#X connect 20 0 9 0;
#X connect 21 0 20 1;
#X connect 24 0 29 1;
#X connect 25 0 29 1;
#X connect 26 0 23 0;
#X connect 27 0 23 0;
#X connect 28 0 27 0;
#X connect 29 0 26 0;
#X connect 29 1 28 0;
#X connect 30 0 29 0;
#X connect 30 0 45 0;
#X connect 30 1 28 2;
#X connect 30 1 44 2;
#X connect 30 1 51 0;
#X connect 31 0 32 0;
#X connect 32 0 49 0;
#X connect 33 0 35 1;
#X connect 34 0 33 0;
#X connect 34 1 50 0;
#X connect 35 0 37 0;
#X connect 36 0 35 0;
#X connect 37 0 29 0;
#X connect 37 1 28 2;
#X connect 37 1 44 2;
#X connect 37 1 45 0;
#X connect 37 2 17 2;
#X connect 37 3 23 0;
#X connect 38 0 1 0;
#X connect 38 1 2 0;
#X connect 38 2 3 0;
#X connect 38 3 4 0;
#X connect 38 4 6 0;
#X connect 38 5 7 0;
#X connect 38 6 15 0;
#X connect 38 7 16 0;
#X connect 38 8 36 0;
#X connect 38 9 39 0;
#X connect 39 0 42 0;
#X connect 42 0 40 0;
#X connect 42 0 43 0;
#X connect 42 1 41 0;
#X connect 42 1 43 1;
#X connect 43 0 48 0;
#X connect 44 0 46 0;
#X connect 45 0 47 0;
#X connect 45 1 44 0;
#X connect 46 0 23 0;
#X connect 47 0 23 0;
#X connect 48 0 45 1;
#X connect 49 0 34 0;
#X connect 49 1 52 0;
#X connect 50 0 35 1;
#X connect 51 0 23 0;
#X restore 60 195 pd KEYBOARD_controls;
#X text 199 76 z q s d ::: Move surface/corner by increment;
#X text 199 126 (Maj) Tab : Select (last) next surface;
#X text 199 101 a e ::::::: Select a corner (and select those);
#X text 199 151 - + ::::::: Decrease/Increase increment;
#X obj 158 250 send cmd;
#X text 199 173 m ::::::::: Activate mouse control (keep pressed);
#X text 199 195 You select first with keyboard;
#N canvas -8 -8 1904 1009 empty 1;
#X restore 286 335 pd empty window for when you MOUSE !;
#X msg 361 241 select_surface next + get_all_corners;
#X msg 540 175 bShowWarpers 1;
#X connect 0 0 2 0;
#X connect 2 0 1 0;
#X connect 2 1 7 0;
#X connect 11 0 7 0;
#X connect 12 0 7 0;
#X restore 334 469 pd mouse and keyboard control;
#X obj 424 200 bng 15 250 50 0 deboucher_tuyaux empty empty 17 7 0
10 -262144 -1 -1;
#X obj 328 7 bng 15 250 50 0 reload_current_file empty reload_current_file
17 4 0 10 -262144 -1 -1;
#X msg 610 210 ALL reset;
#X connect 1 0 7 0;
#X connect 7 0 8 0;
#X connect 8 0 9 0;
#X connect 9 0 10 0;
#X connect 10 0 11 0;
#X connect 11 0 12 0;
#X connect 12 0 13 0;
#X connect 13 0 14 0;
#X connect 14 0 15 0;
#X connect 15 0 16 0;
#X connect 16 0 17 0;
#X connect 17 0 18 0;
#X connect 18 0 19 0;
#X connect 19 0 20 0;
#X connect 20 0 21 0;
#X connect 21 0 22 0;
#X connect 22 0 23 0;
#X connect 23 0 24 0;
#X connect 24 0 25 0;
#X connect 25 0 26 0;
#X connect 26 0 27 0;
#X connect 27 0 28 0;
#X connect 28 0 29 0;
#X connect 29 0 30 0;
#X connect 30 0 31 0;
#X connect 31 0 32 0;
#X connect 32 0 33 0;
#X connect 33 0 34 0;
#X connect 34 0 35 0;
#X connect 35 0 36 0;
#X connect 36 0 37 0;
#X connect 37 0 38 0;
#X connect 38 0 0 0;
#X connect 39 0 40 0;
#X connect 40 0 41 0;
#X connect 41 0 42 0;
#X connect 42 0 43 0;
#X connect 43 0 44 0;
#X connect 45 0 46 0;
#X connect 47 0 48 0;
#X connect 48 0 54 0;
#X connect 49 0 48 1;
#X connect 50 0 53 0;
#X connect 51 0 50 1;
#X connect 52 0 50 0;
#X connect 55 0 58 0;
#X connect 56 0 55 1;
#X connect 57 0 55 0;
#X connect 59 0 61 0;
#X connect 60 0 59 1;
#X connect 62 0 59 0;
