#N canvas 719 335 595 606.031 12;
#X obj 62 244 list split 1;
#X obj 62 161 until;
#X obj 62 199 list append;
#X obj 88 128 t b l;
#X obj 192 244 bang;
#X obj 254 415 print list::;
#X obj 154 361 list append;
#X obj 122 415 list;
#X obj 50 316 route LINE;
#X msg 88 105 1 2 3 LINE 4 a b c;
#X obj 34 363 line;
#X connect 0 0 8 0;
#X connect 0 1 2 1;
#X connect 0 2 4 0;
#X connect 1 0 2 0;
#X connect 2 0 0 0;
#X connect 3 0 1 0;
#X connect 3 1 2 1;
#X connect 4 0 1 1;
#X connect 9 0 3 0;
