#N canvas 778 151 802 813 10;
#X obj 239 190 hsl 128 15 0 1 0 0 empty empty empty -2 -8 0 10 -262144
-1 -1 0 1;
#X obj 518 14 notein 2;
#X obj 164 21 notein 1;
#X obj 467 307 ceff~;
#X obj 600 220 hsl 128 15 0 1 0 0 empty empty empty -2 -8 0 10 -262144
-1 -1 0 1;
#X obj 448 413 *~ 1;
#X obj 563 267 / 127;
#X obj 466 340 *~;
#X obj 468 62 stripnote;
#X obj 542 323 line~;
#N canvas 1514 247 367 652 kick 0;
#X obj 143 529 outlet~;
#X obj 142 438 *~ 1;
#X obj 141 341 ceff~;
#X obj 196 416 vsl 15 128 0 1 0 0 empty empty empty 0 -9 0 10 -262144
-1 -1 0 1;
#X obj 142 129 osc~ 20;
#N canvas 0 0 450 300 env 0;
#X obj 60 62 inlet~;
#X obj 76 247 outlet~;
#X obj 58 198 *~;
#X obj 187 52 inlet;
#X obj 194 164 cosenv;
#X msg 199 117 10;
#X obj 272 76 loadbang;
#X msg 291 119 20;
#X msg 239 114 40;
#X connect 0 0 2 0;
#X connect 2 0 1 0;
#X connect 3 0 4 0;
#X connect 4 0 2 1;
#X connect 5 0 4 1;
#X connect 6 0 7 0;
#X connect 6 0 8 0;
#X connect 6 0 5 0;
#X connect 7 0 4 3;
#X connect 8 0 4 2;
#X restore 142 269 pd env;
#X obj 143 225 ceff~;
#X obj 142 32 notein 3;
#X obj 141 300 *~ 0.5;
#X obj 142 85 mtof;
#X msg 170 204 0.1;
#X obj 170 183 loadbang;
#X msg 72 90 75;
#X msg 34 92 45;
#X obj 142 60 stripnote;
#X obj 247 174 b;
#X obj 256 125 bng 15 250 50 0 empty empty empty 17 7 0 10 -262144
-1 -1;
#X obj 222 263 vsl 15 128 0 1 0 0 empty empty empty 0 -9 0 10 -262144
-1 -1 0 1;
#X connect 1 0 0 0;
#X connect 2 0 1 0;
#X connect 3 0 1 1;
#X connect 4 0 6 0;
#X connect 5 0 8 0;
#X connect 6 0 5 0;
#X connect 7 0 14 0;
#X connect 7 1 14 1;
#X connect 8 0 2 0;
#X connect 9 0 4 0;
#X connect 10 0 6 1;
#X connect 11 0 10 0;
#X connect 12 0 4 0;
#X connect 13 0 4 0;
#X connect 14 0 9 0;
#X connect 14 1 15 0;
#X connect 15 0 5 1;
#X connect 16 0 15 0;
#X connect 17 0 2 1;
#X restore 465 473 pd kick;
#X floatatom 276 216 5 0 0 0 - - -;
#X obj 16 287 egg a a a;
#X obj 118 189 gate 4;
#X obj 136 149 pack f f f;
#X obj 109 96 t b f;
#X obj 332 623 dac~ 1 2 3;
#X obj 91 283 egg a a a;
#X obj 161 289 egg a a a;
#X obj 231 288 egg a a a;
#X obj 164 56 poly 4 1;
#X msg 543 291 \$1 40;
#X floatatom 71 58 5 0 0 0 - - -;
#N canvas 1185 336 561 500 wobble 0;
#X obj 145 24 inlet~;
#X obj 145 502 outlet~;
#X obj 145 476 *~;
#X obj 178 151 +~ 1;
#X obj 242 174 osc~;
#X obj 242 436 *~;
#X obj 192 392 *~ -1;
#X obj 177 436 *~;
#X obj 192 416 +~ 1;
#X obj 247 147 line~;
#X obj 319 268 / 127;
#X obj 319 319 line~;
#X obj 319 294 \$1 10;
#X obj 241 196 *~ 0.5;
#X obj 241 225 +~ 0.5;
#X msg 247 117 \$1 5;
#X obj 319 242 ctlin 9 2;
#X obj 247 86 ctlin 8 2;
#X obj 213 37 hsl 128 15 0 8000 0 0 empty empty empty -2 -8 0 10 -262144
-1 -1 8300 1;
#X obj 157 68 lop~;
#X connect 0 0 2 0;
#X connect 2 0 1 0;
#X connect 3 0 7 0;
#X connect 4 0 13 0;
#X connect 5 0 2 1;
#X connect 6 0 8 0;
#X connect 7 0 2 1;
#X connect 8 0 7 1;
#X connect 9 0 4 0;
#X connect 10 0 12 0;
#X connect 11 0 6 0;
#X connect 11 0 5 1;
#X connect 12 0 11 0;
#X connect 13 0 14 0;
#X connect 14 0 5 0;
#X connect 15 0 9 0;
#X connect 16 0 10 0;
#X connect 17 0 15 0;
#X connect 18 0 19 1;
#X restore 468 370 pd wobble;
#X obj 463 240 line~;
#X obj 390 82 ctlin 7 2;
#X obj 486 116 mtof;
#X msg 478 216 \$1 \$2;
#X obj 478 192 pack;
#X obj 497 163 * 10;
#X obj 596 110 == 0;
#X obj 563 134 spigot;
#X obj 165 409 *~ 0.25;
#X msg 625 409 60;
#X obj 614 500 noteout;
#X obj 584 626 ctlout 8 2;
#X obj 680 633 ctlout 9 2;
#X floatatom 583 586 5 0 0 0 - - -;
#X floatatom 667 583 5 0 0 0 - - -;
#X obj 483 617 ctlout 7 2;
#X floatatom 476 578 5 0 0 0 - - -;
#N canvas 130 152 855 354 gen 1;
#X obj 203 61 inlet~;
#X obj 203 307 outlet~;
#X obj 267 151 osc~;
#X obj 268 109 *~ 1;
#X obj 306 151 osc~;
#X obj 370 150 osc~;
#X obj 423 151 osc~;
#X obj 424 109 *~ 4;
#X obj 464 151 osc~;
#X obj 521 151 osc~;
#X obj 522 109 *~ 6;
#X obj 558 151 osc~;
#X obj 604 151 osc~;
#X obj 605 109 *~ 8;
#X obj 465 109 *~ 5.01;
#X obj 371 109 *~ 2.99;
#X obj 661 151 osc~;
#X obj 661 108 *~ 15;
#X obj 307 109 *~ 2.02;
#X obj 206 197 +~;
#X obj 203 239 /~ 9;
#X obj 559 109 *~ 6.1;
#X connect 0 0 3 0;
#X connect 0 0 7 0;
#X connect 0 0 10 0;
#X connect 0 0 13 0;
#X connect 0 0 14 0;
#X connect 0 0 15 0;
#X connect 0 0 17 0;
#X connect 0 0 18 0;
#X connect 0 0 21 0;
#X connect 2 0 19 1;
#X connect 3 0 2 0;
#X connect 4 0 19 1;
#X connect 5 0 19 1;
#X connect 6 0 19 1;
#X connect 7 0 6 0;
#X connect 8 0 19 1;
#X connect 9 0 19 1;
#X connect 10 0 9 0;
#X connect 11 0 19 1;
#X connect 12 0 19 1;
#X connect 13 0 12 0;
#X connect 14 0 8 0;
#X connect 15 0 5 0;
#X connect 16 0 19 1;
#X connect 17 0 16 0;
#X connect 18 0 4 0;
#X connect 19 0 20 0;
#X connect 20 0 1 0;
#X connect 21 0 11 0;
#X restore 464 270 pd gen;
#X obj 629 289 tgl 15 0 empty empty empty 17 7 0 10 -262144 -1 -1 1
1;
#X obj 629 378 sel 1 2 3 4;
#X obj 602 450 makenote 50 100;
#X obj 629 354 counter 1 4;
#X msg 662 409 75;
#X obj 629 330 metro 200;
#X obj 713 285 tgl 15 0 empty empty empty 17 7 0 10 -262144 -1 -1 0
1;
#X obj 713 326 metro 200;
#X msg 695 410 45;
#X msg 593 409 35;
#X msg 720 467 2;
#X connect 0 0 11 0;
#X connect 0 0 12 1;
#X connect 0 0 17 1;
#X connect 0 0 18 1;
#X connect 0 0 19 1;
#X connect 1 0 8 0;
#X connect 1 1 8 1;
#X connect 1 1 31 0;
#X connect 2 0 20 0;
#X connect 2 0 22 0;
#X connect 2 1 20 1;
#X connect 3 0 7 0;
#X connect 4 0 3 1;
#X connect 5 0 16 1;
#X connect 5 0 16 0;
#X connect 6 0 21 0;
#X connect 7 0 23 0;
#X connect 8 0 26 0;
#X connect 9 0 7 1;
#X connect 10 0 16 2;
#X connect 12 0 32 0;
#X connect 13 0 12 0;
#X connect 13 1 17 0;
#X connect 13 2 18 0;
#X connect 13 3 19 0;
#X connect 14 0 13 1;
#X connect 15 0 14 0;
#X connect 15 1 13 0;
#X connect 17 0 32 0;
#X connect 18 0 32 0;
#X connect 19 0 32 0;
#X connect 20 0 15 0;
#X connect 20 1 14 1;
#X connect 20 2 14 2;
#X connect 21 0 9 0;
#X connect 23 0 5 0;
#X connect 24 0 41 0;
#X connect 25 0 29 0;
#X connect 25 0 30 0;
#X connect 26 0 28 0;
#X connect 27 0 24 0;
#X connect 28 0 27 0;
#X connect 29 0 28 1;
#X connect 30 0 31 1;
#X connect 31 0 6 0;
#X connect 32 0 16 0;
#X connect 33 0 44 0;
#X connect 37 0 35 0;
#X connect 38 0 36 0;
#X connect 40 0 39 0;
#X connect 41 0 3 0;
#X connect 42 0 47 0;
#X connect 43 0 33 0;
#X connect 43 1 46 0;
#X connect 43 2 51 0;
#X connect 43 3 50 0;
#X connect 44 0 34 0;
#X connect 44 1 34 1;
#X connect 45 0 43 0;
#X connect 46 0 44 0;
#X connect 47 0 45 0;
#X connect 48 0 49 0;
#X connect 49 0 46 0;
#X connect 50 0 44 0;
#X connect 51 0 44 0;
#X connect 52 0 34 2;
