#N canvas 1098 539 271 334 10;
#X obj -5005 19 inlet~;
#X obj -4962 79 phasor~;
#X obj -5059 93 phasor~;
#X obj -4960 189 *~ -1;
#X obj -4962 158 clip~ 0 0.5;
#X obj -5059 186 clip~ -0.5 0;
#X obj -5014 260 outlet~;
#X obj -5013 214 *~ 2;
#X obj -5058 132 -~ 0.5;
#X obj -4962 121 -~ 0.5;
#X obj -5014 236 +~ 0.5;
#X obj -4911 35 inlet;
#X connect 0 0 1 0;
#X connect 0 0 2 0;
#X connect 1 0 9 0;
#X connect 2 0 8 0;
#X connect 3 0 7 0;
#X connect 4 0 3 0;
#X connect 5 0 7 0;
#X connect 7 0 10 0;
#X connect 8 0 5 0;
#X connect 9 0 4 0;
#X connect 10 0 6 0;
#X connect 11 0 1 1;
#X connect 11 0 2 1;
