#N canvas 255 95 1356 876 10;
#X obj 211 101 tgl 16 0 \$0manual_toggle \$0toggle empty 17 7 0 10
-262144 -1 -1 1 1;
#X symbolatom 228 101 20 0 0 0 - #0NAMEsymbol -, f 20;
#X obj 351 101 cnv 16 16 16 empty \$0canva empty 20 12 0 14 -260818
-262144 0;
#X obj 28 2 inlet;
#X obj 73 263 outlet;
#X symbolatom 401 101 15 0 0 0 - #0IPsymbol -, f 15;
#X symbolatom 368 101 5 0 0 0 - #0SOCKETsymbol -, f 5;
#X obj 28 42 route \$1;
#N canvas 0 0 1888 970 set_changes 0;
#X obj 319 269 ftos;
#X obj 220 318 s \$0canva;
#X msg 220 298 color \$1 0;
#X obj 22 172 list split 1;
#X obj 121 172 list split 1;
#X obj 220 172 list split 1;
#X obj 319 172 list split 1;
#X obj 418 172 list split 1;
#X obj 418 218 list prepend set;
#X obj 121 242 list prepend set;
#X obj 153 85 list trim;
#X obj 121 290 s \$0NAMEsymbol;
#X obj 319 323 s \$0SOCKETsymbol;
#X obj 418 270 s \$0IPsymbol;
#X obj 418 239 list trim;
#X obj 121 264 list trim;
#X obj 22 311 s \$0toggle;
#X obj 39 -4 inlet;
#X obj 509 -1 inlet;
#X obj 578 119 list split 1;
#X obj 692 314 outlet;
#X obj 692 226 list prepend callem;
#X obj 692 253 list trim;
#X obj 487 56 route ALL callem;
#X obj 566 226 list prepend ALL;
#X obj 565 249 list trim;
#X obj 130 207 s \$0newrouting;
#X obj 154 112 route active name color socket ip reset;
#X obj 399 142 s \$0reset;
#X obj 287 241 s \$0SOCKETfloat;
#X connect 0 0 12 0;
#X connect 2 0 1 0;
#X connect 3 0 16 0;
#X connect 3 1 10 0;
#X connect 4 0 9 0;
#X connect 4 0 26 0;
#X connect 4 1 10 0;
#X connect 5 0 2 0;
#X connect 5 1 10 0;
#X connect 6 0 0 0;
#X connect 6 0 29 0;
#X connect 6 1 10 0;
#X connect 7 0 8 0;
#X connect 7 1 10 0;
#X connect 8 0 14 0;
#X connect 9 0 15 0;
#X connect 10 0 27 0;
#X connect 14 0 13 0;
#X connect 15 0 11 0;
#X connect 17 0 27 0;
#X connect 18 0 23 0;
#X connect 19 0 9 0;
#X connect 19 0 26 0;
#X connect 19 1 21 0;
#X connect 21 0 22 0;
#X connect 22 0 20 0;
#X connect 23 0 24 0;
#X connect 23 0 27 0;
#X connect 23 1 19 0;
#X connect 23 2 20 0;
#X connect 24 0 25 0;
#X connect 25 0 20 0;
#X connect 27 0 3 0;
#X connect 27 1 4 0;
#X connect 27 2 5 0;
#X connect 27 3 6 0;
#X connect 27 4 7 0;
#X connect 27 5 28 0;
#X restore 18 88 pd set_changes;
#X text 174 56 <name>/ALL active <> name <> color <> socket <> ip <>
;
#X text 174 33 inlet message:;
#N canvas 328 400 1015 357 init 0;
#X obj 23 136 s \$0toggle;
#X msg 23 116 0;
#X obj 310 136 s \$0canva;
#X obj 91 166 s \$0NAMEsymbol;
#X msg 392 115 set IP;
#X obj 392 136 s \$0IPsymbol;
#X obj 200 136 s \$0SOCKETsymbol;
#X obj 200 115 symbol SOCK;
#X msg 310 116 color 14 0;
#X obj 91 116 symbol NAME;
#X obj 103 143 s \$0newrouting;
#X obj 91 69 t b;
#X obj 92 15 loadbang;
#X obj 117 41 r \$0reset;
#X obj 213 172 f 0;
#X obj 213 193 s \$0SOCKETfloat;
#X connect 1 0 0 0;
#X connect 4 0 5 0;
#X connect 7 0 6 0;
#X connect 8 0 2 0;
#X connect 9 0 3 0;
#X connect 9 0 10 0;
#X connect 11 0 1 0;
#X connect 11 0 8 0;
#X connect 11 0 4 0;
#X connect 11 0 7 0;
#X connect 11 0 9 0;
#X connect 11 0 14 0;
#X connect 12 0 11 0;
#X connect 13 0 11 0;
#X connect 14 0 15 0;
#X restore 389 17 pd init;
#X obj 63 17 r \$0newrouting;
#X obj 258 219 list prepend;
#X obj 250 185 r commands;
#X obj 308 246 r \$0toggle;
#X obj 258 271 spigot;
#X obj 258 351 s to_netserver;
#X obj 382 246 r \$0manual_toggle;
#X obj 258 310 list trim;
#X msg 327 196 send \$1;
#X obj 327 136 r \$0SOCKETfloat;
#X connect 3 0 7 0;
#X connect 7 0 8 0;
#X connect 7 1 8 1;
#X connect 8 0 4 0;
#X connect 12 0 7 1;
#X connect 13 0 16 0;
#X connect 14 0 13 0;
#X connect 15 0 16 1;
#X connect 16 0 19 0;
#X connect 18 0 16 1;
#X connect 19 0 17 0;
#X connect 20 0 13 1;
#X connect 21 0 20 0;
#X coords 0 -1 1 1 284 18 1 210 100;
