#N canvas 0 0 1888 970 12;
#X obj 128 132 netserver 11999;
#X floatatom 162 277 5 0 0 0 - - -, f 5;
#X symbolatom 230 222 15 0 0 0 - - -, f 15;
#X text 17 230 received data;
#X text 213 277 number of connections;
#X floatatom 196 249 5 0 0 0 - - -, f 5;
#X text 254 249 socket number;
#X text 355 222 client's IP address;
#X msg 136 27 print;
#X obj 25 45 r to_netserver;
#X obj 953 115 tgl 64 0 empty empty empty 17 7 0 10 -262144 -1 -1 0
1;
#X obj 953 244 nbx 3 24 -1e+037 1e+037 0 0 empty empty empty 0 -8 0
20 -262144 -1 -1 10 256 0;
#X obj 19 206 print Rx:;
#X msg 205 25 broadcast who_is_there;
#X obj 68 404 pack s f s;
#X obj 162 404 s dropdown;
#N canvas 553 343 450 323 print_connection_time 0;
#X obj 126 159 time;
#X obj 126 132 t b;
#X obj 126 100 select 1;
#X obj 126 191 pack f f;
#X obj 126 254 print -n;
#X msg 126 225 \$1H\$2-------------------;
#X obj 115 48 inlet;
#X connect 0 0 3 0;
#X connect 0 1 3 1;
#X connect 1 0 0 0;
#X connect 2 0 1 0;
#X connect 3 0 5 0;
#X connect 5 0 4 0;
#X connect 6 0 2 0;
#X restore 274 172 pd print_connection_time;
#X obj 1075 251 list prepend client 1;
#X obj 1075 276 list trim;
#X obj 68 441 s names;
#N canvas 550 22 841 724 KEYBOARD_controls 0;
#X obj 75 13 keyname;
#X obj 35 360 f;
#X obj 81 360 f;
#X obj 128 360 f;
#X obj 173 360 f;
#X obj 293 274 +;
#X msg 234 203 1;
#X msg 278 203 -1;
#X obj 70 113 symbol;
#X obj 70 89 sel 1;
#X obj 222 316 expr if($f1 < 10 \, $f1 / 10 \, $f1 - 9);
#X obj 222 260 max 0;
#X obj 222 285 min 109;
#X obj 128 385 * -1;
#X obj 35 385 * -1;
#X msg 334 229 inc;
#X msg 375 229 dec;
#X obj 334 342 counter 1 4;
#X obj 339 90 loadbang;
#X msg 339 119 19, f 7;
#X obj 70 65 spigot;
#X obj 18 13 inlet;
#X obj 217 664 outlet;
#X obj 329 664 outlet;
#X obj 74 155 sel q d z s + - e a Tab, f 58;
#X msg 67 427 \$1 0;
#X msg 151 427 0 \$1;
#X msg 89 569 move_warper \$1 \$2;
#X msg 253 571 move_corner \$3 \$1 \$2;
#X obj 252 535 pack f f f;
#X obj 166 498 gate 2;
#X obj 323 394 t 2 f;
#X obj 556 155 route Shift;
#X obj 556 95 pack f s;
#X msg 556 121 \$2 \$1;
#X msg 633 328 next;
#X msg 680 328 last;
#X obj 629 220 sel 0 1;
#X obj 494 395 list append next;
#X msg 494 359 select_surface;
#X obj 494 472 t 1 1 b l;
#X connect 0 0 20 0;
#X connect 0 0 33 0;
#X connect 0 1 8 1;
#X connect 0 1 33 1;
#X connect 1 0 14 0;
#X connect 2 0 25 0;
#X connect 3 0 13 0;
#X connect 4 0 26 0;
#X connect 5 0 11 0;
#X connect 6 0 5 0;
#X connect 7 0 5 0;
#X connect 8 0 24 0;
#X connect 9 0 8 0;
#X connect 10 0 4 1;
#X connect 10 0 3 1;
#X connect 10 0 2 1;
#X connect 10 0 1 1;
#X connect 10 0 22 0;
#X connect 11 0 12 0;
#X connect 12 0 5 1;
#X connect 12 0 10 0;
#X connect 13 0 26 0;
#X connect 14 0 25 0;
#X connect 15 0 17 0;
#X connect 16 0 17 0;
#X connect 17 0 31 0;
#X connect 18 0 19 0;
#X connect 19 0 5 0;
#X connect 20 0 9 0;
#X connect 21 0 20 1;
#X connect 24 0 1 0;
#X connect 24 1 2 0;
#X connect 24 2 3 0;
#X connect 24 3 4 0;
#X connect 24 4 6 0;
#X connect 24 5 7 0;
#X connect 24 6 15 0;
#X connect 24 7 16 0;
#X connect 24 8 39 0;
#X connect 25 0 30 1;
#X connect 26 0 30 1;
#X connect 27 0 23 0;
#X connect 28 0 23 0;
#X connect 29 0 28 0;
#X connect 30 0 27 0;
#X connect 30 1 29 0;
#X connect 31 0 30 0;
#X connect 31 1 29 2;
#X connect 32 0 37 0;
#X connect 33 0 34 0;
#X connect 34 0 32 0;
#X connect 35 0 38 1;
#X connect 36 0 38 1;
#X connect 37 0 35 0;
#X connect 37 1 36 0;
#X connect 38 0 40 0;
#X connect 39 0 38 0;
#X connect 40 0 30 0;
#X connect 40 1 29 2;
#X connect 40 2 17 2;
#X connect 40 3 23 0;
#X restore 953 195 pd KEYBOARD_controls;
#X text 617 125 z q s d ::: Move surface/corner by increment;
#X text 617 175 (Maj) Tab : Select (last) next surface;
#X text 617 150 a e ::::::: Select a corner (and select those);
#X text 617 200 - + ::::::: Decrease/Increase increment;
#X obj 1110 35 tgl 32 0 empty empty empty 17 7 0 10 -262144 -1 -1 0
1;
#X text 1154 40 turn on to get mouse motion and buttons;
#X floatatom 1164 116 5 0 0 0 x - -, f 5;
#X floatatom 1219 116 5 0 0 1 y - -, f 5;
#X obj 256 404 s get_all_corners;
#X obj 68 341 route NAME dropdown get_all_corners;
#N canvas 352 168 733 493 mouse_control 0;
#X obj 70 140 cursor;
#X obj 70 198 route x y;
#X floatatom 218 257 5 0 0 1 mousewheel - -, f 5;
#X obj 70 164 route motion mousewheel button;
#X obj 209 193 route 1 2 3;
#X obj 209 213 tgl 15 0 empty empty empty 17 7 0 10 -262144 -1 -1 0
1;
#X obj 230 213 tgl 15 0 empty empty empty 17 7 0 10 -262144 -1 -1 0
1;
#X obj 251 213 tgl 15 0 empty empty empty 17 7 0 10 -262144 -1 -1 0
1;
#X obj 54 348 pack f f;
#X obj 50 315 f;
#X obj 57 249 t b f;
#X obj 54 417 outlet;
#X obj 70 34 inlet;
#X obj 15 283 bang_filter 100;
#X obj 293 417 outlet;
#X obj 352 417 outlet;
#X connect 0 0 3 0;
#X connect 1 0 10 0;
#X connect 1 0 14 0;
#X connect 1 1 8 1;
#X connect 1 1 15 0;
#X connect 3 0 1 0;
#X connect 3 1 2 0;
#X connect 3 2 4 0;
#X connect 4 0 5 0;
#X connect 4 1 6 0;
#X connect 4 2 7 0;
#X connect 8 0 11 0;
#X connect 9 0 8 0;
#X connect 10 0 13 0;
#X connect 10 1 9 1;
#X connect 12 0 0 0;
#X connect 13 0 9 0;
#X restore 1110 83 pd mouse_control;
#N canvas -8 -8 1904 1009 messages_controls 0;
#X obj 421 95 pack 780 0 1280 720;
#X floatatom 574 25 5 0 0 0 - - -, f 5;
#X obj 574 62 * 10;
#X floatatom 523 25 5 0 0 0 - - -, f 5;
#X obj 523 62 * 10;
#X floatatom 472 25 5 0 0 0 - - -, f 5;
#X obj 472 62 * 10;
#X floatatom 421 25 5 0 0 0 - - -, f 5;
#X obj 421 62 * 10;
#X obj 75 552 tgl 15 0 empty empty empty 17 7 0 10 -262144 -1 -1 0
1;
#X obj 75 496 tgl 15 0 empty empty empty 17 7 0 10 -262144 -1 -1 0
1;
#X dropdown 867 229 48 0 0 0 - - -, f 48;
#X obj 867 200 r dropdown;
#X floatatom 481 191 5 0 0 0 - - -, f 5;
#X obj 481 223 * 10;
#X floatatom 428 191 5 0 0 0 - - -, f 5;
#X obj 428 223 * 10;
#X obj 428 255 pack 0 0;
#X floatatom 539 339 5 0 0 0 - - -, f 5;
#X obj 539 366 * 10;
#X floatatom 493 339 5 0 0 0 - - -, f 5;
#X obj 493 366 * 10;
#X obj 493 392 pack 0 0 0;
#X obj 585 339 hradio 19 0 0 4 empty empty empty 0 -8 0 10 -262144
-1 -1 0;
#X obj 585 366 + 1;
#X msg 75 53 list_files;
#X msg 75 143 settings true + load_video \$1;
#X msg 75 21 info;
#X msg 75 226 select_surface \$1;
#X obj 75 183 -+;
#X obj 75 103 -+;
#X msg 75 458 bDrawDebugText true;
#X msg 75 521 bInvertColors \$1;
#X obj 383 62 t b;
#X msg 383 130 setDisplayRect \$1 \$2 \$3 \$4;
#X msg 75 576 bShowTestScreen \$1;
#X msg 75 348 pause true;
#X msg 75 377 pause false;
#X obj 75 607 -+;
#X msg 75 640 select_surface \$1;
#X obj 8 681 s to_outlet;
#X obj 789 662 s to_outlet;
#X obj 581 642 r to_outlet;
#X obj 581 679 outlet;
#X obj 383 671 s to_outlet;
#X msg 968 563 disconnect;
#X msg 867 257 settings true + load_video \$1;
#X msg 444 535 get_all_corners;
#X obj 444 558 r get_all_corners;
#X obj 444 581 list prepend set set_all_corners;
#X msg 444 604;
#X obj 454 366 t b;
#X obj 395 223 t b;
#X msg 812 18 who_is_there;
#X msg 830 65 you_are asd0;
#X msg 968 538 exit;
#X msg 968 513 reset;
#X msg 867 171 list_files dropdown;
#X msg 428 282 set_warper_pos \$1 \$2;
#X msg 454 434 set_corner \$3 \$1 \$2;
#X msg 75 279 enableLooping true;
#X msg 75 303 enableLooping false;
#X msg 853 117 create_surface;
#X obj 221 524 tgl 15 0 empty empty empty 17 7 0 10 -262144 -1 -1 1
1;
#X msg 221 548 draw_warpers \$1;
#X connect 0 0 34 0;
#X connect 1 0 2 0;
#X connect 1 0 33 0;
#X connect 2 0 0 3;
#X connect 3 0 4 0;
#X connect 3 0 33 0;
#X connect 4 0 0 2;
#X connect 5 0 6 0;
#X connect 5 0 33 0;
#X connect 6 0 0 1;
#X connect 7 0 8 0;
#X connect 8 0 0 0;
#X connect 9 0 35 0;
#X connect 10 0 32 0;
#X connect 11 0 46 0;
#X connect 12 0 11 0;
#X connect 13 0 14 0;
#X connect 13 0 52 0;
#X connect 14 0 17 1;
#X connect 15 0 16 0;
#X connect 16 0 17 0;
#X connect 17 0 58 0;
#X connect 18 0 19 0;
#X connect 18 0 51 0;
#X connect 19 0 22 1;
#X connect 20 0 21 0;
#X connect 21 0 22 0;
#X connect 22 0 59 0;
#X connect 23 0 24 0;
#X connect 24 0 22 2;
#X connect 25 0 40 0;
#X connect 26 0 40 0;
#X connect 27 0 40 0;
#X connect 28 0 40 0;
#X connect 29 0 28 0;
#X connect 30 0 26 0;
#X connect 31 0 40 0;
#X connect 32 0 40 0;
#X connect 33 0 0 0;
#X connect 34 0 44 0;
#X connect 35 0 40 0;
#X connect 36 0 40 0;
#X connect 37 0 40 0;
#X connect 38 0 39 0;
#X connect 39 0 40 0;
#X connect 42 0 43 0;
#X connect 45 0 41 0;
#X connect 46 0 41 0;
#X connect 47 0 44 0;
#X connect 48 0 49 0;
#X connect 49 0 50 0;
#X connect 50 0 44 0;
#X connect 51 0 22 0;
#X connect 52 0 17 0;
#X connect 53 0 41 0;
#X connect 54 0 41 0;
#X connect 55 0 41 0;
#X connect 56 0 41 0;
#X connect 57 0 41 0;
#X connect 58 0 44 0;
#X connect 59 0 44 0;
#X connect 60 0 40 0;
#X connect 61 0 40 0;
#X connect 62 0 41 0;
#X connect 63 0 64 0;
#X connect 64 0 40 0;
#X restore 706 318 pd messages_controls, f 42;
#X obj 1030 643 client;
#X obj 1030 666 client;
#X obj 1030 689 client;
#X obj 1030 712 client;
#X obj 1030 735 client;
#X obj 1030 758 client;
#N canvas 1065 0 830 1000 input_tests 0;
#X msg 445 40 myName name asd0 socket 864 ip 169.254.117.215 color
16;
#X floatatom 693 138 5 0 0 0 - - -, f 5;
#X msg 403 -23 ALL name \$1 socket \$2 ip \$3 color \$2 \, ALL active
0;
#X msg 403 -51 list myName 14 here_is_ip;
#X msg 436 12 callem john lio valentin;
#X msg 693 162 ALL color \$1;
#X obj 81 69 r names;
#X msg 471 86 ALL active 0;
#X obj 505 119 tgl 15 0 empty empty empty 17 7 0 10 -262144 -1 -1 0
1;
#X msg 478 154 BERTY active \$1;
#X msg 134 105 BERTY 394 192.168.0.125;
#X obj 411 328 outlet;
#X msg 82 199 NAME name \$1 socket \$2 ip \$3 color 16;
#X msg 82 268 ALL reset;
#X obj 175 145 pack s f s;
#X msg 204 66 JONAS 222 Ta.mere.lip;
#X connect 0 0 11 0;
#X connect 1 0 5 0;
#X connect 2 0 11 0;
#X connect 3 0 2 0;
#X connect 3 0 11 0;
#X connect 4 0 11 0;
#X connect 5 0 11 0;
#X connect 6 0 12 0;
#X connect 7 0 11 0;
#X connect 8 0 9 0;
#X connect 9 0 11 0;
#X connect 10 0 14 0;
#X connect 12 0 11 0;
#X connect 13 0 11 0;
#X connect 14 0 12 0;
#X connect 15 0 14 0;
#X restore 1039 554 pd input_tests;
#X obj 1024 870 print OUT_OF_THE_LIST;
#X msg 1122 598 ALL reset;
#X obj 814 766 s commands;
#X obj 1063 430 s commands;
#X msg 662 613 bDrawDebugText true;
#X msg 849 653 disconnect;
#X connect 0 0 12 0;
#X connect 0 0 30 0;
#X connect 0 1 1 0;
#X connect 0 1 16 0;
#X connect 0 2 5 0;
#X connect 0 2 14 1;
#X connect 0 3 2 0;
#X connect 0 3 14 2;
#X connect 8 0 0 0;
#X connect 9 0 0 0;
#X connect 10 0 20 0;
#X connect 13 0 0 0;
#X connect 14 0 19 0;
#X connect 17 0 18 0;
#X connect 18 0 43 0;
#X connect 20 0 11 0;
#X connect 20 1 17 0;
#X connect 25 0 31 0;
#X connect 30 0 14 0;
#X connect 30 1 15 0;
#X connect 30 2 29 0;
#X connect 31 1 27 0;
#X connect 31 2 28 0;
#X connect 32 0 43 0;
#X connect 33 0 34 0;
#X connect 34 0 35 0;
#X connect 35 0 36 0;
#X connect 36 0 37 0;
#X connect 37 0 38 0;
#X connect 38 0 40 0;
#X connect 39 0 33 0;
#X connect 41 0 33 0;
#X connect 44 0 42 0;
#X connect 45 0 42 0;
