#N canvas 1093 199 679 754 10;
#X obj 385 123 notein 1;
#X obj 295 662 dac~;
#X obj 311 575 *~ 1;
#X obj 335 554 hsl 128 15 0 1 0 0 empty empty empty -2 -8 0 10 -262144
-1 -1 0 1;
#X obj 387 271 poly 5;
#X floatatom 348 161 5 0 0 0 - - -;
#X obj 288 389 gate 5 1 1 1 1 1 1;
#X obj 349 322 t b f;
#X obj 408 323 pack f f;
#X obj 393 362 l;
#X obj 305 521 *~ 0.2;
#X obj 218 453 note;
#X obj 269 452 note;
#X obj 317 453 note;
#X obj 366 453 note;
#X obj 411 454 note;
#N canvas 483 222 450 300 rec 0;
#X obj 87 4 r rec;
#X obj 124 101 counter;
#X msg 124 172 open \$1;
#X obj 194 172 print;
#X obj 168 244 writesf~ 2;
#X obj 167 209 r~ MainL;
#X obj 225 209 r~ MainR;
#X msg 41 197 start;
#X msg 88 197 stop;
#X obj 86 36 sel 1 0;
#X obj 86 61 t b b;
#X obj 124 133 makefilename Audio_%i.wav;
#X obj 150 3 inlet;
#X connect 0 0 9 0;
#X connect 1 0 11 0;
#X connect 2 0 4 0;
#X connect 2 0 3 0;
#X connect 5 0 4 0;
#X connect 6 0 4 1;
#X connect 7 0 4 0;
#X connect 8 0 4 0;
#X connect 9 0 10 0;
#X connect 9 1 8 0;
#X connect 10 0 7 0;
#X connect 10 1 1 0;
#X connect 11 0 2 0;
#X connect 12 0 9 0;
#X restore 163 565 pd rec;
#X obj 398 632 s~ MainL;
#X obj 456 632 s~ MainR;
#X obj 125 493 tgl 15 0 empty empty empty 17 7 0 10 -262144 -1 -1 0
1;
#X connect 0 0 4 0;
#X connect 0 0 5 0;
#X connect 0 1 4 1;
#X connect 2 0 1 0;
#X connect 2 0 1 1;
#X connect 2 0 17 0;
#X connect 2 0 18 0;
#X connect 3 0 2 1;
#X connect 4 0 7 0;
#X connect 4 1 8 0;
#X connect 4 2 8 1;
#X connect 6 0 11 0;
#X connect 6 1 12 0;
#X connect 6 2 13 0;
#X connect 6 3 14 0;
#X connect 6 4 15 0;
#X connect 7 0 9 0;
#X connect 7 1 6 0;
#X connect 8 0 9 1;
#X connect 9 0 6 1;
#X connect 10 0 2 0;
#X connect 11 0 10 0;
#X connect 12 0 10 0;
#X connect 13 0 10 0;
#X connect 14 0 10 0;
#X connect 15 0 10 0;
#X connect 19 0 16 0;
