#N canvas 534 95 751 680 16;
#X obj 234 53 inlet;
#N canvas 816 203 388 484 env 0;
#X obj 56 47 inlet~;
#X obj 55 363 outlet~;
#X obj 56 224 *~;
#X obj 213 160 unpack f f f;
#X obj 194 363 outlet~;
#X obj 194 96 inlet;
#X obj 213 127 inlet;
#X obj 194 200 cosenv~;
#X connect 0 0 2 0;
#X connect 2 0 1 0;
#X connect 3 0 7 1;
#X connect 3 1 7 2;
#X connect 3 2 7 3;
#X connect 5 0 7 0;
#X connect 6 0 3 0;
#X connect 7 0 2 1;
#X connect 7 0 4 0;
#X restore 146 530 pd env;
#N canvas 259 10 1041 758 oscs 0;
#X obj 163 673 osc~;
#X obj 162 715 *~ 0;
#X obj 211 673 osc~;
#X obj 210 715 *~ 0;
#X obj 307 673 osc~;
#X obj 306 715 *~ 0;
#X obj 355 673 osc~;
#X obj 354 715 *~ 0;
#X obj 403 673 osc~;
#X obj 402 715 *~ 0;
#X obj 451 673 osc~;
#X obj 450 715 *~ 0;
#X obj 499 673 osc~;
#X obj 498 715 *~ 0;
#X obj 547 673 osc~;
#X obj 546 715 *~ 0;
#X obj 595 673 osc~;
#X obj 594 715 *~ 0;
#X obj 564 381 randomF 1;
#X obj 564 470 counter 1 10;
#X obj 259 673 osc~;
#X obj 258 715 *~ 0;
#X obj 564 532 gate 10;
#X obj 564 352 until;
#X obj 622 441 loadbang;
#X msg 564 317 10;
#X obj 663 77 inlet;
#X obj 162 835 outlet~;
#X obj 163 532 inlet;
#X obj 630 352 list-drip;
#X obj 564 410 t a b;
#X obj 631 500 route float;
#X obj 163 787 *~ 0.2;
#X obj 564 208 list;
#X obj 616 170 t b a;
#X obj 564 260 t a b;
#X msg 686 208 0;
#X obj 718 650 gate 10;
#X obj 785 538 counter 1 10;
#X obj 785 570 t b f;
#X obj 785 507 until;
#X msg 785 478 10;
#X obj 785 449 loadbang;
#X obj 630 317 t a b;
#X obj 616 208 delay;
#X obj 564 288 route bang list float;
#X obj 663 105 route end phase;
#X obj 785 622 randomF 1;
#X obj 163 604 * 1;
#X msg 923 287 0;
#X obj 853 287 delay;
#X obj 211 634 * 2.001;
#X obj 259 604 * 2.999;
#X obj 307 634 * 4.001;
#X obj 355 604 * 4.999;
#X obj 403 634 * 6.001;
#X obj 451 604 * 6.999;
#X obj 499 634 * 8.001;
#X obj 547 604 * 8.999;
#X obj 595 634 * 10.001;
#X connect 0 0 1 0;
#X connect 1 0 32 0;
#X connect 2 0 3 0;
#X connect 3 0 32 0;
#X connect 4 0 5 0;
#X connect 5 0 32 0;
#X connect 6 0 7 0;
#X connect 7 0 32 0;
#X connect 8 0 9 0;
#X connect 9 0 32 0;
#X connect 10 0 11 0;
#X connect 11 0 32 0;
#X connect 12 0 13 0;
#X connect 13 0 32 0;
#X connect 14 0 15 0;
#X connect 15 0 32 0;
#X connect 16 0 17 0;
#X connect 17 0 32 0;
#X connect 18 0 30 0;
#X connect 19 0 22 0;
#X connect 20 0 21 0;
#X connect 21 0 32 0;
#X connect 22 0 1 1;
#X connect 22 1 3 1;
#X connect 22 2 21 1;
#X connect 22 3 5 1;
#X connect 22 4 7 1;
#X connect 22 5 9 1;
#X connect 22 6 11 1;
#X connect 22 7 13 1;
#X connect 22 8 15 1;
#X connect 22 9 17 1;
#X connect 23 0 18 0;
#X connect 24 0 19 2;
#X connect 25 0 23 0;
#X connect 26 0 46 0;
#X connect 28 0 48 0;
#X connect 28 0 51 0;
#X connect 28 0 52 0;
#X connect 28 0 53 0;
#X connect 28 0 54 0;
#X connect 28 0 55 0;
#X connect 28 0 56 0;
#X connect 28 0 57 0;
#X connect 28 0 58 0;
#X connect 28 0 59 0;
#X connect 29 0 30 0;
#X connect 29 1 19 2;
#X connect 30 0 31 0;
#X connect 30 1 19 0;
#X connect 31 0 22 1;
#X connect 32 0 27 0;
#X connect 33 0 35 0;
#X connect 34 0 44 0;
#X connect 34 1 33 1;
#X connect 35 0 45 0;
#X connect 35 1 36 0;
#X connect 36 0 44 1;
#X connect 37 0 0 1;
#X connect 37 1 2 1;
#X connect 37 2 20 1;
#X connect 37 3 4 1;
#X connect 37 4 6 1;
#X connect 37 5 8 1;
#X connect 37 6 10 1;
#X connect 37 7 12 1;
#X connect 37 8 14 1;
#X connect 37 9 16 1;
#X connect 38 0 39 0;
#X connect 39 0 47 0;
#X connect 39 1 37 0;
#X connect 40 0 38 0;
#X connect 41 0 40 0;
#X connect 42 0 41 0;
#X connect 43 0 29 0;
#X connect 43 1 19 2;
#X connect 44 0 33 0;
#X connect 45 0 25 0;
#X connect 45 1 43 0;
#X connect 45 2 43 0;
#X connect 46 0 44 1;
#X connect 46 0 50 1;
#X connect 46 1 50 0;
#X connect 46 2 34 0;
#X connect 47 0 37 1;
#X connect 48 0 0 0;
#X connect 49 0 50 1;
#X connect 50 0 49 0;
#X connect 50 0 41 0;
#X connect 51 0 2 0;
#X connect 52 0 20 0;
#X connect 53 0 4 0;
#X connect 54 0 6 0;
#X connect 55 0 8 0;
#X connect 56 0 10 0;
#X connect 57 0 12 0;
#X connect 58 0 14 0;
#X connect 59 0 16 0;
#X restore 145 464 pd oscs;
#N canvas 173 141 537 487 liste 0;
#X obj 89 247 list split 1;
#X obj 89 180 list append;
#X obj 256 180 list append;
#X obj 153 295 route bang;
#X obj 196 49 inlet;
#X obj 89 49 inlet;
#X obj 89 378 outlet;
#X connect 0 0 6 0;
#X connect 0 1 3 0;
#X connect 1 0 0 0;
#X connect 2 0 1 1;
#X connect 3 0 2 0;
#X connect 3 1 1 1;
#X connect 4 0 1 1;
#X connect 4 0 2 1;
#X connect 5 0 1 0;
#X restore 98 310 pd liste;
#X obj 145 429 mtof;
#N canvas 554 127 790 641 filtre 1;
#X obj 86 -61 inlet~;
#X obj 161 -61 inlet~;
#X obj 123 303 +~ 20;
#X obj 123 337 mtof~;
#X obj 87 427 outlet~;
#X obj 86 382 vcf~ 2.5;
#X obj 256 -62 inlet;
#X obj 123 268 *~ 60;
#X obj 237 228 unpack f f f;
#X obj 160 136 mux~;
#X obj 256 -34 route cosline end;
#X text 247 366 filtre cosline <Q> <val1> <del1> <val2> <del2> ...
;
#X text 247 406 filtre <Q> <amp> <min> (suit l'envelope);
#X msg 165 205 \$1 1 0;
#N canvas 419 137 533 515 cl 0;
#X obj 136 18 inlet;
#X obj 53 298 outlet~;
#X obj 227 195 delay;
#X obj 194 104 list split 2;
#X msg 274 169 \$2;
#X obj 227 226 list;
#X obj 194 133 t a b a;
#X obj 311 132 route float;
#X obj 194 274 cosline~;
#X msg 311 226 \$1 0;
#X obj 136 75 outlet;
#X obj 136 46 list split 1;
#X connect 0 0 11 0;
#X connect 2 0 5 0;
#X connect 3 0 6 0;
#X connect 3 1 5 1;
#X connect 3 2 7 0;
#X connect 4 0 2 1;
#X connect 5 0 3 0;
#X connect 6 0 8 0;
#X connect 6 1 2 0;
#X connect 6 2 4 0;
#X connect 7 0 9 0;
#X connect 8 0 1 0;
#X connect 9 0 8 0;
#X connect 11 0 10 0;
#X connect 11 1 3 0;
#X restore 196 105 pd cl;
#N canvas 0 0 450 300 end 0;
#X obj 236 129 delay;
#X obj 184 129 list;
#X obj 184 181 t a b;
#X msg 306 129 0;
#X obj 171 56 inlet;
#X obj 184 223 outlet;
#X obj 236 56 inlet;
#X obj 236 91 t b a;
#X obj 293 231 s mux-\$0;
#X msg 293 204 0;
#X connect 0 0 1 0;
#X connect 1 0 2 0;
#X connect 2 0 5 0;
#X connect 2 1 3 0;
#X connect 2 1 9 0;
#X connect 3 0 0 1;
#X connect 4 0 0 1;
#X connect 6 0 7 0;
#X connect 7 0 0 0;
#X connect 7 1 1 1;
#X connect 9 0 8 0;
#X restore 237 161 pd end;
#N canvas 0 0 450 300 end 0;
#X obj 236 129 delay;
#X obj 184 129 list;
#X obj 184 181 t a b;
#X msg 306 129 0;
#X obj 308 56 inlet;
#X obj 184 223 outlet;
#X obj 236 56 inlet;
#X obj 236 91 t b a;
#X obj 263 231 s mux-\$0;
#X msg 263 204 1;
#X connect 0 0 1 0;
#X connect 1 0 2 0;
#X connect 2 0 5 0;
#X connect 2 1 3 0;
#X connect 2 1 9 0;
#X connect 3 0 0 1;
#X connect 4 0 0 1;
#X connect 6 0 7 0;
#X connect 7 0 0 0;
#X connect 7 1 1 1;
#X connect 9 0 8 0;
#X restore 196 75 pd end;
#X obj 161 27 r mux-\$0;
#X connect 0 0 5 0;
#X connect 1 0 9 0;
#X connect 2 0 3 0;
#X connect 3 0 5 1;
#X connect 5 0 4 0;
#X connect 6 0 10 0;
#X connect 7 0 2 0;
#X connect 8 0 5 2;
#X connect 8 1 7 1;
#X connect 8 2 2 1;
#X connect 9 0 7 0;
#X connect 10 0 16 0;
#X connect 10 1 15 0;
#X connect 10 1 16 1;
#X connect 10 2 15 1;
#X connect 13 0 8 0;
#X connect 14 0 9 1;
#X connect 14 1 13 0;
#X connect 15 0 8 0;
#X connect 16 0 14 0;
#X connect 17 0 9 0;
#X restore 146 572 pd filtre;
#X obj 98 396 t b f;
#X obj 146 616 outlet~;
#N canvas 906 403 447 406 end 0;
#X obj 106 76 inlet;
#X obj 169 106 inlet;
#X obj 106 254 outlet;
#X obj 106 145 delay;
#X obj 106 174 f;
#X obj 106 106 t b f;
#X obj 169 254 outlet;
#X obj 106 207 t f b;
#X msg 184 145 0;
#X obj 169 207 prepend end;
#X connect 0 0 5 0;
#X connect 1 0 3 1;
#X connect 1 0 9 0;
#X connect 3 0 4 0;
#X connect 4 0 7 0;
#X connect 5 0 3 0;
#X connect 5 1 4 1;
#X connect 7 0 2 0;
#X connect 7 1 8 0;
#X connect 8 0 3 1;
#X connect 9 0 6 0;
#X restore 98 352 pd end;
#X obj 234 86 route bang float liste end timbre envelope filtre;
#X connect 0 0 9 0;
#X connect 1 0 5 0;
#X connect 1 1 5 1;
#X connect 2 0 1 0;
#X connect 3 0 8 0;
#X connect 4 0 2 0;
#X connect 5 0 7 0;
#X connect 6 0 1 1;
#X connect 6 1 4 0;
#X connect 8 0 6 0;
#X connect 8 1 1 1;
#X connect 8 1 2 1;
#X connect 8 1 5 2;
#X connect 9 0 3 0;
#X connect 9 1 8 0;
#X connect 9 2 3 1;
#X connect 9 3 8 1;
#X connect 9 4 2 1;
#X connect 9 5 1 2;
#X connect 9 6 5 2;
