#N canvas 329 166 819 667 10;
#X obj 102 210 line~;
#X obj 185 78 inlet;
#X obj 185 102 t b b b;
#X obj 224 217 line~;
#X obj 102 287 *~;
#X msg 192 183 0.5;
#X obj 294 104 noise~;
#X obj 294 222 vcf~ 10;
#X obj 312 196 line~;
#X obj 102 239 phasor~;
#X msg 102 183 \$2 \, \$3 30;
#X obj 114 100 mtof;
#X obj 75 100 mtof;
#X obj 75 75 + 20;
#X obj 102 261 -~ 0.5;
#X obj 57 144 pack 0 f f;
#X obj 114 41 r vsl-\$1;
#X msg 312 170 10000 \, 5000 600;
#X msg 224 183 1 \, 0 600;
#X obj 103 323 outlet~;
#X connect 0 0 9 0;
#X connect 1 0 2 0;
#X connect 2 0 17 0;
#X connect 2 0 15 0;
#X connect 2 1 5 0;
#X connect 2 2 18 0;
#X connect 3 0 4 1;
#X connect 4 0 19 0;
#X connect 5 0 9 1;
#X connect 6 0 7 0;
#X connect 7 0 4 0;
#X connect 8 0 7 1;
#X connect 9 0 14 0;
#X connect 10 0 0 0;
#X connect 11 0 15 2;
#X connect 12 0 15 1;
#X connect 13 0 12 0;
#X connect 14 0 4 0;
#X connect 15 0 10 0;
#X connect 16 0 13 0;
#X connect 16 0 11 0;
#X connect 17 0 8 0;
#X connect 18 0 3 0;
