#N canvas 1079 110 673 752 10;
#X obj 187 524 trienv3~;
#X obj 146 425 osc~ 30;
#X obj 239 447 ceff~ 1;
#X obj 187 593 ceff~ 1;
#X obj 239 425 tri~;
#X obj 145 71 inlet;
#X obj 356 298 line~;
#X obj 188 635 *~;
#X obj 202 264 mtof;
#X msg 145 318 \$2 \, \$3 50;
#X obj 173 264 mtof;
#X obj 145 295 pack f f f;
#X obj 202 205 r vsl-\$1;
#X obj 241 529 r vsl2-\$1;
#X obj 226 572 / 127;
#X msg 278 425 1;
#X obj 278 401 loadbang;
#X obj 173 239 - 12;
#X obj 309 491 littlevar~ 0.5 1;
#X msg 356 234 1;
#X obj 337 262 pack 0 600;
#X obj 394 234 r vsl-\$2;
#X obj 188 712 outlet~;
#X obj 226 550 f;
#X obj 309 468 sig~ 0.25;
#X obj 145 155 t b b b b;
#X msg 260 205 0.25;
#X obj 199 425 tri~;
#X obj 240 468 lop~ 1000;
#X obj 414 298 line~;
#X obj 240 489 *~;
#X msg 414 262 0 \, 1 5;
#X obj 337 207 t b b b;
#X obj 145 341 vline~;
#X obj 145 113 delay 2;
#X msg 206 113 0 2;
#X connect 0 0 3 0;
#X connect 1 0 0 0;
#X connect 2 0 28 0;
#X connect 3 0 7 0;
#X connect 4 0 2 0;
#X connect 5 0 35 0;
#X connect 5 0 34 0;
#X connect 6 0 7 1;
#X connect 7 0 22 0;
#X connect 8 0 11 2;
#X connect 9 0 33 0;
#X connect 10 0 11 1;
#X connect 11 0 9 0;
#X connect 12 0 8 0;
#X connect 12 0 17 0;
#X connect 13 0 23 1;
#X connect 14 0 3 1;
#X connect 15 0 2 1;
#X connect 16 0 15 0;
#X connect 17 0 10 0;
#X connect 18 0 0 3;
#X connect 19 0 6 0;
#X connect 20 0 6 0;
#X connect 21 0 20 1;
#X connect 23 0 14 0;
#X connect 24 0 18 0;
#X connect 25 0 11 0;
#X connect 25 1 23 0;
#X connect 25 2 32 0;
#X connect 25 3 26 0;
#X connect 26 0 1 1;
#X connect 26 0 27 1;
#X connect 26 0 4 1;
#X connect 27 0 0 1;
#X connect 28 0 30 0;
#X connect 29 0 30 1;
#X connect 30 0 0 2;
#X connect 31 0 29 0;
#X connect 32 0 20 0;
#X connect 32 1 19 0;
#X connect 32 2 31 0;
#X connect 33 0 1 0;
#X connect 33 0 4 0;
#X connect 33 0 27 0;
#X connect 34 0 25 0;
#X connect 35 0 6 0;
