#N canvas 1208 56 516 566 10;
#X obj 211 200 cosenv;
#X obj 116 168 t b b;
#X obj 19 250 *~;
#X obj 19 37 inlet~;
#X obj 18 304 outlet~;
#X obj 157 360 random;
#X obj 248 505 -;
#X obj 186 294 t b f f f;
#X obj 190 259 random 1000;
#X obj 204 488 f;
#X obj 157 420 t b f f;
#X obj 253 37 receive tempo;
#X obj 359 37 receive duree;
#X obj 116 37 receive metroid;
#X obj 190 334 - 2;
#X obj 157 389 + 2;
#X obj 274 541 max 2;
#N canvas 1534 455 303 389 mode 0;
#X obj 60 41 inlet;
#X obj 124 41 inlet;
#X obj 92 315 outlet;
#X obj 79 231 delay;
#X obj 106 17 loadbang;
#X obj 124 182 t b f;
#X obj 27 156 r envmode;
#X obj 27 194 gate 2;
#X obj 27 17 loadbang;
#X msg 27 41 1;
#X obj 162 41 inlet;
#X obj 124 161 -;
#X obj 106 210 random 1;
#X obj 124 133 f;
#X obj 162 133 t b f;
#X connect 0 0 7 1;
#X connect 1 0 13 0;
#X connect 3 0 2 0;
#X connect 4 0 12 0;
#X connect 5 0 12 0;
#X connect 5 1 12 1;
#X connect 6 0 7 0;
#X connect 7 0 2 0;
#X connect 7 1 3 0;
#X connect 8 0 9 0;
#X connect 9 0 7 0;
#X connect 10 0 14 0;
#X connect 11 0 5 0;
#X connect 12 0 3 1;
#X connect 13 0 11 0;
#X connect 14 0 13 0;
#X connect 14 1 11 1;
#X restore 116 104 pd mode;
#X obj 58 168 loadbang;
#X connect 0 0 2 1;
#X connect 1 0 8 0;
#X connect 1 1 0 0;
#X connect 2 0 4 0;
#X connect 3 0 2 0;
#X connect 5 0 15 0;
#X connect 6 0 16 0;
#X connect 7 0 5 0;
#X connect 7 1 14 0;
#X connect 7 2 9 1;
#X connect 7 3 0 2;
#X connect 7 3 17 2;
#X connect 8 0 7 0;
#X connect 9 0 6 0;
#X connect 10 0 9 0;
#X connect 10 1 6 1;
#X connect 10 2 0 1;
#X connect 11 0 8 1;
#X connect 11 0 17 1;
#X connect 12 0 8 1;
#X connect 13 0 17 0;
#X connect 14 0 5 1;
#X connect 15 0 10 0;
#X connect 16 0 0 3;
#X connect 17 0 1 0;
#X connect 18 0 8 0;
#X coords 0 566 1 565 85 60 0;
