#N canvas 1086 615 495 374 10;
#X obj 44 191 send duree;
#X obj 27 342 send metroid;
#X obj 230 299 send hauteur;
#X obj 230 236 f;
#X obj 59 100 r tempo;
#X obj 44 127 f;
#X obj 10 50 t b b b b;
#X obj 10 12 inlet;
#X obj 44 160 / 1;
#X obj 233 40 inlet;
#X obj 260 125 scale7;
#X obj 293 97 r scale;
#X floatatom 79 133 5 0 0 0 - - -;
#X obj 210 125 / 7;
#X obj 210 151 int;
#X obj 233 67 t f f;
#X obj 210 176 * 12;
#X obj 245 210 +;
#X obj 230 260 mtof;
#X obj 177 337 outlet;
#X connect 3 0 18 0;
#X connect 4 0 5 1;
#X connect 5 0 8 0;
#X connect 6 1 1 0;
#X connect 6 3 3 0;
#X connect 7 0 6 0;
#X connect 8 0 0 0;
#X connect 9 0 15 0;
#X connect 10 0 17 1;
#X connect 11 0 10 1;
#X connect 12 0 8 1;
#X connect 13 0 14 0;
#X connect 14 0 16 0;
#X connect 15 0 13 0;
#X connect 15 1 10 0;
#X connect 16 0 17 0;
#X connect 17 0 3 1;
#X connect 18 0 2 0;
#X connect 18 0 19 0;
#X coords 0 374 1 373 85 60 0;
