#N canvas 529 559 540 455 10;
#X obj 51 26 inlet;
#X obj 51 53 route float;
#X obj 51 338 line \$1 \$2;
#X obj 114 110 unpack f f;
#X obj 114 159 pack f f;
#X obj 207 207 f;
#X obj 207 180 r jump_end_line;
#X obj 51 377 outlet;
#X obj 186 110 r global_speed;
#X obj 171 134 / 1;
#X obj 51 79 t f b;
#X msg 240 207 0;
#X obj 114 76 t a b;
#X msg 272 208 1;
#X obj 207 230 spigot;
#X connect 0 0 1 0;
#X connect 1 0 10 0;
#X connect 1 1 12 0;
#X connect 2 0 7 0;
#X connect 3 0 4 0;
#X connect 3 0 5 1;
#X connect 3 1 9 0;
#X connect 4 0 2 0;
#X connect 5 0 14 0;
#X connect 6 0 5 0;
#X connect 8 0 9 1;
#X connect 9 0 4 1;
#X connect 10 0 2 0;
#X connect 10 1 11 0;
#X connect 11 0 14 1;
#X connect 12 0 3 0;
#X connect 12 1 13 0;
#X connect 13 0 14 1;
#X connect 14 0 2 0;
