#N canvas 714 248 689 498 10;
#X obj 100 -486 see;
#X obj 17 -710 bng 15 250 50 0 empty empty empty 17 7 0 10 -262144
-1 -1;
#X floatatom 112 -680 5 0 0 0 - - -;
#X floatatom 227 -655 5 0 0 0 - - -;
#X floatatom 321 -630 5 0 0 0 - - -;
#X obj 101 -553 cosenv;
#X text 61 -697 duree de l'attaque en ms;
#X text 176 -673 duree de l'envellope en ms;
#X text 37 -713 départ;
#X text 283 -646 duree de decay en ms;
#X obj 26 -550 noise~;
#X obj 42 -434 *~;
#X obj 30 -371 dac~;
#X connect 1 0 0 2;
#X connect 1 0 5 0;
#X connect 2 0 5 1;
#X connect 3 0 0 1;
#X connect 3 0 5 2;
#X connect 4 0 5 3;
#X connect 5 0 0 0;
#X connect 5 0 11 1;
#X connect 10 0 11 0;
#X connect 11 0 12 1;
#X connect 11 0 12 0;
