#N canvas 187 14 1628 751 10;
#X obj 293 -522 cos~;
#X obj 292 -556 vline~;
#X obj 347 -709 delay;
#X obj 374 -733 -;
#X obj 431 -674 f;
#X obj 211 -701 f;
#X obj 356 -768 f;
#X obj 215 -850 inlet attack;
#X obj 134 -855 inlet;
#X obj 315 -856 inlet duree(totale);
#X obj 449 -856 inlet decay;
#X obj 292 -446 outlet~;
#X msg 220 -654 -0.5 \, 0 \$1;
#X msg 431 -646 -0.5 \$1;
#X obj 292 -498 *~ 0.5;
#X obj 292 -475 +~ 0.5;
#X obj 292 -618 loadbang;
#X msg 292 -596 0.5;
#X obj 283 -764 t b b b;
#X obj 446 -700 f;
#X connect 0 0 14 0;
#X connect 1 0 0 0;
#X connect 2 0 4 0;
#X connect 3 0 2 1;
#X connect 4 0 13 0;
#X connect 5 0 12 0;
#X connect 6 0 3 0;
#X connect 7 0 5 1;
#X connect 8 0 18 0;
#X connect 9 0 6 1;
#X connect 10 0 19 1;
#X connect 10 0 3 1;
#X connect 12 0 1 0;
#X connect 13 0 1 0;
#X connect 14 0 15 0;
#X connect 15 0 11 0;
#X connect 16 0 17 0;
#X connect 17 0 1 0;
#X connect 18 0 5 0;
#X connect 18 1 2 0;
#X connect 18 2 6 0;
#X connect 18 2 19 0;
#X connect 19 0 4 1;
