#N canvas 433 102 1222 789 16;
#X declare -path ../tools;
#X obj 462 132 cnv 20 650 80 empty empty empty 20 12 0 10 -259933 -66577
0;
#X obj 725 214 cnv 20 338 340 empty empty empty 20 12 0 10 -49101 -66577
0;
#X obj 412 90 cnv 20 650 40 empty empty empty 20 12 0 10 -79936 -66577
0;
#X obj 421 231 ceff~;
#X obj 121 567 path ../tools;
#X obj 420 270 see;
#X floatatom 662 497 5 0 0 0 - valeurceff -;
#X obj 468 186 line~;
#X obj 733 271 snapshot~;
#X obj 733 219 tgl 15 0 empty empty empty 17 7 0 10 -262144 -1 -1 1
1;
#X msg 553 138 1 10000;
#X msg 468 138 0 10000;
#X obj 733 241 metro 250;
#X text 530 170 permet d'envoyer un valeur allant de 0 à 1 en 10 secondes
\, puis de 1 à 0 en un temps identique.;
#X text 570 98 oscillateur cosinuïdal à 4 Hz;
#X text 728 339 : valeur envoyée à ceff~;
#X text 743 392 (Il s'agit d'une illustration \,;
#X text 743 412 car la valeur envoyée à ceff~;
#X text 743 432 est échantillonée à la même;
#X text 743 452 fréquence que le signal);
#X obj 418 98 phasor~ 4;
#X floatatom 509 56 5 0 0 0 - - -;
#X obj 628 31 bng 15 250 50 0 empty empty empty 17 7 0 10 -262144 -1
-1;
#X obj 338 225 -~ 1;
#X obj 337 180 *~ 2;
#X obj 733 573 send valeurceff;
#X obj 275 419 cnv 20 650 1 empty empty empty 20 12 0 10 -258569 -66577
0;
#X msg 580 52 1e-007;
#X obj 428 519 hsl 285 15 0 1 0 0 empty valeurceff empty 60 8 0 10
-262144 -1 -1 28400 1;
#X connect 3 0 5 0;
#X connect 7 0 3 1;
#X connect 7 0 8 0;
#X connect 8 0 25 0;
#X connect 9 0 12 0;
#X connect 10 0 7 0;
#X connect 11 0 7 0;
#X connect 12 0 8 0;
#X connect 20 0 24 0;
#X connect 21 0 20 1;
#X connect 22 0 27 0;
#X connect 22 0 5 2;
#X connect 23 0 3 0;
#X connect 24 0 23 0;
#X connect 27 0 20 1;
