#N canvas 495 4 1139 964 10;
#X obj 323 820 *~ 1;
#X obj 365 805 hsl 128 15 0 1 0 0 empty empty empty -2 -8 0 10 -262144
-1 -1 0 1;
#X obj 318 473 hsl 128 15 0 1 0 0 empty empty empty -2 -8 0 10 -262144
-1 -1 0 1;
#X obj 193 774 tgl 15 0 empty empty empty 17 7 0 10 -262144 -1 -1 0
1;
#X obj 324 850 dac~;
#X obj 274 755 *~ 1;
#X obj 872 558 send tempo;
#X floatatom 274 72 8 0 0 0 - - -;
#X obj 472 136 vsl 15 128 0 1 0 0 empty volume empty 0 -9 0 10 -4034
-1 -1 0 1;
#X obj 375 738 delwrite~ topless 1000;
#X obj 508 525 vd~ topless;
#X floatatom 422 662 5 0 0 0 - - -;
#X obj 507 556 ceff~;
#X obj 556 554 hsl 128 15 0 1 0 0 empty empty empty -2 -8 0 10 -262144
-1 -1 0 1;
#X obj 274 49 mtof;
#X obj 303 -2 notein;
#X obj 297 22 stripnote;
#X obj 274 712 +~;
#X obj 1003 557 send duree;
#X text 519 209 VOLUMEEEEE;
#X text 382 96 NOTEEEEE;
#X obj 783 518 metro 1000;
#X floatatom 872 465 5 0 0 0 - - -;
#X floatatom 1003 465 5 0 0 0 - - -;
#X obj 783 558 send metroid;
#X text 914 464 tempo (ms);
#X obj 791 483 tgl 15 0 empty empty empty 17 7 0 10 -262144 -1 -1 0
1;
#X obj 751 810 tgl 30 0 randdist empty empty 17 7 0 10 -260097 -1 -1
0 1;
#X text 789 818 Random dist on each one;
#X floatatom 799 843 6 0 1 1 or_set - setdist;
#X obj 409 136 vsl 15 128 0 1 0 0 empty volume empty 0 -9 0 10 -4034
-1 -1 0 1;
#X obj 346 136 vsl 15 128 0 1 0 0 empty volume empty 0 -9 0 10 -4034
-1 -1 0 1;
#X obj 283 136 vsl 15 128 0 1 0 0 empty volume empty 0 -9 0 10 -4034
-1 -1 0 1;
#X obj 221 136 vsl 15 128 0 1 0 0 empty volume empty 0 -9 0 10 -4034
-1 -1 8900 1;
#X obj 158 136 vsl 15 128 0 1 0 0 empty volume empty 0 -9 0 10 -4034
-1 -1 0 1;
#X obj 95 136 vsl 15 128 0 1 0 0 empty volume empty 0 -9 0 10 -4034
-1 -1 0 1;
#X obj 32 136 vsl 15 128 0 1 0 0 empty volume empty 0 -9 0 10 -4034
-1 -1 9400 1;
#X obj 586 136 vsl 24 128 0 1 0 0 volume empty empty 0 -9 0 10 -257985
-1 -1 0 1;
#X msg 889 352 set \$1;
#X floatatom 889 325 5 0 0 0 - - -;
#X msg 915 422 100;
#X msg 876 413 200;
#X msg 827 414 1000;
#X msg 778 414 3000;
#X obj 751 772 s envmode;
#X msg 792 695 1;
#X msg 792 725 2;
#X text 826 692 all enveloppes at the same time (begining of time)
;
#X text 828 723 random events inside tempo;
#X obj 203 612 *~ 1;
#X obj 530 464 *~ 300;
#X obj 529 487 +~ 446;
#X obj 509 409 bng 15 250 50 0 empty empty empty 17 7 0 10 -262144
-1 -1;
#X obj 77 500 tgl 15 0 empty empty empty 17 7 0 10 -262144 -1 -1 0
1;
#X obj 135 595 cosenv;
#X obj 187 664 *~;
#X obj 168 567 nbx 5 14 -1e+037 1e+037 0 1 empty empty empty 0 -8 0
10 -262144 -1 -1 12 256;
#X obj 146 520 nbx 5 14 -1e+037 1e+037 0 1 empty empty empty 0 -8 0
10 -262144 -1 -1 14 256;
#X obj 157 543 nbx 5 14 -1e+037 1e+037 0 1 empty empty empty 0 -8 0
10 -262144 -1 -1 50 256;
#X obj 32 280 theone 1;
#X obj 95 280 theone 2;
#X obj 158 280 theone 3;
#X obj 221 280 theone 4;
#X obj 283 280 theone 5;
#X obj 346 280 theone 6;
#X obj 409 280 theone 7;
#X obj 472 280 theone 8;
#X obj 274 96 send hauteur;
#X obj 283 449 /~ 8;
#X obj 283 493 ceff~;
#X obj 270 542 vsl 15 128 0 1 0 0 empty empty empty 0 -9 0 10 -262144
-1 -1 0 1;
#X obj 530 441 cosenv;
#X obj 563 413 nbx 5 14 -1e+037 1e+037 0 1 empty empty empty 0 -8 0
10 -262144 -1 -1 1047 256;
#X obj 541 366 nbx 5 14 -1e+037 1e+037 0 1 empty empty empty 0 -8 0
10 -262144 -1 -1 2860 256;
#X obj 552 389 nbx 5 14 -1e+037 1e+037 0 1 empty empty empty 0 -8 0
10 -262144 -1 -1 4000 256;
#X obj 371 662 *~ 0;
#X floatatom 463 662 5 0 0 0 - - -;
#X obj 508 662 *~ 0;
#X obj 422 521 vsl 15 128 0 1 0 0 empty empty empty 0 -9 0 10 -262144
-1 -1 0 1;
#X obj 463 521 vsl 15 128 0 1 0 0 empty empty empty 0 -9 0 10 -262144
-1 -1 0 1;
#X obj 92 658 sig~;
#X obj 92 634 tgl 15 0 empty empty empty 17 7 0 10 -262144 -1 -1 1
1;
#N canvas 1235 230 692 423 rythme 1;
#X obj 152 125 loadbang;
#X obj 121 182 sel 1 2 3 4 5 6 7 8;
#X obj 120 57 tgl 15 0 empty empty empty 17 7 0 10 -262144 -1 -1 1
1;
#X obj 41 287 bng 15 250 50 0 empty empty empty 17 7 0 10 -262144 -1
-1;
#X obj 121 84 metro 200;
#X obj 203 84 s tempo;
#X floatatom 181 53 5 0 0 0 - - -;
#X obj 148 288 bng 15 250 50 0 empty empty empty 17 7 0 10 -262144
-1 -1;
#X obj 185 288 nbx 5 14 -1e+037 1e+037 0 0 empty empty empty 0 -8 0
10 -262144 -1 -1 20 256;
#X obj 256 288 bng 15 250 50 0 empty empty empty 17 7 0 10 -262144
-1 -1;
#X obj 293 288 nbx 5 14 -1e+037 1e+037 0 0 empty empty empty 0 -8 0
10 -262144 -1 -1 24 256;
#X obj 372 277 bng 15 250 50 0 empty empty empty 17 7 0 10 -262144
-1 -1;
#X obj 407 268 nbx 5 14 -1e+037 1e+037 0 0 empty empty empty 0 -8 0
10 -262144 -1 -1 25 256;
#X obj 516 239 bng 15 250 50 0 empty empty empty 17 7 0 10 -262144
-1 -1;
#X obj 547 215 nbx 5 14 -1e+037 1e+037 0 0 empty empty empty 0 -8 0
10 -262144 -1 -1 28 256;
#X text 222 53 set this before;
#X msg 181 25 3000;
#X msg 78 148 4;
#X obj 121 148 counter 1 5;
#X obj 44 322 temps;
#X obj 413 136 send scale;
#X msg 429 92 list 0 2 4 5 7 9 11;
#X obj 76 292 nbx 5 14 -1e+037 1e+037 0 0 empty empty empty 0 -8 0
10 -262144 -1 -1 10 256;
#X obj 151 323 temps;
#X obj 259 323 temps;
#X obj 377 304 temps;
#X obj 521 274 temps;
#X floatatom 47 358 5 0 0 0 - - -;
#X floatatom 142 357 5 0 0 0 - - -;
#X floatatom 253 367 5 0 0 0 - - -;
#X floatatom 371 357 5 0 0 0 - - -;
#X floatatom 524 326 5 0 0 0 - - -;
#X connect 0 0 18 2;
#X connect 1 0 3 0;
#X connect 1 0 19 0;
#X connect 1 1 7 0;
#X connect 1 1 23 0;
#X connect 1 2 9 0;
#X connect 1 2 24 0;
#X connect 1 3 11 0;
#X connect 1 3 25 0;
#X connect 1 4 13 0;
#X connect 1 4 26 0;
#X connect 2 0 4 0;
#X connect 4 0 18 0;
#X connect 6 0 4 1;
#X connect 6 0 5 0;
#X connect 8 0 23 1;
#X connect 10 0 24 1;
#X connect 12 0 25 1;
#X connect 14 0 26 1;
#X connect 16 0 6 0;
#X connect 18 0 1 0;
#X connect 19 0 27 0;
#X connect 21 0 20 0;
#X connect 22 0 19 1;
#X connect 23 0 28 0;
#X connect 24 0 29 0;
#X connect 25 0 30 0;
#X connect 26 0 31 0;
#X restore 723 326 pd rythme;
#X floatatom 597 463 5 0 0 0 - - -;
#X obj 77 520 metro 50;
#X obj 193 806 rec1 tripostal;
#X obj 744 525 bng 15 250 50 0 empty empty empty 17 7 0 10 -262144
-1 -1;
#X obj 95 305 randomenv;
#X msg 731 410 10000;
#X obj 708 -11 cnv 10 3 900 empty empty empty 20 12 0 14 -258113 -66577
0;
#X obj 644 354 ctlin;
#X obj 644 377 / 127;
#X obj 644 399 sig~;
#X obj 644 421 lop~ 1;
#X obj 345 305 randomenv;
#X obj 220 305 randomenv;
#X obj 31 325 randomenv;
#X obj 408 325 randomenv;
#X obj 282 325 randomenv;
#X obj 159 325 randomenv;
#X obj 472 305 randomenv;
#X text 1042 464 duree max (ms);
#X floatatom 219 24 5 0 0 0 - - -;
#X connect 0 0 4 0;
#X connect 0 0 4 1;
#X connect 1 0 0 1;
#X connect 2 0 69 1;
#X connect 3 0 85 0;
#X connect 5 0 0 0;
#X connect 5 0 85 1;
#X connect 7 0 67 0;
#X connect 8 0 66 0;
#X connect 10 0 12 0;
#X connect 12 0 75 0;
#X connect 12 0 77 0;
#X connect 13 0 12 1;
#X connect 14 0 7 0;
#X connect 15 0 16 0;
#X connect 15 1 16 1;
#X connect 16 0 14 0;
#X connect 17 0 5 0;
#X connect 21 0 24 0;
#X connect 22 0 6 0;
#X connect 22 0 21 1;
#X connect 23 0 18 0;
#X connect 26 0 21 0;
#X connect 30 0 65 0;
#X connect 31 0 64 0;
#X connect 32 0 63 0;
#X connect 33 0 62 0;
#X connect 34 0 61 0;
#X connect 35 0 60 0;
#X connect 36 0 59 0;
#X connect 39 0 38 0;
#X connect 40 0 22 0;
#X connect 41 0 22 0;
#X connect 42 0 22 0;
#X connect 43 0 22 0;
#X connect 45 0 44 0;
#X connect 46 0 44 0;
#X connect 49 0 55 1;
#X connect 50 0 51 0;
#X connect 51 0 10 0;
#X connect 52 0 71 0;
#X connect 53 0 84 0;
#X connect 54 0 55 0;
#X connect 55 0 17 0;
#X connect 56 0 54 3;
#X connect 57 0 54 1;
#X connect 58 0 54 2;
#X connect 59 0 96 0;
#X connect 60 0 87 0;
#X connect 61 0 99 0;
#X connect 62 0 95 0;
#X connect 63 0 98 0;
#X connect 64 0 94 0;
#X connect 65 0 97 0;
#X connect 66 0 100 0;
#X connect 68 0 69 0;
#X connect 69 0 9 0;
#X connect 69 0 49 0;
#X connect 70 0 49 1;
#X connect 71 0 50 0;
#X connect 72 0 71 3;
#X connect 73 0 71 1;
#X connect 74 0 71 2;
#X connect 75 0 17 1;
#X connect 77 0 9 0;
#X connect 78 0 75 1;
#X connect 78 0 11 0;
#X connect 79 0 76 0;
#X connect 79 0 77 1;
#X connect 80 0 55 0;
#X connect 81 0 80 0;
#X connect 83 0 51 1;
#X connect 84 0 54 0;
#X connect 86 0 24 0;
#X connect 87 0 68 0;
#X connect 88 0 22 0;
#X connect 90 0 91 0;
#X connect 91 0 92 0;
#X connect 92 0 93 0;
#X connect 94 0 68 0;
#X connect 95 0 68 0;
#X connect 96 0 68 0;
#X connect 97 0 68 0;
#X connect 98 0 68 0;
#X connect 99 0 68 0;
#X connect 100 0 68 0;
#X connect 102 0 14 0;
#X coords 0 964 1 963 85 60 0;
