#N canvas 844 82 385 781 10;
#N canvas 917 623 450 300 littlevar 0;
#X obj 216 127 sig~;
#X obj 76 211 *~;
#X obj 213 81 metro 50;
#X obj 215 104 randomF 1;
#X obj 216 193 lop~ 1;
#X obj 216 148 *~ 0.06;
#X obj 215 169 +~ 0.94;
#X obj 76 81 inlet~;
#X obj 75 250 outlet~;
#X obj 213 57 inlet;
#X obj 312 66 inlet;
#X obj 312 145 -;
#X msg 312 118 1 \$1;
#X obj 312 96 * 0.5;
#X connect 0 0 5 0;
#X connect 1 0 8 0;
#X connect 2 0 3 0;
#X connect 3 0 0 0;
#X connect 4 0 1 1;
#X connect 5 0 6 0;
#X connect 6 0 4 0;
#X connect 7 0 1 0;
#X connect 9 0 2 0;
#X connect 10 0 5 1;
#X connect 10 0 13 0;
#X connect 11 0 6 1;
#X connect 12 0 11 0;
#X connect 13 0 12 0;
#X restore 67 189 pd littlevar;
#X obj 101 167 tgl 15 1 empty empty empty 17 7 0 10 -262144 -1 -1 1
1;
#X floatatom 136 165 5 0 0 0 - - -;
#X obj 67 104 sig~;
#X obj 68 569 outlet~;
#X obj 130 118 loadbang;
#N canvas 1449 308 450 300 tri 0;
#X obj -5016 31 inlet~;
#X obj -4973 91 phasor~;
#X obj -5070 105 phasor~;
#X obj -4971 201 *~ -1;
#X obj -4973 170 clip~ 0 0.5;
#X obj -5070 198 clip~ -0.5 0;
#X obj -5025 272 outlet~;
#X obj -5024 226 *~ 2;
#X obj -5069 144 -~ 0.5;
#X obj -4973 133 -~ 0.5;
#X obj -5025 248 +~ 0.5;
#X connect 0 0 1 0;
#X connect 0 0 2 0;
#X connect 1 0 9 0;
#X connect 2 0 8 0;
#X connect 3 0 7 0;
#X connect 4 0 3 0;
#X connect 5 0 7 0;
#X connect 7 0 10 0;
#X connect 8 0 5 0;
#X connect 9 0 4 0;
#X connect 10 0 6 0;
#X restore 67 235 pd tri;
#X obj 68 421 ceff~;
#X obj 193 367 randomF 1;
#X msg 136 141 0.1;
#X obj 69 525 *~ 0;
#X obj 90 487 inlet;
#X obj 193 264 receive metroid;
#X obj 193 331 spigot;
#X obj 226 305 r randdist;
#X obj 95 305 r setdist;
#X obj 67 78 * \$1;
#X obj 67 50 receive hauteur;
#X connect 0 0 6 0;
#X connect 1 0 0 1;
#X connect 2 0 0 2;
#X connect 3 0 0 0;
#X connect 5 0 9 0;
#X connect 6 0 7 0;
#X connect 7 0 10 0;
#X connect 8 0 7 1;
#X connect 9 0 2 0;
#X connect 10 0 4 0;
#X connect 11 0 10 1;
#X connect 12 0 13 0;
#X connect 13 0 8 0;
#X connect 14 0 13 1;
#X connect 15 0 7 1;
#X connect 16 0 3 0;
#X connect 17 0 16 0;
#X coords 0 781 1 780 85 60 0;
