#N canvas 1022 311 910 575 10;
#X obj 288 24 inlet;
#X obj 307 425 outlet~;
#N canvas 963 434 712 581 noise 0;
#X obj 307 156 line~;
#X obj 221 230 *~;
#X obj 307 26 inlet;
#X obj 220 359 outlet~;
#X obj 60 60 noise~;
#X obj 307 47 t b b;
#X obj 220 294 *~ 1;
#X obj 155 160 *~ 0.4;
#X obj 22 152 *~ 0.5;
#X obj 356 248 randomF 0.1;
#X obj 356 270 + 0.3;
#X obj 127 110 bp~ 2000 1.5;
#X msg 228 109 0 10;
#X obj 227 85 delay 5;
#X obj 69 143 bp~ 500 0.3;
#X msg 307 109 1 5;
#X obj 22 116 bp~ 5000 2;
#X connect 0 0 1 1;
#X connect 1 0 6 0;
#X connect 2 0 5 0;
#X connect 4 0 11 0;
#X connect 4 0 14 0;
#X connect 4 0 16 0;
#X connect 5 0 15 0;
#X connect 5 0 13 0;
#X connect 5 1 9 0;
#X connect 6 0 3 0;
#X connect 7 0 1 0;
#X connect 8 0 1 0;
#X connect 9 0 10 0;
#X connect 10 0 6 1;
#X connect 11 0 7 0;
#X connect 12 0 0 0;
#X connect 13 0 12 0;
#X connect 14 0 1 0;
#X connect 15 0 0 0;
#X connect 16 0 8 0;
#X restore 307 183 pd noise;
#N canvas 920 296 820 662 osc 0;
#X obj 269 -8 inlet;
#X obj 163 572 outlet~;
#X obj 18 279 line~;
#X msg 94 245 0 2;
#X obj 212 295 *~;
#X obj 269 58 t b b b;
#X obj 519 199 random 50;
#X obj 448 196 random 10;
#X obj 448 219 + 15;
#X obj 269 11 t b b;
#X obj 269 37 delay 2;
#X obj 164 516 *~;
#X obj 18 184 t b b;
#X msg 45 216 1;
#X msg 18 245 0 280;
#X obj 10 362 line~;
#X msg 70 315 1 10;
#X obj 10 315 delay 10;
#X msg 10 336 0 180;
#N canvas 754 636 627 300 oscs 0;
#X obj 420 135 + 36.1;
#X obj 335 133 + 46.9;
#X obj 254 134 + 77.49;
#X msg 420 154 \$1 80;
#X obj 420 176 line~;
#X msg 254 153 \$1 80;
#X obj 254 176 line~;
#X msg 335 153 \$1 80;
#X obj 335 176 line~;
#X obj 254 35 inlet;
#X obj 296 35 inlet;
#X obj 472 52 b;
#X msg 472 72 0.25;
#X obj 334 243 outlet~;
#X obj 112 114 line~;
#X obj 111 179 ceff~;
#X obj 149 139 loadbang;
#X msg 149 162 0.1;
#X obj 111 245 outlet~;
#X obj 254 196 osc~ 86.49;
#X obj 335 196 osc~ 51.91;
#X obj 420 195 osc~ 41.2;
#X msg 112 88 \$1 20;
#X obj 112 142 osc~;
#X connect 0 0 3 0;
#X connect 1 0 7 0;
#X connect 2 0 5 0;
#X connect 3 0 4 0;
#X connect 4 0 21 0;
#X connect 5 0 6 0;
#X connect 6 0 19 0;
#X connect 7 0 8 0;
#X connect 8 0 20 0;
#X connect 9 0 2 0;
#X connect 9 0 1 0;
#X connect 9 0 0 0;
#X connect 9 0 22 0;
#X connect 10 0 6 0;
#X connect 10 0 8 0;
#X connect 10 0 4 0;
#X connect 10 0 11 0;
#X connect 10 0 14 0;
#X connect 11 0 12 0;
#X connect 12 0 19 1;
#X connect 12 0 20 1;
#X connect 12 0 21 1;
#X connect 12 0 23 1;
#X connect 14 0 23 0;
#X connect 15 0 18 0;
#X connect 16 0 17 0;
#X connect 17 0 15 1;
#X connect 19 0 13 0;
#X connect 20 0 13 0;
#X connect 21 0 13 0;
#X connect 22 0 14 0;
#X connect 23 0 15 0;
#X restore 460 277 pd oscs;
#X obj 518 222 + 130;
#X connect 0 0 9 0;
#X connect 2 0 4 0;
#X connect 3 0 2 0;
#X connect 3 0 15 0;
#X connect 4 0 11 1;
#X connect 5 0 12 0;
#X connect 5 1 7 0;
#X connect 5 2 6 0;
#X connect 6 0 20 0;
#X connect 7 0 8 0;
#X connect 8 0 19 0;
#X connect 9 0 10 0;
#X connect 9 1 3 0;
#X connect 10 0 5 0;
#X connect 11 0 1 0;
#X connect 12 0 14 0;
#X connect 12 0 17 0;
#X connect 12 1 13 0;
#X connect 12 1 16 0;
#X connect 13 0 2 0;
#X connect 14 0 2 0;
#X connect 15 0 11 0;
#X connect 16 0 15 0;
#X connect 17 0 18 0;
#X connect 18 0 15 0;
#X connect 19 0 4 1;
#X connect 19 1 11 1;
#X connect 20 0 19 1;
#X restore 248 183 pd osc;
#X obj 288 54 t b b b;
#X obj 196 256 ceff~;
#X obj 251 218 *~ 0.2;
#X obj 250 240 abs~;
#N canvas 471 533 742 385 clicks 0;
#X obj 192 17 inlet;
#X obj 192 107 click~;
#X obj 191 140 bp~ 594 4;
#X obj 191 164 *~ 46;
#X obj 295 16 loadbang;
#X obj 284 159 click~;
#X obj 283 215 *~ 30;
#X obj 190 325 outlet~;
#X obj 283 192 bp~ 1194 2;
#X msg 203 51 set 1 -1 1 -1 1 -1 1 -1 1 -1 1 -1 1 -1 1 -1 1 -1 1 -1
1 -1 1 -1 1 -1 1 -1 1 -1 1 -1 1 -1 1 -1 1 -1 1 -1 1 -1 1 -1 1 -1 1
-1 1 -1 1 -1 1 -1 1 -1;
#X msg 295 106 set -1 1 -1 1 -1 1 -1 1 -1 1 -1 1 -1 1 -1 1 -1 1 -1
1 -1 1 -1 1 -1 1 -1 1 -1 1 -1 1 -1 1 -1 1 -1 1 -1 1 -1 1 -1 1 -1 1
-1 1 -1 1 -1 1 -1 1 -1 1 -1 1 -1 1 -1 1 -1 1;
#X connect 0 0 1 0;
#X connect 0 0 5 0;
#X connect 1 0 2 0;
#X connect 2 0 3 0;
#X connect 3 0 7 0;
#X connect 4 0 9 0;
#X connect 4 0 10 0;
#X connect 5 0 8 0;
#X connect 6 0 7 0;
#X connect 8 0 6 0;
#X connect 9 0 1 0;
#X connect 10 0 5 0;
#X restore 384 183 pd clicks;
#X obj 307 384 *~ 0.5;
#X connect 0 0 4 0;
#X connect 2 0 9 0;
#X connect 3 0 5 0;
#X connect 3 0 6 0;
#X connect 4 0 3 0;
#X connect 4 1 2 0;
#X connect 4 2 8 0;
#X connect 5 0 9 0;
#X connect 6 0 7 0;
#X connect 7 0 5 1;
#X connect 8 0 9 0;
#X connect 9 0 1 0;
