#N canvas 0 74 1280 726 10;
#X obj 242 209 soundfiler;
#X obj 242 355 line~;
#X obj 264 58 loadbang;
#X obj 241 585 *~ 1;
#X obj 291 585 *~ 1;
#X obj 313 121 \$0;
#X obj 416 323 table \$0sonL;
#X obj 501 323 table \$0sonR;
#X obj 242 512 tabread~ \$0sonL;
#X obj 276 533 tabread~ \$0sonR;
#X obj 138 246 inlet;
#X text 103 227 Jouer depuis le début;
#X obj 138 268 b;
#X obj 241 665 outlet~;
#X obj 292 665 outlet~;
#X obj 242 121 openpanel;
#X obj 264 82 t b b;
#X msg 242 182 read -resize \$1 \$2sonL \$2sonR;
#X obj 242 149 pack s f;
#X obj 242 9 inlet;
#X text 218 25 chercher un son;
#X obj 257 241 / 44.1;
#X obj 242 426 *~ 1;
#X msg 242 330 0 \, 1 \$1;
#X obj 242 285 f;
#X obj 444 160 soundfile_info;
#X obj 444 224 / 1000;
#X msg 443 138 read \$1;
#X text 453 194 Samplerate/ms;
#X obj 58 426 outlet~;
#X obj 58 355 inlet~;
#X obj 314 355 delay;
#X obj 242 307 t f b f;
#X obj 314 426 outlet;
#X connect 0 0 21 0;
#X connect 0 0 22 1;
#X connect 1 0 29 0;
#X connect 2 0 16 0;
#X connect 3 0 13 0;
#X connect 4 0 14 0;
#X connect 5 0 18 1;
#X connect 8 0 3 0;
#X connect 9 0 4 0;
#X connect 10 0 12 0;
#X connect 12 0 24 0;
#X connect 15 0 18 0;
#X connect 15 0 27 0;
#X connect 16 0 15 0;
#X connect 16 1 5 0;
#X connect 17 0 0 0;
#X connect 18 0 17 0;
#X connect 19 0 15 0;
#X connect 21 0 24 1;
#X connect 22 0 9 0;
#X connect 22 0 8 0;
#X connect 23 0 1 0;
#X connect 24 0 32 0;
#X connect 25 0 26 0;
#X connect 26 0 21 1;
#X connect 27 0 25 0;
#X connect 30 0 22 0;
#X connect 31 0 33 0;
#X connect 32 0 23 0;
#X connect 32 1 31 0;
#X connect 32 2 31 1;
