#N canvas 0 74 1280 726 10;
#X obj 242 209 soundfiler;
#X obj 242 355 line~;
#X obj 242 308 pack f f;
#X msg 242 330 0 \, \$1 \$2;
#X obj 269 237 expr $f1 / 44.1;
#X obj 242 285 bondo;
#X obj 264 58 loadbang;
#X msg 269 258 set \$1;
#X msg 222 258 set \$1;
#X obj 241 495 *~ 1;
#X obj 291 495 *~ 1;
#X obj 313 121 \$0;
#X obj 416 323 table \$0sonL;
#X obj 501 323 table \$0sonR;
#X obj 242 422 tabread~ \$0sonL;
#X obj 276 443 tabread~ \$0sonR;
#X obj 78 232 inlet;
#X text 67 197 Jouer depuis le début;
#X obj 78 254 b;
#X obj 241 575 outlet~;
#X obj 292 575 outlet~;
#X obj 242 121 openpanel;
#X obj 264 82 t b b;
#X msg 242 182 read -resize \$1 \$2sonL \$2sonR;
#X obj 242 149 pack s f;
#X obj 173 53 inlet;
#X text 149 72 chercher un son;
#X connect 0 0 4 0;
#X connect 0 0 8 0;
#X connect 1 0 14 0;
#X connect 1 0 15 0;
#X connect 2 0 3 0;
#X connect 3 0 1 0;
#X connect 4 0 7 0;
#X connect 5 0 2 0;
#X connect 5 1 2 1;
#X connect 6 0 22 0;
#X connect 7 0 5 1;
#X connect 8 0 5 0;
#X connect 9 0 19 0;
#X connect 10 0 20 0;
#X connect 11 0 24 1;
#X connect 14 0 9 0;
#X connect 15 0 10 0;
#X connect 16 0 18 0;
#X connect 18 0 5 0;
#X connect 21 0 24 0;
#X connect 22 0 21 0;
#X connect 22 1 11 0;
#X connect 23 0 0 0;
#X connect 24 0 23 0;
#X connect 25 0 21 0;
