#N canvas 905 63 866 863 10;
#X obj 119 221 *~;
#X obj 118 366 *~;
#X obj 118 488 *~;
#X obj 428 239 *~;
#X obj 329 384 *~;
#X obj 560 465 noise~;
#X obj 663 515 hip~ 950;
#X obj 278 532 *~;
#X obj 326 -19 inlet;
#X text 156 -3 Cyril Communal \, 2011;
#X obj 559 367 *~ 0.5;
#X obj 559 343 tri~;
#X obj 558 196 tri~;
#X obj 329 708 *~ 1;
#X obj 479 267 ceff~;
#X obj 117 514 *~;
#X obj 559 318 line~;
#X obj 558 174 line~;
#X msg 559 290 277.1 \, 261.6 80;
#X msg 558 148 349.2 \, 329.6 80;
#X obj 598 204 f;
#X obj 598 250 / 127;
#X obj 598 227 min 100;
#X obj 560 490 lop~ 1000;
#X obj 662 466 noise~;
#X obj 662 491 lop~ 1000;
#X obj 558 221 *~ 0.3;
#X obj 195 402 * 1.5;
#X obj 216 132 * 2;
#X msg 252 178 1;
#X obj 118 195 line~;
#X obj 195 154 f 60;
#X obj 195 20 t b b;
#X msg 118 171 0 \$1;
#X msg 117 316 0 \$1;
#X obj 117 340 line~;
#X msg 117 437 0 \$1;
#X obj 117 462 line~;
#X obj 216 110 max 10;
#X obj 543 51 switch~;
#X msg 557 20 1;
#X msg 529 20 0;
#X obj 529 -3 loadbang;
#X obj 326 3 t b b b b;
#X obj 464 -15 t b f;
#X obj 464 20 delay 10;
#X obj 635 170 r vsl2-\$1;
#X obj 216 86 r vsl-\$1;
#X obj 330 810 outlet~;
#N canvas 865 569 742 385 clicks 1;
#X obj 192 17 inlet;
#X obj 192 107 click~;
#X obj 295 16 loadbang;
#X obj 284 159 click~;
#X obj 180 334 outlet~;
#X msg 203 51 set 1 -1 1 -1 1 -1 1 -1 1 -1 1 -1 1 -1 1 -1 1 -1 1 -1
1 -1 1 -1 1 -1 1 -1 1 -1 1 -1 1 -1 1 -1 1 -1 1 -1 1 -1 1 -1 1 -1 1
-1 1 -1 1 -1 1 -1 1 -1;
#X msg 295 106 set -1 1 -1 1 -1 1 -1 1 -1 1 -1 1 -1 1 -1 1 -1 1 -1
1 -1 1 -1 1 -1 1 -1 1 -1 1 -1 1 -1 1 -1 1 -1 1 -1 1 -1 1 -1 1 -1 1
-1 1 -1 1 -1 1 -1 1 -1 1 -1 1 -1 1 -1 1 -1 1;
#X obj 391 219 click~;
#X msg 402 166 set -1 1 -1 1 -1 1 -1 1 -1 1 -1 1 -1 1 -1 1 -1 1 -1
1 -1 1 -1 1 -1 1 -1 1 -1 1 -1 1 -1 1 -1 1 -1 1 -1 1 -1 1 -1 1 -1 1
-1 1 -1 1 -1 1 -1 1 -1 1 -1 1 -1 1 -1 1 -1 1;
#X obj 283 192 bp~ 300 2;
#X obj 191 140 bp~ 1849 4;
#X obj 390 252 bp~ 990 1;
#X obj 192 164 *~ 30;
#X obj 283 215 *~ 30;
#X obj 390 275 *~ 30;
#X obj 189 303 clip~ -1 1;
#X connect 0 0 1 0;
#X connect 0 0 3 0;
#X connect 0 0 7 0;
#X connect 1 0 10 0;
#X connect 2 0 5 0;
#X connect 2 0 6 0;
#X connect 2 0 8 0;
#X connect 3 0 9 0;
#X connect 5 0 1 0;
#X connect 6 0 3 0;
#X connect 7 0 11 0;
#X connect 8 0 7 0;
#X connect 9 0 13 0;
#X connect 10 0 12 0;
#X connect 11 0 14 0;
#X connect 12 0 15 0;
#X connect 13 0 15 0;
#X connect 14 0 15 0;
#X connect 15 0 4 0;
#X restore 394 193 pd clicks;
#X obj 560 514 *~ 0.8;
#X obj 465 372 ceff~;
#X connect 0 0 3 0;
#X connect 1 0 4 0;
#X connect 2 0 15 0;
#X connect 2 0 15 1;
#X connect 3 0 13 0;
#X connect 4 0 13 0;
#X connect 5 0 23 0;
#X connect 7 0 13 0;
#X connect 8 0 43 0;
#X connect 10 0 51 0;
#X connect 11 0 10 0;
#X connect 12 0 26 0;
#X connect 13 0 48 0;
#X connect 14 0 3 1;
#X connect 15 0 7 0;
#X connect 16 0 11 0;
#X connect 17 0 12 0;
#X connect 18 0 16 0;
#X connect 19 0 17 0;
#X connect 20 0 22 0;
#X connect 21 0 14 1;
#X connect 21 0 51 1;
#X connect 22 0 21 0;
#X connect 23 0 50 0;
#X connect 24 0 25 0;
#X connect 25 0 6 0;
#X connect 26 0 14 0;
#X connect 27 0 36 0;
#X connect 27 0 44 0;
#X connect 28 0 31 1;
#X connect 29 0 30 0;
#X connect 29 0 35 0;
#X connect 29 0 37 0;
#X connect 30 0 0 0;
#X connect 30 0 0 1;
#X connect 31 0 27 0;
#X connect 31 0 33 0;
#X connect 31 0 34 0;
#X connect 32 0 31 0;
#X connect 32 1 29 0;
#X connect 33 0 30 0;
#X connect 34 0 35 0;
#X connect 35 0 1 0;
#X connect 35 0 1 1;
#X connect 36 0 37 0;
#X connect 37 0 2 0;
#X connect 37 0 2 1;
#X connect 38 0 28 0;
#X connect 40 0 39 0;
#X connect 41 0 39 0;
#X connect 42 0 41 0;
#X connect 43 0 32 0;
#X connect 43 1 20 0;
#X connect 43 2 19 0;
#X connect 43 2 18 0;
#X connect 43 2 49 0;
#X connect 43 3 40 0;
#X connect 44 0 45 0;
#X connect 44 1 45 1;
#X connect 45 0 41 0;
#X connect 46 0 20 1;
#X connect 47 0 38 0;
#X connect 49 0 13 0;
#X connect 50 0 7 1;
#X connect 51 0 4 1;
