#N canvas 1172 595 450 300 10;
#X obj 223 89 randomF 1;
#X obj 222 178 lop~ 1;
#X obj 223 42 inlet;
#X obj 309 45 inlet;
#X obj 309 119 -;
#X msg 309 97 1 \$1;
#X obj 309 75 * 0.5;
#X obj 256 -21 loadbang;
#X obj 256 5 f \$1;
#X obj 223 5 f \$2;
#X obj 223 115 * 0.06;
#X obj 222 136 + 0.94;
#X obj 222 158 sig~ 1;
#X obj 223 66 metro \$3;
#X obj 357 -4 f \$3;
#X obj 357 21 sel 0;
#X msg 357 49 50;
#X obj 222 209 outlet~;
#X connect 0 0 10 0;
#X connect 1 0 17 0;
#X connect 2 0 13 0;
#X connect 3 0 6 0;
#X connect 3 0 10 1;
#X connect 4 0 11 1;
#X connect 5 0 4 0;
#X connect 6 0 5 0;
#X connect 7 0 8 0;
#X connect 7 0 9 0;
#X connect 7 0 14 0;
#X connect 8 0 6 0;
#X connect 8 0 10 1;
#X connect 9 0 13 0;
#X connect 10 0 11 0;
#X connect 11 0 12 0;
#X connect 12 0 1 0;
#X connect 13 0 0 0;
#X connect 14 0 15 0;
#X connect 15 0 16 0;
#X connect 16 0 13 1;
