#N canvas 994 108 619 788 10;
#X obj 175 235 noise4;
#X obj 119 750 dac~;
#X floatatom 141 179 5 0 0 0 - - -;
#X floatatom 194 176 5 0 0 0 - - -;
#X floatatom 260 189 5 0 0 0 - - -;
#X floatatom 304 182 5 0 0 0 - - -;
#X floatatom 349 200 5 0 0 0 - - -;
#X floatatom 407 187 5 0 0 0 - - -;
#X obj 187 139 mtof;
#X obj 304 147 mtof;
#X obj 428 138 mtof;
#X floatatom 185 104 5 0 0 0 - - -;
#X floatatom 302 112 5 0 0 0 - - -;
#X floatatom 435 102 5 0 0 0 - - -;
#X floatatom 184 35 5 0 0 0 - - -;
#X obj 307 76 + 5;
#X obj 433 72 + 7;
#X floatatom 326 36 5 0 0 0 - - -;
#X floatatom 459 40 5 0 0 0 - - -;
#X obj 364 133 + 48;
#X obj 364 153 mtof;
#X obj 253 156 mtof;
#X obj 253 134 + 24;
#X obj 138 150 mtof;
#X obj 138 467 *~;
#X obj 323 444 / 100;
#X floatatom 322 418 5 0 0 0 - - -;
#X obj 127 675 +~;
#X obj 405 453 / 100;
#X floatatom 404 427 5 0 0 0 - - -;
#X obj 479 462 / 100;
#X floatatom 478 436 5 0 0 0 - - -;
#X obj 533 520 / 100;
#X floatatom 532 494 5 0 0 0 - - -;
#X obj 127 705 clip~ -1 1;
#X obj 551 581 / 100;
#X floatatom 550 555 5 0 0 0 - - -;
#X obj 423 264 littlevar1~ 0.1 1 2000;
#X obj 424 317 littlevar1~ 0.1 1 2000;
#X obj 424 364 littlevar1~ 0.1 1 2000;
#X obj 263 390 littlevar1~ 0.1 1 2000;
#X obj 138 128 + 24;
#X obj 287 223 noise4;
#X obj 352 224 noise4;
#X obj 200 473 vline~;
#X obj 298 722 *~ 1;
#X obj 348 740 hsl 128 15 0 1 0 0 empty empty empty -2 -8 0 10 -262144
-1 -1 12700 1;
#X obj 239 625 *~ 1;
#X obj 270 629 hsl 128 15 0 1 0 0 empty empty empty -2 -8 0 10 -262144
-1 -1 2700 1;
#X obj 317 512 *~ 1;
#X obj 373 553 *~ 1;
#X obj 422 593 *~ 1;
#X obj 450 647 *~ 1;
#X obj 148 556 delwrite~ room 300;
#X obj 317 491 delread~ room 50;
#X obj 352 674 *~ 1;
#X obj 388 673 hsl 128 15 0 1 0 0 empty empty empty -2 -8 0 10 -262144
-1 -1 4900 1;
#X obj 374 532 delread~ room 108.2;
#X obj 363 649 hip~ 200;
#X obj 302 564 hip~ 300;
#X obj 65 367 resofilt~;
#X obj 85 569 *~ 0.5;
#X obj 422 572 delread~ room 200.35;
#X obj 450 625 delread~ room 440.22;
#X msg 195 436 0.4 50 \, 0 100 50;
#X connect 0 0 24 0;
#X connect 0 0 60 0;
#X connect 2 0 0 0;
#X connect 3 0 0 2;
#X connect 4 0 42 0;
#X connect 5 0 42 2;
#X connect 6 0 43 0;
#X connect 7 0 43 2;
#X connect 8 0 3 0;
#X connect 9 0 5 0;
#X connect 10 0 7 0;
#X connect 11 0 8 0;
#X connect 11 0 41 0;
#X connect 12 0 9 0;
#X connect 13 0 10 0;
#X connect 14 0 11 0;
#X connect 14 0 15 0;
#X connect 14 0 16 0;
#X connect 15 0 12 0;
#X connect 15 0 22 0;
#X connect 16 0 13 0;
#X connect 16 0 19 0;
#X connect 17 0 15 1;
#X connect 18 0 16 1;
#X connect 19 0 20 0;
#X connect 20 0 6 0;
#X connect 21 0 4 0;
#X connect 22 0 21 0;
#X connect 23 0 2 0;
#X connect 24 0 53 0;
#X connect 24 0 61 0;
#X connect 25 0 44 0;
#X connect 26 0 25 0;
#X connect 27 0 34 0;
#X connect 28 0 49 1;
#X connect 29 0 28 0;
#X connect 30 0 50 1;
#X connect 31 0 30 0;
#X connect 32 0 51 1;
#X connect 33 0 32 0;
#X connect 34 0 1 1;
#X connect 34 0 1 0;
#X connect 35 0 52 1;
#X connect 36 0 35 0;
#X connect 37 0 0 3;
#X connect 38 0 42 3;
#X connect 39 0 43 3;
#X connect 40 0 0 1;
#X connect 40 0 42 1;
#X connect 40 0 43 1;
#X connect 41 0 23 0;
#X connect 42 0 24 0;
#X connect 43 0 24 0;
#X connect 44 0 24 1;
#X connect 45 0 27 1;
#X connect 46 0 45 1;
#X connect 47 0 53 0;
#X connect 48 0 47 1;
#X connect 49 0 45 0;
#X connect 49 0 59 0;
#X connect 50 0 45 0;
#X connect 50 0 58 0;
#X connect 51 0 55 0;
#X connect 52 0 47 0;
#X connect 54 0 49 0;
#X connect 55 0 53 0;
#X connect 56 0 55 1;
#X connect 57 0 50 0;
#X connect 58 0 55 0;
#X connect 59 0 47 0;
#X connect 61 0 27 0;
#X connect 62 0 51 0;
#X connect 63 0 52 0;
#X connect 64 0 44 0;
