#N canvas 0 0 1920 1006 10;
#X obj 218 911 *~ 1;
#X obj 278 882 hsl 128 15 0 1 0 0 empty empty empty -2 -8 0 10 -262144
-1 -1 12700 1;
#X obj 157 620 ceff~;
#X obj 221 605 hsl 128 15 0 1 0 0 empty empty empty -2 -8 0 10 -262144
-1 -1 0 1;
#X obj 74 816 tgl 15 0 empty empty empty 17 7 0 10 -262144 -1 -1 0
1;
#X obj 96 849 rec1;
#X obj 209 951 dac~;
#X floatatom 1503 412 5 0 0 0 - - -;
#X floatatom 1546 419 5 0 0 0 - - -;
#X floatatom 1626 428 5 0 0 0 - - -;
#X obj 1395 393 tgl 15 0 empty empty empty 17 7 0 10 -262144 -1 -1
0 1;
#X floatatom 1511 494 5 0 0 0 - - -;
#X floatatom 1554 501 5 0 0 0 - - -;
#X floatatom 1634 510 5 0 0 0 - - -;
#X obj 1403 475 tgl 15 0 empty empty empty 17 7 0 10 -262144 -1 -1
0 1;
#X obj 1404 499 metro 300;
#X obj 1396 417 metro 400;
#X obj 878 186 see;
#X obj 299 841 send~ graphique;
#X obj 875 147 receive~ graphique;
#X obj 222 798 *~ 1;
#X obj 1483 454 cosenv;
#X obj 1491 536 cosenv;
#X obj 802 699 tgl 15 0 empty empty empty 17 7 0 10 -262144 -1 -1 1
1;
#X floatatom 733 620 5 0 0 0 - - -;
#X obj 802 674 b;
#X obj 713 656 send tempo;
#X obj 802 722 send metro_start;
#X obj 155 652 /~ 8;
#X obj 72 189 vsl 15 128 0 1 0 0 empty empty empty 0 -9 0 10 -262144
-1 -1 12700 1;
#X obj 158 189 vsl 15 128 0 1 0 0 empty empty empty 0 -9 0 10 -262144
-1 -1 12700 1;
#X obj 398 194 vsl 15 128 0 1 0 0 empty empty empty 0 -9 0 10 -262144
-1 -1 0 1;
#X obj 226 179 vsl 15 128 0 1 0 0 empty empty empty 0 -9 0 10 -262144
-1 -1 0 1;
#X obj 488 184 vsl 15 128 0 1 0 0 empty empty empty 0 -9 0 10 -262144
-1 -1 11500 1;
#X obj 574 189 vsl 15 128 0 1 0 0 empty empty empty 0 -9 0 10 -262144
-1 -1 11600 1;
#X obj 659 190 vsl 15 128 0 1 0 0 empty empty empty 0 -9 0 10 -262144
-1 -1 5900 1;
#X obj 296 768 delwrite~ topless 1000;
#X obj 422 577 vd~ topless;
#X obj 422 635 *~ 0.3;
#X obj 480 634 hsl 128 15 0 1 0 0 empty empty empty -2 -8 0 10 -262144
-1 -1 4000 1;
#X floatatom 437 529 5 0 0 0 - - -;
#X floatatom 475 672 5 0 0 0 - - -;
#X obj 427 603 ceff~;
#X obj 522 542 hsl 128 15 0 1 0 0 empty empty empty -2 -8 0 10 -262144
-1 -1 0 1;
#X floatatom 523 579 5 0 0 0 - - -;
#X msg 700 495 set \$1;
#X floatatom 706 441 5 0 0 0 - - -;
#X obj 220 729 +~;
#X msg 777 552 233;
#X obj 39 347 randomenv;
#X obj 891 652 send duree;
#X floatatom 879 621 5 0 0 0 - - -;
#X msg 931 567 set \$1;
#X floatatom 938 526 5 0 0 0 - - -;
#X obj 422 552 sig~ 50;
#X text 711 266 VOLUMEEEEE;
#X text 822 547 HEREEEE ??;
#X text 917 732 sortir le metro ?;
#X msg 29 265 0;
#X obj 308 190 vsl 15 128 0 1 0 0 empty empty empty 0 -9 0 10 -262144
-1 -1 0 1;
#X obj 302 43 loadbang;
#X obj 300 8 bng 15 250 50 0 empty empty empty 17 7 0 10 -262144 -1
-1;
#X obj 345 797 adc~ 1;
#X msg 117 268 12;
#X msg 191 266 24;
#X obj 194 325 theone;
#X msg 447 262 -12;
#X msg 541 261 -24;
#X msg 619 260 -36;
#X msg 767 444 10000;
#X msg 269 264 5;
#X msg 367 264 3;
#X obj 87 599 adc~ 1;
#X obj 542 349 randomenv;
#X obj 365 353 randomenv;
#X obj 125 347 randomenv;
#X obj 194 347 randomenv;
#X obj 275 348 randomenv;
#X obj 450 352 randomenv;
#X obj 626 347 randomenv;
#X obj 39 325 theone;
#X obj 626 325 theone;
#X obj 125 325 theone;
#X obj 275 326 theone;
#X obj 365 331 theone;
#X obj 450 330 theone;
#X obj 542 327 theone;
#X connect 0 0 6 0;
#X connect 0 0 6 1;
#X connect 1 0 0 1;
#X connect 2 0 28 0;
#X connect 3 0 2 1;
#X connect 4 0 5 0;
#X connect 7 0 21 1;
#X connect 8 0 21 2;
#X connect 9 0 21 3;
#X connect 10 0 16 0;
#X connect 11 0 22 1;
#X connect 12 0 22 2;
#X connect 13 0 22 3;
#X connect 14 0 15 0;
#X connect 15 0 22 0;
#X connect 16 0 21 0;
#X connect 19 0 17 0;
#X connect 20 0 0 0;
#X connect 20 0 5 1;
#X connect 20 0 18 0;
#X connect 23 0 27 0;
#X connect 24 0 26 0;
#X connect 25 0 23 0;
#X connect 28 0 47 0;
#X connect 29 0 80 1;
#X connect 30 0 82 1;
#X connect 31 0 84 1;
#X connect 32 0 65 1;
#X connect 33 0 85 1;
#X connect 34 0 86 1;
#X connect 35 0 81 1;
#X connect 37 0 42 0;
#X connect 39 0 38 1;
#X connect 39 0 41 0;
#X connect 40 0 54 0;
#X connect 42 0 38 0;
#X connect 43 0 44 0;
#X connect 43 0 42 1;
#X connect 45 0 48 0;
#X connect 46 0 45 0;
#X connect 47 0 36 0;
#X connect 47 0 20 0;
#X connect 48 0 24 0;
#X connect 48 0 25 0;
#X connect 49 0 2 0;
#X connect 51 0 50 0;
#X connect 52 0 51 0;
#X connect 53 0 52 0;
#X connect 54 0 37 0;
#X connect 58 0 80 0;
#X connect 59 0 83 1;
#X connect 60 0 58 0;
#X connect 60 0 63 0;
#X connect 60 0 64 0;
#X connect 60 0 70 0;
#X connect 60 0 71 0;
#X connect 60 0 66 0;
#X connect 60 0 67 0;
#X connect 60 0 68 0;
#X connect 60 0 29 0;
#X connect 60 0 30 0;
#X connect 60 0 32 0;
#X connect 60 0 59 0;
#X connect 60 0 31 0;
#X connect 60 0 33 0;
#X connect 60 0 34 0;
#X connect 60 0 35 0;
#X connect 61 0 60 0;
#X connect 63 0 82 0;
#X connect 64 0 65 0;
#X connect 65 0 76 0;
#X connect 66 0 85 0;
#X connect 67 0 86 0;
#X connect 68 0 81 0;
#X connect 69 0 45 0;
#X connect 70 0 83 0;
#X connect 71 0 84 0;
#X connect 73 0 2 0;
#X connect 74 0 2 0;
#X connect 75 0 2 0;
#X connect 76 0 2 0;
#X connect 77 0 2 0;
#X connect 78 0 2 0;
#X connect 79 0 2 0;
#X connect 80 0 49 0;
#X connect 81 0 79 0;
#X connect 82 0 75 0;
#X connect 83 0 77 0;
#X connect 84 0 74 0;
#X connect 85 0 78 0;
#X connect 86 0 73 0;
