#N canvas 594 284 668 519 10;
#X obj -6988 -6863 cosenv;
#X floatatom -6984 -6919 5 0 0 0 - - -;
#X floatatom -6919 -6915 5 0 0 0 - - -;
#X floatatom -6865 -6876 5 0 0 0 - - -;
#X obj -7053 -6910 t b b;
#X obj -7180 -6813 *~;
#X obj -7180 -6966 inlet~;
#X obj -7181 -6759 outlet~;
#X obj -6976 -6706 random;
#X obj -6897 -6572 -;
#X obj -6959 -6783 t b f f f;
#X obj -7070 -6948 metro 1000;
#X obj -6959 -6810 random 1000;
#X obj -6941 -6589 f;
#X obj -6976 -6638 t b f f;
#X obj -6967 -6986 receive tempo;
#X obj -7122 -6987 receive metro_start;
#X obj -6977 -6674 + 0;
#X obj -6947 -6743 - 0;
#X obj -6897 -6543 max 0;
#X floatatom -6798 -6768 5 0 0 0 - - -;
#X obj -6860 -6958 receive duree;
#X obj -6796 -6829 loadbang;
#X msg -6799 -6798 8;
#X connect 0 0 5 1;
#X connect 1 0 0 1;
#X connect 2 0 0 2;
#X connect 3 0 0 3;
#X connect 4 0 12 0;
#X connect 4 1 0 0;
#X connect 5 0 7 0;
#X connect 6 0 5 0;
#X connect 8 0 17 0;
#X connect 9 0 19 0;
#X connect 10 0 8 0;
#X connect 10 1 18 0;
#X connect 10 2 13 1;
#X connect 10 3 2 0;
#X connect 11 0 4 0;
#X connect 12 0 10 0;
#X connect 13 0 9 0;
#X connect 14 0 13 0;
#X connect 14 1 9 1;
#X connect 14 2 1 0;
#X connect 15 0 11 1;
#X connect 15 0 12 1;
#X connect 16 0 11 0;
#X connect 17 0 14 0;
#X connect 18 0 8 1;
#X connect 19 0 3 0;
#X connect 20 0 18 1;
#X connect 20 0 17 1;
#X connect 20 0 19 1;
#X connect 21 0 12 1;
#X connect 22 0 23 0;
#X connect 23 0 20 0;
