#N canvas 446 85 333 781 10;
#X obj -3691 -388 outlet~;
#X obj -3683 -682 ceff~;
#X obj -3618 -709 hsl 128 15 0 1 0 0 empty empty empty -2 -8 0 10 -262144
-1 -1 6925 1;
#X obj -3557 -772 randomF 1;
#X obj -3497 -827 r tempo;
#X obj -3582 -803 metro;
#X obj -3589 -838 r metro_start;
#X obj -3682 -533 *~ 0;
#X obj -3661 -571 inlet;
#N canvas 719 395 738 588 guitarIN 1;
#X obj -4926 549 outlet~;
#X obj -4925 503 *~ 2;
#X obj -4585 20 adc~ 1;
#X floatatom -4924 89 0 0 0 0 - - -;
#X obj -4861 360 *~;
#X obj -4738 297 line~;
#X floatatom -4706 119 0 0 0 0 - - -;
#X text -4875 11 PITCH SHIFTER;
#X obj -4738 271 pack 0 200;
#X obj -4924 145 exp;
#X floatatom -4924 171 6 0 0 0 - - -;
#X obj -4924 261 /;
#X obj -4797 191 * 0.001;
#X obj -4629 367 line~;
#X obj -4629 342 pack 0 200;
#X floatatom -4629 291 0 0 0 0 - - -;
#X obj -4629 265 r delay;
#X obj -4861 386 +~;
#X obj -4924 412 cos~;
#X obj -4924 439 *~;
#X obj -4924 468 +~;
#X obj -4837 319 wrap~;
#X obj -4692 362 *~;
#X obj -4692 395 +~;
#X obj -4755 422 cos~;
#X obj -4755 449 *~;
#X obj -4712 74 loadbang;
#X obj -4797 218 t b f;
#X floatatom -4924 287 6 0 0 0 - - -;
#X obj -4837 292 +~ 0.5;
#X obj -4924 360 -~ 0.5;
#X obj -4924 386 *~ 0.5;
#X obj -4755 361 -~ 0.5;
#X obj -4755 394 *~ 0.5;
#X obj -4924 198 - 1;
#X obj -4924 119 * 0.05776;
#X obj -4924 224 * -1;
#X text -4890 88 <-- transposition;
#X text -4847 101 (halftones);
#X text -4861 165 speed;
#X text -4862 179 change;
#X text -4662 113 <--window (msec);
#X text -4889 254 tape head;
#X obj -4924 318 phasor~;
#X obj -4629 318 max 1.5;
#X text -4626 224 delay;
#X text -4629 242 (msec);
#X obj -4706 141 max 1;
#X text -4888 267 rotation freq;
#X obj -4924 63 inlet;
#X msg -4706 97 100;
#X obj -4861 412 vd~ \$0-del;
#X obj -4692 424 vd~ \$0-del;
#X obj -4586 72 delwrite~ \$0-del 5000;
#X obj -4543 49 bp~ 1000 10;
#X connect 1 0 0 0;
#X connect 2 0 54 0;
#X connect 3 0 35 0;
#X connect 4 0 17 0;
#X connect 5 0 4 1;
#X connect 5 0 22 1;
#X connect 6 0 47 0;
#X connect 8 0 5 0;
#X connect 9 0 10 0;
#X connect 10 0 34 0;
#X connect 11 0 28 0;
#X connect 12 0 27 0;
#X connect 13 0 17 1;
#X connect 13 0 23 1;
#X connect 14 0 13 0;
#X connect 15 0 44 0;
#X connect 16 0 15 0;
#X connect 17 0 51 0;
#X connect 18 0 19 0;
#X connect 19 0 20 0;
#X connect 20 0 1 0;
#X connect 21 0 22 0;
#X connect 21 0 32 0;
#X connect 22 0 23 0;
#X connect 23 0 52 0;
#X connect 24 0 25 0;
#X connect 25 0 20 1;
#X connect 26 0 50 0;
#X connect 27 0 11 0;
#X connect 27 1 11 1;
#X connect 28 0 43 0;
#X connect 29 0 21 0;
#X connect 30 0 31 0;
#X connect 31 0 18 0;
#X connect 32 0 33 0;
#X connect 33 0 24 0;
#X connect 34 0 36 0;
#X connect 35 0 9 0;
#X connect 36 0 11 0;
#X connect 43 0 4 0;
#X connect 43 0 30 0;
#X connect 43 0 29 0;
#X connect 44 0 14 0;
#X connect 47 0 12 0;
#X connect 47 0 8 0;
#X connect 49 0 3 0;
#X connect 50 0 6 0;
#X connect 51 0 19 1;
#X connect 52 0 25 1;
#X connect 54 0 53 0;
#X restore -3672 -901 pd guitarIN;
#X obj -3698 -986 inlet;
#X connect 1 0 7 0;
#X connect 3 0 2 0;
#X connect 4 0 5 1;
#X connect 5 0 3 0;
#X connect 6 0 5 0;
#X connect 7 0 0 0;
#X connect 8 0 7 1;
#X connect 9 0 1 0;
#X connect 10 0 9 0;
