#N canvas 923 159 416 721 10;
#X obj 61 -1 inlet;
#X obj 119 131 list split 1;
#X obj 134 391 list;
#X obj 169 164 r global_speed;
#X obj 119 211 / 1;
#X obj 134 416 list trim;
#X obj 98 315 delay;
#X msg 289 289 stop;
#X obj 234 267 t b b;
#X obj 136 468 outlet;
#X obj 211 357 spigot;
#X obj 119 248 t f b;
#X msg 281 327 1;
#X msg 243 327 0;
#X obj 98 337 t b b;
#X obj 214 381 t b b;
#X msg 16 188 stop;
#X obj 15 161 sel stop;
#X obj 52 33 route list float symbol;
#X msg 119 88 list \$1 bang;
#X obj 312 59 inlet;
#X text 237 92 r jump_end_line in here plz;
#X connect 0 0 18 0;
#X connect 1 0 4 0;
#X connect 1 1 2 1;
#X connect 2 0 5 0;
#X connect 3 0 4 1;
#X connect 4 0 11 0;
#X connect 5 0 9 0;
#X connect 6 0 14 0;
#X connect 7 0 6 0;
#X connect 8 0 10 0;
#X connect 8 1 7 0;
#X connect 10 0 15 0;
#X connect 11 0 6 0;
#X connect 11 1 12 0;
#X connect 12 0 10 1;
#X connect 13 0 10 1;
#X connect 14 0 2 0;
#X connect 14 1 13 0;
#X connect 15 0 13 0;
#X connect 15 1 2 0;
#X connect 16 0 6 0;
#X connect 17 0 16 0;
#X connect 18 0 1 0;
#X connect 18 1 19 0;
#X connect 18 2 17 0;
#X connect 19 0 1 0;
#X connect 20 0 8 0;
