#N canvas 0 45 1888 879 10;
#X obj 57 19 inlet;
#X obj 57 90 + 1;
#X obj 57 136 outlet;
#X obj 76 66 s \$0_cue_value;
#X obj 343 85 r \$0_cue_value;
#X obj 183 130 f;
#X obj 183 107 r \$0_cue_value;
#X obj 316 109 route;
#X obj 253 139 symbol;
#X obj 246 230 t b;
#X msg 184 149 set \$1;
#X obj 316 64 r cue_name;
#X msg 216 39 symbol _;
#X obj 57 43 t f f b;
#X msg 225 176 set \$1;
#X obj 487 111 r \$0_cue_value;
#X obj 460 135 route;
#X obj 460 90 r cue_autogo;
#X msg 425 289 set \$1;
#X obj 368 222 t b;
#X obj 460 156 f;
#X obj 350 201 cnv 10 30 15 empty \$0-canvas_autogo empty 20 12 0 14
-261569 -262144 0;
#X floatatom 368 200 5 0 0 0 - - -, f 5;
#X obj 488 384 s \$0-canvas_autogo;
#X msg 488 362 color \$1;
#X floatatom 488 327 9 0 0 0 - - -, f 9;
#N canvas 9 222 606 448 RGB_____________ 0;
#X obj 262 53 inlet;
#X obj 339 55 inlet;
#X obj 405 56 inlet;
#X text 267 28 red;
#X text 337 30 green;
#X text 409 30 blue;
#X obj 405 102 t b f;
#X obj 339 160 +;
#X obj 339 185 t b f;
#X obj 339 216 +;
#X obj 82 332 outlet;
#X obj 262 79 * -65536;
#X obj 339 80 * -256;
#X obj 405 80 * -1;
#X obj 339 247 - 1;
#X obj 67 63 inlet;
#X obj 67 87 unpack f f f;
#X obj 67 111 min 255;
#X obj 67 132 max 0;
#X obj 115 111 min 255;
#X obj 115 132 max 0;
#X obj 163 111 min 255;
#X obj 163 132 max 0;
#X obj 67 172 * -65536;
#X obj 144 173 * -256;
#X obj 210 173 * -1;
#X obj 145 203 +, f 4;
#X obj 68 239 +;
#X obj 70 268 - 1;
#X connect 0 0 11 0;
#X connect 1 0 12 0;
#X connect 2 0 13 0;
#X connect 6 0 7 0;
#X connect 6 1 7 1;
#X connect 7 0 8 0;
#X connect 8 0 9 0;
#X connect 8 1 9 1;
#X connect 9 0 14 0;
#X connect 11 0 9 0;
#X connect 12 0 7 0;
#X connect 13 0 6 0;
#X connect 14 0 10 0;
#X connect 15 0 16 0;
#X connect 16 0 17 0;
#X connect 16 1 19 0;
#X connect 16 2 21 0;
#X connect 17 0 18 0;
#X connect 18 0 23 0;
#X connect 19 0 20 0;
#X connect 20 0 24 0;
#X connect 21 0 22 0;
#X connect 22 0 25 0;
#X connect 23 0 27 0;
#X connect 24 0 26 0;
#X connect 25 0 26 1;
#X connect 26 0 27 1;
#X connect 27 0 28 0;
#X connect 28 0 10 0;
#X restore 488 306 pd RGB_____________;
#X obj 488 212 >= 0;
#X obj 488 235 sel 1 0;
#X msg 553 280 255 255 255;
#X obj 215 260 t b;
#X obj 271 384 r \$0_cue_value;
#X obj 244 408 route;
#X obj 244 363 r cue_color;
#X obj 244 470 s \$0-canvas_color;
#X symbolatom 236 200 19 0 0 0 - - -, f 19;
#X msg 244 449 color \$1;
#X obj 244 429 change;
#X obj 488 342 change;
#X obj 215 304 f;
#X obj 230 282 r \$0_cue_value;
#X obj 215 325 s playfromstart;
#X obj 34 281 r current_cue;
#X obj 34 328 ==;
#X obj 49 302 r \$0_cue_value;
#X obj 34 349 change -1;
#X obj 34 370 sel 0 1;
#X msg 34 464 color \$1;
#N canvas 9 222 606 448 RGB_____________ 0;
#X obj 262 53 inlet;
#X obj 339 55 inlet;
#X obj 405 56 inlet;
#X text 267 28 red;
#X text 337 30 green;
#X text 409 30 blue;
#X obj 405 102 t b f;
#X obj 339 160 +;
#X obj 339 185 t b f;
#X obj 339 216 +;
#X obj 82 332 outlet;
#X obj 262 79 * -65536;
#X obj 339 80 * -256;
#X obj 405 80 * -1;
#X obj 339 247 - 1;
#X obj 67 63 inlet;
#X obj 67 87 unpack f f f;
#X obj 67 111 min 255;
#X obj 67 132 max 0;
#X obj 115 111 min 255;
#X obj 115 132 max 0;
#X obj 163 111 min 255;
#X obj 163 132 max 0;
#X obj 67 172 * -65536;
#X obj 144 173 * -256;
#X obj 210 173 * -1;
#X obj 145 203 +, f 4;
#X obj 68 239 +;
#X obj 70 268 - 1;
#X connect 0 0 11 0;
#X connect 1 0 12 0;
#X connect 2 0 13 0;
#X connect 6 0 7 0;
#X connect 6 1 7 1;
#X connect 7 0 8 0;
#X connect 8 0 9 0;
#X connect 8 1 9 1;
#X connect 9 0 14 0;
#X connect 11 0 9 0;
#X connect 12 0 7 0;
#X connect 13 0 6 0;
#X connect 14 0 10 0;
#X connect 15 0 16 0;
#X connect 16 0 17 0;
#X connect 16 1 19 0;
#X connect 16 2 21 0;
#X connect 17 0 18 0;
#X connect 18 0 23 0;
#X connect 19 0 20 0;
#X connect 20 0 24 0;
#X connect 21 0 22 0;
#X connect 22 0 25 0;
#X connect 23 0 27 0;
#X connect 24 0 26 0;
#X connect 25 0 26 1;
#X connect 26 0 27 1;
#X connect 27 0 28 0;
#X connect 28 0 10 0;
#X restore 34 442 pd RGB_____________;
#X obj 34 485 s \$0-canvas_sel;
#N canvas 9 222 606 448 RGB_____________ 0;
#X obj 262 53 inlet;
#X obj 339 55 inlet;
#X obj 405 56 inlet;
#X text 267 28 red;
#X text 337 30 green;
#X text 409 30 blue;
#X obj 405 102 t b f;
#X obj 339 160 +;
#X obj 339 185 t b f;
#X obj 339 216 +;
#X obj 82 332 outlet;
#X obj 262 79 * -65536;
#X obj 339 80 * -256;
#X obj 405 80 * -1;
#X obj 339 247 - 1;
#X obj 67 63 inlet;
#X obj 67 87 unpack f f f;
#X obj 67 111 min 255;
#X obj 67 132 max 0;
#X obj 115 111 min 255;
#X obj 115 132 max 0;
#X obj 163 111 min 255;
#X obj 163 132 max 0;
#X obj 67 172 * -65536;
#X obj 144 173 * -256;
#X obj 210 173 * -1;
#X obj 145 203 +, f 4;
#X obj 68 239 +;
#X obj 70 268 - 1;
#X connect 0 0 11 0;
#X connect 1 0 12 0;
#X connect 2 0 13 0;
#X connect 6 0 7 0;
#X connect 6 1 7 1;
#X connect 7 0 8 0;
#X connect 8 0 9 0;
#X connect 8 1 9 1;
#X connect 9 0 14 0;
#X connect 11 0 9 0;
#X connect 12 0 7 0;
#X connect 13 0 6 0;
#X connect 14 0 10 0;
#X connect 15 0 16 0;
#X connect 16 0 17 0;
#X connect 16 1 19 0;
#X connect 16 2 21 0;
#X connect 17 0 18 0;
#X connect 18 0 23 0;
#X connect 19 0 20 0;
#X connect 20 0 24 0;
#X connect 21 0 22 0;
#X connect 22 0 25 0;
#X connect 23 0 27 0;
#X connect 24 0 26 0;
#X connect 25 0 26 1;
#X connect 26 0 27 1;
#X connect 27 0 28 0;
#X connect 28 0 10 0;
#X restore 310 428 pd RGB_____________;
#X msg 310 407 255 255 255;
#X msg 73 323 0;
#X obj 118 399 symbol;
#X obj 118 422 s current_cue_name;
#X obj 134 369 bng 15 250 50 0 empty empty empty 17 7 0 10 -262144
-1 -1;
#X msg 430 50 -1;
#X floatatom 216 200 3 0 0 0 - - -, f 3;
#X obj 201 201 bng 15 250 50 0 empty \$0-canvas_sel empty 17 7 0 10
-249661 -1 -262144;
#X msg 53 415 255 255 0;
#X msg 34 392 240 240 240;
#X obj 190 201 cnv 10 10 15 empty \$0-canvas_color empty 20 12 0 14
-262144 -262144 0;
#X obj 440 219 / 1000;
#X obj 460 178 t f f;
#X obj 425 267 f;
#X msg 426 322 set -1;
#X msg 488 280 255 220 0;
#X connect 0 0 13 0;
#X connect 1 0 2 0;
#X connect 4 0 7 1;
#X connect 5 0 10 0;
#X connect 6 0 5 0;
#X connect 7 0 8 0;
#X connect 8 0 14 0;
#X connect 8 0 53 1;
#X connect 9 0 8 0;
#X connect 10 0 57 0;
#X connect 11 0 7 0;
#X connect 12 0 8 0;
#X connect 13 0 1 0;
#X connect 13 1 3 0;
#X connect 13 2 12 0;
#X connect 13 2 29 0;
#X connect 13 2 51 0;
#X connect 13 2 52 0;
#X connect 13 2 56 0;
#X connect 14 0 35 0;
#X connect 15 0 16 1;
#X connect 16 0 20 0;
#X connect 17 0 16 0;
#X connect 18 0 22 0;
#X connect 19 0 20 0;
#X connect 20 0 63 0;
#X connect 22 0 19 0;
#X connect 24 0 23 0;
#X connect 25 0 38 0;
#X connect 26 0 25 0;
#X connect 27 0 28 0;
#X connect 28 0 66 0;
#X connect 28 0 64 0;
#X connect 28 1 29 0;
#X connect 28 1 65 0;
#X connect 29 0 26 0;
#X connect 30 0 39 0;
#X connect 31 0 32 1;
#X connect 32 0 37 0;
#X connect 33 0 32 0;
#X connect 35 0 9 0;
#X connect 36 0 34 0;
#X connect 37 0 36 0;
#X connect 38 0 24 0;
#X connect 39 0 41 0;
#X connect 40 0 39 1;
#X connect 42 0 43 0;
#X connect 43 0 45 0;
#X connect 44 0 43 1;
#X connect 45 0 46 0;
#X connect 46 0 60 0;
#X connect 46 1 59 0;
#X connect 46 1 53 0;
#X connect 47 0 49 0;
#X connect 48 0 47 0;
#X connect 50 0 37 0;
#X connect 51 0 50 0;
#X connect 52 0 45 0;
#X connect 53 0 54 0;
#X connect 55 0 53 0;
#X connect 56 0 20 0;
#X connect 58 0 30 0;
#X connect 59 0 48 0;
#X connect 60 0 48 0;
#X connect 62 0 64 1;
#X connect 63 0 27 0;
#X connect 63 1 62 0;
#X connect 64 0 18 0;
#X connect 65 0 22 0;
#X connect 66 0 26 0;
#X coords 0 -1 1 1 210 17 1 190 200;
