#N canvas 1427 421 339 374 10;
#X obj 10 277 send metroid;
#X obj 29 257 send hauteur;
#X obj 10 12 inlet;
#X obj 29 234 mtof;
#X obj 49 152 send metro;
#X obj 10 50 t b b b;
#X obj 29 184 random 10;
#X obj 49 89 random 100;
#X obj 29 205 +;
#X floatatom 111 215 5 0 0 0 - - -;
#X floatatom 153 83 5 0 0 0 - - -;
#X connect 2 0 5 0;
#X connect 3 0 1 0;
#X connect 5 0 0 0;
#X connect 5 1 6 0;
#X connect 5 2 7 0;
#X connect 6 0 8 0;
#X connect 7 0 4 0;
#X connect 8 0 3 0;
#X connect 9 0 8 1;
#X connect 10 0 7 1;
#X coords 0 374 1 373 85 60 0;
