#N canvas 0 0 450 388 10;
#X obj 125 237 osc~;
#X obj 125 208 line~;
#X obj 196 75 inlet;
#X obj 196 99 t b b b;
#X obj 247 215 line~;
#X obj 125 285 *~;
#X obj 106 109 mtof;
#X msg 125 183 \$2 \, \$3 50;
#X obj 67 109 mtof;
#X obj 67 84 + 20;
#X msg 205 182 0.25;
#X obj 69 153 pack f f f;
#X obj 106 50 r vsl-\$1;
#X msg 247 181 1 \, 0 600;
#X obj 126 325 outlet~;
#X connect 0 0 5 0;
#X connect 1 0 0 0;
#X connect 2 0 3 0;
#X connect 3 0 11 0;
#X connect 3 1 10 0;
#X connect 3 2 13 0;
#X connect 4 0 5 1;
#X connect 5 0 14 0;
#X connect 6 0 11 2;
#X connect 7 0 1 0;
#X connect 8 0 11 1;
#X connect 9 0 8 0;
#X connect 10 0 0 1;
#X connect 11 0 7 0;
#X connect 12 0 9 0;
#X connect 12 0 6 0;
#X connect 13 0 4 0;
