#N canvas 822 126 704 659 10;
#X obj 142 -62 notein;
#X msg 99 180 clear;
#X obj 210 284 pack;
#X obj 204 2 sel 0;
#X obj 204 52 counter;
#X msg 232 26 inc;
#X msg 198 26 dec;
#X obj 204 73 sel 0;
#X obj 148 -28 t f f;
#X obj 114 249 t b f;
#X obj 421 293 pack;
#X msg 402 247 set \$1;
#X obj 417 342 print;
#X obj 359 250 bng 15 250 50 0 empty empty empty 17 7 0 10 -262144
-1 -1;
#X floatatom 447 207 5 0 0 0 - - -;
#X floatatom 402 188 5 0 0 0 - - -;
#X obj 156 249 f;
#X obj 99 160 spigot;
#X msg 220 99 0;
#X msg 186 99 1;
#X obj 115 -2 t f f;
#X obj 142 210 poly 3;
#X obj 141 310 gate 3 1 1 1;
#X obj 64 453 outlet;
#X obj 147 443 outlet;
#X obj 232 426 outlet;
#X connect 0 0 20 0;
#X connect 0 1 8 0;
#X connect 1 0 21 0;
#X connect 2 0 22 1;
#X connect 3 0 6 0;
#X connect 3 1 5 0;
#X connect 4 0 7 0;
#X connect 5 0 4 0;
#X connect 6 0 4 0;
#X connect 7 0 19 0;
#X connect 7 1 18 0;
#X connect 8 0 3 0;
#X connect 8 1 21 1;
#X connect 9 0 16 0;
#X connect 9 1 22 0;
#X connect 10 0 12 0;
#X connect 11 0 10 0;
#X connect 13 0 10 0;
#X connect 14 0 10 1;
#X connect 15 0 11 0;
#X connect 16 0 2 0;
#X connect 17 0 1 0;
#X connect 18 0 17 1;
#X connect 19 0 17 1;
#X connect 20 0 17 0;
#X connect 20 1 21 0;
#X connect 21 0 9 0;
#X connect 21 1 16 1;
#X connect 21 2 2 1;
#X connect 22 0 23 0;
#X connect 22 1 24 0;
#X connect 22 2 25 0;
