#N canvas 1088 100 793 733 10;
#X obj 200 567 output~;
#X obj 228 4 osc~ 100;
#X floatatom 395 226 5 0 0 0 - - -;
#X obj 261 401 ceff~;
#X obj 281 374 hsl 128 15 0 1 0 0 empty empty empty -2 -8 0 10 -262144
-1 -1 8300 1;
#X obj 246 48 hsl 128 15 0 10 0 0 empty empty empty -2 -8 0 10 -262144
-1 -1 4500 1;
#X obj 473 338 hsl 300 15 0 20000 0 0 empty empty empty -2 -8 0 10
-262144 -1 -1 0 1;
#X floatatom 476 363 12 0 0 0 - - -;
#X obj 427 179 mtof;
#X obj 513 69 empilNote;
#X obj 395 247 print A;
#X obj 521 248 print B;
#X obj 628 244 print C;
#X text 379 264 note principale;
#X text 498 265 harmo1 (B-A);
#X text 618 262 harmo2 (C-A);
#N canvas 917 623 450 300 littlevar 0;
#X obj 216 127 sig~;
#X obj 76 211 *~;
#X obj 213 81 metro 50;
#X obj 215 104 randomF 1;
#X obj 216 193 lop~ 1;
#X obj 216 148 *~ 0.06;
#X obj 215 169 +~ 0.94;
#X obj 76 81 inlet~;
#X obj 75 250 outlet~;
#X obj 213 57 inlet;
#X obj 312 66 inlet;
#X obj 312 145 -;
#X msg 312 118 1 \$1;
#X obj 312 96 * 0.5;
#X connect 0 0 5 0;
#X connect 1 0 8 0;
#X connect 2 0 3 0;
#X connect 3 0 0 0;
#X connect 4 0 1 1;
#X connect 5 0 6 0;
#X connect 6 0 4 0;
#X connect 7 0 1 0;
#X connect 9 0 2 0;
#X connect 10 0 5 1;
#X connect 10 0 13 0;
#X connect 11 0 6 1;
#X connect 12 0 11 0;
#X connect 13 0 12 0;
#X restore 244 307 pd littlevar;
#X obj 278 285 tgl 15 0 empty empty empty 17 7 0 10 -262144 -1 -1 1
1;
#X obj 523 178 mtof;
#X obj 625 172 mtof;
#X floatatom 521 223 5 0 0 0 - - -;
#X floatatom 628 221 5 0 0 0 - - -;
#X obj 473 225 -;
#X obj 473 246 abs;
#X obj 286 124 sig~;
#X obj 287 150 lop~ 1;
#X obj 242 144 *~;
#X floatatom 482 293 5 0 0 0 - - -;
#X obj 587 215 -;
#X obj 587 236 abs;
#X obj 256 -66 sig~;
#X obj 257 -40 lop~ 1;
#X obj 298 193 sig~;
#X obj 241 232 +~;
#X floatatom 578 279 5 0 0 0 - - -;
#X obj 229 69 *~;
#X obj 241 343 osc~ 207.6;
#X floatatom 313 283 5 0 0 0 - - -;
#X obj 299 219 lop~ 10;
#X obj 234 501 lop~;
#X obj 298 477 line 0 1;
#X obj 427 154 stripnote;
#X obj 523 154 stripnote;
#X obj 625 148 stripnote;
#X msg 301 452 0 \, 1500 30;
#X obj 351 538 writesf~;
#N canvas 483 222 450 300 rec 0;
#X obj 87 4 r rec;
#X obj 124 101 counter;
#X msg 124 172 open \$1;
#X obj 194 172 print;
#X obj 167 209 r~ MainL;
#X obj 225 209 r~ MainR;
#X msg 41 197 start;
#X msg 88 197 stop;
#X obj 86 36 sel 1 0;
#X obj 86 61 t b b;
#X obj 124 133 makefilename Audio_%i.wav;
#X obj 150 3 inlet;
#X obj 168 244 writesf~ 1;
#X connect 0 0 8 0;
#X connect 1 0 10 0;
#X connect 2 0 3 0;
#X connect 2 0 12 0;
#X connect 4 0 12 0;
#X connect 6 0 12 0;
#X connect 7 0 12 0;
#X connect 8 0 9 0;
#X connect 8 1 7 0;
#X connect 9 0 6 0;
#X connect 9 1 1 0;
#X connect 10 0 2 0;
#X connect 11 0 8 0;
#X restore 124 574 pd rec;
#X obj 86 502 tgl 15 0 empty empty empty 17 7 0 10 -262144 -1 -1 0
1;
#X obj 352 585 s~ MainL;
#X obj 410 585 s~ MainR;
#X connect 1 0 35 0;
#X connect 3 0 39 0;
#X connect 4 0 3 1;
#X connect 5 0 35 1;
#X connect 6 0 7 0;
#X connect 8 0 2 0;
#X connect 8 0 22 1;
#X connect 8 0 32 0;
#X connect 8 0 44 0;
#X connect 9 0 41 0;
#X connect 9 1 42 0;
#X connect 9 2 43 0;
#X connect 16 0 36 0;
#X connect 17 0 16 1;
#X connect 18 0 20 0;
#X connect 18 0 22 0;
#X connect 18 0 28 1;
#X connect 19 0 21 0;
#X connect 19 0 28 0;
#X connect 22 0 23 0;
#X connect 23 0 24 0;
#X connect 23 0 27 0;
#X connect 24 0 25 0;
#X connect 25 0 26 1;
#X connect 26 0 33 0;
#X connect 28 0 29 0;
#X connect 29 0 30 0;
#X connect 29 0 34 0;
#X connect 30 0 31 0;
#X connect 31 0 1 0;
#X connect 32 0 38 0;
#X connect 33 0 16 0;
#X connect 35 0 26 0;
#X connect 36 0 3 0;
#X connect 37 0 16 2;
#X connect 38 0 33 1;
#X connect 39 0 0 1;
#X connect 39 0 0 0;
#X connect 39 0 48 0;
#X connect 40 0 39 1;
#X connect 41 0 8 0;
#X connect 42 0 18 0;
#X connect 43 0 19 0;
#X connect 44 0 40 0;
#X connect 47 0 46 0;
