#N canvas 85 136 891 787 10;
#N canvas 1176 270 450 300 terra 1;
#X restore 271 21 pd terra;
#X obj 22 19 bng 15 250 50 0 empty empty Bang_to_create_Oscillators
17 7 0 10 -262144 -1 -1;
#X obj 271 74 dac~;
#X obj 272 43 catch~ master;
#X obj 49 126 f;
#X obj 57 156 + 100;
#X msg 64 67 0;
#X obj 22 62 t b b;
#X obj 64 39 loadbang;
#X obj 102 131 f;
#X obj 102 152 + 20;
#X obj 58 177 pack f f;
#X msg 117 71 10;
#X obj 22 171 f;
#X msg 58 198 \; pd-terra obj 120 \$2 oscillat \$1;
#X msg 22 236 \; pd-terra obj 220 \$1 dummy;
#X connect 1 0 7 0;
#X connect 3 0 2 0;
#X connect 3 0 2 1;
#X connect 4 0 5 0;
#X connect 5 0 4 1;
#X connect 5 0 11 0;
#X connect 6 0 4 1;
#X connect 7 0 13 0;
#X connect 7 1 4 0;
#X connect 7 1 9 0;
#X connect 8 0 6 0;
#X connect 8 0 12 0;
#X connect 9 0 10 0;
#X connect 10 0 9 1;
#X connect 10 0 11 1;
#X connect 10 0 13 1;
#X connect 11 0 14 0;
#X connect 12 0 9 1;
#X connect 13 0 15 0;
