#N canvas -7 0 942 977 10;
#X declare -path ctl_abs;
#X declare -path ../ctl_abs;
#N canvas 1178 126 597 563 get_cue_name 0;
#X obj 32 71 inlet;
#X obj 32 239 text get cuelist;
#X obj 32 191 f;
#X obj 66 193 + 1;
#X obj 32 118 t b b;
#X msg 97 168 0;
#X obj 32 95 bng 15 250 50 0 empty empty empty 17 7 0 10 -262144 -1
-1;
#X obj 125 265 sel 2;
#X obj 32 262 route list;
#X obj 32 283 route #;
#X obj 71 306 route cue;
#X obj 71 376 f;
#X obj 105 378 + 1;
#X msg 86 352 0;
#X obj 71 329 t b a;
#X obj 71 466 pack f s;
#X obj 71 485 s cue_name;
#X obj 116 407 list;
#X msg 116 426 symbol \$1;
#X obj 162 525 s cue_autogo;
#X obj 207 420 route list;
#X msg 264 445 -1;
#X obj 162 496 pack f f;
#X msg 207 444 \$1;
#N canvas 9 222 606 448 RGB_____________ 0;
#X obj 262 53 inlet;
#X obj 339 55 inlet;
#X obj 405 56 inlet;
#X text 267 28 red;
#X text 337 30 green;
#X text 409 30 blue;
#X obj 405 102 t b f;
#X obj 339 160 +;
#X obj 339 185 t b f;
#X obj 339 216 +;
#X obj 82 332 outlet;
#X obj 262 79 * -65536;
#X obj 339 80 * -256;
#X obj 405 80 * -1;
#X obj 339 247 - 1;
#X obj 67 63 inlet;
#X obj 67 87 unpack f f f;
#X obj 67 111 min 255;
#X obj 67 132 max 0;
#X obj 115 111 min 255;
#X obj 115 132 max 0;
#X obj 163 111 min 255;
#X obj 163 132 max 0;
#X obj 67 172 * -65536;
#X obj 144 173 * -256;
#X obj 210 173 * -1;
#X obj 145 203 +, f 4;
#X obj 68 239 +;
#X obj 70 268 - 1;
#X connect 0 0 11 0;
#X connect 1 0 12 0;
#X connect 2 0 13 0;
#X connect 6 0 7 0;
#X connect 6 1 7 1;
#X connect 7 0 8 0;
#X connect 8 0 9 0;
#X connect 8 1 9 1;
#X connect 9 0 14 0;
#X connect 11 0 9 0;
#X connect 12 0 7 0;
#X connect 13 0 6 0;
#X connect 14 0 10 0;
#X connect 15 0 16 0;
#X connect 16 0 17 0;
#X connect 16 1 19 0;
#X connect 16 2 21 0;
#X connect 17 0 18 0;
#X connect 18 0 23 0;
#X connect 19 0 20 0;
#X connect 20 0 24 0;
#X connect 21 0 22 0;
#X connect 22 0 25 0;
#X connect 23 0 27 0;
#X connect 24 0 26 0;
#X connect 25 0 26 1;
#X connect 26 0 27 1;
#X connect 27 0 28 0;
#X connect 28 0 10 0;
#X restore 386 481 pd RGB_____________;
#X obj 341 508 pack f f;
#X obj 341 528 s cue_color;
#X msg 455 459 255 255 255;
#X obj 352 364 list;
#X obj 386 410 list split 3;
#X msg 386 457 \$1 \$2 \$3;
#X obj 352 387 list split 2;
#X obj 32 167 metro 0;
#X msg 32 141 1;
#X msg 65 142 0;
#X obj 125 286 t b b;
#X msg 143 316 0;
#X obj 143 337 s playfromstart;
#X obj 174 467 * 1000;
#X connect 0 0 6 0;
#X connect 1 0 8 0;
#X connect 1 1 7 0;
#X connect 2 0 3 0;
#X connect 2 0 1 0;
#X connect 3 0 2 1;
#X connect 4 0 33 0;
#X connect 4 1 5 0;
#X connect 4 1 13 0;
#X connect 5 0 2 1;
#X connect 6 0 4 0;
#X connect 7 0 35 0;
#X connect 8 0 9 0;
#X connect 9 1 10 0;
#X connect 10 0 14 0;
#X connect 11 0 12 0;
#X connect 11 0 15 0;
#X connect 11 0 22 0;
#X connect 11 0 25 0;
#X connect 12 0 11 1;
#X connect 13 0 11 1;
#X connect 14 0 11 0;
#X connect 14 1 17 0;
#X connect 15 0 16 0;
#X connect 17 0 18 0;
#X connect 17 0 20 0;
#X connect 18 0 15 1;
#X connect 20 0 23 0;
#X connect 20 0 28 0;
#X connect 20 1 21 0;
#X connect 20 1 27 0;
#X connect 21 0 22 1;
#X connect 22 0 19 0;
#X connect 23 0 38 0;
#X connect 24 0 25 1;
#X connect 25 0 26 0;
#X connect 27 0 24 0;
#X connect 28 0 31 0;
#X connect 29 0 30 0;
#X connect 29 2 27 0;
#X connect 30 0 24 0;
#X connect 31 1 29 0;
#X connect 31 2 27 0;
#X connect 32 0 2 0;
#X connect 33 0 32 0;
#X connect 34 0 32 0;
#X connect 35 0 36 0;
#X connect 35 1 34 0;
#X connect 36 0 37 0;
#X connect 38 0 22 1;
#X restore 25 599 pd get_cue_name;
#N canvas 860 305 550 502 init 0;
#X obj 127 160 text define cuelist;
#X msg 100 186 0;
#X obj 113 85 loadbang;
#X obj 100 112 t b b;
#X obj 100 208 outlet;
#X obj 325 22 r read;
#X obj 100 60 r init_cuelist;
#X msg 381 72 symbol act2.txt;
#X obj 325 76 t b a;
#N canvas 1 100 450 300 filter_double 0;
#X obj 42 163 spigot;
#X obj 75 52 r start_play_all_from;
#X msg 104 98 1;
#X msg 75 73 0;
#X obj 42 16 inlet;
#X obj 42 194 outlet;
#X obj 432 521 s before_fin_play_all_from;
#X obj 105 73 r before_fin_play_all_from;
#X connect 0 0 5 0;
#X connect 1 0 3 0;
#X connect 2 0 0 1;
#X connect 3 0 0 1;
#X connect 4 0 0 0;
#X connect 7 0 2 0;
#X restore 325 49 pd filter_double;
#X msg 352 100 read -c \$1;
#X msg 127 139 read -c cue_list.txt;
#X obj 331 164 declare -path ctl_abs;
#X connect 1 0 4 0;
#X connect 2 0 3 0;
#X connect 3 0 1 0;
#X connect 3 1 11 0;
#X connect 5 0 9 0;
#X connect 6 0 3 0;
#X connect 7 0 10 0;
#X connect 8 0 1 0;
#X connect 8 1 10 0;
#X connect 9 0 8 0;
#X connect 10 0 0 0;
#X connect 11 0 0 0;
#X restore 25 0 pd init;
#X obj 281 281 r tst_line;
#X floatatom 352 496 5 0 0 0 - - -, f 5;
#N canvas 0 0 1888 970 tlcl 0;
#X msg 503 187 label \$1;
#X obj 503 96 r comment1;
#X obj 503 207 send canvas_comment1;
#X obj 100 230 cnv 15 350 20 empty canvas_comment3 Editez\ le\ fichier\ cue_list.txt\ pour\ modifier\ la\ liste
0 10 0 10 -249661 -66577 0;
#X obj 100 250 cnv 15 350 20 empty canvas_comment4 Cyril\ Communal\ 2019
0 10 0 10 -249661 -66577 0;
#X msg 644 193 label \$1;
#X obj 644 92 r comment2;
#X msg 796 190 label \$1;
#X msg 936 196 label \$1;
#X obj 796 89 r comment3;
#X obj 936 95 r comment4;
#X obj 644 213 send canvas_comment2;
#X obj 796 210 send canvas_comment3;
#X obj 936 216 send canvas_comment4;
#X obj 503 142 symbol;
#X obj 503 119 route bang;
#X obj 644 142 symbol;
#X obj 644 119 route bang;
#X obj 796 142 symbol;
#X obj 796 119 route bang;
#X obj 936 142 symbol;
#X obj 936 119 route bang;
#X symbolatom 139 120 20 0 0 0 - - -, f 20;
#X text 264 120 current cue;
#X floatatom 103 120 5 0 0 0 - - playfromstart, f 5;
#X msg 134 45 set \$1;
#X obj 134 22 r current_cue;
#X obj 226 5 r current_cue_name;
#X obj 226 26 symbol;
#X obj 282 28 t b;
#X msg 226 48 set \$1;
#X obj 241 137 tgl 15 0 autogo_on autogo_on_init empty 17 7 0 10 -262144
-1 -1 1 1;
#X obj 103 137 hsl 128 15 0 127 0 0 empty aff_autogo empty -2 -8 0
10 -262144 -1 -262144 0 1;
#X obj 102 154 bng 35 250 50 0 next_cue empty empty 17 7 0 10 -3137
-1 -1;
#X text 262 136 autogo_on;
#X obj 182 154 bng 15 250 50 0 jump_end_line skip_transition_button
empty 17 7 0 10 -262144 -1 -262144;
#X floatatom 338 137 5 0 0 0 - - global_speed, f 5;
#X text 371 136 global speed;
#X obj 103 103 bng 15 250 50 0 init_cuelist empty empty 17 7 0 10 -262144
-1 -1;
#X text 120 102 reload cuelist;
#N canvas 1013 45 666 885 play_cuelist 0;
#X obj 53 186 text get cuelist;
#X obj 92 311 route cue;
#X obj 111 386 f;
#X obj 126 407 + 1;
#X obj 53 98 until;
#X obj 111 467 >;
#X msg 307 162 0;
#X obj 53 124 f;
#X obj 68 151 + 1;
#X msg 92 98 0;
#X floatatom 53 33 5 0 0 0 - - -, f 5;
#X obj 146 209 sel 2;
#X obj 53 288 route #;
#X obj 268 419 route symbol;
#X obj 111 568 f;
#X text 95 30 playfrom;
#X obj 177 842 send;
#X obj 143 749 list split 1;
#X obj 111 660 s autogo;
#X obj 53 9 r playfromstart;
#X obj 230 29 bng 15 250 50 0 empty empty empty 17 7 0 10 -262144 -1
-1;
#X obj 230 8 r next_cue;
#X obj 224 590 s current_cue;
#X obj 111 519 sel 1 0;
#X obj 53 263 route list symbol;
#X obj 224 548 f;
#X obj 224 400 t b;
#X obj 224 568 - 1;
#X msg 146 232 list cue last;
#X obj 363 621 s jump_end_line;
#X obj 53 213 t a a;
#X obj 111 544 t b b;
#X obj 363 569 t a a;
#X obj 53 50 t b f b b;
#X obj 12 654 f;
#X obj 12 674 sel 1;
#X msg 152 566 1;
#X msg 337 439 \$2;
#X obj 268 395 list;
#X msg 268 440 -1;
#X obj 364 501 f;
#X obj 337 469 t f b;
#X obj 176 85 s start_play_all_from;
#X obj 354 195 s fin_play_all_from;
#X obj 354 153 f;
#X msg 369 123 1;
#X msg 395 123 0;
#X obj 354 174 sel 1;
#X obj 230 48 t b b;
#X obj 166 432 - 1;
#X obj 151 468 >;
#X obj 111 431 t f f f;
#X obj 432 526 sel 1;
#X obj 432 551 s before_fin_play_all_from;
#X obj 379 712 spigot 0;
#X msg 424 685 1;
#X msg 459 685 0;
#X obj 379 733 t b b;
#X obj 92 364 t b b a b;
#X obj 398 758 s comment1;
#X obj 398 778 s comment2;
#X obj 398 798 s comment3;
#X obj 398 818 s comment4;
#X obj 143 335 t a b;
#X obj 389 595 print jum_end;
#X obj 143 709 spigot;
#X msg 176 654 1;
#X msg 208 654 0;
#X obj 176 683 |;
#X obj 208 685 r jump_from_start;
#X obj 111 590 * 1000;
#X obj 117 817 list;
#X obj 117 774 t b s;
#X connect 0 0 30 0;
#X connect 0 1 11 0;
#X connect 1 0 58 0;
#X connect 1 1 63 0;
#X connect 2 0 3 0;
#X connect 2 0 51 0;
#X connect 3 0 2 1;
#X connect 4 0 7 0;
#X connect 5 0 23 0;
#X connect 6 0 2 1;
#X connect 6 0 34 1;
#X connect 7 0 8 0;
#X connect 7 0 0 0;
#X connect 8 0 7 1;
#X connect 9 0 7 1;
#X connect 10 0 33 0;
#X connect 11 0 28 0;
#X connect 12 1 1 0;
#X connect 13 0 39 0;
#X connect 13 1 37 0;
#X connect 14 0 70 0;
#X connect 17 0 72 0;
#X connect 17 1 71 1;
#X connect 17 2 71 1;
#X connect 19 0 10 0;
#X connect 20 0 48 0;
#X connect 21 0 20 0;
#X connect 23 0 31 0;
#X connect 23 1 32 0;
#X connect 24 0 12 0;
#X connect 24 1 12 0;
#X connect 25 0 27 0;
#X connect 26 0 4 1;
#X connect 26 0 25 0;
#X connect 26 0 44 0;
#X connect 27 0 22 0;
#X connect 28 0 24 0;
#X connect 30 0 24 0;
#X connect 31 0 14 0;
#X connect 31 1 36 0;
#X connect 32 0 29 0;
#X connect 33 0 4 0;
#X connect 33 1 5 1;
#X connect 33 1 49 0;
#X connect 33 2 6 0;
#X connect 33 2 9 0;
#X connect 33 3 42 0;
#X connect 33 3 45 0;
#X connect 33 3 67 0;
#X connect 34 0 35 0;
#X connect 35 0 26 0;
#X connect 36 0 34 1;
#X connect 37 0 41 0;
#X connect 38 0 13 0;
#X connect 39 0 41 0;
#X connect 40 0 14 1;
#X connect 41 0 40 1;
#X connect 41 1 40 0;
#X connect 44 0 47 0;
#X connect 45 0 44 1;
#X connect 46 0 44 1;
#X connect 47 0 43 0;
#X connect 48 0 4 0;
#X connect 48 1 46 0;
#X connect 49 0 50 1;
#X connect 50 0 52 0;
#X connect 51 0 5 0;
#X connect 51 1 50 0;
#X connect 51 2 25 1;
#X connect 52 0 53 0;
#X connect 52 0 66 0;
#X connect 54 0 57 0;
#X connect 55 0 54 1;
#X connect 56 0 54 1;
#X connect 57 0 59 0;
#X connect 57 0 60 0;
#X connect 57 0 61 0;
#X connect 57 0 62 0;
#X connect 57 1 56 0;
#X connect 58 0 34 0;
#X connect 58 1 2 0;
#X connect 58 2 38 0;
#X connect 58 3 55 0;
#X connect 63 0 65 0;
#X connect 63 1 54 0;
#X connect 65 0 17 0;
#X connect 66 0 68 0;
#X connect 67 0 68 0;
#X connect 68 0 65 1;
#X connect 69 0 68 1;
#X connect 70 0 18 0;
#X connect 71 0 16 0;
#X connect 72 0 71 0;
#X connect 72 1 16 1;
#X restore 101 291 pd play_cuelist _________________________________________
;
#N canvas 1034 260 444 611 autogo 0;
#X obj 38 26 r autogo;
#X obj 38 52 moses 0;
#X msg 118 85 0 \, 127 \$1;
#X obj 118 125 s aff_autogo;
#X msg 38 154 0;
#X msg 77 155 1;
#X obj 38 185 f;
#X obj 38 255 *;
#X obj 109 183 + 1;
#X obj 109 206 t b f;
#X obj 38 284 sel 0 1 2;
#X msg 38 409 color \$1;
#X obj 38 429 s aff_autogo;
#X msg 226 119 stop;
#X msg 264 119 \$1;
#X obj 226 170 spigot 1;
#X obj 271 146 r autogo_on;
#X obj 301 85 s autogo_on_init;
#X msg 301 64 1;
#X obj 301 43 loadbang;
#X msg 38 306 255 255 255;
#N canvas 9 222 606 448 RGB_____________ 0;
#X obj 262 53 inlet;
#X obj 339 55 inlet;
#X obj 405 56 inlet;
#X text 267 28 red;
#X text 337 30 green;
#X text 409 30 blue;
#X obj 405 102 t b f;
#X obj 339 160 +;
#X obj 339 185 t b f;
#X obj 339 216 +;
#X obj 82 332 outlet;
#X obj 262 79 * -65536;
#X obj 339 80 * -256;
#X obj 405 80 * -1;
#X obj 339 247 - 1;
#X obj 67 63 inlet;
#X obj 67 87 unpack f f f;
#X obj 67 111 min 255;
#X obj 67 132 max 0;
#X obj 115 111 min 255;
#X obj 115 132 max 0;
#X obj 163 111 min 255;
#X obj 163 132 max 0;
#X obj 67 172 * -65536;
#X obj 144 173 * -256;
#X obj 210 173 * -1;
#X obj 145 203 +, f 4;
#X obj 68 239 +;
#X obj 70 268 - 1;
#X connect 0 0 11 0;
#X connect 1 0 12 0;
#X connect 2 0 13 0;
#X connect 6 0 7 0;
#X connect 6 1 7 1;
#X connect 7 0 8 0;
#X connect 8 0 9 0;
#X connect 8 1 9 1;
#X connect 9 0 14 0;
#X connect 11 0 9 0;
#X connect 12 0 7 0;
#X connect 13 0 6 0;
#X connect 14 0 10 0;
#X connect 15 0 16 0;
#X connect 16 0 17 0;
#X connect 16 1 19 0;
#X connect 16 2 21 0;
#X connect 17 0 18 0;
#X connect 18 0 23 0;
#X connect 19 0 20 0;
#X connect 20 0 24 0;
#X connect 21 0 22 0;
#X connect 22 0 25 0;
#X connect 23 0 27 0;
#X connect 24 0 26 0;
#X connect 25 0 26 1;
#X connect 26 0 27 1;
#X connect 27 0 28 0;
#X connect 28 0 10 0;
#X restore 38 388 pd RGB_____________;
#X msg 55 328 200 200 200;
#X msg 52 93 0;
#X obj 227 193 s next_cue;
#X obj 118 105 _line;
#X obj 226 146 delay;
#X obj 313 118 r jump_end_line;
#X obj 131 429 s skip_transition_button;
#X msg 72 350 255 220 0;
#X connect 0 0 1 0;
#X connect 1 0 4 0;
#X connect 1 0 13 0;
#X connect 1 0 23 0;
#X connect 1 1 2 0;
#X connect 1 1 5 0;
#X connect 1 1 14 0;
#X connect 2 0 25 0;
#X connect 4 0 6 0;
#X connect 5 0 6 0;
#X connect 6 0 7 0;
#X connect 7 0 10 0;
#X connect 8 0 9 0;
#X connect 9 0 7 0;
#X connect 9 1 7 1;
#X connect 10 0 20 0;
#X connect 10 1 22 0;
#X connect 10 2 29 0;
#X connect 11 0 12 0;
#X connect 11 0 28 0;
#X connect 13 0 26 0;
#X connect 14 0 26 0;
#X connect 15 0 24 0;
#X connect 16 0 8 0;
#X connect 16 0 15 1;
#X connect 18 0 17 0;
#X connect 19 0 18 0;
#X connect 20 0 21 0;
#X connect 21 0 11 0;
#X connect 22 0 21 0;
#X connect 23 0 25 0;
#X connect 25 0 3 0;
#X connect 26 0 15 0;
#X connect 27 0 13 0;
#X connect 29 0 21 0;
#X restore 101 314 pd autogo _______________________________________________
;
#X msg 594 54 1;
#X obj 594 34 loadbang;
#X obj 533 54 r speed;
#X obj 181 172 tgl 15 0 empty empty empty 17 7 0 10 -262144 -1 -1 0
1;
#X obj 470 232 key;
#X obj 470 255 sel 32;
#X obj 470 312 spigot 0;
#X obj 100 190 cnv 15 350 20 empty canvas_comment1 Bonjour\ voici\ les\ cues\ prévus
0 10 0 10 -249661 -66577 0;
#X obj 100 210 cnv 15 350 20 empty canvas_comment2 Durée\ du\ spectacle:\ 45\ secondes
0 10 0 10 -249661 -66577 0;
#X obj 378 1 f;
#X obj 415 13 + 1;
#X obj 378 -70 loadbang;
#X msg 401 -28 0;
#X obj 414 50 % 60;
#X obj 378 50 / 60;
#X obj 378 70 i;
#X floatatom 414 102 5 0 0 0 - - -, f 5;
#X floatatom 378 102 5 0 0 0 - - -, f 5;
#X obj 333 -47 t b b;
#X obj 358 102 bng 15 250 50 0 empty empty empty 17 7 0 10 -262144
-1 -1;
#X obj 454 -48 t b;
#X obj 721 -79 f;
#X obj 758 -67 + 1;
#X obj 721 -150 loadbang;
#X msg 738 -102 0;
#X obj 757 -30 % 60;
#X obj 721 -30 / 60;
#X obj 721 -10 i;
#X floatatom 414 118 5 0 0 0 - - -, f 5;
#X floatatom 378 118 5 0 0 0 - - -, f 5;
#X obj 676 -127 t b b;
#X obj 675 -147 bng 15 250 50 0 empty empty empty 17 7 0 10 -262144
-1 -1;
#X obj 797 -128 t b;
#X obj 560 -138 r current_cue;
#X obj 333 -125 r init_time;
#N canvas 1 95 450 300 filter_current_cue 0;
#X obj 42 163 spigot;
#X obj 75 52 r start_play_all_from;
#X msg 106 95 1;
#X msg 75 73 0;
#X obj 42 16 inlet;
#X obj 42 194 outlet;
#X obj 105 73 r before_fin_play_all_from;
#X connect 0 0 5 0;
#X connect 1 0 3 0;
#X connect 2 0 0 1;
#X connect 3 0 0 1;
#X connect 4 0 0 0;
#X connect 6 0 2 0;
#X restore 333 -101 pd filter_current_cue;
#X obj 431 171 tgl 15 0 empty empty empty 17 7 0 10 -262144 -1 -1 1
1;
#X text 330 171 jump from start;
#X obj 530 -59 loadbang;
#X msg 530 -39 1;
#X obj 559 424 s jump_from_start;
#X obj 513 166 abs/l2s;
#X obj 664 172 abs/l2s;
#X obj 816 169 abs/l2s;
#X obj 956 175 abs/l2s;
#X text 198 171 Spacebar->next;
#X text 141 163 NEXT;
#X obj 378 -48 delay 1000;
#X obj 721 -128 delay 1000;
#X text 199 153 skip transition;
#X connect 0 0 2 0;
#X connect 1 0 15 0;
#X connect 5 0 11 0;
#X connect 6 0 17 0;
#X connect 7 0 12 0;
#X connect 8 0 13 0;
#X connect 9 0 19 0;
#X connect 10 0 21 0;
#X connect 14 0 0 0;
#X connect 15 0 14 0;
#X connect 15 1 83 0;
#X connect 16 0 5 0;
#X connect 17 0 16 0;
#X connect 17 1 84 0;
#X connect 18 0 7 0;
#X connect 19 0 18 0;
#X connect 19 1 85 0;
#X connect 20 0 8 0;
#X connect 21 0 20 0;
#X connect 21 1 86 0;
#X connect 22 0 29 0;
#X connect 25 0 24 0;
#X connect 26 0 25 0;
#X connect 27 0 28 0;
#X connect 28 0 30 0;
#X connect 29 0 28 0;
#X connect 30 0 22 0;
#X connect 42 0 36 0;
#X connect 43 0 42 0;
#X connect 44 0 36 0;
#X connect 45 0 48 1;
#X connect 46 0 47 0;
#X connect 47 0 48 0;
#X connect 48 0 33 0;
#X connect 51 0 52 0;
#X connect 51 0 55 0;
#X connect 51 0 56 0;
#X connect 52 0 51 1;
#X connect 53 0 89 0;
#X connect 54 0 51 0;
#X connect 55 0 58 0;
#X connect 56 0 57 0;
#X connect 57 0 59 0;
#X connect 60 0 89 0;
#X connect 60 1 54 0;
#X connect 61 0 60 0;
#X connect 62 0 89 0;
#X connect 63 0 64 0;
#X connect 63 0 67 0;
#X connect 63 0 68 0;
#X connect 64 0 63 1;
#X connect 65 0 90 0;
#X connect 66 0 63 0;
#X connect 67 0 70 0;
#X connect 68 0 69 0;
#X connect 69 0 71 0;
#X connect 72 0 90 0;
#X connect 72 1 66 0;
#X connect 73 0 72 0;
#X connect 74 0 90 0;
#X connect 75 0 72 0;
#X connect 76 0 77 0;
#X connect 77 0 60 0;
#X connect 78 0 82 0;
#X connect 80 0 81 0;
#X connect 81 0 78 0;
#X connect 83 0 0 0;
#X connect 84 0 5 0;
#X connect 85 0 7 0;
#X connect 86 0 8 0;
#X connect 89 0 51 0;
#X connect 89 0 62 0;
#X connect 90 0 63 0;
#X connect 90 0 74 0;
#X coords 0 -1 1 1 350 170 2 100 100;
#X restore 244 25 pd tlcl;
#X obj 281 301 _line;
#X text 246 6 Cue Time Line;
#X obj 226 554 abs/listCreation;
#N canvas 719 335 712 613 HELP 0;
#X text 22 215 using _delay and _line abstraction allow the use of
the global speed parametter.;
#X text 22 85 with "jump from start option" : when clicking on a cue
number \, all previous cue are send to ensure that no messages are
missed : no cue can be skiped.;
#X text 22 127 without "jump from start" \, a jump will react like
a "next" : only 1 cue is send.;
#X text 21 166 subpatch are provided in order to filter only last value
(float) when cue change (next or jump);
#X text 26 -49 Change cue_list.txt in order to create a sequence of
cue;
#X text 26 -15 absolute time and time since the last cue are displayed
;
#X text 26 8 a fader move when next cue will be automatically loaded
;
#X text 23 35 key control allow to go to next cue for every space bar
key pressed. This option is desactiveted when pressing control key
;
#X restore 132 545 pd HELP HERE;
#N canvas 611 429 450 346 useful 0;
#N canvas 1 100 450 300 filter_only_current_cue 0;
#X obj 42 163 spigot;
#X obj 75 52 r start_play_all_from;
#X msg 106 95 1;
#X msg 75 73 0;
#X obj 42 16 inlet;
#X obj 42 194 outlet;
#X obj 105 73 r before_fin_play_all_from;
#X connect 0 0 5 0;
#X connect 1 0 3 0;
#X connect 2 0 0 1;
#X connect 3 0 0 1;
#X connect 4 0 0 0;
#X connect 6 0 2 0;
#X restore 36 48 pd filter_only_current_cue;
#N canvas 305 103 450 323 filter_last_only 0;
#X obj 42 163 spigot;
#X obj 75 52 r start_play_all_from;
#X obj 105 73 r fin_play_all_from;
#X msg 132 115 1;
#X msg 75 73 0;
#X obj 105 94 t b b;
#X obj 42 16 inlet;
#X obj 42 194 outlet;
#X obj 42 134 f;
#X connect 0 0 7 0;
#X connect 1 0 4 0;
#X connect 2 0 5 0;
#X connect 3 0 0 1;
#X connect 4 0 0 1;
#X connect 5 0 8 0;
#X connect 5 1 3 0;
#X connect 6 0 8 0;
#X connect 8 0 0 0;
#X restore 36 26 pd filter_last_only;
#X obj 36 118 _line;
#X obj 124 118 _delay;
#N canvas 229 307 716 630 delaySend 0;
#X obj 109 44 _delay;
#X obj 109 19 r delaySend;
#X obj 119 153 send;
#X obj 109 66 list split 1;
#X obj 119 121 list;
#X obj 78 94 t b s;
#X obj 244 19 inlet;
#X connect 0 0 3 0;
#X connect 1 0 0 0;
#X connect 3 0 5 0;
#X connect 3 1 4 1;
#X connect 4 0 2 0;
#X connect 5 0 4 0;
#X connect 5 1 2 1;
#X connect 6 0 0 1;
#X restore 25 223 pd delaySend;
#N canvas 229 307 716 630 delaySend2 0;
#X obj 109 44 _delay;
#X obj 119 153 send;
#X obj 109 66 list split 1;
#X obj 119 121 list;
#X obj 78 94 t b s;
#X obj 109 19 r delaySend2;
#X obj 227 20 inlet;
#X connect 0 0 2 0;
#X connect 2 0 4 0;
#X connect 2 1 3 1;
#X connect 3 0 1 0;
#X connect 4 0 3 0;
#X connect 4 1 1 1;
#X connect 5 0 0 0;
#X connect 6 0 0 1;
#X restore 113 223 pd delaySend2;
#N canvas 229 307 716 630 delaySend3 0;
#X obj 109 44 _delay;
#X obj 119 153 send;
#X obj 109 66 list split 1;
#X obj 119 121 list;
#X obj 78 94 t b s;
#X obj 109 19 r delaySend3;
#X obj 235 19 inlet;
#X connect 0 0 2 0;
#X connect 2 0 4 0;
#X connect 2 1 3 1;
#X connect 3 0 1 0;
#X connect 4 0 3 0;
#X connect 4 1 1 1;
#X connect 5 0 0 0;
#X connect 6 0 0 1;
#X restore 210 223 pd delaySend3;
#X obj 197 94 r jump_end_line;
#X obj 207 154 t b b b;
#X connect 7 0 3 1;
#X connect 7 0 8 0;
#X connect 8 0 6 0;
#X connect 8 1 5 0;
#X connect 8 2 4 0;
#X restore 133 510 pd useful subpatches;
#X obj 566 518 print To tcp;
#X obj 450 344 r cmd;
#X obj 517 373 r delayed;
#X obj 517 395 print delayed;
#X obj 25 25 onecue;
#X obj 25 40 onecue;
#X obj 25 55 onecue;
#X obj 25 70 onecue;
#X obj 25 85 onecue;
#X obj 25 100 onecue;
#X obj 25 115 onecue;
#X obj 25 130 onecue;
#X obj 25 145 onecue;
#X obj 25 160 onecue;
#X obj 25 175 onecue;
#X obj 25 190 onecue;
#X obj 25 205 onecue;
#X obj 25 220 onecue;
#X obj 25 235 onecue;
#X obj 25 250 onecue;
#X obj 25 265 onecue;
#X obj 25 280 onecue;
#X obj 25 295 onecue;
#X obj 25 310 onecue;
#X obj 25 325 onecue;
#X obj 25 340 onecue;
#X obj 25 355 onecue;
#X obj 25 370 onecue;
#X obj 25 385 onecue;
#X obj 25 400 onecue;
#X obj 25 415 onecue;
#X obj 25 430 onecue;
#X obj 25 445 onecue;
#X obj 25 460 onecue;
#X obj 25 475 onecue;
#X obj 25 490 onecue;
#X obj 530 651 netserver 11999;
#X obj 530 615 r to_netserver;
#X obj 267 425 f;
#X obj 281 323 t b f;
#X obj 566 428 list;
#X obj 527 467 list trim;
#X msg 319 438 client 1 move_surface \$1 0;
#X obj 269 381 bang_filter 10;
#X obj 713 460 tgl 15 0 empty empty empty 17 7 0 10 -262144 -1 -1 1
1;
#X msg 696 512 client 1 drawWarpers \$1;
#X msg 727 380 client 1 create_surface;
#X floatatom 717 318 5 0 0 0 - - -, f 5;
#X msg 757 436 client 1 select_surface \$1;
#N canvas -8 -8 1904 1009 colors 0;
#X obj 107 246 outlet;
#X msg 134 96 client 1 warpers_colors basic_corn \$1 \$2 \$3;
#X msg 185 121 client 1 warpers_colors basic_rect \$1 \$2 \$3;
#X floatatom 407 24 5 0 0 0 - - -, f 5;
#X msg 405 55 255 0 0;
#X msg 493 74 0 255 0;
#X msg 229 248 client 1 warpers_colors selsurf_rect selsurf_rect selsurf_rect
selsurf_rect;
#X msg 459 337 0 255 0 \$1;
#X obj 546 273 hsl 64 15 0 63 0 0 empty empty empty -2 -8 0 10 -262144
-1 -1 1600 1;
#X floatatom 546 315 5 0 0 0 - - -, f 5;
#X obj 546 293 * 4;
#X msg 213 148 client 1 warpers_colors selsurf_corn \$1 \$2 \$3;
#X msg 136 34 255 127 255;
#X msg 270 32 255 127 255;
#X msg 241 182 client 1 warpers_colors selsurf_rect \$1 \$2 \$3;
#X msg 597 96 63 255 63;
#X msg 595 157 63 255 63;
#X connect 1 0 0 0;
#X connect 2 0 0 0;
#X connect 3 0 4 0;
#X connect 6 0 0 0;
#X connect 8 0 10 0;
#X connect 10 0 9 0;
#X connect 10 0 7 0;
#X connect 11 0 0 0;
#X connect 12 0 1 0;
#X connect 13 0 2 0;
#X connect 14 0 0 0;
#X connect 15 0 11 0;
#X connect 16 0 14 0;
#X restore 732 651 pd colors;
#X msg 535 233 client 1 create_surface + move_surface 50 50 + create_surface
+ move_surface 200 80 + create_surface + move_surface 250 150;
#X obj 538 741 print C++_PROGRAM;
#X msg 706 573 client 1 settings true + load_video 0;
#X msg 799 463 client 1 pause true;
#X obj 780 298 hdl 15 1 0 8 \$5 \$5 empty 20 8 0 8 -262144 -1 -1 0
;
#X connect 1 0 14 0;
#X connect 2 0 5 0;
#X connect 5 0 49 0;
#X connect 11 0 51 0;
#X connect 12 0 13 0;
#X connect 14 0 15 0;
#X connect 15 0 16 0;
#X connect 16 0 17 0;
#X connect 17 0 18 0;
#X connect 18 0 19 0;
#X connect 19 0 20 0;
#X connect 20 0 21 0;
#X connect 21 0 22 0;
#X connect 22 0 23 0;
#X connect 23 0 24 0;
#X connect 24 0 25 0;
#X connect 25 0 26 0;
#X connect 26 0 27 0;
#X connect 27 0 28 0;
#X connect 28 0 29 0;
#X connect 29 0 30 0;
#X connect 30 0 31 0;
#X connect 31 0 32 0;
#X connect 32 0 33 0;
#X connect 33 0 34 0;
#X connect 34 0 35 0;
#X connect 35 0 36 0;
#X connect 36 0 37 0;
#X connect 37 0 38 0;
#X connect 38 0 39 0;
#X connect 39 0 40 0;
#X connect 40 0 41 0;
#X connect 41 0 42 0;
#X connect 42 0 43 0;
#X connect 43 0 44 0;
#X connect 44 0 45 0;
#X connect 45 0 0 0;
#X connect 46 0 61 0;
#X connect 47 0 46 0;
#X connect 48 0 3 0;
#X connect 48 0 52 0;
#X connect 49 0 53 0;
#X connect 49 1 48 1;
#X connect 51 0 10 0;
#X connect 51 0 46 0;
#X connect 52 0 51 0;
#X connect 53 0 48 0;
#X connect 54 0 55 0;
#X connect 55 0 46 0;
#X connect 56 0 46 0;
#X connect 57 0 58 0;
#X connect 58 0 46 0;
#X connect 59 0 46 0;
#X connect 60 0 46 0;
#X connect 62 0 46 0;
#X connect 63 0 46 0;
#X connect 64 0 57 0;
