#N canvas 822 83 965 670 16;
#X declare -path ../TOOLS;
#X obj 464 500 *~ 1;
#X obj 473 534 dac~;
#X obj 637 470 hsl 128 15 0 1 0 0 empty empty empty -2 -8 0 10 -262144
-1 -1 0 1;
#X text 563 133 endangered species;
#X obj 513 500 *~ 1;
#X obj 189 157 tgl 15 0 empty empty empty 17 7 0 10 -262144 -1 -1 0
1;
#X floatatom 118 261 5 0 0 0 - - -;
#X msg 205 279 41;
#X msg 257 278 42;
#X obj 175 453 voix;
#X obj 465 468 catch~ Left;
#X obj 514 441 catch~ Right;
#X floatatom 330 165 5 0 0 0 - - -;
#X msg 325 218 \$1 1000;
#X msg 397 178 41;
#X msg 449 177 35;
#X obj 327 270 line 0 20;
#X msg 288 421 timbre;
#X obj 205 187 metro 3000;
#X msg 175 350 end 1000 \, timbre \, timbre phase \, envelope 10 3000
10 \, \$1 \, filtre cosline 20 70 1000 20 300;
#X obj 603 263 print;
#X obj 510 35 loadbang;
#X obj 510 116 path ../TOOLS;
#X msg 510 68 append C:/pd/extra/zexy;
#X obj 457 78 bng 15 250 50 0 empty empty empty 17 7 0 10 -262144 -1
-1;
#X msg 381 76 rewind;
#X connect 0 0 1 0;
#X connect 2 0 0 1;
#X connect 2 0 4 1;
#X connect 4 0 1 1;
#X connect 5 0 18 0;
#X connect 6 0 19 0;
#X connect 7 0 19 0;
#X connect 8 0 19 0;
#X connect 10 0 0 0;
#X connect 11 0 4 0;
#X connect 12 0 13 0;
#X connect 13 0 16 0;
#X connect 14 0 13 0;
#X connect 15 0 13 0;
#X connect 16 0 19 0;
#X connect 17 0 9 0;
#X connect 18 0 7 0;
#X connect 19 0 9 0;
#X connect 21 0 23 0;
#X connect 22 0 20 0;
#X connect 23 0 22 0;
#X connect 24 0 22 0;
#X connect 25 0 22 0;
