#N canvas 819 386 450 300 12;
#X obj 152 158 panizer;
#X obj 208 38 inlet;
#X obj 131 216 throw~ Left;
#X obj 216 216 throw~ Right;
#X obj 132 122 oscoscs;
#X obj 219 122 oscoscs;
#X connect 0 0 2 0;
#X connect 0 1 3 0;
#X connect 1 0 4 0;
#X connect 1 0 5 0;
#X connect 4 0 0 0;
#X connect 5 0 0 1;
