#N canvas -8 -8 1904 986 12;
#X floatatom 101 22 5 0 0 0 - - -, f 5;
#X obj 114 154 f;
#X msg 140 63 1;
#X msg 81 63 -1;
#X obj 114 97 +;
#X obj 139 22 bng 19 250 50 0 empty empty empty 17 7 0 10 -262144 -1
-1;
#X obj 81 22 bng 19 250 50 0 empty empty empty 17 7 0 10 -262144 -1
-1;
#X obj 114 235 outlet;
#X obj 159 22 tgl 19 0 empty empty empty 17 7 0 10 -262144 -1 -1 1
1;
#X obj 114 125 t b f;
#X obj 114 201 spigot;
#X obj 159 127 sel 1;
#X obj 159 152 t b 1;
#X obj 255 152 spigot;
#X connect 0 0 4 1;
#X connect 0 0 13 0;
#X connect 1 0 10 0;
#X connect 2 0 4 0;
#X connect 3 0 4 0;
#X connect 4 0 0 0;
#X connect 4 0 9 0;
#X connect 5 0 2 0;
#X connect 6 0 3 0;
#X connect 8 0 11 0;
#X connect 8 0 13 1;
#X connect 9 0 1 0;
#X connect 9 1 1 1;
#X connect 10 0 7 0;
#X connect 11 0 12 0;
#X connect 11 1 10 1;
#X connect 12 0 1 0;
#X connect 12 1 10 1;
#X connect 13 0 7 0;
#X coords 0 -1 1 1 99 21 2 80 21;
