#N canvas 0 0 1888 970 10;
#X obj 222 25 inlet;
#X obj 192 333 outlet;
#X obj 337 21 inlet;
#X obj 145 176 spigot 1;
#X obj 252 142 == 0;
#X obj 215 142 f 0;
#X obj 145 207 t b b b;
#X obj 232 208 delay \$1;
#X obj 209 71 t b;
#X connect 0 0 8 0;
#X connect 2 0 7 1;
#X connect 3 0 6 0;
#X connect 4 0 5 1;
#X connect 5 0 4 0;
#X connect 5 0 3 1;
#X connect 6 0 7 0;
#X connect 6 1 5 0;
#X connect 6 2 1 0;
#X connect 7 0 5 0;
#X connect 8 0 3 0;
