#N canvas 1104 370 678 386 10;
#X obj 16 96 rfft~;
#X obj 76 280 metro 100;
#X obj 76 258 tgl 15 1 empty empty empty 17 7 0 10 -262144 -1 -1 1
1;
#X obj 15 153 *~;
#X obj 43 153 *~;
#X obj 103 113 block~ 512;
#X obj 24 186 /~ 256;
#X obj 46 47 inlet~;
#N canvas 0 0 450 300 (subpatch) 0;
#X array \$0-analysis 256 float 0;
#X coords 0 10 255 -20 400 280 1 0 0;
#X restore 211 43 graph;
#X obj 58 309 tabwrite~ \$0-analysis;
#X obj 25 211 *~ 10;
#X obj 25 236 log~ 10;
#X connect 0 0 3 0;
#X connect 0 0 3 1;
#X connect 0 1 4 0;
#X connect 0 1 4 1;
#X connect 1 0 9 0;
#X connect 2 0 1 0;
#X connect 3 0 6 0;
#X connect 4 0 6 0;
#X connect 6 0 10 0;
#X connect 7 0 0 0;
#X connect 10 0 11 0;
#X connect 11 0 9 0;
#X coords 0 -1 1 1 402 315 1 210 10;
