#N canvas 187 14 583 672 10;
#X obj 260 421 cos~;
#X obj 315 234 delay;
#X obj 342 210 -;
#X obj 399 269 f;
#X obj 179 242 f;
#X obj 324 175 f;
#X obj 194 87 inlet attack;
#X obj 102 88 inlet;
#X obj 283 87 inlet duree(totale);
#X obj 429 87 inlet decay;
#X obj 259 497 outlet~;
#X msg 188 298 -0.5 \, 0 \$1;
#X msg 399 297 -0.5 \$1;
#X obj 259 445 *~ 0.5;
#X obj 259 468 +~ 0.5;
#X obj 260 325 loadbang;
#X msg 260 347 0.5;
#X obj 251 179 t b b b;
#X obj 414 243 f;
#X obj 260 387 line~;
#X obj 102 124 route end;
#X msg 102 298 -0.5 \$1;
#X connect 0 0 13 0;
#X connect 1 0 3 0;
#X connect 2 0 1 1;
#X connect 3 0 12 0;
#X connect 4 0 11 0;
#X connect 5 0 2 0;
#X connect 6 0 4 1;
#X connect 7 0 20 0;
#X connect 8 0 5 1;
#X connect 9 0 18 1;
#X connect 9 0 2 1;
#X connect 11 0 19 0;
#X connect 12 0 19 0;
#X connect 13 0 14 0;
#X connect 14 0 10 0;
#X connect 15 0 16 0;
#X connect 16 0 19 0;
#X connect 17 0 4 0;
#X connect 17 1 1 0;
#X connect 17 2 5 0;
#X connect 17 2 18 0;
#X connect 18 0 3 1;
#X connect 19 0 0 0;
#X connect 20 0 21 0;
#X connect 20 1 17 0;
#X connect 21 0 19 0;
