#N canvas 663 62 630 506 12;
#X obj 178 241 line~;
#X msg 184 213 -0.5;
#X obj 246 170 t f b;
#X obj 179 265 cos~;
#X obj 178 314 *~ 0.5;
#X obj 179 288 +~ 1;
#X msg 178 171 0;
#X obj 89 217 -;
#X obj 177 350 *~ 1;
#X obj 89 187 t f f b;
#X obj 94 270 f 0;
#X obj 176 433 outlet~;
#X obj 178 90 inlet;
#X obj 178 114 bondo;
#X obj 231 66 inlet;
#X msg 231 90 set \$1;
#X text 309 63 INLET 1;
#X text 309 83 send pair of float values:;
#X text 309 96 <target> <time>;
#X text 309 263 INLET 2;
#X text 309 283 float: <time>;
#X obj 176 397 +~ -1;
#X text 309 122 if you send only 1st value \,;
#X text 309 136 cosline~ will use last <time> value;
#X text 309 151 0 by default;
#X text 309 211 you can initialize ramp by using:;
#X text 309 224 <ini> \, <target> <time>;
#X text 309 181 when you send new values \, it jumps from;
#X text 309 194 old request to new one instantly. That means;
#X connect 0 0 3 0;
#X connect 1 0 0 0;
#X connect 2 0 0 1;
#X connect 2 1 1 0;
#X connect 3 0 5 0;
#X connect 4 0 8 0;
#X connect 5 0 4 0;
#X connect 6 0 0 0;
#X connect 7 0 8 1;
#X connect 8 0 21 0;
#X connect 9 0 7 1;
#X connect 9 1 7 0;
#X connect 9 1 10 1;
#X connect 9 2 10 0;
#X connect 10 0 21 1;
#X connect 12 0 13 0;
#X connect 13 0 6 0;
#X connect 13 0 9 0;
#X connect 13 1 2 0;
#X connect 14 0 15 0;
#X connect 15 0 13 1;
#X connect 21 0 11 0;
