#N canvas 822 126 363 659 10;
#X obj 142 -62 notein;
#X msg 99 180 clear;
#X obj 210 284 pack;
#X obj 204 2 sel 0;
#X obj 204 52 counter;
#X msg 232 26 inc;
#X msg 198 26 dec;
#X obj 204 73 sel 0;
#X obj 148 -28 t f f;
#X obj 114 249 t b f;
#X obj 156 249 f;
#X obj 99 160 spigot;
#X msg 220 99 0;
#X msg 186 99 1;
#X obj 115 -2 t f f;
#X obj 142 210 poly 3;
#X obj 141 310 gate 3 1 1 1;
#X obj 64 453 outlet;
#X obj 147 443 outlet;
#X obj 232 426 outlet;
#X connect 0 0 14 0;
#X connect 0 1 8 0;
#X connect 1 0 15 0;
#X connect 2 0 16 1;
#X connect 3 0 6 0;
#X connect 3 1 5 0;
#X connect 4 0 7 0;
#X connect 5 0 4 0;
#X connect 6 0 4 0;
#X connect 7 0 13 0;
#X connect 7 1 12 0;
#X connect 8 0 3 0;
#X connect 8 1 15 1;
#X connect 9 0 10 0;
#X connect 9 1 16 0;
#X connect 10 0 2 0;
#X connect 11 0 1 0;
#X connect 12 0 11 1;
#X connect 13 0 11 1;
#X connect 14 0 11 0;
#X connect 14 1 15 0;
#X connect 15 0 9 0;
#X connect 15 1 10 1;
#X connect 15 2 2 1;
#X connect 16 0 17 0;
#X connect 16 1 18 0;
#X connect 16 2 19 0;
