#N canvas 999 124 621 822 10;
#X obj 222 234 soundfiler;
#X obj 222 390 line~;
#X obj 244 83 loadbang;
#X obj 221 610 *~ 1;
#X obj 271 610 *~ 1;
#X obj 293 146 \$0;
#X obj 396 348 table \$0sonL;
#X obj 481 348 table \$0sonR;
#X obj 71 219 inlet;
#X obj 182 293 b;
#X obj 221 690 outlet~;
#X obj 272 690 outlet~;
#X obj 222 146 openpanel;
#X obj 244 107 t b b;
#X msg 222 207 read -resize \$1 \$2sonL \$2sonR;
#X obj 222 174 pack s f;
#X obj 222 34 inlet;
#X obj 237 266 / 44.1;
#X obj 222 421 *~ 1;
#X msg 222 365 0 \, 1 \$1;
#X obj 222 310 f;
#X obj 424 249 / 1000;
#X msg 423 163 read \$1;
#X text 451 216 Samplerate/ms;
#X text 226 52 chercher un son nouveau;
#X text 402 626 Cyril Communal 2012;
#X text 37 80 as quickly as you can on pd;
#X text 37 66 opensnd~ plays a soundfile;
#X text 37 95 wave aiff or raw;
#X obj 93 396 delay;
#X obj 222 333 t f b f;
#X obj 71 248 route loop stoploop;
#X obj 93 422 spigot;
#X msg 71 293 1;
#X msg 126 293 0;
#X text 39 154 to the first inlet;
#X text 29 142 - send 'loop' or 'stoploop';
#X text 29 124 - bang plays from beginning;
#X msg 424 217 \$1;
#X obj 424 185 iemlib/soundfile_info;
#X obj 222 537 tabread4~ \$0sonL;
#X obj 256 558 tabread4~ \$0sonR;
#X connect 0 0 17 0;
#X connect 0 0 18 1;
#X connect 1 0 18 0;
#X connect 2 0 13 0;
#X connect 3 0 10 0;
#X connect 4 0 11 0;
#X connect 5 0 15 1;
#X connect 8 0 31 0;
#X connect 9 0 20 0;
#X connect 12 0 15 0;
#X connect 12 0 22 0;
#X connect 13 0 12 0;
#X connect 13 1 5 0;
#X connect 14 0 0 0;
#X connect 15 0 14 0;
#X connect 16 0 12 0;
#X connect 17 0 20 1;
#X connect 18 0 40 0;
#X connect 18 0 41 0;
#X connect 19 0 1 0;
#X connect 20 0 30 0;
#X connect 21 0 17 1;
#X connect 22 0 39 0;
#X connect 29 0 32 0;
#X connect 30 0 19 0;
#X connect 30 1 29 0;
#X connect 30 2 29 1;
#X connect 31 0 33 0;
#X connect 31 1 34 0;
#X connect 31 2 9 0;
#X connect 32 0 20 0;
#X connect 33 0 32 1;
#X connect 34 0 32 1;
#X connect 38 0 21 0;
#X connect 39 0 38 0;
#X connect 40 0 3 0;
#X connect 41 0 4 0;
