#N canvas 473 0 942 970 10;
#X obj 100 349 counter;
#X msg 17 488 start;
#X msg 68 488 stop;
#X obj 69 289 sel 1 0;
#X obj 69 263 inlet;
#X obj 175 593 inlet~;
#X obj 78 316 t b b b b;
#X obj 100 427 symbol;
#X obj 117 461 makefilename %s.wav;
#X obj 213 263 loadbang;
#X obj 213 349 symbol \$1;
#X obj 117 635 writesf~ 1;
#X obj 280 263 inlet;
#X obj 100 377 pack f f f f f f s;
#X obj 280 294 t a b;
#X obj 307 315 symbol \$1;
#X obj 280 505 b;
#X obj 280 338 list;
#X msg 117 488 open -bytes 3 ../RECs/\$1;
#X text 87 91 you have to create a folder "../RECS/";
#X text 87 104 It means next to "tools" folder \, you add "RECs" folder.
;
#X text 39 207 toggle to start/stop;
#X text 39 193 INLET 1;
#X msg 344 271 aaa;
#X text 38 156 <arg><-opt_insert>_<year>-<month>-<day>--<count>;
#X text 38 138 Wav file title logic :;
#X text 199 207 send message to insert into the wav title;
#X text 87 78 BEFORE ANY USE :;
#X text 199 193 INLET 2 (Non-Signal);
#X text 37 29 rec1 for 1 channel files;
#X text 37 41 rec2 for 2 channels files;
#X text 419 366 \$1 counter;
#X text 419 388 \$2 day;
#X text 419 410 \$3 month;
#X text 419 432 \$4 year;
#X text 419 454 \$5 hour;
#X text 419 476 \$6 minutes;
#X msg 420 548 \$7_\$4-\$3-\$2--\$5h\$6--\$1;
#X text 419 571 PsyBass_2018-11-10--18h40--11.wav;
#X text 419 498 \$7 (opt inlet2 symbol_)object name;
#X msg 280 360 symbol \$1_\$2;
#X msg 100 400 \$7_\$4-\$3-\$2--\$5h\$6--\$1;
#X obj 159 308 zexy/date;
#X obj 178 329 zexy/time;
#X connect 0 0 13 0;
#X connect 1 0 11 0;
#X connect 2 0 11 0;
#X connect 2 0 16 0;
#X connect 3 0 6 0;
#X connect 3 1 2 0;
#X connect 4 0 3 0;
#X connect 5 0 11 0;
#X connect 6 0 1 0;
#X connect 6 1 0 0;
#X connect 6 2 42 0;
#X connect 6 3 43 0;
#X connect 7 0 8 0;
#X connect 8 0 18 0;
#X connect 9 0 10 0;
#X connect 10 0 13 6;
#X connect 12 0 14 0;
#X connect 13 0 41 0;
#X connect 14 0 17 0;
#X connect 14 1 15 0;
#X connect 15 0 17 1;
#X connect 16 0 10 0;
#X connect 17 0 40 0;
#X connect 18 0 11 0;
#X connect 23 0 14 0;
#X connect 40 0 13 6;
#X connect 41 0 7 0;
#X connect 42 0 13 3;
#X connect 42 1 13 2;
#X connect 42 2 13 1;
#X connect 43 0 13 4;
#X connect 43 1 13 5;
