#N canvas 0 0 1888 970 10;
#X obj 100 315 counter;
#X msg 17 454 start;
#X msg 68 454 stop;
#X obj 69 255 sel 1 0;
#X obj 69 229 inlet;
#X obj 175 559 inlet~;
#X obj 78 282 t b b b b;
#X obj 100 393 symbol;
#X obj 117 427 makefilename %s.wav;
#X obj 273 229 loadbang;
#X obj 273 315 symbol \$1;
#X obj 340 229 inlet;
#X msg 100 366 \$7_\$2-\$3-\$4--\$5h\$6--\$1;
#X obj 100 343 pack f f f f f f s;
#X obj 340 260 t a b;
#X obj 367 281 symbol \$1;
#X msg 340 326 symbol \$1-\$2;
#X obj 280 471 b;
#X obj 340 304 list;
#X obj 117 601 writesf~ 2;
#X obj 238 559 inlet~;
#X msg 117 454 open -bytes 3 ../RECs/\$1;
#X text 79 88 It means next to "tools" folder \, you add "RECs" folder.
;
#X text 31 191 toggle to start/stop;
#X text 31 177 INLET 1;
#X text 30 140 <arg><-opt_insert>_<year>-<month>-<day>--<count>;
#X text 30 122 Wav file title logic :;
#X text 191 191 send message to insert into the wav title;
#X text 79 62 BEFORE ANY USE :;
#X text 191 177 INLET 2 (Non-Signal);
#X text 27 19 rec1 for 1 channel files;
#X text 27 31 rec2 for 2 channels files;
#X obj 178 265 zexy/date;
#X obj 216 292 zexy/time;
#X text 79 75 you have to create a folder "../RECs/";
#X connect 0 0 13 0;
#X connect 1 0 19 0;
#X connect 2 0 17 0;
#X connect 2 0 19 0;
#X connect 3 0 6 0;
#X connect 3 1 2 0;
#X connect 4 0 3 0;
#X connect 5 0 19 0;
#X connect 6 0 1 0;
#X connect 6 1 0 0;
#X connect 6 2 32 0;
#X connect 6 3 33 0;
#X connect 7 0 8 0;
#X connect 8 0 21 0;
#X connect 9 0 10 0;
#X connect 10 0 13 6;
#X connect 11 0 14 0;
#X connect 12 0 7 0;
#X connect 13 0 12 0;
#X connect 14 0 18 0;
#X connect 14 1 15 0;
#X connect 15 0 18 1;
#X connect 16 0 13 6;
#X connect 17 0 10 0;
#X connect 18 0 16 0;
#X connect 20 0 19 1;
#X connect 21 0 19 0;
#X connect 32 0 13 3;
#X connect 32 1 13 2;
#X connect 32 2 13 1;
#X connect 33 0 13 4;
#X connect 33 1 13 5;
