#N canvas 0 0 1888 970.125 10;
#X obj 147 26 inlet;
#X obj 192 333 outlet;
#X obj 296 28 inlet;
#X obj 145 176 spigot 1;
#X obj 252 142 == 0;
#X obj 215 142 f 0;
#X obj 232 208 delay \$1;
#X text 311 97 allows bang output only every <arg1> mS;
#X obj 147 72 t a;
#X obj 145 207 t b b a;
#X connect 0 0 8 0;
#X connect 2 0 6 1;
#X connect 3 0 9 0;
#X connect 4 0 5 1;
#X connect 5 0 4 0;
#X connect 5 0 3 1;
#X connect 6 0 5 0;
#X connect 8 0 3 0;
#X connect 9 0 6 0;
#X connect 9 1 5 0;
#X connect 9 2 1 0;
