#N canvas 478 15 428 450 10;
#X obj 50 262 inlet~;
#X obj 133 267 inlet~;
#X obj 245 272 inlet~;
#X obj 51 299 *~;
#X obj 134 300 *~;
#X obj 244 310 *~;
#X obj 134 380 outlet~;
#X obj 86 212 *~ -1;
#X obj 170 209 *~ -1;
#X obj 221 210 *~ -1;
#X obj 186 74 phasor~;
#X obj 66 236 +~ 1;
#X obj 149 232 +~ 1;
#X obj 64 163 clip~ 0 1;
#X obj 147 163 clip~ 1 2;
#X obj 279 163 clip~ 2 3;
#X obj 186 96 *~ 3;
#X obj 279 213 -~ 2;
#X obj 257 236 +~ 1;
#X obj 349 19 inlet~;
#X obj 391 19 inlet;
#X connect 0 0 3 0;
#X connect 1 0 4 0;
#X connect 2 0 5 0;
#X connect 3 0 6 0;
#X connect 4 0 6 0;
#X connect 5 0 6 0;
#X connect 7 0 11 0;
#X connect 8 0 12 0;
#X connect 9 0 18 0;
#X connect 10 0 16 0;
#X connect 11 0 3 1;
#X connect 12 0 4 1;
#X connect 13 0 11 0;
#X connect 13 0 9 0;
#X connect 14 0 7 0;
#X connect 14 0 12 0;
#X connect 15 0 8 0;
#X connect 15 0 17 0;
#X connect 16 0 13 0;
#X connect 16 0 14 0;
#X connect 16 0 15 0;
#X connect 17 0 18 0;
#X connect 18 0 5 1;
#X connect 19 0 10 0;
#X connect 20 0 10 1;
