#N canvas 0 0 1888 970.188 12;
#X obj 116 44 inlet;
#X obj 169 69 inlet;
#X obj 169 284 outlet;
#X obj 116 227 sel;
#X obj 116 175 counter;
#X obj 116 123 t 1 f;
#X obj 116 253 t 1 0;
#X obj 116 149 metro \$1;
#X obj 116 201 t f b;
#X obj 223 94 inlet;
#X msg 223 121 0;
#X text 161 44 number of time it will bang. 0 = infinite !;
#X text 267 94 anything will stop banging;
#X text 214 69 milliseconds between bangs (also arg1);
#X connect 0 0 5 0;
#X connect 1 0 7 1;
#X connect 3 0 6 0;
#X connect 4 0 8 0;
#X connect 5 0 7 0;
#X connect 5 1 3 1;
#X connect 6 0 4 2;
#X connect 6 1 7 0;
#X connect 7 0 4 0;
#X connect 8 0 3 0;
#X connect 8 1 2 0;
#X connect 9 0 10 0;
#X connect 10 0 7 0;
