#N canvas 683 580 477 332 10;
#X obj 38 56 osc~;
#X obj 156 62 ceff~;
#N canvas 740 490 559 388 switch 0;
#X obj 76 27 inlet~;
#X obj 202 32 inlet~;
#X obj 340 36 inlet~;
#X obj 236 105 /;
#X msg 236 81 1 3;
#X obj 105 159 clip~ 0 0.3;
#X obj 279 106 /;
#X msg 279 82 2 3;
#X obj 251 154 clip~ 0 0.3;
#X obj 397 149 clip~ 0 1;
#X obj 75 210 *~;
#X obj 253 199 -~ 1;
#X obj 393 189 -~ 1;
#X obj 201 227 *~;
#X obj 342 227 *~;
#X obj 440 113 +~ 0.5;
#X obj 201 322 outlet~;
#X obj 440 59 tri~;
#X obj 440 89 *~ 1;
#X obj 440 33 inlet;
#X obj 257 52 loadbang;
#X connect 0 0 10 0;
#X connect 1 0 13 0;
#X connect 2 0 14 0;
#X connect 3 0 5 2;
#X connect 3 0 8 1;
#X connect 3 0 11 1;
#X connect 4 0 3 0;
#X connect 5 0 10 1;
#X connect 6 0 8 2;
#X connect 6 0 9 1;
#X connect 6 0 12 1;
#X connect 7 0 6 0;
#X connect 8 0 11 0;
#X connect 9 0 12 0;
#X connect 10 0 16 0;
#X connect 11 0 13 1;
#X connect 12 0 14 1;
#X connect 13 0 16 0;
#X connect 14 0 16 0;
#X connect 15 0 5 0;
#X connect 15 0 8 0;
#X connect 15 0 9 0;
#X connect 17 0 18 0;
#X connect 18 0 15 0;
#X connect 19 0 17 0;
#X connect 20 0 4 0;
#X connect 20 0 7 0;
#X restore 103 97 pd switch;
#X obj 98 40 tri~;
#X obj 139 30 tri~;
#X obj 110 14 f;
#X obj 110 -11 mtof;
#X obj 135 159 *~;
#X obj 220 84 line~;
#X obj 220 42 / 127;
#X obj 110 -103 inlet;
#X obj 136 197 outlet~;
#X obj 187 29 inlet;
#X obj 110 -58 unpack f f;
#X obj 110 -34 stripnote;
#X msg 110 -81 \$2 \$3;
#X msg 220 64 \$1 5;
#X connect 0 0 2 0;
#X connect 1 0 2 2;
#X connect 2 0 7 0;
#X connect 3 0 2 1;
#X connect 4 0 1 0;
#X connect 5 0 0 0;
#X connect 5 0 3 0;
#X connect 5 0 4 0;
#X connect 5 0 2 3;
#X connect 6 0 5 0;
#X connect 7 0 11 0;
#X connect 8 0 7 1;
#X connect 9 0 16 0;
#X connect 10 0 15 0;
#X connect 12 0 1 1;
#X connect 13 0 14 0;
#X connect 13 1 14 1;
#X connect 13 1 9 0;
#X connect 14 0 6 0;
#X connect 15 0 13 0;
#X connect 16 0 8 0;
