#N canvas 487 332 450 300 10;
#X obj 191 56 notein;
#X floatatom 207 115 5 0 0 0 - - -;
#X floatatom 261 112 5 0 0 0 - - -;
#X floatatom 310 114 5 0 0 0 - - -;
#X obj 121 139 mtof;
#N canvas 175 415 450 298 env 1;
#X obj 182 42 inlet;
#X obj 194 165 line~;
#X obj 192 101 / 127;
#X obj 202 227 outlet~;
#X msg 191 131 \$1 100;
#X obj 183 66 sel 0;
#X connect 0 0 5 0;
#X connect 1 0 3 0;
#X connect 2 0 4 0;
#X connect 4 0 1 0;
#X connect 5 1 2 0;
#X restore 249 181 pd env;
#X obj 170 218 *~;
#X obj 133 174 osc~;
#X obj 169 261 dac~;
#N canvas 579 468 861 509 oscs 1;
#X obj 106 165 osc~;
#X obj 176 18 inlet;
#X obj 106 125 line~;
#X obj 112 56 t f b;
#X obj 152 234 outlet~;
#X obj 255 170 osc~;
#X obj 255 130 line~;
#X obj 261 61 t f b;
#X obj 295 100 random 5000;
#X obj 147 95 random 5000;
#X floatatom 345 165 5 0 0 0 - - -;
#X floatatom 161 141 5 0 0 0 - - -;
#X obj 429 162 osc~;
#X obj 429 122 line~;
#X obj 435 53 t f b;
#X obj 469 92 random 5000;
#X floatatom 519 157 5 0 0 0 - - -;
#X obj 585 165 osc~;
#X obj 585 125 line~;
#X obj 591 56 t f b;
#X obj 625 95 random 5000;
#X floatatom 675 160 5 0 0 0 - - -;
#X obj 243 99 * 1.02;
#X obj 574 94 * 1.01;
#X obj 417 91 * 0.98;
#X connect 0 0 4 0;
#X connect 1 0 3 0;
#X connect 1 0 7 0;
#X connect 1 0 14 0;
#X connect 1 0 19 0;
#X connect 2 0 0 0;
#X connect 3 0 2 0;
#X connect 3 1 9 0;
#X connect 5 0 4 0;
#X connect 6 0 5 0;
#X connect 7 0 22 0;
#X connect 7 1 8 0;
#X connect 8 0 6 1;
#X connect 8 0 10 0;
#X connect 9 0 2 1;
#X connect 9 0 11 0;
#X connect 12 0 4 0;
#X connect 13 0 12 0;
#X connect 14 0 24 0;
#X connect 14 1 15 0;
#X connect 15 0 13 1;
#X connect 15 0 16 0;
#X connect 17 0 4 0;
#X connect 18 0 17 0;
#X connect 19 0 23 0;
#X connect 19 1 20 0;
#X connect 20 0 18 1;
#X connect 20 0 21 0;
#X connect 22 0 6 0;
#X connect 23 0 18 0;
#X connect 24 0 13 0;
#X restore 82 192 pd oscs;
#X obj 128 112 spigot;
#N canvas 0 0 450 300 traffic 1;
#X obj 220 64 inlet~;
#X obj 207 215 outlet~;
#X obj 219 101 /~ 4;
#X obj 259 164 ceff~;
#X obj 291 136 hsl 70 20 0 1 0 0 empty empty empty -2 -8 0 10 -262144
-1 -1 0 1;
#X obj 317 66 ctlin;
#X obj 305 105 / 127;
#X connect 0 0 2 0;
#X connect 2 0 3 0;
#X connect 3 0 1 0;
#X connect 4 0 3 1;
#X connect 5 0 6 0;
#X connect 6 0 4 0;
#X restore 84 215 pd traffic;
#X connect 0 0 1 0;
#X connect 0 0 10 0;
#X connect 0 1 2 0;
#X connect 0 1 5 0;
#X connect 0 1 10 1;
#X connect 0 2 3 0;
#X connect 4 0 7 0;
#X connect 4 0 9 0;
#X connect 5 0 6 1;
#X connect 6 0 8 0;
#X connect 6 0 8 1;
#X connect 9 0 11 0;
#X connect 10 0 4 0;
#X connect 11 0 6 0;
